<?xml version="1.0" encoding="UTF-8"?>
<svg id="Layer_1" data-name="Layer 1" xmlns="http://www.w3.org/2000/svg" viewBox="0 0 109.92 109.92">
  <defs>
    <style>
      .cls-1 {
        fill: #ffad0a;
      }
    </style>
  </defs>
  <path class="cls-1" d="m17.92,51.35c-.01-.27.14-.45.29-.65,1.47-2.09,3.1-4.06,4.82-5.94.07-.08.12-.18.18-.27.3-.15.49-.43.72-.66,1.64-1.69,3.4-3.25,5.25-4.69,5.37-4.17,11.33-7.18,17.86-9.08,3.99-1.17,8.05-1.99,12.24-2.04.3,0,.61.03.89-.11h5.09c.64.21,1.3.12,1.95.15,4.27.25,8.21,1.52,11.79,3.86,2.01,1.31,3.58,3.04,4.54,5.27.28.65.48,1.31.46,2.03,0,.29-.01.59.01.88.26,2.94-1.03,5.32-2.86,7.41-3.4,3.9-7.62,6.7-12.34,8.78-3.67,1.62-7.51,2.67-11.48,3.25-.57.08-1.14.15-1.71.18-2.1.09-4.21.28-6.32.15-1.09-.07-2.19-.04-3.26-.29-.1-.02-.22,0-.27-.2.51-.32,1.11-.34,1.67-.44,3.11-.6,6.23-1.15,9.3-1.98,3.16-.86,6.21-1.97,8.93-3.83,2.19-1.5,4.08-3.3,5.49-5.57.74-1.2,1.28-2.46,1.36-3.9.09-1.7-.54-3.1-1.65-4.31-1.32-1.44-2.96-2.43-4.74-3.17-2.6-1.1-5.31-1.66-8.14-1.71-1.97-.04-3.94-.05-5.91.05-3.89.19-7.71.87-11.44,2-5.86,1.77-11.16,4.6-15.93,8.42-.5.4-1.1.72-1.42,1.33-.3.08-.54.29-.74.49-1.16,1.11-2.35,2.2-3.38,3.44-.36.44-.74.88-1.21,1.21l-.04-.05Z"/>
  <path class="cls-1" d="m95.92,45.04c-.08.51-1.48,3.78-2.86,5.64-2.28,3.06-5.06,5.68-7.99,8.13-4.48,3.73-9.41,6.66-14.9,8.65-3.69,1.34-7.5,2.2-11.41,2.57-2.73.26-5.45.46-8.18-.03-1.92-.35-3.79-.88-5.49-1.86-3.66-2.11-4.89-5.1-4.18-9.06.83-4.63,3.28-8.35,6.86-11.35,2.78-2.33,6-3.9,9.38-5.14,3.04-1.11,6.17-1.87,9.31-2.61.23-.06.49-.05.68-.31-1.27-.3-2.55-.42-3.83-.49-4.68-.26-9.3.15-13.78,1.62-7.06,2.32-12.71,6.53-16.73,12.8-2.63,4.1-3.76,8.6-3.03,13.46.58,3.82,2.33,7.05,5.22,9.6,3.53,3.12,7.74,4.54,12.41,4.68,4.13.12,8.19-.4,12.2-1.35,9.53-2.25,17.64-7,24.52-13.9,3.51-3.52,6.7-7.34,9.11-11.69,1.35-2.44,2.7-7.29,2.69-9.36Z"/>
</svg>