<?xml version="1.0" encoding="UTF-8"?>
<svg id="Layer_1" data-name="Layer 1" xmlns="http://www.w3.org/2000/svg" viewBox="0 0 300 133">
  <path d="m242.17,63.97c-.35,1.01-.66,1.91-.97,2.82-1.67,4.92-3.34,9.85-5.02,14.77-.51,1.49-2.09,1.96-3.29.97-2.74-2.25-5.48-4.51-8.2-6.78-1.28-1.06-1.19-2.51.17-3.47.71-.5,1.42-.98,2.14-1.47.1-.07.2-.15.34-.25-.31-.47-.6-.92-.91-1.37-2.79-4.13-5.59-8.26-8.38-12.4-.84-1.25-.81-2.92.09-4.05.24-.3.54-.56.86-.76.95-.57,1.93-1.09,2.89-1.65,1.18-.68,2.34-.65,3.51.05,5.38,3.24,10.77,6.46,16.14,9.7.46.27.82.28,1.28,0,5.35-3.24,10.71-6.46,16.06-9.7,1.22-.74,2.42-.77,3.65-.05.92.54,1.89,1.01,2.79,1.58,1.17.73,1.79,1.82,1.68,3.21-.04.46-.27.95-.52,1.35-.76,1.24-1.58,2.44-2.38,3.66-2.19,3.34-4.38,6.68-6.57,10.02-.1.15-.19.31-.3.49.57.39,1.12.76,1.67,1.14.33.23.66.45.95.72,1.02.94.99,2.23-.08,3.11-1.71,1.43-3.44,2.84-5.16,4.26-.96.8-1.91,1.62-2.86,2.42-1.38,1.17-3.04.71-3.63-1-1.9-5.59-3.81-11.18-5.71-16.77-.06-.17-.13-.33-.23-.6Zm21.85-7.44s-.04-.05-.06-.08c-6.42,1.88-12.84,3.77-19.35,5.68,3.7,2.5,7.32,4.93,10.95,7.38,2.84-4.36,5.65-8.67,8.47-12.98Zm-43.28-.07l-.06.08c2.88,4.26,5.75,8.52,8.64,12.8,3.52-2.41,7-4.79,10.57-7.23-6.45-1.9-12.8-3.78-19.15-5.65Zm17.77,11.89s-.06-.03-.09-.05c-.11.14-.23.27-.33.41-1.44,2-2.86,4.01-4.31,6-.95,1.31-2.57,1.29-3.5-.03-.41-.58-.8-1.17-1.2-1.76-.11-.17-.23-.33-.36-.5-.82.56-1.61,1.1-2.44,1.67,2.69,2.22,5.34,4.41,8.04,6.64,1.41-4.17,2.8-8.28,4.18-12.38Zm-4.81-10.34s.03-.07.04-.1c-.11-.08-.23-.16-.34-.23-2.99-1.8-5.99-3.59-8.98-5.4-.45-.27-.86-.27-1.3,0-.86.5-1.72.98-2.58,1.48-.1.06-.2.13-.37.24,4.57,1.35,9.06,2.68,13.55,4.02Zm-3.15,13.16c.51.75.99,1.45,1.51,2.2,1.47-2.05,2.9-4.05,4.33-6.05l-.09-.08c-1.9,1.3-3.8,2.6-5.74,3.93Z"/>
  <path d="m117.2,64.11v.49c0,5.67,0,11.35,0,17.02,0,.66-.19.86-.85.86-2.01,0-4.03,0-6.04,0-.67,0-.85-.18-.85-.85,0-4.96,0-9.93,0-14.89,0-.41-.05-.83-.14-1.22-.26-1.11-1-1.79-2.14-1.77-1.31.02-2.62.19-3.92.32-.09,0-.22.19-.23.3-.03.28-.01.57-.01.85,0,5.43,0,10.86,0,16.29,0,.82-.15.97-.97.97-1.96,0-3.92,0-5.89,0-.67,0-.86-.18-.86-.84,0-6.41,0-12.82,0-19.23,0-.91.36-1.62,1.2-1.93,1.08-.39,2.2-.73,3.33-.96,2.6-.51,5.23-.8,7.88-.8,2.02,0,3.98.31,5.77,1.35.11.06.3.04.43,0,2.45-.77,4.95-1.27,7.51-1.34,1.92-.06,3.84.02,5.71.59,2.49.75,3.83,2.45,4.1,5.01.05.47.08.95.08,1.43,0,5.29,0,10.57,0,15.86,0,.71-.15.87-.85.87-1.99,0-3.98,0-5.96,0-.71,0-.85-.15-.85-.87,0-4.85,0-9.7,0-14.55,0-.5-.05-1.01-.16-1.49-.23-.98-.87-1.6-1.88-1.77-1.48-.24-2.92.05-4.39.3Z"/>
  <path d="m75.69,70.91c0,1.81-.08,3.61-.49,5.38-.76,3.34-2.83,5.4-6.14,6.24-2.04.52-4.13.66-6.22.49-1.25-.1-2.52-.26-3.73-.57-3.32-.84-5.28-3.04-5.93-6.37-.24-1.26-.35-2.55-.42-3.83-.1-1.89-.05-3.79.25-5.66.31-1.98.95-3.82,2.44-5.26,1.22-1.18,2.71-1.82,4.34-2.16,3.07-.63,6.15-.64,9.2.1,3.58.86,5.63,3.18,6.31,6.76.31,1.61.38,3.25.38,4.88Zm-15.22,0s.07,0,.11,0c0,.73-.02,1.47,0,2.2.03,1.06.09,2.11.45,3.12.31.85.9,1.39,1.78,1.61.81.2,1.63.19,2.46.06,1.08-.17,1.82-.77,2.12-1.83.16-.57.29-1.16.31-1.74.06-1.97.08-3.94.07-5.91,0-.7-.1-1.41-.22-2.11-.27-1.55-.99-2.23-2.54-2.47-.39-.06-.8-.05-1.2-.04-1.75.04-2.75.84-2.99,2.56-.21,1.5-.25,3.02-.36,4.53Z"/>
  <path d="m37.54,64.71c-.18,0-.32-.02-.45-.02-.94,0-1.88,0-2.83,0-.71,0-.87-.18-.87-.87,0-1.21,0-2.42,0-3.64,0-.68.19-.86.88-.87.93,0,1.86,0,2.79,0,.14,0,.28,0,.46,0,0-.19.02-.34.02-.48.04-1.34,0-2.69.15-4.01.33-2.9,2.14-4.75,5.02-5.3,1.81-.35,3.62-.3,5.43-.1,1.07.11,2.13.35,3.19.58.56.12.68.37.6.93-.16,1.1-.32,2.19-.48,3.29-.1.68-.26.77-.95.68-.97-.12-1.95-.2-2.92-.26-.35-.02-.72.06-1.07.14-.72.16-1.13.65-1.17,1.36-.06.98-.04,1.96-.06,2.94,0,.29.19.25.37.25,1.54,0,3.07,0,4.61,0,.14,0,.28,0,.43,0,.42.03.66.24.66.65.01,1.37.01,2.73,0,4.1,0,.38-.22.58-.62.6-.62.03-1.24.02-1.86.02-1.02,0-2.04,0-3.06,0q-.53,0-.53.52c0,5.38,0,10.75,0,16.13,0,.12,0,.23,0,.35,0,.59-.21.8-.79.8-1.29,0-2.58,0-3.87,0-.74,0-1.47,0-2.21,0-.67,0-.87-.2-.87-.88,0-5.45,0-10.91,0-16.36,0-.17,0-.33,0-.53Z"/>
  <path d="m172.27,59.9c1.04-.23,2.04-.48,3.05-.68,2.02-.4,4.05-.64,6.11-.42,1.95.2,3.78.7,5.19,2.19,1.1,1.16,1.65,2.6,1.98,4.13.48,2.18.52,4.39.48,6.61-.03,1.79-.17,3.58-.64,5.32-.52,1.9-1.43,3.53-3.16,4.6-1.17.73-2.47,1.1-3.82,1.26-3.34.39-6.64.12-9.89-.76-.48-.13-.95-.34-1.38-.58-.74-.41-1.12-1.08-1.17-1.93-.03-.5-.06-1-.06-1.51,0-9.11,0-18.23,0-27.34,0-.71.05-.78.74-.96.66-.17,1.32-.34,1.98-.51.58-.15.79,0,.79.62,0,1.12,0,2.24,0,3.36,0,2.13.07,4.25-.2,6.37,0,.06,0,.13,0,.23Zm.21,11.19c0,2.68,0,5.36,0,8.04,0,.28.08.42.36.47.72.13,1.43.32,2.16.42,1.86.25,3.72.41,5.59.12,1.71-.27,3.08-1.05,3.83-2.66.32-.69.56-1.44.71-2.19.41-1.93.38-3.89.33-5.85-.04-1.47-.14-2.93-.55-4.35-.5-1.74-1.57-2.91-3.39-3.28-.65-.13-1.33-.21-1.99-.22-2.26-.04-4.45.43-6.64.94-.34.08-.41.23-.41.55.01,2.67,0,5.34,0,8Z"/>
  <path d="m164.76,71.39c0,2.51,0,5.03,0,7.54,0,.31-.05.62-.11.92-.2,1.07-.87,1.72-1.86,2.08-1.49.54-3.04.81-4.6.99-2.04.23-4.1.27-6.14,0-1.01-.14-2.04-.37-2.99-.74-2.25-.88-3.42-2.64-3.72-5-.17-1.36-.13-2.72.21-4.07.42-1.65,1.43-2.82,3.05-3.31,1.38-.41,2.8-.68,4.22-.93,2.72-.48,5.44-.9,8.16-1.34.21-.03.31-.11.3-.35-.03-.98-.02-1.96-.08-2.94-.05-.93-.54-1.58-1.42-1.94-1.1-.45-2.25-.53-3.41-.57-2.92-.11-5.74.47-8.55,1.19-.97.25-1,.22-1.19-.75-.08-.42-.16-.83-.25-1.25-.1-.51-.01-.72.5-.86,1.06-.29,2.11-.58,3.19-.78,2.3-.43,4.62-.63,6.97-.54,1.56.06,3.12.2,4.6.75,2.08.77,3.07,2.1,3.1,4.32.04,2.53,0,5.05,0,7.58Zm-3.46-1.12c-.22.03-.38.04-.53.07-2.24.38-4.47.74-6.71,1.14-1.08.19-2.16.39-3.2.69-1.01.29-1.63,1.03-1.83,2.05-.1.5-.15,1.02-.15,1.53-.01,2.35,1.2,3.88,3.5,4.31,2.87.53,5.72.3,8.53-.48.3-.08.4-.21.4-.53-.01-2.78,0-5.57,0-8.35,0-.13,0-.25,0-.42Z"/>
  <path d="m78.85,71.94c0-3.16.02-6.32-.01-9.48,0-1.03.42-1.75,1.36-2.06,1.18-.39,2.39-.74,3.61-.97,2.49-.47,5.01-.65,7.54-.63.84,0,1.12.27,1.12,1.11,0,1.15,0,2.3,0,3.44,0,.82-.18.98-1,1.02-1.49.08-2.98.19-4.48.27-.35.02-.47.14-.47.51.01,5.47,0,10.93,0,16.4,0,.78-.14.92-.93.92-1.96,0-3.92,0-5.89,0-.69,0-.87-.18-.87-.87,0-3.22,0-6.45,0-9.67Z"/>
  <path d="m199.76,83.08c-2.62-.02-5.18-.48-7.66-1.33-.63-.22-.68-.31-.52-.97.12-.51.24-1.03.38-1.54.11-.4.3-.5.69-.37,1.87.65,3.79,1.08,5.77,1.22,1.59.11,3.17.1,4.71-.41,2.65-.87,2.96-3.22,2.27-5.14-.31-.86-1.01-1.39-1.86-1.61-1.07-.27-2.17-.45-3.26-.63-1.6-.26-3.22-.41-4.75-1.01-2.5-.99-3.79-2.89-3.8-5.58,0-1.75.39-3.35,1.64-4.64,1.04-1.08,2.35-1.64,3.78-1.99,1.97-.47,3.97-.49,5.96-.27,1.51.17,3,.46,4.5.73.78.14.79.21.68.98-.07.47-.14.94-.22,1.41-.09.54-.2.62-.75.53-.76-.13-1.52-.29-2.28-.42-1.94-.31-3.88-.55-5.85-.27-1.15.17-2.24.48-3.12,1.31-1.15,1.09-1.37,3.83.67,4.92,1.01.54,2.11.72,3.22.9,1.69.27,3.39.49,5.06.87,1.49.34,2.72,1.15,3.47,2.56.41.76.61,1.59.68,2.44.12,1.49.07,2.96-.57,4.36-.72,1.59-1.99,2.56-3.59,3.14-1.7.62-3.47.75-5.26.78Z"/>
  <path d="m139.36,64.13c0,4.67,0,9.33,0,14,0,.22.01.44.05.65.14.76.6,1.24,1.38,1.28.67.03,1.36-.03,2.03-.11.47-.05.55-.04.64.4.1.45.19.91.29,1.36.08.37-.02.61-.41.74-1.56.53-3.16.68-4.76.26-1.61-.42-2.4-1.6-2.63-3.19-.07-.46-.09-.92-.09-1.39,0-9.09,0-18.17,0-27.26,0-.77.08-.87.82-1.07.6-.16,1.2-.31,1.79-.47.7-.18.87-.05.87.66,0,4.7,0,9.41,0,14.11Z"/>
</svg>