<?xml version="1.0" encoding="UTF-8"?>
<svg id="Layer_1" data-name="Layer 1" xmlns="http://www.w3.org/2000/svg" viewBox="0 0 109.92 109.92">
  <defs>
    <style>
      .cls-1 {
        fill: #004a87;
      }

      .cls-2 {
        fill: #cfdde8;
      }
    </style>
  </defs>
  <path class="cls-1" d="m76.81,54.38c-6.41,0-12.83,0-19.24-.04-.62,0-.95.33-1.33.7-5.32,5.22-10.65,10.44-15.97,15.65-4.63,4.54-9.27,9.07-13.88,13.62-.53.52-1.04.78-1.8.77-2.52-.05-5.03-.01-7.55-.03-.29,0-.72.19-.87-.19-.15-.37.27-.54.49-.75,3.31-3.22,6.67-6.39,9.94-9.65,5.48-5.47,11.06-10.83,16.56-16.26,4.35-4.3,8.68-8.63,13.1-12.85,4.37-4.17,8.57-8.5,12.94-12.67,4.51-4.31,8.94-8.7,13.35-13.11.36-.36.78-.65,1.37-1.13,0,.59,0,.97,0,1.36,0,21.31-.01,42.62.03,63.94,0,1.15-.34,1.44-1.41,1.38-1.38-.08-2.76-.08-4.14,0-.99.06-1.3-.23-1.29-1.26.04-9.32.02-18.64.02-27.96,0-.44-.03-.89-.05-1.33.01-.2-.1-.23-.27-.19Zm-6.33-6.56c1.91,0,3.81-.04,5.72.02.76.02.95-.22.95-.96-.04-3.2,0-6.39-.03-9.59,0-.81.43-2-.26-2.32-.51-.24-1.11.97-1.68,1.52-3.54,3.38-7.04,6.8-10.55,10.22-.28.27-.83.52-.69.9.19.49.79.2,1.2.21,1.78.03,3.57.01,5.35.01Z"/>
  <path class="cls-2" d="m76.81,54.38c.16-.04.28,0,.27.19-.09-.06-.18-.13-.27-.19Z"/>
</svg>