<?xml version="1.0" encoding="utf-8"?>
<!-- Generator: Adobe Illustrator 27.2.0, SVG Export Plug-In . SVG Version: 6.00 Build 0)  -->
<svg version="1.1" id="Layer_1" xmlns="http://www.w3.org/2000/svg" xmlns:xlink="http://www.w3.org/1999/xlink" x="0px" y="0px"
	 viewBox="0 0 109.92 109.92" style="enable-background:new 0 0 109.92 109.92;" xml:space="preserve">
<style type="text/css">
	.st0{fill:#3EAFA5;}
	.st1{fill:#4B17D0;}
	.st2{fill:#00BFFE;}
	.st3{fill:#8CBAC9;}
	.st4{fill:#E20074;}
	.st5{fill:#EE66AC;}
	.st6{fill:#AD0034;}
	.st7{fill:#5B5658;}
	.st8{fill:#FFFFFF;}
	.st9{fill:#01A0B0;}
	.st10{fill:#FFAD0A;}
	.st11{fill:#FABD06;}
	.st12{fill:#EB4335;}
	.st13{fill:#34A853;}
	.st14{fill:#4287F6;}
	.st15{fill:#115BAD;}
	.st16{fill:#145CAA;}
	.st17{fill:#98B7DD;}
	.st18{fill:#004A87;}
	.st19{fill:#CFDDE8;}
	.st20{fill:#020202;}
	.st21{fill:#1DC3EC;}
	.st22{fill-rule:evenodd;clip-rule:evenodd;fill:#ED3237;}
</style>
<g>
	<path class="st22" d="M72.25,56.75h-7.82c-0.23,0.06-0.11,0.03-0.26,0.65c-0.38,1.61-1.39,2.94-3.01,3.6
		c-1.86,0.76-4.53,0.75-6.34-0.05c-3.99-1.78-4.88-6.87-3.48-10.35c0.7-1.73,2.01-3.07,3.74-3.76c1.83-0.73,4.61-0.66,6.32,0.17
		c1.59,0.77,2.43,2.11,2.76,3.77c0.09,0.46,0.06,0.39,0.55,0.39c2.47-0.03,5.02,0.07,7.48-0.01c0.12-1.68-0.82-4.06-1.53-5.18
		c-0.88-1.39-2.05-2.54-3.43-3.41c-3.26-2.07-6.66-2.67-11.26-2.38c-4.26,0.27-7.47,1.8-9.68,3.95c-4.85,4.71-5.37,14.51,0.02,19.57
		l0.88,0.8c2.33,1.97,5.72,2.93,8.8,3.17c4.17,0.33,8.29-0.37,11.19-2.28c2.35-1.55,4.82-4.48,5.05-8.67L72.25,56.75z M11.34,48.77
		l10.03,0.01l0.01,17.97l8.96,0.01l0.02-17.99l10.05-0.02v-7.22l-29.04-0.02L11.34,48.77z M77.05,66.75l22.81,0.02
		c0.08-0.57,0.07-6.62-0.02-6.93l-14.11-0.01V41.5l-8.66-0.02c-0.13,0.67-0.04,19.89-0.04,22.12
		C77.02,64.41,76.94,66.03,77.05,66.75L77.05,66.75z"/>
</g>
</svg>
