<?xml version="1.0" encoding="UTF-8"?>
<svg id="Layer_1" data-name="Layer 1" xmlns="http://www.w3.org/2000/svg" viewBox="0 0 300 133">
  <defs>
    <style>
      .cls-1 {
        fill: #020202;
      }

      .cls-2 {
        fill: #414141;
      }

      .cls-3 {
        fill: #039eda;
      }
    </style>
  </defs>
  <path class="cls-3" d="m102.64,64.91c.07,0,.14-.02.2-.05.68-.04,1.37-.1,2.05-.1,1.68,0,3.16-.85,4.82-1.02,1.34-.14,2.78-.35,3.95-1.23.07.01.13,0,.18-.04,1.44-.33,2.78-.92,4.15-1.43,2.21-.82,4.34-1.71,6.2-3.17,1.32-1.03,2.85-1.85,3.38-3.64.13-.44.27-1.12.83-1.15.54-.03.43.77.81,1.05.37,1.27.71,2.55,1.11,3.8,1.1,3.43-1.01,6.83-3.61,8.6-1.67,1.13-3.43,1.96-5.31,2.65-2.21.81-4.5,1.23-6.79,1.65-4.29.8-8.64,1.02-13,.89-1.21-.04-2.42,0-3.63,0-1.3-.34-2.65-.18-3.96-.39-3.89-.49-7.77-.9-11.58-1.92-3.17-.85-6.23-1.92-9.08-3.48-2.29-1.25-4.38-2.85-5.55-5.35-.36-.77-.11-1.48,0-2.22.25-1.86,1.18-3.48,1.8-5.23.35,1.08.08,2.19.5,3.27.75,1.91,2.06,3.38,3.64,4.46,2.29,1.55,4.78,2.83,7.51,3.5,2.68.66,5.38,1.27,8.15,1.36.24.16.49.31.8.26,2.21-.36,4.45.16,6.65-.26,1.86-.07,3.71-.22,5.53-.63.15.03.21-.06.24-.18Z"/>
  <path class="cls-3" d="m76.18,79.92c-1.31-.79-2.73-1.41-3.95-2.35-1.84-1.43-3.77-2.82-4.75-5.01-.63-1.4-.64-2.96-.54-4.49.01-.16.08-.28.24-.31.26-.04.44.11.54.3,1.99,4.2,5.55,6.63,9.63,8.41,2.54,1.11,5.25,1.6,7.96,2.19,3.46.76,6.88.55,10.3.51,2.88-.03,5.75-.41,8.6-.96,4.31-.83,8.54-1.93,12.65-3.45,3.06-1.13,6.02-2.51,8.84-4.18,2.04-1.21,3.79-2.74,5.15-4.7.07-.1.25-.13.38-.19.57.85.04,1.83.29,2.72-.38,2.5-.72,5.02-1.83,7.34-.07,0-.19-.03-.21,0-.72,1.27-1.88,2.06-2.99,2.96-2.79,2.25-6.11,3.23-9.42,4.25-2.27.7-4.65.91-6.98,1.38-.52.01-1.07-.24-1.56.14-4.69.25-9.38.35-14.08.24h0c-.15-.31-.42-.19-.67-.17-.52-.03-1-.39-1.55-.22-2.84-.26-5.61-.86-8.37-1.53-1.52-.59-3.16-.8-4.62-1.55-1.03-.44-2.06-.88-3.09-1.32Z"/>
  <path class="cls-3" d="m97.77,59.22c-.22-.02-.43-.04-.65-.07-.85-.41-1.76-.1-2.64-.23-1.49-.57-3.08-.62-4.63-.84-2.3-.32-4.48-1.05-6.71-1.61-2.51-.64-4.85-1.83-7.04-3.16-1.28-.78-2.53-1.82-3.16-3.32-.4-.95-.54-1.9.19-2.81.61-.76,1.18-1.55,1.77-2.32.53-.5,1.04-1.04,1.61-1.5.28-.22.55-.8,1.05-.27-.89,1.78-.59,3.92.67,5.44,1.84,2.22,4.28,3.01,7.01,3.67,3.93.94,7.84.51,11.75.53,2.59.01,5.16-.6,7.72-1.04,2.6-.44,5.13-1.18,7.57-2.08,2.24-.83,4.41-1.96,6.3-3.51.95-.78,1.77-1.64,2.14-2.9.25-.84.87-.14,1.07.06.92.9,1.81,1.85,2.61,2.85.56.7,1.06,1.43,1.39,2.31.45,1.18-.25,2.18-.24,3.27-.22.26-.47.5-.65.79-.52.84-1.19,1.51-1.99,2.1-2.02,1.49-4.34,2.31-6.68,3.09-3.33,1.12-6.78,1.31-10.23,1.48-2.74.14-5.48.05-8.23.07Z"/>
  <path class="cls-3" d="m102.84,34.24c4.79.64,9.32,2,13.37,4.73,2,1.35,1.85,3.02-.33,4.18-1.58.84-3.19,1.63-4.94,2.09-2.83.73-5.68,1.36-8.62,1.39-.31,0-.57.06-.81.26-2.34,0-4.68,0-7.02,0-1.71.06-3.41-.27-5.06-.55-2.51-.43-5.07-.94-7.26-2.39-.91-.6-1.85-1.25-2.03-2.54-.16-1.16.68-1.7,1.38-2.14,2.9-1.83,5.98-3.32,9.33-4.18,1.63-.42,3.26-.81,4.95-.85,1.34-.15,2.68-.2,4.02-.24,1.03-.03,2,.42,3.03.24Z"/>
  <path class="cls-1" d="m194.62,65.66c1.14.9,1.95,1.99,2.83,3.01.51.59.82.44,1.14-.13.47-.84.94-1.69,1.4-2.54.18-.33.36-.63.79-.63,1.1,0,2.21-.07,3.3,0,.86.06.58.67.33,1.11-.99,1.75-1.97,3.5-3.04,5.2-.28.44-.28.62.07.97,1.52,1.56,3.01,3.14,4.51,4.72.26.28.62.54.48.98-.16.53-.65.37-1.03.38-1.03.01-2.06-.07-3.08.02-.85.08-1.37-.31-1.83-.91-.11-.14-.18-.31-.29-.45-1.46-1.88-1.47-1.85-3.16-.25-1.36,1.29-3.06,1.93-4.92,2.04-2.1.12-4.13.01-6-1.27-4.41-3.03-4-9.59,0-12.07.03-.02.06-.05.09-.07,1.48-1.03,1.44-1,.53-2.58-1.81-3.12-1.07-7.74,2.77-9.28,2.62-1.05,7.28-.7,8.89,2.31,1.37,2.56,1.11,6.21-1.96,8.21-.57.37-1.13.75-1.82,1.21Zm-3.42,9.58c1.85.26,3.01-.89,4.16-2.08.26-.27.22-.46-.04-.73-1.27-1.31-2.51-2.65-3.77-3.96-1.05-1.08-1.5-1.06-2.59.06-.15.16-.29.34-.45.49-1.11,1.05-1.45,2.9-.73,4.25.7,1.32,1.78,2.18,3.43,1.98Zm1.44-17.83c-1.7,0-2.57.74-2.57,2.19,0,1.18,1.18,3.06,1.96,3.09,1.23.06,2.92-1.97,2.9-3.49-.01-1.21-.76-1.8-2.29-1.79Z"/>
  <path class="cls-1" d="m160.55,72.88c-3.08-.02-6.16-.02-9.24-.06-.45,0-.6.15-.73.56-.46,1.41-.99,2.8-1.46,4.22-.26.79-.69,1.23-1.58,1.16-.69-.06-1.4-.07-2.09,0-1.02.1-1.17-.47-.92-1.2.89-2.58,1.86-5.13,2.78-7.71,1.28-3.59,2.69-7.14,3.83-10.78.45-1.45,1.03-2.86,1.58-4.29.22-.58.62-.91,1.32-.88,1.17.05,2.35.05,3.52,0,.81-.03,1.2.38,1.44,1.06,1.6,4.44,3.2,8.87,4.79,13.31,1.1,3.07,2.19,6.15,3.28,9.23.31.87.06,1.22-.85,1.23-.59,0-1.17,0-1.76,0-1.77,0-1.78-.01-2.36-1.69-.46-1.33-.92-2.67-1.38-4,.03-.14-.01-.22-.17-.17Zm-4.82-14.23c-.56,1.56-1,2.79-1.45,4.03-.62,1.74-1.25,3.47-1.84,5.22-.1.29-.37.83.39.83,2.12-.01,4.23,0,6.43,0-1.18-3.34-2.31-6.56-3.54-10.07Z"/>
  <path class="cls-3" d="m96.24,93.58c-.64-.42-1.44-.42-2.09-.41-1.44,0-2.83-.25-4.18-.55-2.43-.54-4.87-1.01-7.21-2-1.89-.8-3.8-1.51-5.54-2.6-2.58-1.6-4.76-3.62-6.42-6.19-.27-.42,0-1.04-.57-1.26,1.31,1.33,2.56,2.74,4.17,3.75,1.18.8,2.4,1.54,3.77,1.99.08.23.26.2.45.19.98.49,1.96,1,3.08,1.13.08.23.28.18.45.19,1.23.36,2.4,1.02,3.75.84.07.03.14.04.21.05.54.38,1.17.54,1.79.62,3.26.41,6.53.52,9.82.45.55-.01,1.09-.04,1.61-.25.44,0,.89,0,1.33,0,.18.01.37.05.55.03,2.03-.22,4.05-.41,6.07-.78,2.12-.38,4.2-.89,6.29-1.39,3.05-.73,5.95-1.85,8.68-3.37,1.5-.83,2.98-1.72,4.26-2.93.83-.79,1.56-1.69,2.57-2.58-.08.3-.1.39-.12.49-.48,1.75-1.58,3.2-2.31,4.83-.95.11-1.11,1.06-1.58,1.61-2.45,2.84-5.68,4.36-9.05,5.63-3.29,1.24-6.74,1.93-10.25,2.23-.28.02-.47.16-.7.27-2.93-.12-5.86-.08-8.79,0Z"/>
  <path d="m210.33,58.14c-2.28-.04-4.56-.08-6.84-.12-.06-.06-.12-.12-.19-.17-.36-1.24-.3-2.49-.02-3.73.07-.05.15-.1.22-.15,6.01-.01,12.01-.02,18.02-.04.68,0,1,.27.98.98-.09,3.83.55,3.11-3.06,3.18-1.35.03-2.71.03-4.06.05-.14-.04-.24-.02-.21.16-.03,1.54-.07,3.07-.07,4.61,0,4.73,0,9.46,0,14.19,0,1.61-.04,1.64-1.68,1.65-.55,0-1.11-.06-1.65.01-1,.14-1.24-.27-1.24-1.22.03-6.01.02-12.03.02-18.04,0-.4-.03-.8-.05-1.2.03-.14-.01-.21-.17-.15Z"/>
  <path d="m176.24,58.29c-.02,3.96-.04,7.92-.06,11.88,0,2.38-.04,4.77.02,7.15.02,1.03-.3,1.52-1.38,1.43-.55-.05-1.1,0-1.65,0-1.45,0-1.48-.02-1.48-1.46,0-5.32,0-10.64-.01-15.95,0-1.05.46-2.45-.21-3.06-.58-.52-1.95-.16-2.97-.18-1.06-.01-2.13-.04-3.19,0-.83.04-1.07-.32-1.09-1.1-.07-3.07-.09-3.07,2.93-3.07,4.99,0,9.98,0,14.97,0,1.43,0,1.53.1,1.54,1.47.01,2.88.23,2.7-2.64,2.69-1.54,0-3.08.03-4.62.05-.16-.06-.2,0-.16.15Z"/>
  <path class="cls-3" d="m97.34,98.66c-4.16-.14-8.06-1.32-11.85-2.92-1.8-.76-3.37-1.96-5.09-2.88.03-.14-.42-.44.08-.39.41.04.8.27,1.2.42,1.9.95,3.94,1.5,6,1.96,2.29.51,4.6.95,6.94,1.05,2.67.1,5.36.15,8.03,0,2-.12,4.01-.37,6-.79,3.41-.71,6.67-1.81,9.79-3.35.19-.09.36-.29.6-.14-1.56,2.69-10.44,6.21-17.76,7.04-1.31,0-2.63,0-3.94,0Z"/>
  <path class="cls-1" d="m203.3,57.85c.06.06.12.12.19.17-.16.05-.21-.03-.19-.17Z"/>
  <path class="cls-2" d="m203.51,53.97c-.07.05-.15.1-.22.15,0-.15.05-.25.22-.15Z"/>
</svg>