<?xml version="1.0" encoding="UTF-8"?>
<svg id="Layer_1" data-name="Layer 1" xmlns="http://www.w3.org/2000/svg" viewBox="0 0 300 133">
  <defs>
    <style>
      .cls-1 {
        fill: #022899;
      }

      .cls-2 {
        fill: #5c71b0;
      }
    </style>
  </defs>
  <path class="cls-1" d="m107.42,92.99c-.4.02-.81.06-1.21.06-12.22,0-24.45-.01-36.67.03-1.02,0-1.24-.26-1.24-1.25.03-18.04.03-36.09,0-54.13,0-1,.22-1.25,1.24-1.25,19.71.03,39.42.03,59.13.01.73,0,1.14.01,1.13.98-.03,18.29-.03,36.58-.03,54.86,0,.16-.02.32-.04.48-6.97.01-13.95.02-20.92.05-.47,0-.97-.14-1.41.16Zm-21.64-18.94c0-.77,0-1.54,0-2.3,0-1.96,0-1.97-2.01-2.01-.53,0-.89.01-.88-.73.05-2.83.05-5.66.03-8.49,0-.58.17-.74.75-.76,2.14-.09,2.14-.11,2.13-2.27,0-.44-.04-.89,0-1.33.07-.77-.2-1.04-1.01-1.03-2.71.05-5.42,0-8.12,0q-3.02,0-3.01,2.98c0,1.64,0,1.69,1.65,1.64.86-.03,1.09.24,1.07,1.08-.06,2.06-.02,4.12-.02,6.18q0,2.65-2.65,2.74c-.52,1.36-.35,2.74-.09,4.12.09.11.18.21.27.32.15.05.3.14.45.15,3.57,0,7.15.01,10.72,0,.27,0,.58.04.71-.3Zm4.92.11c.52-.28-.05-.94.45-1.27,3.23,1.84,6.6,2.36,10.14.98,1.94-.76,3.06-2.29,3.43-4.25.39-2.05-.37-3.78-1.92-5.23-1.44-1.34-3.27-1.65-5.02-2.2-1.5-.47-3.01-.92-4.51-1.37-.43-.13-.7-.37-.66-.86.03-.37.21-.64.58-.65,2.54-.08,5.01.06,6.76,2.3.22.29.48.38.82.37.89-.02,1.78-.04,2.67-.01.62.02.82-.19.85-.83.08-1.74-.27-3.45-.23-5.18,0-.44-.18-.55-.58-.54-.93.02-1.86,0-2.79.01-.24,0-.51,0-.51.36.01.87-.38.63-.9.39-2.44-1.12-4.98-1.55-7.65-.99-4.18.88-5.62,4.15-4.51,7.76.62,2.02,2.41,2.96,4.27,3.62,2.26.79,4.54,1.49,6.83,2.19.37.11.74.14.74.61,0,.47-.47.52-.77.61-2.07.66-5.6.35-7.51-2.63-1.12-.51-2.26-.31-3.4-.09-.91.24-.35.8-.28,1.26-.14.08-.19.19-.1.33,0,1.49,0,2.97.01,4.46-.13.2-.14.4.04.59.11.11.21.21.32.32,1.15.24,2.29.25,3.44-.03Zm24.3.44c1.33,0,2.37,0,3.4-.25,3.12-.76,5.67-2.26,6.69-5.49.69-2.18.72-4.43.37-6.72-.35-2.28-1.38-4.04-3.29-5.28-2.99-1.94-6.29-2.33-9.7-1.64-2.39.48-4.54,1.56-5.74,3.81-1.49,2.79-1.86,5.75-1.07,8.86.45,1.75,1.18,3.35,2.61,4.42,2.05,1.52,4.37,2.5,6.74,2.3Zm2.03-21.62c-.65-1.11-1.3-2-2.06-2.79-5.44-5.68-12.1-7.8-19.84-6.68-5.93.86-10.46,4-14.01,8.71-.16.21-.37.5-.19.68.25.24.51-.02.71-.23.89-.98,1.75-2,2.68-2.94,1.41-1.42,1.41-1.35,3.16-.43.71.37.57.65.15,1.05-.75.74-1.25,1.62-1.82,2.65q.84-.24,1.24-.83c1.46-2.16,1.56-2.2,3.92-1.38.47.16,1.08.28,1.34.63.33.44-.33.96-.3,1.5.72.23.8-.38,1.02-.76.16-.27.29-.76.62-.58,1.55.85,3.61-.28,4.96,1.32.11.13.54.13.55-.2.02-.6.43-.43.76-.48,1.18-.17,2.37-.27,3.52-.58.65-.17.93-.08,1.18.51.19.44.38,1.05,1.11.68q-.64-1.55.9-2.06,2.32-.77,3.97,1.32c.12.16.32.28.39.46.2.54.57.41,1.01.3-.58-.84-1.14-1.65-1.72-2.46-.19-.26-.41-.49-.61-.73.35-.55.94-.73,1.46-1,.31-.16.6-.54,1.05-.1.89.85,1.87,1.58,2.66,2.57.52.65.84,1.77,2.18,1.81Zm-36.31,23.4c4.98,6.93,11.63,10.52,20.13,9.8,6.89-.58,12.38-3.96,16.33-9.83-.52-.05-.8-.12-1.09.37-.73,1.2-1.83,2.11-2.82,3.11-1.32,1.33-1.33,1.34-2.84.27-.46-.33-.76-.62-.15-1.2.74-.7,1.29-1.58,1.72-2.57-.78-.1-.96.43-1.25.85q-1.49,2.12-3.94,1.29c-.3-.1-.61-.17-.91-.26-.56-.17-.78-.46-.38-1.01.18-.25.52-.68.23-.85-.49-.27-.68.28-.81.64-.23.65-.67.89-1.3.74-1.2-.28-2.41-.55-3.65-.47-.4.02-.53-.12-.59-.54-.09-.61-.48-.63-.67-.09-.14.38-.33.35-.61.39-1.06.15-2.13.24-3.16.51-1.01.26-1.76.22-2.05-.93-.09-.34-.32-.36-.54-.29-.38.13-.14.36-.04.56.46.87.36,1.41-.8,1.44-.33,0-.65.26-.97.39-1.73.7-1.67.65-2.89-.85-.46-.56-.62-1.66-1.77-1.53.31.97,1.04,1.61,1.55,2.39.61.95.72,1.06.3,1.18-.8.22-1.3,1.68-2.43.6-1.25-1.2-2.51-2.39-3.51-3.8-.31-.44-.58-.43-1.07-.31Z"/>
  <path class="cls-1" d="m136.8,66.33c0-7.24,0-14.49,0-21.73,0-.28,0-.57,0-.85-.01-.35.12-.51.49-.5.36.01.51.17.5.51,0,.28,0,.57,0,.85,0,14.49,0,28.97,0,43.46,0,.32,0,.65,0,.97,0,.34-.24.36-.5.36-.27,0-.48-.06-.48-.38,0-.32,0-.65,0-.97,0-7.24,0-14.49,0-21.73Z"/>
  <path class="cls-1" d="m143.39,66.18c0-2.48,1.67-4.25,3.97-4.23,2.29.02,4.11,1.97,4.04,4.32-.08,2.48-1.93,4.53-4.16,4.4-2.14-.13-3.75-1.49-3.86-4.49Zm3.9,3.31c1.93,0,2.91-1.13,2.91-3.34,0-1.94-1.14-3.1-2.87-3.25-1.46-.12-2.86,1.53-2.75,3.32.13,2.13.97,3.28,2.71,3.27Z"/>
  <path class="cls-1" d="m146.6,77.5c1.95,0,2.63.39,3.01,1.7.08.26.27.63-.11.69-.31.05-.74.3-1.02-.27-.5-1.03-1.9-1.55-2.95-1.12-.41.17-.71.49-.69,1.02.02.6.31.92.85,1.17.83.39,1.75.39,2.61.67.82.27,1.48.66,1.63,1.55.17.96.01,1.84-.9,2.42-1.85,1.16-4.31.89-5.41-1.07-.21-.37-.52-.84,0-1.13.5-.28.75.17.97.57.8,1.38,2.19,1.78,3.55,1.04.49-.26.85-.62.82-1.2-.03-.59-.46-.95-.95-1.14-.62-.23-1.29-.34-1.94-.51-1.96-.49-2.6-1.15-2.44-2.48.14-1.22,1.21-1.91,2.97-1.91Z"/>
  <path class="cls-1" d="m160.1,69.85c-1.6.88-2.83.81-3.64-.19-1.05-1.3-1.04-3.53.05-4.67.83-.87,1.88-.69,2.9-.48.23.05.45.32.64.29,1.15-.17,1.15-.19,1.14.88,0,1.49-.01,2.99-.02,4.48,0,1.09-.48,1.94-1.44,2.41-1.07.53-2.16.44-3.16-.25-.33-.22-.78-.58-.52-.96.28-.4.75-.24,1.11.13.67.69,1.45.52,2.2.17.78-.37.87-1.06.72-1.82Zm-3.35-2.54c0,1.5.5,2.18,1.58,2.18,1.14,0,1.82-.81,1.82-2.17,0-1.44-.47-1.97-1.76-1.96-1.15,0-1.64.59-1.64,1.95Z"/>
  <path class="cls-1" d="m188.32,80.35c0-.8,0-1.48,0-2.17,0-.38-.03-.7.54-.7.54,0,.69.2.69.71-.02,2.3-.02,4.61,0,6.91,0,.53-.2.82-.68.65-.74-.26-1.34.06-2.01.22-1.56.38-3.36-1.53-3.13-3.36.33-2.58,2.05-3.84,4.6-2.26Zm0,2.43c0-1.71-.32-2.12-1.69-2.12-1.24,0-1.7.54-1.7,2.01,0,1.54.61,2.37,1.75,2.36,1.19-.02,1.64-.62,1.65-2.24Z"/>
  <path class="cls-1" d="m171.81,80.25c0-.74.01-1.47,0-2.19-.01-.42.18-.56.58-.56.42,0,.43.26.43.56,0,2.39-.01,4.77,0,7.16,0,.54-.38.74-.66.52-.53-.43-.89-.17-1.37.02-1.58.61-2.78.02-3.4-1.6-.92-2.38.53-4.77,2.74-4.46.56.08,1.09.35,1.68.55Zm-3.64,2.48c0,1.42.72,2.33,1.84,2.3,1.15-.03,1.83-.84,1.83-2.2,0-1.32-.72-2.07-1.82-2.19-1.12-.13-1.88.93-1.84,2.09Z"/>
  <path class="cls-1" d="m198.9,51.03c-.36-.69.06-1.1.48-1.48,1.01-.89,2.26-.52,3.33-.35.87.14.86,1.17.93,2,.09,1.1-.44,2.29.43,3.3.13.15.11.54-.18.61-.38.09-.9.24-1.09-.21-.31-.72-.52-.34-.92-.09-1.52.96-3.31.25-3.36-1.28-.03-1.04.44-1.65,1.49-1.78.55-.07,1.11-.12,1.63-.26.39-.11.81-.21.79-.85-.02-.63-.45-.77-.83-.79-.62-.04-1.39-.32-1.74.61-.14.38-.6.45-.97.55Zm2.05,3.15c.08,0,.29.04.47,0,.74-.21,1.19-.68.98-1.49-.22-.84-.88-.33-1.35-.36-.14,0-.28.16-.42.16-.64,0-1.16.3-1.09.95.07.64.66.83,1.41.74Z"/>
  <path class="cls-1" d="m188.08,67.7c.3.61-.54,1.56.46,2.17.06.03-.02.49-.11.52-.34.11-.84.22-1.01-.08-.38-.64-.72-.3-1.09-.09-.72.41-1.51.31-2.24.17-.78-.15-1.17-.8-1.1-1.61.08-.95.65-1.58,1.56-1.67.64-.06,1.24-.24,1.86-.35.33-.06.73-.35.63-.76-.08-.35-.29-.72-.83-.65-.76.09-1.65-.25-2.05.81-.12.33-.54.23-.75.14-.34-.14-.17-.44-.06-.71.45-1.09,1.72-1.55,3.45-1.19,1.06.22,1.34,1,1.28,1.97-.02.4,0,.81,0,1.33Zm-.99.35q0-.49-.57-.5c-1.45-.03-2.38.43-2.35,1.17.03.69.42,1.03,1.08,1.01,1-.03,1.84-.82,1.84-1.68Z"/>
  <path class="cls-1" d="m159.59,84.56c-.11.48,1.13.59.38,1.18-.42.33-.99.51-1.33-.31-.18-.42-.57.04-.81.14-.63.25-1.26.61-1.92.36-.87-.33-1.5-.88-1.36-1.98.15-1.1.95-1.38,1.81-1.57.53-.12,1.1.05,1.63-.26.38-.22.49-.49.45-.89-.05-.47-.36-.59-.76-.58-.7.02-1.52-.21-1.88.69-.19.46-.58.34-.8.25-.4-.18-.17-.5-.03-.8.49-1.07,1.43-1.14,2.42-1.12.92.01,1.77.12,2.05,1.21.06,1.23-.21,2.47.15,3.68Zm-1.28-1.77c-.5.39-1.07.26-1.61.31-.67.06-1.19.41-1.13,1.09.06.74.69.88,1.35.83,1.25-.1,1.64-.69,1.39-2.23Z"/>
  <path class="cls-1" d="m203.85,84.8c.21.27.79.39.41.91-.31.42-.73.41-1.04.08-.49-.53-.89-.35-1.44-.08-.85.41-1.73.49-2.53-.27-.56-.53-.58-1.16-.42-1.78.14-.54.52-.97,1.15-1.07.39-.06.77-.21,1.16-.23.67-.03,1.3-.09,1.5-.86.09-.32.03-.74-.36-.78-.69-.07-1.45-.33-2.05.3-.08.09-.16.19-.2.3-.19.51-.63.36-.89.22-.26-.15-.07-.46.05-.73.39-.93,1.15-1.13,2.04-1.14,1.01,0,2.05-.08,2.43,1.19.1,1.31-.23,2.64.19,3.93Zm-1.27-2.05c-.57.44-1.14.31-1.69.36-.68.06-1.17.44-1.12,1.1.06.73.7.87,1.35.82,1.18-.1,1.56-.64,1.45-2.27Z"/>
  <path class="cls-1" d="m179.08,84.8c.21.27.79.39.41.91-.31.42-.73.41-1.04.07-.5-.54-.89-.31-1.44-.08-1.71.72-3.04-.09-3.03-1.7,0-.75.49-1.09.99-1.37.39-.22.92-.25,1.39-.27.67-.03,1.3-.08,1.52-.85.09-.32.05-.75-.34-.79-.7-.08-1.46-.33-2.05.29-.13.14-.16.4-.3.51-.23.17-.56.18-.8.03-.25-.15-.11-.43-.02-.65.35-.82.97-1.23,1.86-1.23,1.07,0,2.23-.22,2.68,1.18.11,1.31-.23,2.64.2,3.93Zm-1.21-1.23c-.07-.2.11-.74-.18-.65-.81.24-1.78-.1-2.45.7-.43.51-.31.87.16,1.2.56.39,1.12.22,1.69-.02.54-.23.86-.57.79-1.23Z"/>
  <path class="cls-1" d="m175.64,49.11c2.18-.23,2.58.61,2.54,2.34-.02,1.04-.41,2.17.39,3.14.11.13.1.45-.13.51-.33.09-.83.22-.99-.11-.33-.71-.67-.37-1.08-.15-.78.41-1.59.53-2.39.07-.63-.36-1.11-.94-.92-1.66.19-.71.57-1.39,1.5-1.49.66-.08,1.3-.28,1.94-.43.33-.08.61-.22.64-.6.03-.38-.23-.6-.5-.77-.65-.41-1.77-.08-2.18.63-.2.36-.44.59-.86.39-.58-.28-.23-.71-.06-.99.52-.86,1.33-1.09,2.1-.86Zm-.41,5.08c1.24.01,1.9-.53,1.91-1.52,0-.26.09-.83-.41-.57-.82.44-2.22-.27-2.49,1.21-.14.79.4.95.98.88Z"/>
  <path class="cls-1" d="m167.41,69.5c.15.29.87.43.39.86-.28.25-.92.3-1.18-.15-.32-.55-.58-.3-.9-.09-.49.31-1.03.35-1.6.35-.96.01-1.67-.25-1.77-1.32-.11-1.08.48-1.92,1.54-2.07.67-.09,1.32-.24,1.95-.45.25-.08.42-.16.42-.47,0-.32-.08-.56-.34-.72-.5-.32-2.04-.03-2.29.51-.23.49-.58.46-.87.3-.38-.21-.12-.53.01-.83.58-1.33,1.75-1,2.81-1.05.87-.04,1.45.29,1.65,1.17.08,1.31-.23,2.64.18,3.94Zm-1.19-1.15c-.05-.38.14-.79-.47-.81-1.07-.03-2.47.57-2.42,1.17.05.67.56,1.13,1.19.99.74-.16,1.72-.24,1.7-1.35Z"/>
  <path class="cls-1" d="m157.52,52.54c.58,1.92,1.62,2.25,3.19.95.37-.31.7-.31,1.11-.19-.54,1.42-1.47,1.99-3.04,1.85-1.03-.09-2.07-1.12-2.23-2.33-.11-.83-.13-1.68.27-2.48.59-1.17,1.91-1.66,3.42-1.23.95.27,1.63,1.39,1.63,2.52,0,.54-.16.7-.68.68-1.13-.03-2.26-.01-3.4-.02-.18-.03-.27.04-.27.23Zm3.63-1.31c-.74-.67-1-1.4-1.94-1.42-.72-.02-1.11.37-1.44.88-.3.46-.3.78.41.85.93.09,1.76-.3,2.97-.31Z"/>
  <path class="cls-1" d="m218.01,64.39c1.85.01,2.88,1.14,2.86,3.15-.02,1.92-1.08,2.93-3.08,2.92-1.73-.01-2.75-1.18-2.75-3.15,0-1.81,1.14-2.93,2.97-2.92Zm1.65,3.02c0-1.61-.36-2.04-1.74-2.05-1.03,0-1.94,1-1.9,2.1.03,1.04,1.08,2.3,1.89,2.27,1.14-.05,1.75-.85,1.75-2.32Z"/>
  <path class="cls-1" d="m198.28,70.46c-1.79.31-2.92-1.37-2.91-3.1,0-1.75,1.12-2.97,2.68-2.97,2.13,0,3.15.96,3.15,2.97,0,2.01-1.03,3.11-2.91,3.11Zm-1.72-3.08c0,1.31.77,2.39,1.68,2.35,1.05-.05,1.98-1.14,1.97-2.3-.01-1.29-.73-2.06-1.92-2.06-1.22,0-1.72.58-1.73,2.02Z"/>
  <path class="cls-1" d="m213.99,79.68c1.71-.03,2.92,1.01,2.96,3.11.04,2.1-1.5,3.2-2.95,3.21-1.66,0-2.84-1.32-2.86-3.11-.01-2.03,1.02-3.2,2.84-3.2Zm1.78,3.18c.02-1.61-.46-2.19-1.8-2.2-1.04,0-1.81.84-1.85,2.02-.03,1.24.82,2.34,1.82,2.34,1.11,0,1.81-.83,1.83-2.16Z"/>
  <path class="cls-1" d="m188.37,49.09c2.18.02,2.89.83,2.86,3.26-.02,1.69-1.22,2.83-2.97,2.81-1.58-.01-2.87-1.45-2.86-3.18.01-1.81,1.14-2.91,2.97-2.9Zm-.07.73c-1.07,0-1.7.91-1.68,2.42.01,1.29.58,1.94,1.68,1.95,1.26,0,1.96-.77,1.96-2.17,0-1.39-.73-2.21-1.96-2.2Z"/>
  <path class="cls-1" d="m202.41,67.28c0-.77.02-1.54,0-2.31-.03-.62.53-.79.72-.52.41.61.57.35,1.02.08,1.36-.83,3.08.06,3.17,1.62.07,1.21.02,2.43.04,3.64,0,.44-.13.67-.62.65-.54-.02-.4-.4-.41-.69,0-1.01,0-2.02,0-3.03,0-.7-.03-1.36-1.04-1.38-.97-.02-1.73.19-1.83,1.26-.09.96-.04,1.94-.04,2.91,0,.36.08.73-.52.72-.62-.02-.46-.44-.47-.76-.02-.73,0-1.46,0-2.18Z"/>
  <path class="cls-1" d="m168.88,67.34c0-.81,0-1.61,0-2.42,0-.18-.07-.44.21-.49.15-.03.44,0,.44.05.18,1.13.59.38.96.13,1.37-.91,3.19-.09,3.28,1.52.07,1.21.03,2.42.03,3.63,0,.31.06.67-.44.68-.52.01-.58-.29-.57-.7.01-1.05,0-2.1,0-3.15,0-.7-.14-1.24-1.05-1.25-.93,0-1.74.15-1.84,1.21-.1,1-.03,2.02-.02,3.02,0,.44-.07.85-.6.86-.63.01-.36-.51-.38-.81-.04-.76-.01-1.53-.01-2.3Z"/>
  <path class="cls-1" d="m180.87,65.36c-1,0-1.79,0-2.59,0-.31,0-.65.07-.67-.44-.02-.58.34-.53.71-.53.93,0,1.86-.02,2.79.01.37.01.87-.25,1.08.21.19.41-.18.76-.42,1.05-1.01,1.23-2.05,2.43-3.22,3.82,1.01,0,1.87-.03,2.73.02.35.02.98-.33.96.49-.02.71-.57.43-.9.44-1.01.03-2.02.03-3.04,0-.3,0-.69.18-.87-.19-.21-.41.01-.82.25-1.12.98-1.21,2.01-2.38,3.18-3.76Z"/>
  <path class="cls-1" d="m218.14,82.78c0-.73,0-1.45,0-2.18,0-.25.04-.81.29-.62,1.05.79,1.71-.54,2.69-.34,1.1.23,1.88.76,1.93,1.88.05,1.21.01,2.42.02,3.64,0,.34,0,.62-.49.63-.48,0-.51-.25-.51-.61,0-1.01,0-2.02,0-3.03,0-.89-.23-1.55-1.36-1.5-1.05.05-1.54.54-1.55,1.56,0,.97,0,1.94,0,2.91,0,.33.02.64-.47.66-.56.03-.55-.31-.55-.69,0-.77,0-1.54,0-2.3Z"/>
  <path class="cls-1" d="m161.09,82.82c0-.77,0-1.53,0-2.3,0-.67.31-.82.73-.34.38.43.52.05.75-.09,1.8-1.06,3.41-.18,3.44,1.89.01.93.03,1.86-.01,2.78-.02.36.33.98-.45,1-.88.02-.49-.67-.52-1.06-.06-.88-.04-1.78-.01-2.66.03-.85-.22-1.38-1.2-1.4-1.02-.02-1.63.38-1.69,1.41-.06,1.01-.02,2.02-.02,3.03,0,.38.02.72-.54.7-.5-.02-.46-.33-.46-.66,0-.77,0-1.53,0-2.3Z"/>
  <path class="cls-1" d="m146.77,51.99c0-.77,0-1.53,0-2.3,0-.26.04-.78.35-.56,1.01.72,1.9-.21,2.88-.11,1.1.11,1.55.63,1.63,1.51.11,1.28.04,2.58.05,3.87,0,.43-.19.72-.62.74-.65.02-.37-.5-.38-.79-.03-1.01-.03-2.02,0-3.03.02-.88-.33-1.45-1.26-1.5-.95-.05-1.54.44-1.63,1.37-.08.96-.01,1.94-.04,2.9,0,.35.2.85-.51.83-.71-.03-.45-.54-.46-.88-.03-.68-.01-1.37,0-2.06Z"/>
  <path class="cls-1" d="m197.57,79.78c.95.35.22.87.02,1.13-.96,1.24-2,2.42-3.01,3.62-.29.61.2.49.49.5.98.02,1.97,0,2.95,0,.14.61-.14.76-.71.74-1.21-.04-2.43-.03-3.64,0-.78.01-.99-.25-.48-.89,1.01-1.28,2.03-2.54,3.17-3.98-.86,0-1.6.01-2.33,0-.7-.01-1.09-.25-.65-1.01,1.4.02,2.8.23,4.19-.11Z"/>
  <path class="cls-1" d="m197.29,54.89c-.22.11-.39.38-.7.24-.15-1.53.25-3.08-.24-4.59-.4-.83-1.13-.85-1.85-.65-.76.21-.96.92-1.02,1.59-.08.92-.04,1.85-.03,2.78,0,.5-.11.94-.7.89-.55-.05-.29-.57-.3-.87-.03-1.49-.01-2.98-.01-4.47,0-.35,0-.95.47-.67.93.53,1.72-.12,2.59-.08,1.2.05,1.77.53,1.88,1.67-.21,1.38-.05,2.78-.1,4.17Z"/>
  <path class="cls-1" d="m167.9,54.89c-.25.08-.46.54-.76.08.02-1.95.04-3.89.06-5.84.87.52,1.73,0,2.59-.05,1.94-.1,1.98.64,2.2,1.95.18,1.1.03,2.25.04,3.39,0,.42-.14.74-.6.73-.6,0-.4-.5-.41-.81-.03-.93-.03-1.86,0-2.79.03-.86-.18-1.56-1.12-1.71-1.06-.17-1.66.37-1.81,1.42-.43,1.19-.09,2.42-.2,3.62Z"/>
  <path class="cls-1" d="m154.59,55.13c-.45-.08-1.08-.27-1.03-1.26.05-.89.01-1.78,0-2.66,0-.56.21-1.19-.79-1.22-.42-.01-.7-.57-.07-.89.47-.24.74-.54.64-1.1-.09-.48.15-.61.61-.62.48,0,.64.17.61.63-.04.6-.15,1.28.85,1.1.24-.04.36.11.34.36-.02.33-.21.6-.5.57-.78-.08-.71.41-.7.9,0,.81,0,1.62,0,2.42,0,.45.06.83.62.83.36,0,.69.02.57.5-.11.44-.47.5-1.17.44Z"/>
  <path class="cls-1" d="m191.32,70.46c-.89.07-1.31-.35-1.32-1.19-.01-1.01-.02-2.02,0-3.02,0-.5.06-1.01-.71-.9-.27.04-.49-.05-.47-.38.01-.22-.08-.57.27-.55.91.07.7-.56.68-1.03-.02-.5.11-.71.66-.71.53,0,.58.26.57.67-.03.55-.15,1.1.77,1.12.31,0,.35.82-.11.84-.81.04-.66.51-.66.97,0,.73,0,1.45,0,2.18,0,.55-.14,1.16.78,1.08.22-.02.46.25.39.5-.11.43-.5.46-.84.43Z"/>
  <path class="cls-1" d="m213.81,62.24c.19.08.69-.28.74.32.04.55-.42.33-.69.39-.54.11-.5.52-.53.94-.03.47.23.51.6.51.25,0,.61-.13.63.32.02.33-.19.62-.46.61-.79-.04-.69.47-.69.95,0,1.13,0,2.26,0,3.39,0,.42.03.82-.6.78-.63-.03-.41-.48-.42-.79-.02-1.01.02-2.02-.02-3.02-.02-.54.38-1.32-.78-1.34-.33,0-.37-.81.12-.84.8-.05.61-.54.65-.98.09-.79.35-1.42,1.44-1.23Z"/>
  <path class="cls-1" d="m181.14,55.14c-.46-.06-1.13-.21-1.09-1.22.04-.85.02-1.7,0-2.55-.01-.61.3-1.36-.84-1.42-.43-.02-.65-.62.03-.9.52-.21,1.03-.39.83-1.14-.08-.31.04-.52.44-.54.44-.01.58.17.54.57-.07.68-.09,1.33.93,1.15.17-.03.28.11.28.3,0,.22-.04.42-.31.4-1.05-.07-.89.67-.9,1.31,0,.77,0,1.54,0,2.3,0,.4.1.72.57.76.3.03.71-.09.63.45-.07.45-.4.56-1.1.51Z"/>
  <path class="cls-1" d="m152.99,85.76c-.96.06-1.39-.36-1.37-1.29.03-.89,0-1.78,0-2.66,0-.58.19-1.3-.84-1.15-.22.03-.37-.09-.36-.35,0-.27.13-.57.36-.55.97.09.87-.54.84-1.15-.02-.34,0-.63.49-.63.48,0,.5.27.5.62.01.66-.28,1.55.97,1.35.17-.03.24.16.24.34,0,.25-.15.39-.37.35-1.04-.18-.83.55-.83,1.12,0,.81,0,1.61,0,2.42,0,.39.08.73.52.83.27.06.74-.14.67.41-.07.59-.57.23-.82.33Z"/>
  <path class="cls-1" d="m205.53,80.69c-.3-.13-.79.23-.91-.3-.09-.43.19-.61.61-.71.65-.16.26-.72.32-1.1.06-.34.03-.61.51-.6.5,0,.49.29.47.63-.03.7-.11,1.43.98,1.35.29-.02.27.26.22.44-.15.53-.62.16-.91.3-.57,1.19-.3,2.41-.13,3.63.05.34.21.64.56.69.32.04.55.09.48.48-.08.44-.43.25-.67.27-.67.05-1.32.03-1.33-.91.02-1.39.4-2.8-.21-4.17Z"/>
  <path class="cls-1" d="m152.5,69.71c0-1.53,0-3.05,0-4.58.11-.11.11-.22,0-.34.03-.5.62-.49.66-.37.41,1.26.77.36,1.23.05.28-.19.72-.19,1.03.02.11.07.09.36.09.55-.01.45-.39.29-.63.34-1.44.32-1.35,1.58-1.52,2.62-.11.63-.01,1.29-.02,1.94,0,.18.07.42-.22.48-.31.06-.57.02-.62-.37.11-.11.11-.23,0-.34Z"/>
  <path class="cls-1" d="m144.13,46.94c.67-.14,1.01-.02.98.82-.07,2.14-.03,4.28-.01,6.42,0,.7-.18,1.11-.97.95,0-2.73,0-5.46,0-8.18Z"/>
  <path class="cls-1" d="m223.12,65.35c.27-.55.69-.88,1.28-.96.26-.03.61-.09.6.36,0,.25.11.53-.34.63-1.37.3-1.68,1.3-1.6,2.55.04.64.02,1.29,0,1.94-.01.38-.26.58-.63.58-.45,0-.35-.36-.35-.62-.01-1.5-.03-2.99.01-4.49,0-.32-.32-.89.37-.94.68-.05.15.69.68.95Z"/>
  <path class="cls-1" d="m180.52,82.74c0-.77,0-1.53,0-2.3,0-.18-.05-.44.23-.47.15-.02.43,0,.45.06.3,1.31.73.24,1,.02.34-.28.68-.43,1.09-.33.25.06.17.33.17.51,0,.52-.32.62-.78.7-.85.14-1.1.84-1.14,1.58-.04.88-.02,1.77-.02,2.66,0,.36-.05.61-.52.61-.49,0-.49-.28-.49-.62,0-.81,0-1.61,0-2.42Z"/>
  <path class="cls-1" d="m162.99,54.62c0-1.58-.02-3.16-.01-4.73,0-.28-.17-.69.32-.78.37-.07.45.12.51.46.06.37.33.27.51.06.38-.47.93-.59,1.46-.74q.25.95-.59,1.22c-1.32.42-1.21,1.63-1.38,2.64-.11.63,0,1.29-.03,1.94-.03.64-.33.65-.74.26-.01-.11-.03-.21-.04-.32Z"/>
  <path class="cls-1" d="m206.12,47.2c0,2.47,0,4.95,0,7.42-.03.08-.06.16-.08.24-.21.14-.39.38-.7.27,0-2.74,0-5.47,0-8.21.23,0,.47.02.7.03.03.08.05.16.08.25Z"/>
  <path class="cls-1" d="m208.97,82.73c0-.72,0-1.45,0-2.17,0-.32-.05-.64.46-.64.42,0,.56.16.55.56-.01,1.57-.01,3.13,0,4.7,0,.37-.06.6-.52.59-.48-.01-.49-.29-.49-.63,0-.8,0-1.61,0-2.41Z"/>
  <path class="cls-2" d="m107.42,92.99c.44-.3.94-.16,1.41-.16,6.97-.02,13.95-.03,20.92-.05-.11.4-.45.27-.7.27-7.13,0-14.26,0-21.39,0-.08,0-.16-.04-.23-.06Z"/>
  <path class="cls-1" d="m193.25,64.86c-.04-.39.19-.47.52-.47.33,0,.55.09.51.47-.25,1.74-.23,3.47,0,5.21-.19.56-.56.43-.94.23.08-1.82.25-3.63-.09-5.44Z"/>
  <path class="cls-1" d="m176.2,70.25c-.49.36-.84.32-.84-.37-.02-1.64,0-3.29,0-4.93,0-.62.38-.59.81-.52.02,1.94.03,3.88.05,5.82Z"/>
  <path class="cls-1" d="m184.22,54.95c-.26.32-.53.34-.79,0-.02-.11-.04-.23-.06-.35,0-1.73,0-3.47,0-5.2.04-.09.07-.17.11-.26.23,0,.46-.01.69-.02.02,1.94.03,3.89.05,5.83Z"/>
  <path class="cls-1" d="m192.04,80.23c0,1.58,0,3.15.03,4.73.01.61-.13.94-.81.77,0-1.93,0-3.85,0-5.78.23,0,.47.02.7.02.03.08.06.17.09.25Z"/>
  <path class="cls-2" d="m144.13,46.94c0,2.73,0,5.46,0,8.18-.04-.01-.11-.02-.11-.04-.24-2.7-.24-5.4,0-8.1,0-.02.07-.03.11-.04Z"/>
  <path class="cls-2" d="m205.34,46.93c0,2.74,0,5.47,0,8.21-.36-.05-.27-.34-.27-.55,0-2.37,0-4.73,0-7.1,0-.21-.09-.5.27-.56Z"/>
  <path class="cls-2" d="m176.2,70.25c-.02-1.94-.03-3.88-.05-5.82.44.14.29.53.27.8-.12,1.67.3,3.37-.23,5.02Z"/>
  <path class="cls-2" d="m167.21,49.13c-.02,1.95-.04,3.89-.06,5.84-.27-1.95-.41-3.9.06-5.84Z"/>
  <path class="cls-2" d="m191.25,79.96c0,1.93,0,3.85,0,5.78-.6-1.06-.23-2.21-.24-3.31,0-.81-.39-1.7.24-2.47Z"/>
  <path class="cls-2" d="m184.22,54.95c-.02-1.94-.03-3.89-.05-5.83.46.14.28.53.26.8-.11,1.68.29,3.37-.21,5.03Z"/>
  <path class="cls-2" d="m193.25,64.86c.33,1.81.16,3.63.09,5.44-.32-1.81-.16-3.63-.09-5.44Z"/>
  <path class="cls-2" d="m194.28,70.07c-.23-1.74-.25-3.47,0-5.21.15,1.74.15,3.47,0,5.21Z"/>
  <path class="cls-1" d="m191.97,77.95c-.03.41.09.76-.42.79-.51.02-.58-.23-.56-.65.01-.34,0-.6.48-.6.45,0,.53.22.5.46Z"/>
  <path class="cls-1" d="m209.94,78.18c.03.33-.03.57-.5.56-.49-.01-.46-.31-.47-.64,0-.38.09-.6.53-.6.52,0,.44.34.44.69Z"/>
  <path class="cls-1" d="m193.66,63.4c-.51.06-.47-.28-.48-.61-.01-.36.04-.6.5-.6.49,0,.47.29.47.62,0,.35-.02.65-.49.58Z"/>
  <path class="cls-1" d="m175.68,63.4c-.51.06-.47-.29-.48-.61-.01-.36.03-.6.5-.6.49,0,.47.29.48.62,0,.35-.03.65-.5.58Z"/>
  <path class="cls-2" d="m196.36,50.54c.49,1.51.08,3.06.24,4.59-.56-.73-.17-1.56-.24-2.34-.07-.74,0-1.5,0-2.25Z"/>
  <path class="cls-2" d="m205.53,80.69c.61,1.36.23,2.77.21,4.17-.37-1.37.01-2.79-.21-4.17Z"/>
  <path class="cls-2" d="m197.57,79.78c-1.39.33-2.79.13-4.19.11,1.39-.36,2.79-.18,4.19-.11Z"/>
  <path class="cls-2" d="m197.29,54.89c.05-1.39-.11-2.78.1-4.17.16,1.39.37,2.79-.1,4.17Z"/>
  <path class="cls-2" d="m167.41,69.5c-.4-1.3-.1-2.63-.18-3.94.46,1.3.15,2.63.18,3.94Z"/>
  <path class="cls-2" d="m203.85,84.8c-.42-1.29-.09-2.62-.19-3.93.49,1.29.14,2.62.19,3.93Z"/>
  <path class="cls-2" d="m198.02,85.04c-.98,0-1.97,0-2.95,0-.29,0-.78.11-.49-.5.62.55,1.36.12,2.03.26.47.1,1.01-.25,1.41.24Z"/>
  <path class="cls-2" d="m179.08,84.8c-.42-1.29-.09-2.62-.2-3.93.49,1.29.14,2.62.2,3.93Z"/>
  <path class="cls-2" d="m206.7,84.32c-.17-1.22-.44-2.44.13-3.63-.04,1.21-.09,2.42-.13,3.63Z"/>
  <path class="cls-2" d="m159.59,84.56c-.36-1.21-.09-2.45-.15-3.68.45,1.21.19,2.45.15,3.68Z"/>
  <path class="cls-2" d="m167.9,54.89c.11-1.21-.23-2.44.2-3.62-.06,1.21.33,2.44-.2,3.62Z"/>
  <path class="cls-2" d="m162.99,54.62c.01.11.03.21.04.32-.14-.09-.21-.19-.04-.32Z"/>
  <path class="cls-2" d="m192.04,80.23c-.03-.08-.06-.17-.09-.25.26,0,.21.12.09.25Z"/>
  <path class="cls-2" d="m206.03,54.87c.03-.08.06-.16.08-.24.13.14.15.23-.08.24Z"/>
  <path class="cls-2" d="m152.5,69.71c.11.11.11.23,0,.34-.09-.11-.1-.23,0-.34Z"/>
  <path class="cls-2" d="m152.51,64.8c.1.11.1.23,0,.34-.1-.11-.09-.23,0-.34Z"/>
  <path class="cls-2" d="m183.48,49.14c-.04.09-.07.17-.11.26-.14-.16-.13-.26.11-.26Z"/>
  <path class="cls-2" d="m206.12,47.2c-.03-.08-.05-.16-.08-.25.25,0,.2.11.08.25Z"/>
  <path class="cls-2" d="m157.52,52.54c0-.18.08-.26.27-.23-.09.08-.18.15-.27.23Z"/>
  <path class="cls-2" d="m183.37,54.6c.02.12.04.23.06.35-.17-.09-.23-.2-.06-.35Z"/>
  <path class="cls-2" d="m73.9,74.2c3.19-.03,6.39-.06,9.58-.09.77,0,1.53-.04,2.3-.06-.13.34-.44.3-.71.3-3.57,0-7.15,0-10.72,0-.15,0-.3-.09-.45-.15Z"/>
  <path class="cls-2" d="m73.71,69.76c-.03,1.37-.06,2.75-.09,4.12-.26-1.38-.43-2.76.09-4.12Z"/>
  <path class="cls-2" d="m90.66,67.34c-1.13-.03-2.26-.06-3.4-.09,1.14-.22,2.28-.42,3.4.09Z"/>
  <path class="cls-2" d="m87.26,74.2c1.14-.16,2.29-.14,3.44-.03-1.14.29-2.29.27-3.44.03Z"/>
  <path class="cls-2" d="m86.9,73.29c.14.19.14.38.04.59-.18-.19-.17-.38-.04-.59Z"/>
  <path class="cls-2" d="m86.98,68.5c-.03.11-.07.22-.1.33-.09-.15-.05-.26.1-.33Z"/>
  <path class="cls-1" d="m118.62,64.94c-.07.68.06,1.66-.21,2.66-.45,1.63-1.36,2.44-3.06,2.38-1.51-.06-2.52-1.02-2.81-2.51-.36-1.86-.32-3.71,0-5.57.25-1.45,1.03-2.12,2.52-2.12.6,0,1.23-.06,1.8.08,1.46.36,1.63,1.62,1.76,2.84.07.64.01,1.29.01,2.24Z"/>
  <path class="cls-1" d="m98.49,48.92q0,2.38-2.19,2.36c-.83,0-1.91.04-2.3-.58-.32-.51.54-1.26.94-1.87.41-.63.89-1.22,1.27-1.87.27-.45.5-.45,1.03-.42,2.1.1.89,1.68,1.24,2.39Z"/>
  <path class="cls-1" d="m100.7,51.24c-1.28.39-1.5-.36-1.41-1.46.05-.6-.04-1.22.05-1.81.07-.45-.38-1.18.42-1.29.64-.09,1.37-.47,1.86.54.49,1.01,1.25,1.89,1.93,2.8.47.63.06.89-.43.94-.79.08-1.54.45-2.42.27Z"/>
  <path class="cls-1" d="m108.12,49.17c-.09.12-.13.24-.21.29-.13.08-.29.12-.43.19q-2.52,1.18-4.03-1.21c-.3-.47-.8-.84-.98-1.34-.12-.34-.86-.6-.35-1.03.39-.32.89-.6,1.51-.21,1.14.71,2.3,1.36,3.26,2.32.36.36.79.65,1.22.99Z"/>
  <path class="cls-1" d="m92.54,50.56c-.85-.28-1.72-.53-2.56-.86-.38-.15-.32-.43-.02-.74,1.22-1.27,2.66-2.24,4.14-3.15.57-.35,1.11.04,1.49.37.36.31-.22.63-.37.81-.79.95-1.25,2.1-1.98,3.08-.19.25-.26.61-.7.49Z"/>
  <path class="cls-1" d="m103.55,44.38c-3.51,2.11-7.13,2.06-9.28-.04,3.06-.49,6.02-.51,9.28.04Z"/>
  <path class="cls-1" d="m92.59,44.75c.51-.06.77-.03.89.21.15.29-.15.44-.32.54-1.51.89-2.76,2.11-4.14,3.17-.43.33-2-.19-2.18-.67-.1-.26.08-.36.23-.48,1.72-1.35,3.71-2.16,5.52-2.77Z"/>
  <path class="cls-1" d="m111.04,47.79c-.44.4-1.03.56-1.51.86-.5.32-.79.18-1.14-.18-1.1-1.16-2.43-2.04-3.73-2.95-.21-.15-.63-.17-.49-.51.12-.32.44-.32.81-.21,2.18.65,4.21,1.62,6.06,2.99Z"/>
  <path class="cls-1" d="m104.14,78.58c-.85,1.32-1.67,2.55-2.45,3.8-.49.78-1.24.48-1.85.41-.58-.07-.41-.69-.42-1.11-.01-.96.03-1.93-.02-2.89-.03-.61.14-.88.79-.81,1.28.14,2.56.24,3.94.61Z"/>
  <path class="cls-1" d="m98.44,82.58c-1.38.56-1.83.34-3.08-1.5-1.73-2.56-1.59-2.87,1.5-3.09.52-.04,1.05.01,1.57.02,0,1.52,0,3.04,0,4.57Z"/>
  <path class="cls-1" d="m89.7,79.97c.04-.12.04-.19.06-.19,1.04-.34,2.11-1.22,3.09-.95,1.01.27,1.21,1.71,1.86,2.57.19.25.34.52.54.76.26.33.67.77.38,1.07-.36.38-.99.55-1.54.22-1.62-.98-3.21-2-4.38-3.48Z"/>
  <path class="cls-1" d="m103.14,83.57c-.34.08-.72-.1-.93-.33-.34-.36.2-.51.35-.74.67-1.11,1.4-2.17,2.05-3.28.25-.43.37-.44.87-.31.94.24,1.83.52,2.66,1.03-.5.78-1.23,1.32-1.94,1.9-.74.6-1.6.99-2.33,1.58-.21.17-.44.16-.73.17Z"/>
  <path class="cls-1" d="m94.42,84.89c2.3-1.83,7.18-1.84,9.02-.02-2.29.89-7.4.9-9.02.02Z"/>
  <path class="cls-1" d="m104.13,84.31c1.43-1.1,2.77-2.11,4.1-3.15.96-.75,1.71-.76,2.5,0,.21.2.45.4.08.64-1.98,1.26-3.95,2.53-6.39,2.71-.03,0-.06-.04-.29-.2Z"/>
  <path class="cls-1" d="m93.77,84.36c-1.11.44-1.89-.03-2.62-.34-1.28-.54-2.48-1.25-3.7-1.91-.77-.42-.64-.8.07-1.22.75-.44,1.27-.57,2.04.17,1.23,1.19,2.7,2.14,4.21,3.3Z"/>
  <path class="cls-2" d="m98.44,82.58c0-1.52,0-3.04,0-4.57.45,1.52.48,3.04,0,4.57Z"/>
</svg>