<?xml version="1.0" encoding="UTF-8"?>
<svg id="Layer_1" data-name="Layer 1" xmlns="http://www.w3.org/2000/svg" viewBox="0 0 109.92 109.92">
  <path d="m55.55,50.16c-.55,1.59-1.05,3.03-1.54,4.47-2.65,7.8-5.3,15.61-7.95,23.41-.8,2.35-3.31,3.11-5.22,1.54-4.35-3.56-8.68-7.14-13-10.75-2.02-1.69-1.89-3.97.27-5.5,1.12-.79,2.26-1.55,3.39-2.32.17-.11.32-.24.54-.39-.49-.74-.96-1.46-1.44-2.16-4.43-6.55-8.86-13.1-13.28-19.65-1.33-1.98-1.29-4.63.14-6.42.37-.47.85-.89,1.37-1.2,1.5-.91,3.06-1.73,4.58-2.61,1.88-1.08,3.71-1.04,5.56.08,8.53,5.13,17.07,10.24,25.59,15.37.72.44,1.3.45,2.03,0,8.47-5.14,16.97-10.24,25.45-15.37,1.93-1.17,3.84-1.22,5.79-.08,1.47.85,2.99,1.61,4.42,2.51,1.85,1.16,2.84,2.89,2.66,5.09-.06.74-.43,1.5-.83,2.15-1.21,1.96-2.51,3.87-3.77,5.8-3.47,5.3-6.94,10.59-10.41,15.89-.16.24-.3.48-.48.78.9.61,1.78,1.2,2.64,1.81.52.36,1.05.72,1.51,1.15,1.61,1.49,1.56,3.53-.12,4.93-2.72,2.26-5.46,4.5-8.18,6.76-1.53,1.27-3.03,2.56-4.54,3.84-2.19,1.85-4.82,1.13-5.75-1.59-3.02-8.86-6.03-17.73-9.05-26.59-.09-.27-.2-.52-.37-.95Zm34.63-11.79s-.06-.08-.1-.13c-10.18,2.99-20.35,5.97-30.68,9,5.87,3.96,11.6,7.82,17.36,11.7,4.51-6.91,8.96-13.74,13.42-20.57Zm-68.59-.12l-.09.12c4.56,6.75,9.12,13.51,13.69,20.29,5.58-3.82,11.1-7.59,16.75-11.46-10.23-3.02-20.29-5.99-30.35-8.95Zm28.16,18.85s-.1-.06-.14-.08c-.18.22-.36.43-.52.66-2.28,3.17-4.54,6.35-6.83,9.5-1.51,2.08-4.07,2.04-5.54-.05-.65-.92-1.27-1.86-1.9-2.78-.18-.26-.37-.52-.56-.8-1.31.89-2.55,1.75-3.86,2.64,4.26,3.52,8.47,7,12.74,10.53,2.24-6.62,4.43-13.12,6.63-19.62Zm-7.62-16.39c.02-.05.04-.11.06-.16-.18-.12-.36-.25-.54-.36-4.75-2.85-9.5-5.69-14.24-8.56-.72-.43-1.36-.42-2.07,0-1.36.8-2.73,1.56-4.1,2.34-.17.09-.32.21-.59.38,7.24,2.15,14.36,4.26,21.47,6.36Zm-4.99,20.85c.81,1.18,1.57,2.3,2.39,3.49,2.33-3.25,4.59-6.42,6.86-9.58l-.15-.13c-3.01,2.06-6.02,4.12-9.1,6.22Z"/>
</svg>