<?xml version="1.0" encoding="UTF-8"?>
<svg id="Layer_1" data-name="Layer 1" xmlns="http://www.w3.org/2000/svg" viewBox="0 0 109.92 109.92">
  <defs>
    <style>
      .cls-1 {
        fill: #115bad;
      }

      .cls-2 {
        fill: #98b7dd;
      }

      .cls-3 {
        fill: #145caa;
      }
    </style>
  </defs>
  <path class="cls-1" d="m93.8,55.12c-.09.35-.09.71-.13,1.07-.06.21-.1.42-.1.64,0,.04,0,.07-.01.11-.14.44-.23.88-.32,1.33-.19.79-.42,1.57-.75,2.32-.3.67-.62,1.32-1.01,1.94-.47.76-1.08,1.39-1.73,1.98-1.21,1.09-2.61,1.84-4.14,2.34-.57.19-1.12.46-1.74.49-.7.12-1.39.3-2.1.38-.08,0-.14.04-.17.11-.34-.03-.67.04-1.01.08-.09,0-.17-.01-.26-.02-.28,0-.56,0-.85,0-.55.02-1.1-.04-1.66.03-.48.05-.95-.06-1.42-.12-.97-.12-1.92-.32-2.85-.61-.88-.27-1.73-.63-2.56-1.04-.9-.45-1.73-.99-2.52-1.6-.82-.63-1.48-1.4-2.05-2.25-.79-1.17-1.37-2.43-1.72-3.79-.18-.7-.35-1.41-.42-2.14.09-.09.04-.2.03-.3-.13-.97-.12-1.94-.11-2.91,0-.68.12-1.35.12-2.03,0-.06,0-.12,0-.18.08-.08.08-.16.01-.25.13-1.02.29-2.03.66-3,.18-.48.35-.96.57-1.43.56-1.18,1.31-2.21,2.22-3.14.76-.78,1.62-1.43,2.58-1.91.67-.33,1.36-.6,2.07-.86.59-.22,1.19-.37,1.79-.57.24-.08.53-.16.81-.16.38-.03.76-.1,1.14-.18.02,0,.04,0,.06-.01.48-.04.96-.08,1.45-.12.92,0,1.85,0,2.77,0,1.01.07,2.01.22,3,.45,1.03.24,2.03.57,2.98,1,1.13.5,2.18,1.14,3.16,1.91.93.73,1.66,1.62,2.29,2.59.42.65.67,1.39.92,2.13.43,1.29.76,2.59.88,3.95.02.19.05.37.05.56.11,1.07.06,2.14.06,3.21Zm-10.13-3.83s-.03,0-.05,0c-.06-.85-.18-1.68-.4-2.5-.18-.7-.49-1.28-1.07-1.72-.86-.65-1.87-.8-2.9-.87-.9-.06-1.75.16-2.58.46-1.06.38-1.66,1.21-1.92,2.28-.18.77-.17,1.57-.25,2.36-.08.61-.07,1.22-.05,1.83,0,.06,0,.12,0,.18-.04.67-.03,1.35,0,2.02-.04.38.05.75.12,1.12,0,.13.01.25.02.38.02.04.03.08.05.12-.04.43.09.84.18,1.25.23.96.68,1.79,1.6,2.26.63.33,1.32.51,2.04.52.44.12.88.09,1.32,0,.56-.11,1.12-.22,1.66-.42,1.13-.42,1.67-1.29,1.93-2.41.19-.81.15-1.64.25-2.46.09-.01.12-.07.12-.16,0-.7-.01-1.39-.02-2.09,0-.05,0-.11,0-.16.06-.63.02-1.26.02-1.9,0-.03-.04-.07-.06-.1Z"/>
  <path class="cls-1" d="m37.15,48.7c0-.06,0-.12,0-.18,0-.42.07-.85-.04-1.27,0-.04,0-.08,0-.12.2-.29.15-.63.17-.95.12-.87.45-1.68.86-2.45.56-1.05,1.38-1.84,2.36-2.5.66-.45,1.37-.8,2.12-1.07.58-.21,1.16-.39,1.76-.52.76-.16,1.53-.24,2.3-.3.69,0,1.38,0,2.07,0h.25c.5.06,1.01.12,1.51.18.19.02.37.05.56.07.4.08.8.17,1.2.25.98.18,1.88.57,2.75,1.03.41.22.81.45,1.21.67.11.11.24.07.37.06.1-.08.06-.19.07-.29,0-.31.01-.63,0-.94,0-.2.05-.28.26-.28,1.76,0,3.52,0,5.29,0,.1,0,.22-.03.24.13-.1.11-.06.24-.06.36,0,2.94,0,5.88,0,8.82-.15,0-.29,0-.44,0-1.73,0-3.45,0-5.18,0-.02,0-.03,0-.05,0-.76-1.09-1.74-1.93-2.92-2.55-.96-.51-2.01-.79-3.06-1.04-.12-.03-.24-.05-.36-.08-.13-.19-.36-.07-.51-.18-.37-.14-.75-.02-1.12-.07-.28,0-.56-.02-.84,0-.25.01-.51-.07-.75.06-.45.04-.86.14-1.21.46-.54.48-.45,1.07.11,1.51.38.29.82.45,1.27.54.73.15,1.42.43,2.14.61,1.12.28,2.23.63,3.34.96,1.11.33,2.22.68,3.34.98,1.46.4,2.79,1.04,3.95,2.01.99.83,1.84,1.77,2.43,2.94.3.6.54,1.22.68,1.88.02.21-.07.45.12.63,0,.04,0,.08,0,.12,0,.65,0,1.3,0,1.95-.02.15-.04.3-.06.45-.07.72-.3,1.41-.6,2.06-.58,1.3-1.45,2.38-2.6,3.22-.55.4-1.15.73-1.79.98-.58.23-1.15.48-1.75.62-.33.08-.68.15-1.01.23-.12-.03-.25-.04-.37-.01-.41.1-.83.1-1.25.15-.74.1-1.49.02-2.23.05-.17,0-.33,0-.5-.01-.56-.15-1.12-.25-1.7-.24-.77-.1-1.51-.3-2.24-.54-1.18-.38-2.33-.85-3.39-1.53-.07-.05-.17-.13-.29-.06-.02,0-.04-.01-.06-.02-.1.08-.06.19-.06.29,0,.37-.02.73,0,1.1.02.28-.06.38-.36.37-1.78-.02-3.56-.01-5.34,0-.28,0-.35-.07-.35-.35,0-3.24,0-6.47,0-9.71.09,0,.19-.02.28-.02,1.75,0,3.51,0,5.26,0,.57,1.15,1.44,2.02,2.51,2.71.83.53,1.74.89,2.68,1.16.41.12.81.23,1.22.29.05.02.09.04.14.05.55.12,1.12.09,1.68.09.57,0,1.15.03,1.7-.14.54-.07,1.06-.22,1.55-.45.5-.23.53-.9.1-1.25-.29-.24-.64-.37-.98-.48-1.34-.43-2.69-.82-4.03-1.22-1.19-.36-2.38-.69-3.57-1.07-.96-.3-1.94-.54-2.87-.94-1.43-.6-2.71-1.41-3.8-2.52-.95-.97-1.64-2.08-1.98-3.39-.11-.41-.17-.83-.17-1.26,0-.02,0-.05,0-.07Z"/>
  <path class="cls-3" d="m50.2,71.93c.86-.1,1.71-.21,2.57-.26.48-.03.96-.06,1.44-.1.03,0,.06-.05.08-.08.02-.02.04-.04.07-.06.06-.04.06-.09.03-.14,0-.12,0-.24,0-.36.03-.17.03-.34-.01-.52.03-.13.13-.11.22-.11.2,0,.4.01.59,0,.24-.02.35.07.35.31-.01.13,0,.27-.03.4-.1.49-.02.58.47.54,1.04.09,2.08.18,3.12.3,1.22.13,2.42.38,3.64.57.16.02.24-.02.29-.16.21-.6.61-1.11.83-1.7.07-.19.19-.28.4-.26.2.02.4.01.6,0,.21-.01.27.06.2.25-.14.36-.29.72-.44,1.08-.12.29-.22.58-.36.85-.11.23,0,.32.18.37.62.16,1.23.38,1.84.6.8.28,1.58.59,2.37.88.19.07.39.14.58.22.2.09.38.01.52-.16.69-.82,1.38-1.64,2.01-2.5.33-.45.63-.93.95-1.39.07-.1.15-.2.29-.2.35,0,.71,0,1.09,0-.6,1.12-1.31,2.12-2.06,3.09-.4.52-.82,1.04-1.27,1.53-.13.14-.14.29.07.41.82.47,1.64.94,2.46,1.41.02.01.04.02.06.03.58.33.65.32,1.17-.13.65-.57,1.29-1.15,1.9-1.77.7-.71,1.39-1.44,2.02-2.22.57-.7,1.11-1.43,1.66-2.14.02-.02.03-.05.05-.07,0,0,0,0,0,0,.37-.18.75-.06,1.13-.04.03,0,.07.07.1.11-.81,1.2-1.65,2.37-2.6,3.47-.94,1.08-1.93,2.11-3,3.06-1.17,1.04-2.41,1.97-3.72,2.82-1.42.93-2.91,1.73-4.47,2.38-.78.33-1.57.67-2.37.93-.44.14-.9.28-1.34.42-.59.19-1.2.3-1.8.46-.37.1-.77.25-1.17.24-.49,0-.96.16-1.44.21-.03,0-.05.06-.08.09-.86.07-1.71.14-2.57.21-.08,0-.17-.02-.25-.02-1.76.06-3.51.02-5.26-.17-.24-.03-.48-.15-.73-.02-.81-.15-1.61-.31-2.42-.47-1.13-.23-2.23-.55-3.32-.92-.81-.27-1.6-.59-2.4-.92-.98-.41-1.91-.9-2.83-1.39-1.01-.54-1.97-1.16-2.91-1.83-1.03-.74-2.01-1.54-2.95-2.39-.98-.89-1.91-1.82-2.77-2.83-.81-.95-1.6-1.91-2.26-2.97-.09-.15-.36-.28-.25-.45.1-.16.37-.06.56-.1.46-.08.74.13.99.5.91,1.36,1.98,2.59,3.12,3.76.86.88,1.77,1.71,2.75,2.45.14.11.26.11.4.03.9-.52,1.8-1.05,2.7-1.58.18-.11.18-.41,0-.62-.48-.59-.96-1.19-1.43-1.78-.66-.83-1.26-1.7-1.78-2.62.42-.22.84-.06,1.26,0,0,0,0,0,0,0,.02.02.04.05.06.07.42.65.88,1.27,1.33,1.89.51.7,1.1,1.33,1.65,2.01.28.34.34.34.74.16.8-.36,1.64-.63,2.46-.95.61-.23,1.27-.31,1.85-.64.12-.07.28-.05.42-.09.22-.06.31-.2.21-.43-.23-.5-.44-1-.69-1.49-.1-.19-.13-.4-.21-.6.02-.02.04-.04.06-.06,0,0,0,0,0,0,.02,0,.04,0,.06,0,.06,0,.12,0,.18-.01.21.04.43.03.64,0,.35,0,.32.34.43.52.27.44.47.93.71,1.39.06.12.14.23.33.19.42-.1.85-.07,1.26-.24.15-.06.35-.02.53-.03.07,0,.14,0,.19-.06.06,0,.12-.02.18-.02.26.03.51-.04.77-.09Zm5.84.82c-.15.01-.31-.08-.44.06-.08.09-.05.2-.06.3,0,1.59-.01,3.19,0,4.78,0,.53-.05,1.06.05,1.59.02.02.04.05.06.07.01.01.03.04.04.04.67.11,1.35.17,2.01.31.33.07.63.03.81-.33.09-.17.23-.31.35-.47.66-.86,1.26-1.76,1.86-2.66.34-.51.64-1.03.94-1.56.19-.35.43-.68.56-1.06.05-.14.08-.28-.12-.32-.26-.05-.52-.09-.79-.14-.03-.03-.05-.08-.08-.09-.77-.14-1.54-.32-2.33-.33-.14,0-.29-.01-.43-.02-.31-.12-.64-.03-.96-.1-.14,0-.29-.01-.43-.02-.35-.12-.71-.07-1.07-.06Zm-1.68.05h0c-.59-.13-1.18-.07-1.77.01-.02,0-.04.01-.07.02-.3,0-.59.02-.88.1-.58-.03-1.14.12-1.7.18-.41,0-.8.06-1.19.19-.23.13-.5.1-.75.19-.3.11-.33.16-.18.43.14.24.28.48.41.73.45.86.96,1.68,1.5,2.48.61.9,1.23,1.79,1.95,2.62.06.07.07.17.2.15.27-.05.55-.08.82-.12.44-.06.9-.04,1.33-.17.12,0,.25.02.32-.12.04-.01.06-.03.04-.08,0-.12,0-.25,0-.37.06-.89.02-1.77.02-2.66,0-.75-.01-1.5-.02-2.25,0-.19,0-.37,0-.56,0-.26.06-.52-.04-.77Zm2.57,8.12c-.02-.06-.07-.1-.13-.11-.4-.04-.79-.12-1.19-.07-.38,0-.75,0-1.13,0-.11-.01-.23-.06-.33.05-.35.05-.69.05-1.04.11-1.05.19-2.08.42-3.06.84-.53.22-1.02.53-1.51.82-.08.05-.18.13-.15.25.02.1.09.17.19.19.64.16,1.28.3,1.94.37.78.07,1.54.24,2.32.28.99.05,1.98.05,2.97.03.09-.02.18-.05.26-.05.75,0,1.5-.06,2.25-.14.43.02.86-.03,1.27-.17.63,0,1.24-.16,1.84-.31.09-.02.16-.06.16-.16,0-.1.03-.21-.09-.28-.1-.06-.19-.12-.29-.18-.74-.41-1.5-.8-2.32-1.05-.64-.2-1.29-.34-1.95-.42Zm-8.34.14c.19-.02.33-.07.47-.14.38-.17.75-.35,1.13-.5.27-.11.34-.2.16-.43-.43-.56-.83-1.16-1.23-1.74-.58-.84-1.12-1.7-1.64-2.57-.32-.54-.62-1.09-.94-1.63-.08-.15-.19-.19-.39-.16-.21.04-.39.12-.59.17-1.34.36-2.63.83-3.89,1.42-.26.12-.27.29-.08.5.22.23.44.44.68.64.59.49,1.14,1.02,1.74,1.49,1.16.91,2.35,1.79,3.64,2.51.3.17.59.39.92.43Zm10.98-.79c-.01.13.06.18.19.22.39.13.79.26,1.16.45.24.12.41.1.63,0,.82-.42,1.6-.92,2.36-1.42,1.59-1.05,3.05-2.25,4.37-3.62.19-.2.16-.38-.11-.47-.65-.24-1.27-.54-1.93-.77-.79-.28-1.61-.47-2.42-.7-.14-.04-.27-.03-.37.14-.51.87-1.03,1.73-1.55,2.59-.61,1-1.28,1.96-1.96,2.92-.14.2-.38.36-.38.66Zm10.2-4.07c-.15-.01-.22.09-.3.17-.44.4-.88.8-1.32,1.2-.71.64-1.4,1.32-2.18,1.89-1.03.75-2.07,1.47-3.15,2.15-.25.16-.25.32-.05.46.27.2.47.48.95.33.85-.25,1.7-.53,2.53-.85,1.08-.41,2.13-.88,3.14-1.45,1.06-.59,2.13-1.16,3.09-1.9.29-.22.28-.42-.05-.61-.72-.41-1.44-.82-2.17-1.22-.15-.08-.33-.11-.49-.17Zm-29.61.08c-.14-.02-.27.03-.39.09-.72.36-1.41.75-2.08,1.18-.15.1-.34.13-.33.38.01.25.23.33.37.47.04.04.11.02.17.06.76.55,1.58,1,2.38,1.47,1.13.67,2.34,1.16,3.54,1.67.64.27,1.31.48,1.98.69.42.13.85.27,1.27-.08.3-.25.34-.47,0-.65-1-.56-1.94-1.21-2.86-1.89-1.32-.99-2.59-2.07-3.73-3.27-.09-.1-.19-.16-.33-.13Z"/>
  <path class="cls-3" d="m28.61,36.57c-.08,0-.16-.01-.25-.02.01-.02,0-.04-.01-.05.74-1.24,1.65-2.36,2.58-3.46.7-.83,1.45-1.6,2.23-2.35.75-.72,1.56-1.38,2.39-2.02,1.17-.9,2.4-1.71,3.69-2.44.68-.38,1.37-.74,2.08-1.07.85-.4,1.73-.75,2.61-1.08.73-.27,1.47-.51,2.21-.72.82-.24,1.67-.39,2.5-.58,1.06-.25,2.13-.4,3.21-.48,1.42-.11,2.85-.26,4.28-.09.39.05.79.05,1.18.07.51.06,1.01.11,1.52.17,1.26.13,2.5.38,3.73.68,1.1.27,2.19.6,3.26.99,1.17.42,2.31.93,3.42,1.5.92.47,1.81.98,2.67,1.54,1.26.81,2.45,1.71,3.58,2.68.8.69,1.58,1.41,2.3,2.18.88.95,1.76,1.92,2.5,2.99.3.44.63.86.95,1.29,0,.21-.15.19-.28.2-.33.03-.66-.04-.99-.07-.7-.98-1.44-1.93-2.23-2.84-.89-1.03-1.89-1.94-2.91-2.84-.32-.28-.66-.53-1-.78-.17-.12-.35-.11-.52,0-.7.46-1.43.86-2.15,1.28-.13.07-.26.12-.39.19-.23.13-.23.27-.12.46.06.11.11.23.2.31.45.39.77.89,1.13,1.35.63.83,1.18,1.72,1.76,2.58.03.04.04.1.07.13.27.24.09.29-.13.32-.25-.03-.51-.03-.76,0-.18,0-.24-.14-.33-.26-.94-1.33-1.89-2.66-3.01-3.85-.2-.22-.39-.22-.63-.12-.66.27-1.32.51-1.99.76-.6.23-1.23.4-1.83.64-.25.1-.52.19-.79.24-.31.06-.35.22-.28.49.12.46.37.87.55,1.31.08.2.17.39.26.59,0,.06,0,.12-.01.18-.31,0-.62,0-.94.01-.02,0-.05,0-.07,0-.13,0-.17-.1-.22-.2-.27-.55-.53-1.11-.8-1.66-.09-.18-.21-.24-.42-.21-.81.13-1.61.32-2.42.44-.99.15-1.98.25-2.98.3-.17,0-.34.08-.52.06-.24,0-.48,0-.72,0-.27,0-.39.1-.33.38,0,.04,0,.08,0,.11-.04.15-.04.3,0,.45,0,.08-.02.15-.03.23-.25.03-.49.06-.74.1-.1,0-.2-.01-.31-.02-.01-.07-.06-.1-.12-.13,0-.25-.01-.5-.01-.75,0-.24-.12-.37-.36-.37-.81.02-1.62-.04-2.43-.13-.75-.08-1.49-.16-2.23-.28-.74-.12-1.48-.27-2.22-.4-.12-.02-.18.03-.25.14-.26.47-.49.95-.69,1.44-.08.2-.17.4-.37.52-.24,0-.47-.02-.71-.01-.2,0-.29-.07-.25-.27.13-.56.47-1.03.68-1.55.06-.16.07-.32.13-.47.05-.14-.08-.14-.18-.18-.7-.23-1.4-.45-2.1-.69-.87-.31-1.74-.63-2.6-.97-.24-.1-.41-.09-.6.12-.78.86-1.51,1.75-2.19,2.69-.32.45-.58.94-.99,1.33-.27,0-.53.01-.8,0-.1,0-.25.03-.23-.16.39-.77.86-1.49,1.36-2.18.55-.77,1.14-1.52,1.77-2.23.17-.2.14-.32-.1-.46-.91-.51-1.84-.96-2.7-1.55-.22-.15-.44,0-.62.14-.68.55-1.33,1.14-1.97,1.74-.9.86-1.74,1.78-2.53,2.74-.47.57-.91,1.16-1.35,1.76-.09.13-.17.18-.32.18-.23,0-.46,0-.69,0-.02,0-.05,0-.07,0Zm26.92-9.14l-.07.04v.02c-.1.38-.07.76-.04,1.14,0,1.02-.01,2.04-.01,3.07,0,.32-.04.65.03.97,0,.12,0,.24-.01.36,0,.37-.07.75.07,1.12.1,0,.19,0,.29.01.34.01.68.04,1.01-.06.04,0,.08,0,.12,0,1.11-.02,2.2-.13,3.28-.36.51-.09,1.01-.17,1.5-.33.34-.11.28-.26.16-.47-.6-1.12-1.26-2.19-1.98-3.24-.56-.83-1.17-1.62-1.78-2.41-.09-.12-.2-.18-.35-.15-.72.11-1.45.1-2.16.28-.03-.02-.06-.01-.08.02h0Zm-1.4,6.67s.02-.03.02-.05c0,0,0,0,0,0,.02,0,.04,0,.05-.02.08-.05.05-.13.05-.2,0-1.7.02-3.39,0-5.09,0-.43.04-.87-.1-1.3h0c-.09-.19-.25-.1-.39-.1-.06,0-.12,0-.18,0-.07,0-.13,0-.2-.01-.19-.02-.37-.05-.56-.07-.18-.1-.38-.12-.58-.1-.04,0-.07,0-.11,0-.13-.07-.25-.04-.38,0-.15-.01-.29-.03-.39.12-.58.79-1.18,1.55-1.74,2.35-.72,1.02-1.37,2.09-1.97,3.19-.25.44-.14.67.34.76.12.02.24.04.36.06.66.18,1.34.24,2.02.32h.24c.49.2,1,.19,1.51.19h0c.36.07.73.06,1.09.06.3,0,.6.06.89-.07Zm10.04-9.31c-.24-.19-.52-.26-.83-.24-.27-.05-.73.15-.85.39-.08.16-.09.32.11.43.15.08.31.15.45.25.97.63,1.95,1.26,2.87,1.97,1.14.88,2.21,1.83,3.25,2.83.29.28.43.31.78.11.52-.29,1.04-.59,1.56-.89.24-.14.48-.27.71-.43.18-.12.25-.25,0-.42-.54-.38-1.1-.73-1.66-1.08-.64-.4-1.29-.77-1.96-1.12-.61-.33-1.25-.6-1.89-.87-.84-.36-1.69-.68-2.56-.93Zm-11.9,1.21c.5.16,1.02.18,1.54.21.81.06,1.62.08,2.43-.09.28-.04.56-.06.83-.11.79-.15,1.55-.37,2.3-.67.65-.26,1.27-.58,1.85-.98.1-.07.12-.16.12-.26,0-.16-.13-.1-.2-.13-.22-.08-.44-.1-.67-.13-1.04-.18-2.08-.4-3.15-.43-.04-.12-.15-.08-.24-.09-1.06-.12-2.13-.07-3.19-.07-.58,0-1.17.02-1.74.11-.25.02-.5.04-.75.07-.11-.02-.22,0-.31.07-.04,0-.08,0-.12.01-.24,0-.47.01-.7.11-.04,0-.08,0-.12.01-.04-.01-.06.01-.08.05-.58.1-1.16.14-1.72.32-.1.03-.21.03-.22.17,0,.14.09.21.18.27.97.63,2.01,1.1,3.13,1.41.28.08.56.15.84.18Zm8.71-.07c-.13.02-.21.01-.31.06-.39.19-.79.35-1.19.52-.26.12-.3.22-.12.44.64.79,1.19,1.65,1.74,2.49.72,1.09,1.4,2.2,2.04,3.34.1.18.23.24.44.18.65-.16,1.3-.33,1.93-.55.85-.29,1.69-.61,2.5-1.01.25-.12.26-.3.06-.51-.23-.24-.52-.43-.75-.66-.82-.85-1.78-1.52-2.71-2.23-.82-.63-1.72-1.13-2.6-1.66-.33-.2-.69-.36-1.04-.41Zm-15.05,7.12c.22-.04.38-.1.5-.31.36-.65.74-1.28,1.11-1.91.48-.82.97-1.62,1.53-2.39.35-.48.71-.97,1.05-1.46.12-.18.14-.33-.13-.43-.33-.12-.65-.27-.96-.43-.37-.19-.71-.21-1.06.05-.26.19-.54.34-.82.5-.97.56-1.87,1.21-2.76,1.89-.91.7-1.78,1.45-2.62,2.23-.55.51-.55.67.16.93,1.1.41,2.2.82,3.33,1.13.23.06.44.16.66.2Zm.34-8.51c-.21.08-.48.06-.74.16-.58.23-1.16.47-1.75.66-.85.28-1.65.66-2.45,1.04-.93.45-1.85.94-2.73,1.5-.48.31-.98.57-1.39.97-.19.19-.17.32.06.45.76.42,1.52.83,2.27,1.27.4.23.53.2.85-.12.85-.87,1.79-1.66,2.75-2.41,1.22-.96,2.49-1.85,3.83-2.64.21-.12.2-.32.11-.42-.21-.22-.42-.46-.81-.48Z"/>
  <path class="cls-3" d="m35.76,46.26c-.02.06-.06.1-.12.12.01-.02.02-.04.01-.06.05-.37-.07-.72-.06-1.09.01-1.71,0-3.42.01-5.12,0-.32-.08-.4-.4-.4-5.55.01-11.11,0-16.66,0-.05,0-.11,0-.16,0-.16-.01-.23.05-.23.22,0,.1.06.24-.11.29,0-.21,0-.42-.01-.63,0,0,0,0,0,0,5.58,0,11.17,0,16.75,0,.22,0,.44.03.65.03.26,0,.27.1.27.3,0,1.83,0,3.67,0,5.5,0,.28-.03.56.04.84Z"/>
  <path class="cls-3" d="m22.05,60.41c0-.08.02-.17.02-.25,0-4.3,0-8.61,0-12.91,0-.08-.01-.17-.02-.25.01-.02.01-.04,0-.06,0-.04,0-.09,0-.13.01-.02.01-.04,0-.06,0-.04,0-.09,0-.13.02-.08.02-.16,0-.25h.02s.02,0,.02,0c.16.03.11.16.11.26,0,4.57,0,9.14,0,13.7,0,.09.05.22-.11.25-.02,0-.04,0-.06,0,.05-.05.05-.11.03-.18Z"/>
  <path class="cls-2" d="m35.76,46.26c-.07-.28-.04-.56-.04-.84,0-1.83,0-3.67,0-5.5,0-.21,0-.3-.27-.3-.21,0-.43-.03-.65-.03-5.58,0-11.17,0-16.75,0,0-.02,0-.05,0-.07,5.65,0,11.31,0,16.96,0,.26,0,.52-.05.78.02,0,2.16,0,4.32,0,6.48,0,.08.02.17-.03.24Z"/>
  <path class="cls-3" d="m62.46,40.22c-.02-.16-.14-.13-.24-.13-1.76,0-3.52,0-5.29,0-.21,0-.27.08-.26.28.01.31,0,.63,0,.94,0,.1.04.21-.07.29.02-.5.03-1.01,0-1.51.02-.02.05-.05.07-.07.12,0,.25.02.37.02,1.36,0,2.72,0,4.07,0,.45,0,.9-.01,1.35-.02.02.02.04.05.06.07,0,.12-.02.25-.02.37,0,1.75,0,3.49.01,5.24,0,1.23,0,2.47.01,3.7-.02.03-.04.06-.06.09-1.89-.05-3.78-.03-5.68-.01,0,0-.01,0-.01,0,0-.02,0-.04,0-.06,1.73,0,3.45,0,5.18,0,.15,0,.29,0,.44,0,.09-.07.06-.17.06-.26,0-2.97,0-5.94,0-8.92Z"/>
  <path class="cls-2" d="m35.64,46.37s-.04.03-.06.04c-1.25-.03-2.5-.03-3.74,0-.22,0-.13.18-.13.28,0,.86,0,1.72,0,2.58,0,3.64,0,7.29,0,10.93,0,.13.01.25.02.38,0,.01-.02.02-.03.03-.11-.11-.05-.24-.05-.36,0-4.51,0-9.03-.01-13.54,0-.31.09-.38.39-.38,1.21.01,2.43,0,3.64,0,0,.02,0,.04-.01.06Z"/>
  <path class="cls-3" d="m37.42,57.22c0,3.24,0,6.47,0,9.71,0,.28.07.35.35.35,1.78-.01,3.56-.01,5.34,0,.3,0,.37-.1.36-.37-.02-.37,0-.73,0-1.1,0-.1-.04-.21.06-.29,0,.61,0,1.21,0,1.82-.02,0-.04,0-.05.01-.16,0-.31-.02-.47-.02-1.57,0-3.14,0-4.71,0-.29,0-.58.01-.88.02-.02,0-.03-.02-.04-.03,0-3.07,0-6.13,0-9.2,0-.3,0-.61-.01-.91,0,0,0,0,0,0,.02,0,.04,0,.06,0Z"/>
  <path class="cls-2" d="m35.73,67.34c-.11.09-.24.05-.36.05-5.67,0-11.33,0-17,0-.12,0-.25.03-.36-.06h.02s.02,0,.02,0c.04,0,.07-.01.11-.02.05,0,.09,0,.14,0,.1,0,.21.01.31.01,5.54,0,11.08,0,16.61,0,.16,0,.31,0,.47-.01.01.01.02.02.03.03Z"/>
  <path class="cls-2" d="m18.04,39.59c0,.21,0,.42.01.63,0,.32,0,.63,0,.95,0,1.6,0,3.21-.02,4.81,0,.32.09.37.39.37,1.21-.01,2.43,0,3.64,0,0,.02,0,.03.02.05h-.02s-.02,0-.02,0c-.03,0-.06.01-.1.02-.47,0-.93,0-1.4,0-.71,0-1.41,0-2.12.01q-.51-.04-.51-.55c0-1.99,0-3.97,0-5.96,0-.11-.07-.26.11-.32Z"/>
  <path class="cls-2" d="m31.71,60.58c1.26,0,2.51.01,3.77,0,.23,0,.31.06.31.3,0,2.06,0,4.13,0,6.19,0,.09.03.19-.05.27-.01-.01-.02-.02-.03-.03,0-.03.01-.06.01-.09,0-2.11,0-4.21,0-6.32,0-.23-.11-.25-.29-.24-1.24,0-2.47,0-3.71,0,0-.02-.02-.03-.03-.04,0,0,.02-.02.03-.03Z"/>
  <path class="cls-2" d="m37.36,57.21c0,.3.01.61.01.91,0,3.07,0,6.13,0,9.2-.12-.07-.07-.19-.07-.28,0-3.18,0-6.36,0-9.54,0-.1-.05-.21.06-.29Z"/>
  <path class="cls-2" d="m62.53,49.4c0-1.23,0-2.47-.01-3.7,0-1.75,0-3.49-.01-5.24,0-.12.01-.25.02-.37.12.24.06.49.06.73,0,2.77,0,5.54,0,8.31,0,.09.03.19-.06.27Z"/>
  <path class="cls-2" d="m64.33,51.15c0,.68-.12,1.35-.12,2.03,0,.97-.01,1.94.11,2.91.01.1.05.21-.03.3-.16-.29-.08-.61-.11-.92-.15-1.36-.05-2.73.06-4.09,0-.09.03-.16.1-.22Z"/>
  <path class="cls-2" d="m50.56,84.56c.25-.13.49,0,.73.02,1.75.19,3.5.23,5.26.17.08,0,.17.01.25.02-.33.12-.68.02-1.02.07-.5,0-.99,0-1.49,0-.92-.03-1.83-.06-2.74-.16-.33-.03-.66-.09-.99-.13Z"/>
  <path class="cls-2" d="m93.8,55.12c0-1.07.05-2.14-.06-3.21.18.15.16.38.17.57.02.77,0,1.55,0,2.32,0,.12-.03.23-.12.31Z"/>
  <path class="cls-2" d="m37.42,67.34c.29,0,.58-.02.88-.02,1.57,0,3.14,0,4.71,0,.16,0,.31.01.47.02-.07.07-.16.04-.24.04-1.86,0-3.72,0-5.58,0-.08,0-.17.03-.24-.05Z"/>
  <path class="cls-2" d="m62.47,40.02c-.45,0-.9.02-1.35.02-1.36,0-2.72,0-4.07,0-.12,0-.25-.01-.37-.02.08-.08.18-.05.27-.05,1.75,0,3.51,0,5.26,0,.09,0,.19-.03.26.05Z"/>
  <path class="cls-2" d="m56.79,49.48c1.89-.02,3.78-.04,5.68.01-.07.06-.16.04-.24.04-1.72,0-3.45,0-5.17,0-.09,0-.19.03-.27-.05Z"/>
  <path class="cls-2" d="m37.42,57.22s-.04,0-.06,0c.02-.03.05-.06.07-.09.11,0,.23.02.34.02,1.73,0,3.45,0,5.18,0,0,.02,0,.04,0,.07-1.75,0-3.51,0-5.26,0-.09,0-.19.01-.28.02Z"/>
  <path class="cls-2" d="m51.7,67.91c.74-.03,1.49.05,2.23-.05.41-.06.84-.05,1.25-.15.13-.03.25-.02.37.01-.32.13-.67.12-1.01.16-.9.11-1.81.11-2.72.08-.04,0-.07-.03-.11-.05Z"/>
  <path class="cls-2" d="m52.9,61.36c-.56.17-1.14.14-1.7.14-.56,0-1.12.02-1.68-.09-.05-.01-.1-.03-.14-.05.71,0,1.41.09,2.12.07.47-.01.94-.12,1.41-.06Z"/>
  <path class="cls-2" d="m18.04,60.66s0-.04-.01-.06c.17,0,.35-.02.52-.02,0,0,.03,0,.03,0h.03c.97,0,1.94,0,2.91,0,.06,0,.11,0,.17,0,.09,0,.18,0,.27,0,.02,0,.04.02.07.02.02,0,.04,0,.06,0-.01,0-.02.02-.02.03-.13,0-.25.02-.38.02-1.22,0-2.43,0-3.65.01Z"/>
  <path class="cls-2" d="m81.59,67.83c.04-.07.09-.1.17-.11.71-.08,1.4-.25,2.1-.38-.29.23-.66.21-.99.28-.42.1-.86.14-1.29.2Z"/>
  <path class="cls-2" d="m49.5,67.66c.58,0,1.14.09,1.7.24-.57-.03-1.14-.07-1.7-.24Z"/>
  <path class="cls-3" d="m80.45,39.33c-.92,0-1.85,0-2.77,0,0-.02.01-.03.01-.05,0,0,0,0,0,0,.81,0,1.63,0,2.44,0,.1.03.22-.03.32.06Z"/>
  <path class="cls-3" d="m77.83,67.93c.55-.08,1.1-.02,1.66-.03.28,0,.56,0,.85,0,0,.02-.01.03-.01.05,0,0,.01,0,.01,0-.82,0-1.63.01-2.45.02-.02-.01-.03-.02-.05-.03Z"/>
  <path class="cls-2" d="m63.29,60.6c.02-.15.04-.3.06-.45.06-.1.05-.22.05-.33,0-.51,0-1.02,0-1.52.02.03.07.06.07.09.02.69.06,1.39-.05,2.08-.01.07-.05.11-.11.13Z"/>
  <path class="cls-2" d="m59.38,84.57s.05-.08.08-.09c.48-.05.95-.21,1.44-.21-.29.19-.63.13-.95.22-.18.05-.38.05-.57.08Z"/>
  <path class="cls-2" d="m80.14,39.28c-.81,0-1.63,0-2.44,0,.44-.13.89-.07,1.33-.07.37,0,.75-.06,1.11.07Z"/>
  <path class="cls-2" d="m50.51,39.51c-.5-.06-1.01-.12-1.51-.18.48-.08.94.04,1.41.07.06,0,.08.06.1.11Z"/>
  <path class="cls-2" d="m93.24,58.28c.09-.45.18-.9.32-1.33,0,.47-.05.93-.32,1.33Z"/>
  <path class="cls-2" d="m77.7,39.28s0,.03-.01.05c-.48.04-.96.08-1.45.12.24-.21.54-.08.81-.15.2-.06.43-.05.65-.01Z"/>
  <path class="cls-2" d="m37.04,70.42c-.42-.06-.84-.22-1.26,0-.09-.12.01-.16.09-.17.35-.04.71-.03,1.06,0,.08,0,.13.07.11.16Z"/>
  <path class="cls-2" d="m54.29,71.49s-.05.07-.08.08c-.48.04-.96.07-1.44.1.04-.12.14-.1.23-.11.43-.02.86-.04,1.3-.06Z"/>
  <path class="cls-2" d="m49.88,45.56c.15.11.39,0,.51.18-.55-.06-1.1-.11-1.65-.17.01-.01.02-.03.03-.04.37.01.74.02,1.11.03Z"/>
  <path class="cls-3" d="m48.75,39.33c-.69,0-1.38,0-2.07,0,.02-.02.04-.04.06-.07.65,0,1.3,0,1.95,0,.02.02.04.04.06.07Z"/>
  <path class="cls-2" d="m35.83,36.43c-.02.19.13.15.23.16.27,0,.53,0,.8,0-.29.15-.6.14-.91.12-.22-.01-.25-.1-.12-.27Z"/>
  <path class="cls-2" d="m52.27,39.84c-.4-.08-.8-.17-1.2-.25.38-.05.74.07,1.1.14.06.01.08.06.1.11Z"/>
  <path class="cls-2" d="m55.98,71.54c-.49.03-.57-.06-.47-.54.03-.13.02-.27.03-.4.1.16.05.33.04.49-.01.21,0,.38.28.36.06,0,.08.05.11.1Z"/>
  <path class="cls-2" d="m58.82,22.45c-.51-.06-1.01-.11-1.52-.17.48-.06.95.04,1.42.07.06,0,.09.04.1.1Z"/>
  <path class="cls-2" d="m79.96,36.43c.33.03.65.11.99.07.13-.01.29,0,.28-.2.1.12.08.23-.07.24-.38.04-.76.03-1.14-.02-.02,0-.04-.06-.06-.1Z"/>
  <path class="cls-3" d="m63.39,58.29c0,.51,0,1.02,0,1.52,0,.11,0,.23-.05.33,0-.65,0-1.3,0-1.95.01.03.03.06.04.09Z"/>
  <path class="cls-2" d="m56.6,40.08c.04.5.03,1.01,0,1.51-.13.01-.26.05-.37-.06.27.03.33-.09.33-.35,0-.37-.07-.74.04-1.11Z"/>
  <path class="cls-2" d="m81.38,70.49s-.06-.11-.1-.11c-.38-.02-.76-.14-1.13.04,0-.11.07-.15.16-.14.33,0,.67,0,1,.01.17,0,.21.08.06.2Z"/>
  <path class="cls-2" d="m76.18,39.46c-.38.08-.75.16-1.14.18.36-.2.75-.19,1.14-.18Z"/>
  <path class="cls-2" d="m37.28,46.19c-.02.32.03.66-.17.95.02-.32.04-.65.17-.95Z"/>
  <path class="cls-2" d="m47.17,45.55c.24-.14.5-.05.75-.06.28-.02.56,0,.84,0,0,.01,0,.02.02.03-.01.01-.02.03-.03.04-.52,0-1.05,0-1.57-.01Z"/>
  <path class="cls-2" d="m55.43,35.69c-.06-.28.07-.39.33-.38.24,0,.48,0,.72,0-.15.11-.32.07-.48.06-.28-.02-.48.05-.57.33Z"/>
  <path class="cls-2" d="m44.71,36.31c-.03.2.05.28.25.27.24,0,.47,0,.71.01-.3.09-.61.06-.91.03-.28-.03-.16-.19-.05-.32Z"/>
  <path class="cls-2" d="m37.12,47.25c.11.42.04.85.04,1.27-.11-.42-.03-.85-.04-1.27Z"/>
  <path class="cls-2" d="m54.66,36.58c.25-.03.49-.06.74-.1-.22.26-.49.13-.74.1Z"/>
  <path class="cls-2" d="m50.2,71.93c-.25.05-.5.12-.77.09.24-.15.51-.09.77-.09Z"/>
  <path class="cls-2" d="m93.57,56.84c0-.22.03-.43.1-.64.02.22.07.45-.1.64Z"/>
  <path class="cls-3" d="m63.34,58.08c-.19-.18-.1-.42-.12-.63.07.2.12.41.12.63Z"/>
  <path class="cls-2" d="m72.9,36.58c.26-.03.51-.03.76,0-.26.07-.51.08-.76,0Z"/>
  <path class="cls-2" d="m45.79,70.27c-.21.02-.43.03-.64,0,.21-.07.43-.08.64,0Z"/>
  <path class="cls-2" d="m54.38,70.41c.05.17.04.34.01.52-.07-.17-.07-.34-.01-.52Z"/>
  <path class="cls-2" d="m64.35,50.72c.06.09.07.17-.01.25-.09-.09-.01-.17.01-.25Z"/>
  <path class="cls-2" d="m55.43,36.25c-.04-.15-.04-.3,0-.45.08.15.08.3,0,.45Z"/>
  <path class="cls-2" d="m49.25,72.04c-.05.05-.12.07-.19.06.04-.1.09-.15.19-.06Z"/>
  <path class="cls-2" d="m64.85,36.56c0-.06,0-.12.01-.18.06.06.1.13-.01.18Z"/>
  <path class="cls-2" d="m54.23,36.43c.06.03.11.06.12.13-.08,0-.12-.05-.12-.13Z"/>
  <path class="cls-2" d="m54.39,71.29c.03.05.03.1-.03.14-.02-.05-.02-.1.03-.14Z"/>
  <path class="cls-2" d="m28.35,36.5s.02.03.01.05c-.01.01-.02.02-.04.03-.04-.04-.02-.07.02-.08Z"/>
  <path class="cls-2" d="m44.91,70.29s-.04.04-.06.06c0-.02,0-.03-.01-.05.03,0,.05,0,.08-.01Z"/>
  <path class="cls-2" d="m80.15,70.42s-.03.05-.05.07c0-.04,0-.06.05-.07Z"/>
  <path class="cls-2" d="m37.1,70.49s-.04-.05-.06-.07c.02.02.04.05.06.07Z"/>
  <path class="cls-2" d="m63.84,36.57s.05,0,.07,0c-.02.04-.04.05-.07,0Z"/>
  <path class="cls-2" d="m28.61,36.57s.05,0,.07,0c-.02.04-.04.05-.07,0Z"/>
  <path class="cls-2" d="m44.97,70.28s-.04,0-.06,0c.02-.04.03-.04.06,0Z"/>
  <path class="cls-2" d="m37.15,48.7s0,.05,0,.07c-.04-.02-.04-.05,0-.07Z"/>
  <path class="cls-2" d="m56.78,49.41s0,.04,0,.06c-.04,0-.05-.03-.05-.06.02,0,.03,0,.05,0Z"/>
  <path class="cls-3" d="m83.61,55.69c0-.12,0-.25,0-.37.07-.04.06-.1.06-.17,0-.57,0-1.14,0-1.72h.02s0,0,0,0c0,.7.01,1.39.02,2.09,0,.08-.03.14-.12.16Z"/>
  <path class="cls-3" d="m83.71,53.29c0-.17-.02-.33-.02-.5.04-.5,0-1-.02-1.5.02.03.06.07.06.1,0,.63.04,1.26-.02,1.9Z"/>
  <path class="cls-2" d="m74.49,55.12c-.02.07.02.15-.06.19-.03-.68-.04-1.35,0-2.02.1.43.02.87.04,1.3,0,.18.01.35.01.53Z"/>
  <path class="cls-2" d="m74.5,53.04s-.04.05-.06.08c-.02-.61-.03-1.22.05-1.83.01,0,.02,0,.03.02,0,.58-.02,1.16-.03,1.74Z"/>
  <path class="cls-2" d="m78.44,60.98c.44,0,.88,0,1.32,0-.44.09-.88.12-1.32,0Z"/>
  <path class="cls-2" d="m83.66,51.29c.02.5.06,1,.02,1.5-.13-.5-.04-1-.07-1.51.02,0,.03,0,.05,0Z"/>
  <path class="cls-1" d="m62.46,40.22c0,2.97,0,5.94,0,8.92,0,.09.03.19-.06.26,0-2.94,0-5.88,0-8.82,0-.12-.05-.25.06-.36Z"/>
  <path class="cls-3" d="m48.77,45.53s-.01-.02-.02-.03c.37.04.75-.08,1.12.07-.37-.01-.74-.02-1.11-.03Z"/>
  <path class="cls-2" d="m50.5,83.37c.22-.14.43,0,.63.02,1.51.16,3.03.26,4.55.24.03,0,.07.03.11.05-.99.02-1.98.02-2.97-.03-.78-.04-1.54-.22-2.32-.28Z"/>
  <path class="cls-2" d="m55.62,73.93c-.02.84-.03,1.69,0,2.53,0,.14,0,.27,0,.41-.02.87.04,1.74-.01,2.61-.1-.53-.04-1.06-.05-1.59-.02-1.59,0-3.19,0-4.78,0-.1-.03-.21.06-.3,0,.38,0,.75.01,1.13Z"/>
  <path class="cls-2" d="m54.4,79.04c-.08-.08-.05-.18-.05-.27,0-1.46,0-2.92,0-4.38,0-.09-.03-.19.05-.27,0,.75.03,1.5.02,2.25,0,.89.03,1.77-.02,2.66Z"/>
  <path class="cls-2" d="m61.34,73.36c-.73-.12-1.46-.28-2.2-.32-.08,0-.17,0-.21-.1.79.01,1.56.19,2.33.33.03,0,.05.06.08.09Z"/>
  <path class="cls-2" d="m52.7,79.77c.13-.18.33-.09.49-.12.28-.05.55-.09.84-.05-.44.13-.89.11-1.33.17Z"/>
  <path class="cls-2" d="m56.93,80.92c-.44-.11-.9-.03-1.33-.18.4-.05.8.03,1.19.07.07,0,.11.05.13.11Z"/>
  <path class="cls-2" d="m54.36,72.78c-.59,0-1.18.02-1.77.03.59-.09,1.18-.14,1.77-.03Z"/>
  <path class="cls-2" d="m58.31,83.49c.42-.11.84-.16,1.27-.17-.41.14-.83.19-1.27.17Z"/>
  <path class="cls-2" d="m49.93,73.11c-.39.11-.78.23-1.19.19.38-.14.78-.19,1.19-.19Z"/>
  <path class="cls-2" d="m56.04,72.8s0-.04,0-.06c.36-.02.72-.06,1.07.06-.36.08-.71-.04-1.07,0Z"/>
  <path class="cls-2" d="m58.5,72.92c-.32-.04-.65.08-.96-.1.32.07.65-.02.96.1Z"/>
  <path class="cls-2" d="m54.4,73.56c-.11-.25-.05-.51-.04-.77.1.25.05.51.04.77Z"/>
  <path class="cls-2" d="m54.47,80.74c-.1.08-.22.04-.33.05.1-.11.21-.06.33-.05Z"/>
  <path class="cls-2" d="m54.36,79.49s.03-.05.04-.08c.02.04,0,.06-.04.08Z"/>
  <path class="cls-2" d="m54.16,28.14c0-.23,0-.47,0-.7.14.42.1.87.1,1.3,0,1.7,0,3.39,0,5.09,0,.07.03.15-.05.2,0-1.7,0-3.41,0-5.11,0-.26.03-.52-.05-.77Z"/>
  <path class="cls-2" d="m57.32,23.4c-1.26-.12-2.53-.12-3.8-.09-.46.01-.91.1-1.37.04.58-.09,1.16-.11,1.74-.11,1.06,0,2.13-.04,3.19.07.09,0,.2-.03.24.09Z"/>
  <path class="cls-2" d="m52.27,26c.29-.07.57.05.85.08.98.11,1.96.09,2.93.03.06,0,.12.01.18.02-.8.17-1.62.15-2.43.09-.52-.04-1.04-.05-1.54-.21Z"/>
  <path class="cls-2" d="m56.92,34.05c.96-.09,1.93-.15,2.88-.31.13-.02.27-.07.4,0-1.08.23-2.18.34-3.28.36,0-.02,0-.03,0-.05Z"/>
  <path class="cls-2" d="m48.37,33.6s.04-.03.05-.03c.63.08,1.26.17,1.89.26.03,0,.05.06.07.09-.68-.08-1.36-.14-2.02-.32Z"/>
  <path class="cls-2" d="m50.63,33.93c.48-.06.94.1,1.41.08.06,0,.08.06.1.1-.51,0-1.03,0-1.51-.18Z"/>
  <path class="cls-2" d="m52.15,34.11s.06-.03.08-.04c.63.05,1.27.02,1.9.03-.29.13-.59.07-.89.07-.36,0-.73.01-1.09-.06Z"/>
  <path class="cls-2" d="m64.17,24.79c-.29-.05-.56-.12-.83-.24.3-.01.58.05.83.24Z"/>
  <path class="cls-2" d="m55.45,27.49c.03.38.06.77-.03,1.14-.03-.38-.06-.77.03-1.14Z"/>
  <path class="cls-2" d="m55.49,33.17c0,.33,0,.66,0,.98-.14-.37-.07-.74-.07-1.12.02,0,.04,0,.05,0,0,.05,0,.09.01.14Z"/>
  <path class="cls-2" d="m50.95,23.49c-.21.16-.46.1-.7.11.22-.09.46-.11.7-.11Z"/>
  <path class="cls-2" d="m55.79,34.11c.33,0,.67,0,1,0-.33.1-.67.07-1.01.06,0-.02,0-.03,0-.05Z"/>
  <path class="cls-2" d="m52.84,27.25c-.19-.04-.41.09-.58-.1.2-.02.4,0,.58.1Z"/>
  <path class="cls-2" d="m51.39,23.42c-.08.16-.19.13-.31.07.1-.07.2-.08.31-.07Z"/>
  <path class="cls-2" d="m52.15,27.14c-.13.07-.26.06-.38,0,.13-.04.26-.06.38,0Z"/>
  <path class="cls-2" d="m54.16,27.43c-.13-.03-.26-.06-.39-.1.14,0,.3-.09.39.1Z"/>
  <path class="cls-2" d="m53.6,27.33c-.07.05-.13.04-.2-.01.07,0,.13,0,.2.01Z"/>
  <path class="cls-2" d="m50.13,23.61s-.05.03-.08.05c.01-.04.03-.06.08-.05Z"/>
  <path class="cls-2" d="m55.61,27.41s-.05.01-.08.02c.02-.03.05-.04.08-.02Z"/>
  <path class="cls-2" d="m55.53,27.43s-.03.06-.07.04c.02-.01.04-.03.07-.04Z"/>
  <path class="cls-1" d="m22.06,60.63s0-.03.02-.03c.16-.03.11-.16.11-.25,0-4.57,0-9.14,0-13.7,0-.09.05-.22-.11-.26-.01-.01-.02-.03-.02-.05-.07-.14-.2-.08-.31-.08-1.08,0-2.16,0-3.23,0q-.42,0-.42-.43c0-1.44,0-2.89,0-4.33,0-.11.04-.23-.05-.33,0-.32,0-.63,0-.95.17-.05.11-.19.11-.29,0-.16.06-.23.23-.22.05,0,.1,0,.16,0,5.55,0,11.11,0,16.66,0,.32,0,.4.08.4.4-.02,1.71,0,3.42-.01,5.12,0,.37.11.72.06,1.09-1.21,0-2.43.02-3.64,0-.3,0-.39.07-.39.38.01,4.51,0,9.03.01,13.54,0,.12-.05.25.05.36.01.01.02.03.03.04,0,.02-.01.04-.02.05.03,0,.05.02.08.02,1.18,0,2.37,0,3.55,0,.27,0,.33.08.33.34,0,1.94-.01,3.88,0,5.82,0,.31-.07.4-.4.4-5.53-.01-11.07,0-16.6,0-.12,0-.25-.04-.37.04-.05,0-.09,0-.14,0-.04-.01-.08-.03-.11-.04,0-1.41-.01-2.82-.01-4.22,0-.56,0-1.13.01-1.69.17-.03.13-.18.12-.28-.04-.3.1-.36.37-.36,1.07.01,2.13,0,3.2,0,.11,0,.26.07.33-.09Z"/>
  <path class="cls-3" d="m18.3,67.31c.11-.08.24-.04.37-.04,5.53,0,11.07,0,16.6,0,.33,0,.4-.09.4-.4-.01-1.94-.01-3.88,0-5.82,0-.26-.07-.34-.33-.34-1.18.01-2.37,0-3.55,0-.03,0-.05-.01-.08-.02,0-.02.01-.04.02-.05,1.24,0,2.47,0,3.71,0,.18,0,.29,0,.29.24,0,2.11,0,4.21,0,6.32,0,.03,0,.06-.01.09-.16,0-.31.01-.47.01-5.54,0-11.08,0-16.61,0-.1,0-.21,0-.31-.01Z"/>
  <path class="cls-3" d="m18.05,67.27s.08.03.11.04c-.04,0-.07.01-.11.02,0-.02,0-.04,0-.06Z"/>
  <path class="cls-3" d="m18.05,41.16c.09.1.05.22.05.33,0,1.44,0,2.89,0,4.33q0,.43.42.43c1.08,0,2.16,0,3.23,0,.11,0,.24-.05.31.08-1.21,0-2.43-.01-3.64,0-.29,0-.39-.05-.39-.37.02-1.6.01-3.21.02-4.81Z"/>
  <path class="cls-3" d="m22.06,60.63c-.07.16-.22.09-.33.09-1.07,0-2.13.01-3.2,0-.28,0-.41.06-.37.36.01.1.06.24-.12.28,0-.23,0-.46,0-.7,1.22,0,2.43,0,3.65-.01.13,0,.25-.01.38-.02Z"/>
  <path class="cls-2" d="m83.68,53.44c0,.57,0,1.14,0,1.72,0,.06,0,.13-.06.17,0-.56,0-1.12,0-1.69,0-.07-.01-.15.07-.19Z"/>
</svg>