<?xml version="1.0" encoding="UTF-8"?>
<svg id="Layer_1" data-name="Layer 1" xmlns="http://www.w3.org/2000/svg" viewBox="0 0 300 133">
  <defs>
    <style>
      .cls-1 {
        fill: #959698;
      }

      .cls-2 {
        fill: #4381eb;
      }

      .cls-3 {
        fill: #ffad0a;
      }
    </style>
  </defs>
  <path class="cls-2" d="m198.68,83.3c-.04-.09-.12-.07-.19-.07-1.12-.05-2.23-.16-3.33-.37-1.3-.24-2.57-.57-3.7-1.27-1.74-1.09-2.8-2.65-3.15-4.68-.14-.81-.16-1.62-.08-2.43.02-.16.07-.19.23-.18,1.52.18,3.04.36,4.56.53,1.18.13,2.36.27,3.55.39.28.03.45.1.54.41.31,1.13,1.16,1.66,2.24,1.89.84.18,1.69.17,2.53-.04,1.13-.29,1.86-.99,2.21-2.11.18-.57.27-1.16.28-1.75.02-1.32.01-2.65.01-3.97,0-.04.02-.1-.04-.13-.1,0-.13.1-.18.16-1.47,1.74-3.35,2.74-5.6,3.03-2.21.29-4.32-.06-6.2-1.32-1.8-1.2-3.07-2.84-3.87-4.85-.46-1.16-.7-2.37-.83-3.61-.11-1.13-.12-2.26-.05-3.38.12-1.91.51-3.75,1.49-5.42,1.34-2.28,3.33-3.68,5.93-4.21.37-.07.74-.13,1.12-.16.03,0,.07,0,.1,0l1.65-.03c.38.04.76.07,1.14.12,1.18.16,2.29.52,3.29,1.18.93.62,1.7,1.41,2.39,2.28.08.1.14.22.31.32v-.39c0-.89,0-1.77,0-2.66,0-.32,0-.32.32-.33.06,0,.12,0,.18,0,2.48,0,4.96,0,7.44,0,.56,0,.5-.06.5.51,0,7.58.01,15.15.02,22.73,0,.96-.14,1.91-.43,2.83-1.03,3.21-3.09,5.36-6.39,6.24-1.47.39-2.97.59-4.49.66-.14,0-.29-.04-.42.06-1.02,0-2.04,0-3.06,0Zm-2.11-21.79c-.02.82.05,1.66.3,2.46.75,2.37,3.42,3.4,5.54,2.13.98-.59,1.55-1.48,1.82-2.58.28-1.12.3-2.26.13-3.4-.14-.94-.46-1.81-1.09-2.54-1.1-1.27-2.62-1.66-4.12-1.19-1.23.38-1.93,1.29-2.27,2.5-.24.85-.32,1.71-.31,2.61Z"/>
  <path class="cls-2" d="m89.01,83.27c-.03-.07-.09-.07-.15-.07-1.44-.09-2.88-.26-4.31-.44-.29-.03-.3-.04-.33-.32-.08-.7-.16-1.4-.23-2.1-.13-1.19-.26-2.39-.4-3.58-.03-.31-.04-.31.28-.22,1.31.37,2.64.51,4,.53.49,0,.97-.06,1.44-.18.77-.21,1.39-.63,1.86-1.27.39-.53.67-1.12.92-1.73.06-.14.02-.26-.03-.38-.43-1.03-.86-2.06-1.3-3.09-1.94-4.62-3.88-9.24-5.82-13.86-.84-1.99-1.67-3.98-2.51-5.98-.04-.09-.09-.17-.09-.27.04-.09.12-.07.19-.07,3,0,6,0,9.01,0,.26,0,.26,0,.36.3,1.21,3.9,2.42,7.81,3.63,11.71.32,1.03.64,2.06.96,3.09.04.14.06.29.18.42.21-.71.4-1.39.6-2.08,1.26-4.38,2.52-8.77,3.78-13.15.09-.3.09-.3.39-.31,2.73,0,5.47,0,8.2,0,.04,0,.07,0,.11,0,.22.01.24.03.17.23-.09.26-.19.52-.29.79-1.81,4.89-3.63,9.78-5.45,14.67-1.26,3.39-2.51,6.78-3.79,10.16-.45,1.21-1.02,2.36-1.69,3.47-1,1.66-2.47,2.67-4.31,3.19-.94.26-1.9.42-2.87.46-.1,0-.22-.03-.31.06-.73,0-1.46,0-2.19,0Z"/>
  <path class="cls-2" d="m223.64,83.27c-.12-.09-.26-.05-.39-.06-1.26-.06-2.52-.2-3.77-.35-.31-.04-.63-.07-.94-.1-.14-.01-.21-.07-.23-.22-.09-.87-.19-1.74-.29-2.6-.11-.99-.23-1.98-.34-2.96-.02-.15-.06-.31,0-.48.35.08.69.17,1.03.25,1.11.25,2.23.34,3.36.34.39,0,.78-.05,1.15-.14.86-.21,1.55-.66,2.07-1.39.32-.46.56-.96.79-1.47.1-.23.1-.43,0-.66-.48-1.11-.95-2.23-1.42-3.35-2.72-6.47-5.43-12.93-8.15-19.4-.05-.11-.12-.21-.11-.35.07-.09.17-.06.26-.06,2.97,0,5.93,0,8.9,0,.29,0,.29,0,.38.32.9,2.91,1.8,5.82,2.7,8.72.64,2.07,1.28,4.15,1.92,6.22.02.07.05.13.08.2.16-.04.13-.18.16-.27.72-2.48,1.43-4.97,2.14-7.45.71-2.48,1.42-4.97,2.14-7.45.09-.3.09-.3.39-.3,2.72,0,5.44,0,8.17,0,.04,0,.07,0,.11,0,.22.01.25.05.19.27-.04.15-.1.3-.16.45-1.73,4.65-3.45,9.3-5.18,13.96-1.35,3.63-2.69,7.26-4.05,10.88-.45,1.21-1,2.37-1.63,3.49-1.13,2.01-2.88,3.13-5.09,3.62-.8.18-1.6.29-2.42.32-.09,0-.2-.02-.28.06-.51,0-1.02,0-1.53,0Z"/>
  <path class="cls-2" d="m137.42,58.38c0,5,0,9.99,0,14.99,0,.34,0,.34-.34.34-2.79,0-5.58,0-8.38,0-.36,0-.33,0-.33-.39,0-4.04,0-8.08,0-12.12,0-.75-.03-1.5-.2-2.24-.32-1.36-1.31-2.16-2.75-2.2-1.78-.06-3.05.92-3.52,2.7-.18.66-.27,1.33-.29,2.01-.02.99-.02,1.99-.02,2.98,0,2.92,0,5.85,0,8.77,0,.1,0,.19,0,.29,0,.14-.05.2-.19.19-.07,0-.15,0-.22,0h-8.21c-.07,0-.15,0-.22,0-.14,0-.19-.07-.19-.2,0-.09,0-.17,0-.25,0-7.52,0-15.05,0-22.57,0-.51-.07-.48.46-.48,2.49,0,4.99,0,7.48,0h.11c.34,0,.34,0,.34.34,0,1,0,1.99,0,2.99v.43c.18-.05.24-.19.33-.29.67-.79,1.4-1.52,2.22-2.14,1.25-.95,2.65-1.5,4.2-1.7.3-.04.62-.01.91-.14h1.59c.27.12.57.09.85.14,2.86.46,4.83,2,5.77,4.77.27.79.39,1.62.51,2.45.01.12.07.43.07,1.33Z"/>
  <path class="cls-2" d="m68.97,49.78c1.9.13,3.77.42,5.52,1.19,2,.89,3.51,2.32,4.6,4.2.43.75.78,1.54,1.04,2.36.08.25.08.26-.18.3-.62.09-1.25.17-1.88.25-1.19.16-2.38.32-3.57.47-.81.11-1.61.22-2.42.32-.33.04-.33.03-.44-.27-.53-1.58-1.64-2.44-3.28-2.66-.68-.09-1.36-.1-2.03.06-1.77.41-2.88,1.54-3.44,3.23-.42,1.28-.5,2.61-.4,3.96.05.68.16,1.35.41,1.99.62,1.62,1.76,2.67,3.48,2.98,1.45.26,2.83.04,4.03-.91.77-.61,1.23-1.43,1.57-2.33.02-.05.04-.09.05-.14.04-.2.16-.23.35-.2,1.37.17,2.75.32,4.12.48,1.35.15,2.7.3,4.05.46.02,0,.05.02.07.02.04.04.02.09.01.13-.58,2.09-1.57,3.94-3.17,5.43-1.54,1.44-3.36,2.33-5.41,2.78-1.25.27-2.52.38-3.8.39-1.53.01-3.06-.03-4.58-.25-2.11-.3-4.1-.93-5.81-2.25-1.98-1.53-3.38-3.47-3.99-5.93-.36-1.46-.41-2.95-.37-4.45.04-1.4.24-2.78.7-4.11.57-1.64,1.53-3.03,2.79-4.2.83-.77,1.73-1.45,2.75-1.97,1.16-.59,2.4-.92,3.67-1.13.68-.11,1.37-.18,2.06-.23.37-.03.74.04,1.1-.06h1.16c.39.11.8.04,1.2.07Z"/>
  <path class="cls-1" d="m68.97,49.77c-.4-.03-.8.04-1.19-.07h1.24s-.04.05-.05.07Z"/>
  <path class="cls-1" d="m66.62,49.7c-.37.11-.75.04-1.12.07-.02-.02-.03-.05-.05-.07h1.17Z"/>
  <path class="cls-2" d="m186.93,50.84c-.92-.45-1.86-.82-2.87-1.01-.21-.04-.44,0-.63-.13h-1.24c-.08.08-.18.06-.27.07-1.35.18-2.45.78-3.3,1.85-.5.63-.91,1.31-1.29,2.02-.05.1-.09.22-.22.34v-.37c0-.99,0-1.99,0-2.98,0-.36,0-.37-.35-.37-2.57,0-5.14,0-7.71,0-.36,0-.36,0-.36.36,0,.07,0,.15,0,.22,0,2.73,0,5.46,0,8.19,0,.08,0,.15-.02.22.11.53.14,1.26,0,2.24v11.84c0,.22.18.4.4.4h.07c2.69,0,5.38,0,8.07,0,.54,0,.48.07.49-.48.02-2.98-.04-5.97.05-8.95.03-1.18.14-2.35.38-3.5.18-.87.42-1.72.89-2.48.77-1.23,1.87-1.74,3.3-1.55.63.08,1.22.29,1.81.53.18.08.25.03.32-.14.86-1.99,1.72-3.98,2.6-5.97.08-.18.03-.26-.13-.33Z"/>
  <g>
    <path class="cls-3" d="m135.5,60.22c0-.12.06-.2.13-.29.65-.93,1.37-1.8,2.14-2.64.03-.03.06-.08.08-.12.13-.07.22-.19.32-.29.73-.75,1.51-1.44,2.33-2.08,2.39-1.85,5.03-3.19,7.93-4.03,1.77-.52,3.57-.88,5.43-.9.13,0,.27.01.39-.05h2.26c.28.09.58.05.87.07,1.9.11,3.64.68,5.23,1.71.89.58,1.59,1.35,2.02,2.34.13.29.21.58.2.9,0,.13,0,.26,0,.39.12,1.31-.46,2.36-1.27,3.29-1.51,1.73-3.38,2.98-5.48,3.9-1.63.72-3.33,1.19-5.1,1.44-.25.04-.51.07-.76.08-.93.04-1.87.12-2.8.07-.48-.03-.97-.02-1.45-.13-.04-.01-.1,0-.12-.09.22-.14.49-.15.74-.2,1.38-.27,2.77-.51,4.13-.88,1.4-.38,2.76-.87,3.96-1.7.97-.67,1.81-1.47,2.44-2.47.33-.53.57-1.09.6-1.73.04-.76-.24-1.37-.73-1.92-.58-.64-1.31-1.08-2.1-1.41-1.15-.49-2.36-.74-3.61-.76-.88-.02-1.75-.02-2.62.02-1.73.09-3.42.39-5.08.89-2.6.79-4.95,2.04-7.07,3.74-.22.18-.49.32-.63.59-.13.03-.24.13-.33.22-.52.49-1.04.97-1.5,1.53-.16.19-.33.39-.54.54l-.02-.02Z"/>
    <path class="cls-3" d="m170.13,57.41c-.03.22-.66,1.68-1.27,2.5-1.01,1.36-2.24,2.52-3.55,3.61-1.99,1.66-4.18,2.96-6.62,3.84-1.64.59-3.33.97-5.07,1.14-1.21.12-2.42.21-3.63-.01-.85-.16-1.68-.39-2.44-.83-1.62-.94-2.17-2.27-1.85-4.02.37-2.06,1.46-3.71,3.04-5.04,1.24-1.04,2.66-1.73,4.16-2.28,1.35-.49,2.74-.83,4.13-1.16.1-.02.22-.02.3-.14-.57-.13-1.13-.19-1.7-.22-2.08-.11-4.13.07-6.12.72-3.14,1.03-5.64,2.9-7.43,5.68-1.17,1.82-1.67,3.82-1.34,5.98.26,1.7,1.03,3.13,2.32,4.26,1.57,1.38,3.44,2.01,5.51,2.08,1.83.06,3.64-.18,5.42-.6,4.23-1,7.83-3.11,10.88-6.17,1.56-1.56,2.97-3.26,4.05-5.19.6-1.08,1.2-3.23,1.19-4.15Z"/>
  </g>
</svg>