<?xml version="1.0" encoding="UTF-8"?>
<svg id="Layer_1" data-name="Layer 1" xmlns="http://www.w3.org/2000/svg" viewBox="0 0 300 133">
  <defs>
    <style>
      .cls-1 {
        fill: #ed3237;
        fill-rule: evenodd;
      }

      .cls-2 {
        fill: #201e1e;
      }
    </style>
  </defs>
  <path class="cls-1" d="m176.43,60.24h-12.33c-.36.09-.17.04-.41,1.02-.6,2.53-2.2,4.63-4.74,5.68-2.94,1.2-7.15,1.18-10-.08-6.3-2.8-7.69-10.84-5.48-16.33,1.1-2.73,3.17-4.85,5.9-5.93,2.89-1.15,7.27-1.04,9.97.26,2.5,1.21,3.84,3.32,4.36,5.95.15.72.09.62.86.62,3.9-.04,7.93.12,11.81-.02.18-2.65-1.3-6.4-2.42-8.17-1.38-2.19-3.24-4.01-5.4-5.38-5.14-3.26-10.51-4.22-17.77-3.75-6.71.43-11.78,2.85-15.27,6.23-7.65,7.42-8.47,22.9.03,30.89l1.39,1.27c3.67,3.11,9.02,4.62,13.89,5,6.59.52,13.09-.59,17.66-3.6,3.72-2.45,7.61-7.07,7.97-13.68v.02Zm-96.11-12.59h15.82s.02,28.37.02,28.37h14.14s.03-28.37.03-28.37l15.86-.03v-11.39l-45.82-.04-.04,11.45Zm103.69,28.37l35.99.03c.13-.89.12-10.45-.04-10.94l-22.26-.02v-28.91l-13.67-.04c-.2,1.05-.06,31.38-.06,34.9,0,1.29-.14,3.84.06,4.98h-.01Z"/>
  <path class="cls-1" d="m184.1,75.9h35.81l.04-10.66c-1.5-.01-21.42.14-22.25-.08-.12-.27-.11-.16-.11-.5v-28.37h-13.48v39.6s0,.01,0,.01Z"/>
  <path class="cls-2" d="m86.74,98.34v-10.02h-3.58v-2.01h9.51v2.01h-3.52v10.02h-2.41Zm9.74-12.04v4.47c.75-.89,1.64-1.33,2.67-1.33.53,0,1.02.1,1.45.29.43.2.75.45.97.75s.36.64.45,1.02c.08.37.12.95.12,1.73v5.1h-2.29v-4.59c.02-.92-.03-1.49-.11-1.74-.09-.25-.25-.44-.46-.59s-.5-.22-.84-.22c-.39,0-.73.09-1.04.29-.3.18-.52.46-.67.84s-.21.92-.23,1.66v4.4h-2.29v-12.09h2.3,0Zm13.03,9.29l2.26.38c-.29.83-.75,1.46-1.37,1.89-.63.43-1.41.65-2.35.65-1.48,0-2.59-.48-3.3-1.46-.57-.78-.85-1.76-.85-2.95,0-1.42.37-2.53,1.1-3.33s1.67-1.2,2.81-1.2c1.27,0,2.26.42,3,1.26.74.83,1.09,2.13,1.05,3.87h-5.64c.02.66.2,1.2.55,1.57.34.38.78.55,1.3.55.35,0,.65-.1.89-.29.24-.19.42-.51.55-.93h0s0-.01,0-.01Zm.14-2.35c-.02-.67-.18-1.18-.51-1.52-.33-.35-.72-.52-1.19-.52-.5,0-.92.18-1.25.55s-.49.87-.49,1.49h3.44Zm16.52.66l2.34.72c-.36,1.32-.96,2.31-1.8,2.95-.84.64-1.9.96-3.19.96-1.59,0-2.91-.55-3.94-1.64-1.02-1.09-1.54-2.58-1.54-4.47,0-2,.51-3.55,1.55-4.66s2.39-1.66,4.07-1.66c1.47,0,2.66.44,3.58,1.31.55.51.95,1.25,1.23,2.22l-2.4.57c-.15-.62-.44-1.12-.89-1.47s-1-.54-1.65-.54c-.89,0-1.61.32-2.17.96s-.83,1.67-.83,3.11c0,1.51.27,2.6.82,3.24.55.65,1.25.97,2.13.97.65,0,1.2-.2,1.67-.62.46-.41.79-1.05,1-1.93h.03Zm6.62,4.42h-2.29v-8.73h2.13v1.24c.36-.59.69-.97.99-1.15.29-.18.62-.27,1-.27.52,0,1.04.15,1.52.43l-.72,2.01c-.39-.25-.75-.38-1.08-.38s-.59.09-.82.26c-.22.18-.4.49-.53.96-.13.47-.19,1.44-.19,2.92v2.71Zm9.34-2.72l2.3.39c-.29.84-.76,1.48-1.39,1.92-.64.44-1.44.66-2.39.66-1.51,0-2.64-.49-3.36-1.48-.58-.79-.86-1.8-.86-3,0-1.45.37-2.57,1.12-3.39.75-.82,1.7-1.23,2.86-1.23,1.29,0,2.31.43,3.06,1.28.75.85,1.11,2.17,1.07,3.94h-5.75c.02.68.2,1.22.56,1.59.35.39.79.57,1.32.57.36,0,.66-.1.91-.29s.43-.51.56-.95h0Zm.15-2.38c-.02-.67-.18-1.18-.51-1.52-.33-.35-.72-.52-1.19-.52-.5,0-.92.18-1.25.55s-.49.87-.49,1.49h3.44Zm5.89-.93l-2.06-.36c.24-.85.64-1.48,1.21-1.89.57-.41,1.41-.62,2.53-.62,1.01,0,1.78.12,2.28.36s.84.55,1.05.92c.2.37.31,1.06.31,2.06l-.04,2.69c0,.76.04,1.33.11,1.7.07.36.21.75.41,1.16h-2.26c-.06-.15-.14-.37-.22-.67-.04-.14-.06-.23-.08-.26-.39.39-.81.68-1.24.87-.44.19-.91.29-1.41.29-.88,0-1.58-.25-2.09-.73-.51-.49-.76-1.1-.76-1.84,0-.49.12-.92.34-1.31.24-.39.55-.68.98-.88.42-.2,1.02-.39,1.81-.54,1.06-.2,1.81-.39,2.21-.57v-.23c0-.45-.11-.77-.33-.96s-.63-.29-1.24-.29c-.41,0-.73.08-.95.25s-.41.45-.55.86l-.02-.02Zm3.08,1.89c-.29.1-.76.22-1.4.35-.64.14-1.05.27-1.25.4-.3.22-.45.49-.45.82s.12.6.36.83c.24.24.55.35.92.35.41,0,.82-.14,1.19-.41.27-.21.46-.46.55-.76.06-.19.09-.57.09-1.12v-.45h0Zm8.51-4.6v1.86h-1.57v3.52c0,.72.02,1.14.04,1.25.03.12.1.22.21.29s.24.12.39.12c.22,0,.52-.07.92-.22l.19,1.78c-.53.23-1.13.35-1.81.35-.41,0-.79-.07-1.12-.21s-.57-.32-.73-.54c-.16-.22-.26-.52-.32-.91-.04-.26-.07-.82-.07-1.63v-3.8h-1.06v-1.85h1.06v-1.73l2.29-1.35v3.08h1.57,0Zm1.62-1.17v-2.13h2.29v2.13h-2.29Zm0,9.91v-8.73h2.29v8.73h-2.29Zm7.03.01l-3.52-8.74h2.42l1.64,4.47.48,1.48c.13-.37.21-.62.24-.75.08-.25.16-.49.25-.74l1.66-4.4h2.35l-3.45,8.67h-2.08.01Zm11.94-2.72l2.3.39c-.29.84-.76,1.48-1.39,1.92-.64.44-1.44.66-2.39.66-1.51,0-2.64-.49-3.36-1.48-.58-.79-.86-1.8-.86-3,0-1.45.37-2.57,1.12-3.39s1.7-1.23,2.86-1.23c1.29,0,2.31.43,3.06,1.28.75.85,1.11,2.17,1.07,3.94h-5.75c.02.68.2,1.22.56,1.59.35.39.79.57,1.32.57.36,0,.66-.1.91-.29s.43-.51.56-.95h0Zm.16-2.38c-.02-.67-.18-1.18-.51-1.52-.33-.35-.72-.52-1.19-.52-.5,0-.92.18-1.25.55s-.49.87-.49,1.49h3.44Zm8.9,5.09v-11.92h2.46v9.9h5.99v2.01h-8.45Zm10.18-9.9v-2.13h2.29v2.13h-2.29Zm0,9.91v-8.73h2.29v8.73h-2.29Zm3.63-8.73h1.29v-.66c0-.73.08-1.28.24-1.64.16-.36.45-.66.86-.88.42-.23.95-.34,1.59-.34s1.29.1,1.92.29l-.29,1.6c-.37-.08-.73-.13-1.07-.13s-.58.08-.73.24-.22.46-.22.91v.67h1.73v1.79h-1.73v6.88h-2.29v-6.88h-1.29v-1.85h0Zm11.64,6l2.3.39c-.29.84-.76,1.48-1.39,1.92-.64.44-1.44.66-2.39.66-1.51,0-2.64-.49-3.36-1.48-.58-.79-.86-1.8-.86-3,0-1.45.37-2.57,1.12-3.39s1.7-1.23,2.86-1.23c1.29,0,2.31.43,3.06,1.28.75.85,1.11,2.17,1.07,3.94h-5.75c.02.68.2,1.22.56,1.59.35.39.79.57,1.32.57.36,0,.66-.1.91-.29s.43-.51.56-.95h0Zm.12-2.38c-.02-.67-.18-1.18-.51-1.52-.33-.35-.72-.52-1.19-.52-.5,0-.92.18-1.25.55s-.49.87-.49,1.49h3.44Z"/>
</svg>