<?xml version="1.0" encoding="UTF-8"?>
<svg id="Layer_1" data-name="Layer 1" xmlns="http://www.w3.org/2000/svg" viewBox="0 0 300 133">
  <defs>
    <style>
      .cls-1 {
        fill: #79b289;
      }

      .cls-2 {
        fill: #e94335;
      }

      .cls-3 {
        fill: #4285f4;
      }

      .cls-4 {
        fill: #34a853;
      }

      .cls-5 {
        fill: #fabc05;
      }
    </style>
  </defs>
  <path class="cls-3" d="m77.65,65.11c-.02-2.03-.03-4.07-.08-6.1-.01-.62.27-.75.82-.75,7.2.01,14.4,0,21.59,0,.58,0,.94.19,1,.83.74,7.91-.87,15.04-6.95,20.63-3.71,3.42-8.18,5.09-13.16,5.75-5.21.69-10.15-.15-14.7-2.54-7.48-3.92-12.42-9.96-13.81-18.46-1.23-7.52.65-14.27,5.61-20.13,4.34-5.13,9.89-7.95,16.49-8.92,2.29-.34,4.48-.13,6.76.17,3.18.42,6.07,1.49,8.87,2.9,1.6.81,2.91,2.07,4.26,3.24.46.4.39.69-.02,1.09-1.3,1.26-2.59,2.53-3.84,3.84-.45.47-.67.29-1.06-.05-3.86-3.37-8.43-4.8-13.46-4.32-6.35.6-11.27,3.74-14.19,9.47-3.44,6.75-3.01,13.41,1.42,19.59,2.31,3.23,5.39,5.46,9.34,6.59,5.79,1.65,11.07.71,15.85-2.75,3.3-2.38,5.18-5.74,5.44-9.9-.43-.39-.95-.19-1.42-.2-4.92-.02-9.84,0-14.76,0Z"/>
  <path class="cls-3" d="m205.1,84.53c-.04,2.11-.45,4.14-1.13,6.15-1.7,5.05-5.25,8.03-10.33,9.08-5.97,1.23-11.3-.07-15.55-4.71-1.03-1.12-1.87-2.38-2.5-3.77-.26-.58-.31-.77.42-1.02,1.43-.49,2.79-1.16,4.16-1.8,1-.46,1.63-.22,2.13.77,1.23,2.39,3.19,3.96,5.86,4.32,4.52.61,8.66-1.11,9.78-6.36.08-.39.2-.77.31-1.16.25-1.25.3-2.51-.03-3.76-1.22.25-1.82,1.41-2.9,1.95-4.49,2.26-8.86,1.88-13.05-.55-6.29-3.65-9-9.36-8.16-16.43.83-6.98,5.53-12.26,12.52-13.74,3.13-.67,6.42-.25,9.37,1.38.58.32.87.89,1.33,1.32.19.18.34.49.65.4.35-.1.21-.45.22-.69.02-.32.03-.63,0-.95-.05-.58.2-.83.78-.81,2.03.06,4.07-.13,6.1.11,0,10.1,0,20.19.01,30.29Zm-6.35-15.08c.16-.93-.13-1.8-.28-2.68-.65-3.83-4.28-7.1-8-7.13-5.98-.05-9.28,4.8-9.29,9.87,0,3.1,1.14,5.96,3.9,7.98,2.59,1.89,5.31,2.26,8.16,1.02,3.92-1.7,5.37-5.01,5.51-9.05Z"/>
  <path class="cls-5" d="m154.01,53.4c10.81-1.12,17.8,8.13,17.57,16.13-.26,9.2-7.18,16.38-17,16.12-9.4-.26-15.76-7.31-15.77-16.41,0-8.81,6.69-15.75,15.19-15.84Zm10.24,14.73c-.05-1.91-1.06-4.75-3.84-6.75-3.37-2.42-7.95-2.39-11.05.52-2.89,2.71-3.8,6.04-3,9.86.87,4.14,3.95,6.89,7.03,7.34,6.5.95,10.87-4.11,10.86-10.98Z"/>
  <path class="cls-2" d="m119.83,53.4c10.07-.56,16.77,7.6,16.65,15.9-.14,9.51-6.73,16.33-16.56,16.34-9.3.01-16.11-7.04-16.17-16.26-.06-8.6,6.63-16.41,16.09-15.98Zm.1,25.79c5.11.07,9.36-4.31,9.27-9.83-.09-5.71-3.83-9.66-9.19-9.69-5.09-.03-9.12,4.14-8.97,10.15.12,5.07,3.9,9.31,8.89,9.37Z"/>
  <path class="cls-2" d="m234.25,53.44c3.94-.39,7.24.97,9.98,3.54,2.22,2.08,3.64,4.74,4.68,7.6.32.87-.36,1.02-.84,1.23-2.19.95-4.39,1.87-6.6,2.77-4.37,1.78-8.74,3.54-13.11,5.31-.72.29-.85.55-.38,1.35,3.14,5.26,10.89,5.12,14.41.48.66-.87,1.05-.96,1.87-.33,1.08.83,2.2,1.63,3.39,2.28,1.05.58,1.18.91.32,1.93-2.48,2.92-5.5,4.8-9.22,5.66-4.88,1.13-9.32.09-13.25-2.85-4.83-3.61-6.81-8.7-6.33-14.56.48-5.91,3.27-10.6,8.76-13.29,1.98-.97,4.13-1.46,6.3-1.13Zm.62,6.2c-4.28-.55-8.71,4.31-8.43,8.15.04.57.04,1.02.82.69,4.12-1.76,8.21-3.59,12.38-5.2,1.42-.55.88-1.05.31-1.65-1.37-1.43-3.07-2.11-5.07-1.99Z"/>
  <path class="cls-4" d="m216.11,84.58c-1.94.02-3.89,0-5.83.07-.78.03-.98-.24-.98-.99.03-3.8.02-7.6.02-11.4,0-11.26.02-22.52-.03-33.78,0-1.12.25-1.48,1.4-1.41,1.8.12,3.62.06,5.42.08,0,15.81,0,31.62,0,47.43Z"/>
  <path class="cls-1" d="m216.11,84.58c0-15.81,0-31.62,0-47.43.53.3.28.81.28,1.22.01,15,.01,30,0,45,0,.41.23.92-.29,1.22Z"/>
  <path class="cls-4" d="m205.1,84.53c0-10.1,0-20.19-.01-30.29.28.25.17.59.17.89,0,9.36,0,18.72,0,28.07,0,.44.09.91-.15,1.33Z"/>
  <path class="cls-1" d="m77.65,65.11c4.92,0,9.84,0,14.76,0,.47,0,.99-.2,1.42.2-5.06,0-10.12.02-15.19.02-.34,0-.73.15-.99-.23Z"/>
  <path class="cls-4" d="m198.22,82.26c.33,1.25.28,2.51.03,3.76,0-1.26-.02-2.51-.03-3.76Z"/>
</svg>