<?xml version="1.0" encoding="UTF-8"?>
<svg id="Layer_1" data-name="Layer 1" xmlns="http://www.w3.org/2000/svg" viewBox="0 0 300 133">
  <defs>
    <style>
      .cls-1 {
        fill: #5b5658;
      }

      .cls-2 {
        fill: #fff;
      }

      .cls-3 {
        fill: #ad0034;
      }
    </style>
  </defs>
  <path class="cls-3" d="m99.76,99.07c-.86.05-1.72.05-2.59,0-.07-.05-.14-.04-.22-.01-.36-.02-.73-.04-1.09-.06-.16-.08-.33-.05-.49-.05-.16,0-.33,0-.48-.04-.1-.06-.22-.04-.33-.04-.11,0-.22-.02-.33-.03-.1-.08-.21-.05-.32-.05-.08,0-.17-.02-.25-.03-.09-.08-.21-.05-.31-.06-.66-.07-1.32-.17-1.97-.34-.41-.11-.83-.2-1.24-.3-.94-.22-1.87-.52-2.78-.84-4.36-1.54-8.26-3.88-11.67-7-3.45-3.16-6.12-6.88-8.06-11.13-.42-.91-.77-1.85-1.11-2.79-.4-1.08-.66-2.21-.95-3.33-.15-.57-.17-1.17-.4-1.72-.17-1.63-.42-3.25-.46-4.9-.05-1.84.05-3.66.28-5.48.17-1.41.47-2.8.82-4.18.35-1.41.82-2.77,1.36-4.11,1.56-3.86,3.76-7.31,6.59-10.36,3.52-3.79,7.69-6.63,12.5-8.53,1.43-.56,2.89-1.02,4.38-1.37,1.63-.39,3.27-.67,4.94-.79.14,0,.29.04.42-.03,1.71-.15,3.41-.15,5.11,0,.11.07.23.05.34.03.21.02.42.04.63.06.05.06.12.04.18.03.56.06,1.12.15,1.68.24.55.09,1.1.19,1.65.29.82.15,1.64.34,2.44.6.74.24,1.49.46,2.23.73,4.08,1.51,7.74,3.73,10.96,6.64,3.33,3.01,5.97,6.55,7.9,10.61.44.93.85,1.87,1.19,2.84.34.97.63,1.96.91,2.95.84,2.95,1.17,5.96,1.16,9.01,0,3.05-.43,6.06-1.28,8.99-.25.86-.52,1.72-.85,2.57-.29.74-.57,1.49-.9,2.21-3.19,6.87-8.1,12.13-14.74,15.77-2.55,1.4-5.24,2.43-8.07,3.1-.92.22-1.85.44-2.8.55-.11,0-.22-.02-.31.06-.08,0-.17.02-.25.03-.11,0-.22-.03-.32.05-.11.01-.22.02-.33.03-.11,0-.22-.02-.33.04-.13.04-.27.04-.41.04-.19.01-.38-.03-.56.06-.16,0-.33.02-.49.03-.33.01-.65-.03-.98.05Zm-3.92-62.11c-.16.04-.32.04-.48.04-.09,0-.17-.02-.25.04l-.4.04c-.09,0-.18-.02-.25.05-.84.13-1.67.29-2.49.49-1.2.29-2.38.65-3.53,1.1-3.61,1.39-6.79,3.44-9.57,6.11-2.88,2.76-5.03,6.03-6.59,9.68-.37.87-.66,1.78-.92,2.69-.93,3.24-1.29,6.53-1.08,9.9.14,2.25.57,4.44,1.19,6.59.27.94.64,1.85,1.03,2.75,1.52,3.49,3.63,6.57,6.37,9.21,2.98,2.86,6.44,4.95,10.31,6.35,1.18.43,2.4.74,3.63.99.37.07.73.18,1.11.24.55.08,1.1.13,1.64.2.05.06.12.04.18.03l.63.05c.14.08.28.05.42.03,2.36.09,4.7.02,7.03-.45,1.03-.21,2.05-.43,3.06-.74,4.34-1.33,8.14-3.6,11.4-6.75,2.62-2.53,4.7-5.46,6.19-8.78.34-.75.64-1.52.89-2.31.24-.75.5-1.49.69-2.25.66-2.58.91-5.21.88-7.86,0-.43.03-.39-.4-.4-.04,0-.08,0-.12,0-6.41,0-12.82,0-19.24,0-.08,0-.16,0-.24,0-.21-.02-.28.06-.28.28.01.62,0,1.25,0,1.87,0,.44-.07.43.45.43,2.66,0,5.32,0,7.98,0,2.89,0,5.78,0,8.68,0,.41,0,.41,0,.4.4,0,.04,0,.08,0,.12-.09,1.04-.21,2.08-.41,3.11-.24,1.23-.6,2.42-1.01,3.61-.31.9-.66,1.78-1.07,2.63-1.74,3.62-4.22,6.66-7.38,9.13-2.63,2.05-5.55,3.54-8.78,4.43-.65.18-1.3.34-1.96.47-.53.1-1.06.22-1.6.25-.09,0-.17-.02-.25.04-.13.04-.27.04-.41.04-.16,0-.33-.03-.48.05-.16,0-.32.02-.49.03-.25.01-.5-.04-.74.05-.67.05-1.34.04-2.01,0-.24-.08-.49-.04-.74-.04-.19,0-.38,0-.57-.04-.1-.07-.22-.05-.34-.04-.16,0-.32,0-.47-.05-.08-.06-.16-.04-.25-.04-.75-.09-1.5-.2-2.23-.38-.73-.18-1.47-.36-2.19-.59-3.38-1.09-6.4-2.8-9.07-5.13-2.99-2.62-5.33-5.73-6.88-9.4-.35-.84-.71-1.67-.94-2.56-.31-1.19-.63-2.37-.8-3.6-.15-1.06-.25-2.13-.27-3.2-.04-1.88.09-3.75.47-5.6.2-.95.41-1.89.71-2.82.37-1.15.82-2.27,1.35-3.35,1.38-2.85,3.24-5.36,5.54-7.53,2.7-2.55,5.8-4.45,9.32-5.64,1.47-.5,2.97-.86,4.52-1.08,1.1-.15,2.21-.26,3.32-.29.53-.02,1.06-.01,1.59-.01.14,0,.23-.02.23-.2,0-.75,0-1.49,0-2.24,0-.14-.07-.19-.19-.2-.22-.08-.44-.04-.66-.05-.95-.04-1.91.04-2.86.08-.11,0-.23-.02-.33.04Zm1.35,28.27c0,4.78,0,9.56,0,14.34,0,.11,0,.22,0,.33,0,.14.03.24.2.22.07,0,.14,0,.2,0,2.89,0,5.78,0,8.68,0,.07,0,.14,0,.2,0,.14.01.19-.06.19-.19,0-.77,0-1.55,0-2.32,0-.14-.06-.19-.2-.18-.09,0-.19,0-.29,0-1.9,0-3.8,0-5.7,0-.59,0-.53.09-.53-.51,0-8.65,0-17.3,0-25.94,0-.1,0-.19,0-.29,0-.29,0-.29-.29-.3-.71,0-1.41,0-2.12,0-.36,0-.36-.03-.36.35,0,.08,0,.16,0,.24,0,4.75,0,9.5,0,14.26Zm-9.44-6.76c2.33-.02,4.02-1.83,4.05-4.03.03-2.21-1.83-4.06-4.04-4.05-2.3,0-4.11,1.84-4.11,4.05,0,2.24,1.83,4.04,4.09,4.04Z"/>
  <path class="cls-1" d="m212.52,55.14c-.2-.22-.39-.45-.58-.67-1.77-2.06-4.01-3.29-6.69-3.71-2.25-.35-4.49-.34-6.73.08-1.48.28-2.87.81-4.1,1.7-1.55,1.12-2.56,2.63-3.23,4.4-.52,1.39-.8,2.84-.97,4.32-.2,1.74-.22,3.5-.14,5.25.08,1.97.32,3.92.96,5.8.54,1.6,1.36,3.01,2.65,4.14,1.11.97,2.4,1.57,3.81,1.95,1.99.54,4.03.63,6.08.51.69-.04,1.39-.08,2.07-.2,1.23-.22,2.46-.42,3.64-.84.35-.12.35-.13.35-.48,0-2.32,0-4.65,0-6.97,0-.35,0-.35-.36-.35-2.38,0-4.76,0-7.13,0-.16,0-.33,0-.49,0-.35,0-.36,0-.36-.36,0-2.5,0-5,0-7.5,0-.36,0-.37.39-.37,5.64,0,11.28,0,16.92,0,.08,0,.16,0,.24,0,.1,0,.15.06.15.15,0,.1,0,.19,0,.29,0,6.85,0,13.69,0,20.54,0,.28-.08.44-.31.59-1.42.92-2.96,1.6-4.55,2.15-2.2.76-4.46,1.25-6.77,1.57-2.24.31-4.49.44-6.74.37-2.77-.09-5.49-.46-8.12-1.35-2.18-.74-4.18-1.82-5.91-3.35-1.99-1.75-3.42-3.88-4.43-6.31-.76-1.84-1.25-3.75-1.56-5.71-.44-2.75-.51-5.51-.38-8.28.12-2.56.52-5.07,1.31-7.51.83-2.55,2.06-4.87,3.88-6.85,1.71-1.86,3.75-3.24,6.08-4.2,1.22-.5,2.48-.86,3.77-1.16,2.49-.56,5-.7,7.54-.66,1.09.02,2.17.09,3.25.25.84.13,1.67.31,2.51.48,2.82.58,5.35,1.74,7.59,3.55.98.79,1.82,1.7,2.57,2.72.12.16.1.24-.04.37-2.02,1.86-4.03,3.72-6.04,5.59-.03.03-.07.04-.12.08Z"/>
  <path class="cls-1" d="m147.73,64.84c0-7.18,0-14.37,0-21.55,0-.59-.07-.51.53-.51,3.04,0,6.09,0,9.13,0,.56,0,.49-.07.49.51,0,11.49,0,22.98,0,34.47,0,.59-.08.53.55.53,6.67,0,13.34,0,20.01,0,.6,0,.52-.05.52.53,0,2.53,0,5.05,0,7.58,0,.08,0,.16,0,.24.02.19-.06.28-.25.27-.09,0-.19,0-.29,0-10.05,0-20.11,0-30.16,0-.62,0-.53.07-.53-.55,0-7.17,0-14.34,0-21.51Z"/>
  <path class="cls-1" d="m99.76,99.07c.32-.08.65-.04.98-.05-.32.05-.65.09-.98.05Z"/>
  <path class="cls-1" d="m101.22,98.99c.18-.09.37-.04.56-.06-.18.05-.37.08-.56.06Z"/>
  <path class="cls-1" d="m95.99,31.48c-.14.07-.28.04-.42.03.14-.05.28-.06.42-.03Z"/>
  <path class="cls-1" d="m95.37,98.93c.17,0,.33-.03.49.05-.17.03-.33,0-.49-.05Z"/>
  <path class="cls-1" d="m101.44,31.5c-.12.02-.23.04-.34-.03.12-.01.23-.02.34.03Z"/>
  <path class="cls-1" d="m93.35,98.69c.11,0,.22-.03.31.06-.11.02-.21,0-.31-.06Z"/>
  <path class="cls-1" d="m103.43,98.74c.09-.08.21-.05.31-.06-.1.05-.2.08-.31.06Z"/>
  <path class="cls-1" d="m93.91,98.77c.11,0,.23-.03.32.05-.11.02-.22,0-.32-.05Z"/>
  <path class="cls-1" d="m102.85,98.82c.1-.07.21-.04.32-.05-.1.04-.21.07-.32.05Z"/>
  <path class="cls-1" d="m94.56,98.85c.11,0,.22-.02.33.04-.11.03-.22,0-.33-.04Z"/>
  <path class="cls-1" d="m102.2,98.89c.1-.06.22-.04.33-.04-.11.03-.21.07-.33.04Z"/>
  <path class="cls-1" d="m102.26,31.59c-.07.02-.13.04-.18-.03.07-.02.13-.02.18.03Z"/>
  <path class="cls-1" d="m96.95,99.05c.07-.03.15-.04.22.01-.07.03-.15.03-.22-.01Z"/>
  <path class="cls-2" d="m95.36,37c.16,0,.32,0,.48-.04.12.03.23,0,.33-.04.95-.04,1.9-.11,2.86-.08.22.04.44.08.66.05.12.01.19.06.19.2,0,.75,0,1.49,0,2.24,0,.18-.09.2-.23.2-.53,0-1.06,0-1.59.01-1.11.03-2.21.14-3.32.29-1.55.21-3.05.58-4.52,1.08-3.52,1.19-6.62,3.08-9.32,5.64-2.3,2.18-4.16,4.68-5.54,7.53-.53,1.09-.98,2.21-1.35,3.35-.3.92-.51,1.87-.71,2.82-.38,1.85-.51,3.72-.47,5.6.02,1.07.13,2.14.27,3.2.17,1.22.48,2.41.8,3.6.23.88.59,1.72.94,2.56,1.55,3.68,3.89,6.78,6.88,9.4,2.67,2.34,5.69,4.05,9.07,5.13.72.23,1.45.41,2.19.59.73.18,1.48.29,2.23.38.08.04.16.07.25.04.16.05.32.04.47.05.11.04.22.06.34.04.19.04.38.04.57.04.25.04.49.08.74.04.67.05,1.34.05,2.01,0,.25.03.5.01.74-.05.16,0,.32-.02.49-.03.17.02.33,0,.48-.05.14,0,.27,0,.41-.04.09.03.17,0,.25-.04.54-.03,1.07-.15,1.6-.25.66-.13,1.31-.29,1.96-.47,3.23-.89,6.14-2.38,8.78-4.43,3.17-2.47,5.64-5.51,7.38-9.13.41-.85.76-1.73,1.07-2.63.41-1.18.77-2.38,1.01-3.61.2-1.03.32-2.06.41-3.11,0-.04,0-.08,0-.12.01-.39.01-.4-.4-.4-2.89,0-5.78,0-8.68,0-2.66,0-5.32,0-7.98,0-.52,0-.44,0-.45-.43,0-.62,0-1.25,0-1.87,0-.21.07-.3.28-.28.08,0,.16,0,.24,0,6.41,0,12.82,0,19.24,0,.04,0,.08,0,.12,0,.42,0,.39-.03.4.4.03,2.66-.22,5.28-.88,7.86-.2.76-.45,1.5-.69,2.25-.25.79-.55,1.56-.89,2.31-1.49,3.33-3.57,6.25-6.19,8.78-3.27,3.15-7.06,5.42-11.4,6.75-1,.31-2.03.53-3.06.74-2.33.47-4.67.54-7.03.45-.14-.04-.28-.04-.42-.03-.21-.02-.42-.03-.63-.05-.06-.04-.12-.04-.18-.03-.55-.06-1.1-.11-1.64-.2-.37-.06-.74-.16-1.11-.24-1.24-.24-2.45-.56-3.63-.99-3.88-1.4-7.33-3.49-10.31-6.35-2.75-2.64-4.86-5.72-6.37-9.21-.39-.9-.76-1.82-1.03-2.75-.62-2.15-1.05-4.34-1.19-6.59-.21-3.37.15-6.66,1.08-9.9.26-.92.55-1.83.92-2.69,1.56-3.65,3.71-6.91,6.59-9.68,2.78-2.68,5.97-4.72,9.57-6.11,1.15-.44,2.33-.81,3.53-1.1.82-.2,1.65-.36,2.49-.49.09.02.17,0,.25-.05.13-.01.27-.03.4-.04.09.03.17,0,.25-.04Z"/>
  <path class="cls-2" d="m97.19,65.22c0-4.75,0-9.5,0-14.26,0-.08,0-.16,0-.24,0-.38,0-.35.36-.35.71,0,1.41,0,2.12,0,.28,0,.28,0,.29.3,0,.09,0,.19,0,.29,0,8.65,0,17.3,0,25.94,0,.6-.07.51.53.51,1.9,0,3.8,0,5.7,0,.1,0,.19,0,.29,0,.13,0,.2.04.2.18,0,.77,0,1.55,0,2.32,0,.13-.05.2-.19.19-.07,0-.14,0-.2,0-2.89,0-5.78,0-8.68,0-.07,0-.14,0-.2,0-.17.02-.21-.08-.2-.22,0-.11,0-.22,0-.33,0-4.78,0-9.56,0-14.34Z"/>
  <path class="cls-2" d="m87.75,58.46c-2.26,0-4.09-1.8-4.09-4.04,0-2.21,1.81-4.05,4.11-4.05,2.2,0,4.07,1.84,4.04,4.05-.03,2.21-1.72,4.01-4.05,4.03Z"/>
  <path class="cls-1" d="m97.58,90.91c-.25.04-.5,0-.74-.04.25,0,.5-.03.74.04Z"/>
  <path class="cls-1" d="m100.33,90.87c-.24.06-.49.07-.74.05.24-.09.49-.04.74-.05Z"/>
  <path class="cls-1" d="m99.7,36.88c-.22.03-.44,0-.66-.05.22,0,.45-.04.66.05Z"/>
  <path class="cls-1" d="m101.3,90.78c-.16.05-.32.08-.48.05.15-.08.32-.05.48-.05Z"/>
  <path class="cls-1" d="m96.37,93.49c.14-.01.29-.01.42.03-.14.02-.29.04-.42-.03Z"/>
  <path class="cls-1" d="m96.17,36.91c-.11.04-.22.07-.33.04.11-.06.22-.04.33-.04Z"/>
  <path class="cls-1" d="m96.27,90.83c-.12.02-.23,0-.34-.04.12,0,.23-.03.34.04Z"/>
  <path class="cls-1" d="m95.36,37c-.08.04-.16.07-.25.04.08-.06.17-.04.25-.04Z"/>
  <path class="cls-1" d="m94.7,37.08c-.08.04-.16.07-.25.05.07-.07.16-.05.25-.05Z"/>
  <path class="cls-1" d="m95.46,90.74c-.09.03-.17,0-.25-.04.09,0,.17-.02.25.04Z"/>
  <path class="cls-1" d="m95.56,93.42c.07-.02.13-.02.18.03-.07.02-.13.04-.18-.03Z"/>
  <path class="cls-1" d="m101.96,90.7c-.08.04-.16.07-.25.04.08-.06.17-.04.25-.04Z"/>
</svg>