<?xml version="1.0" encoding="UTF-8"?>
<svg id="Layer_1" data-name="Layer 1" xmlns="http://www.w3.org/2000/svg" viewBox="0 0 300 133">
  <defs>
    <style>
      .cls-1 {
        fill: #8cbac9;
      }

      .cls-2 {
        fill: #00bffe;
      }
    </style>
  </defs>
  <path class="cls-2" d="m187,54.73c-.11,1.48-.06,3,.72,4.25,1,1.6,2.63,2.11,4.49,1.84,3.86,0,7.72,0,11.59,0,1.18.08,2.36.14,3.53.24.92.08,2.54,1.83,2.83,2.99.53,2.13-.7,4.43-3.27,5.14-5.39,0-10.77,0-16.16,0-.16,0-.33.11-.49.17-2.05.55-2.95,2.03-3.26,3.99-.05.3.07.56.18.82-.21.15-.19.38-.19.59,0,2.43.02,4.86.03,7.29-.18,2.26.8,3.85,2.79,4.89.29.15.56.12.84.12,5.98,0,11.95-.02,17.93.03,1.28,0,2.44.42,3.51,1.3,1.95,1.6,1.5,5.95-1.37,6.83-.44.13-.85.15-1.27.15-9.4,0-18.81,0-28.21,0-1.83,0-3.61-1.71-3.65-3.54-.02-1.02,0-2.04,0-3.06,0-16.65.02-33.3-.03-49.95,0-2.23,1.79-4.23,4.2-4.22,6.96.03,13.92.05,20.88,0,2.47-.02,4.93.26,7.39.25,1.56,0,3.1,1.87,3.23,3.43.2,2.36-.86,3.88-3.11,4.66-5.12,0-10.24,0-15.36,0-.22,0-.44-.01-.6.18-1.16,0-2.32,0-3.49.02-1.57.02-3.32,1.67-3.51,3.23-.12.96-.29,1.92-.18,2.89,0,1.82,0,3.64,0,5.46Z"/>
  <path class="cls-2" d="m94.02,43.1c-2.45.16-4.24-1.48-4.78-3.65-.41-1.64.81-3.85,2.55-4.41,1-.32,2.11-.4,3.17-.4,10.39-.03,20.77-.03,31.16,0,1.7,0,2.96.88,3.77,2.39.76,1.41.56,2.78-.25,4.07-3.86,6.08-7.76,12.14-11.63,18.21-4.99,7.83-9.98,15.65-14.94,23.5-.55.87-.52,1.94,0,2.8.48.83,1.21,1.46,2.34,1.46,6.34-.01,12.68,0,19.02.03.93,0,1.91-.02,2.78.25,1.84.57,2.85,1.97,3.11,3.85.18,1.31-1.04,3.17-2.46,3.93-.4.21-.81.27-1.25.27-11.95,0-23.91-.03-35.86.02-1.53,0-3.31-1.92-3.51-3.52-.26-1.99.98-3.35,1.89-4.79,5.27-8.34,10.62-16.63,15.92-24.94,3.04-4.77,6.05-9.57,9.08-14.35.68-1.07.92-2.15.24-3.31-.64-1.08-1.61-1.48-2.83-1.36-.29.03-.58,0-.87-.02-.26-.29-.61-.18-.92-.18-4.97-.01-9.94-.01-14.91-.01-.28,0-.59-.1-.81.18Z"/>
  <path class="cls-2" d="m138.2,43.1c-2.28.15-4.26-1.34-4.77-3.59-.43-1.88.93-4.01,3.02-4.78.36-.13.72-.1,1.07-.1,10.37,0,20.75-.04,31.12.03,1.59.01,3.24-.06,4.6,1.36,1.77,1.83,1.43,5.7-1.57,6.72-1.09.37-2.17.47-3.29.37-1.25-.31-2.49-.29-3.73.02-.62,0-1.24.02-1.86.02-2.33,0-4,1.62-4,3.98-.02,13.17-.03,26.34-.02,39.51,0,1.74-.02,3.48-.25,5.2-.23,1.69-1.91,3.42-3.9,3.58-2.42.2-4.12-.67-5.16-2.86-.09-.19-.1-.41-.15-.62,0-12.23,0-24.45-.01-36.68,0-.29,0-.58-.17-.84,0-2.4-.06-4.8.02-7.19.07-2.11-2.07-4.29-4.07-4.09-.75.08-1.52,0-2.29-.01-1.53-.3-3.07-.31-4.61-.02Z"/>
  <path class="cls-1" d="m149.14,54.41c.18.26.17.55.17.84,0,12.23,0,24.45.01,36.68-.29-.26-.19-.61-.2-.92-.01-12.02-.02-24.03-.03-36.05,0-.18.03-.36.04-.54Z"/>
  <path class="cls-1" d="m94.02,43.1c.22-.28.53-.18.81-.18,4.97,0,9.94,0,14.91.01.31,0,.66-.11.92.18-5.55,0-11.09-.01-16.64-.02Z"/>
  <path class="cls-1" d="m190.23,69.36c.16-.06.33-.17.49-.17,5.39,0,10.77,0,16.16,0-.17.05-.34.15-.51.15-5.38.01-10.77.02-16.15.02Z"/>
  <path class="cls-1" d="m194.17,43.13c.16-.19.38-.18.6-.18,5.12,0,10.24,0,15.36,0-.17.06-.33.17-.5.17-5.15.01-10.31.01-15.46.01Z"/>
  <path class="cls-1" d="m203.8,60.82c-3.86,0-7.72,0-11.59,0,.15-.21.38-.18.6-.18,3.46,0,6.92.01,10.38.02.22,0,.44-.02.61.17Z"/>
  <path class="cls-1" d="m187,82.06c-.01-2.43-.02-4.86-.03-7.29,0-.21-.02-.44.19-.59,0,2.43.02,4.86.02,7.29,0,.21.03.44-.18.59Z"/>
  <path class="cls-1" d="m187,54.73c0-1.82,0-3.64,0-5.46.27,1.82.27,3.64,0,5.46Z"/>
  <path class="cls-1" d="m138.2,43.1c1.54-.29,3.07-.29,4.61.02-1.54,0-3.07-.01-4.61-.02Z"/>
  <path class="cls-1" d="m164.65,43.12c1.24-.3,2.49-.32,3.73-.02-1.25,0-2.49.01-3.73.02Z"/>
</svg>