<?xml version="1.0" encoding="UTF-8"?>
<svg id="Layer_1" data-name="Layer 1" xmlns="http://www.w3.org/2000/svg" viewBox="0 0 300 133">
  <defs>
    <style>
      .cls-1 {
        fill: #01a0b0;
      }

      .cls-2 {
        fill: #120f12;
      }
    </style>
  </defs>
  <path class="cls-1" d="m134.71,21.16c.48.06.97.12,1.45.18,4.1.57,7.65,2.28,10.65,5.13,3.19,3.04,5.1,6.76,5.8,11.11.1.62.11,1.26.16,1.88.12,1.42.01,2.82-.21,4.21-.37,2.25-1.13,4.36-2.25,6.34-.02.04-.05.07-.09.12-.63-.63-1.26-1.26-1.89-1.88-.13-.13-.04-.23.01-.34.77-1.54,1.29-3.16,1.54-4.87.69-4.76-.39-9.08-3.38-12.87-2.69-3.4-6.22-5.43-10.5-6.11-1.26-.2-2.53-.24-3.8-.14-7.42.59-13.28,5.94-14.86,12.77-.31,1.33-.46,2.67-.43,4.03.09,4.38,1.64,8.18,4.69,11.31,3.67,3.76,7.42,7.45,11.14,11.16.49.49,1.03.48,1.52,0,.77-.76,1.53-1.53,2.29-2.29.43-.43.45-.97.06-1.44-.08-.1-.18-.19-.27-.28-3.56-3.57-7.13-7.13-10.69-10.7-1.82-1.82-2.94-3.98-3.26-6.53-.8-6.22,3.44-11.37,8.83-12.45,1.06-.21,2.13-.29,3.21-.2,5.07.41,9.36,4.24,10.15,9.56.14.92.13,1.84.04,2.78-.08.81-.25,1.58-.47,2.35-.12-.01-.17-.11-.23-.17-.58-.57-1.14-1.16-1.73-1.72-.25-.23-.31-.49-.28-.8.28-2.39-.42-4.48-1.94-6.31-1.34-1.61-3.07-2.58-5.14-2.89-4.56-.69-8.57,2.21-9.57,6.4-.2.84-.31,1.68-.23,2.53.18,2.04.91,3.87,2.37,5.34,3.69,3.71,7.4,7.41,11.1,11.11.5.5,1,.5,1.51-.01.74-.73,1.47-1.47,2.2-2.2.58-.58.58-1.12,0-1.7-3.57-3.57-7.14-7.15-10.71-10.72-.11-.11-.21-.21-.31-.32-.9-1.01-1.02-2.56-.29-3.7.12-.19.19-.25.39-.06,5.14,5.15,10.29,10.3,15.44,15.44.15.15.17.24,0,.4-4.35,4.34-8.69,8.69-13.03,13.04-.15.15-.23.14-.37,0-4.54-4.55-9.11-9.09-13.63-13.66-2.71-2.74-4.41-6.04-5.14-9.83-.3-1.55-.4-3.11-.32-4.68.44-8.99,6.96-16.04,14.96-17.83.94-.21,1.89-.36,2.85-.42.08,0,.18.02.25-.06.81,0,1.63,0,2.44,0Z"/>
  <path class="cls-2" d="m194.69,98.68c0-.71,0-1.41-.01-2.12,0-.26.15-.27.33-.26,1,.05,1.97-.13,2.89-.52,1.51-.64,2.43-1.79,2.74-3.39.23-1.19.11-2.41.15-3.7-.07.09-.1.12-.12.15-.91,1.38-2.21,2.18-3.83,2.45-3.68.61-7.03-1.11-8.46-4.85-.58-1.51-.74-3.08-.67-4.69.05-1.11.23-2.19.62-3.22.78-2.06,2.12-3.61,4.23-4.39.62-.23,1.26-.36,1.93-.4,1.4-.08,2.76.02,4.06.59.95.42,1.73,1.06,2.3,1.99.09-.31.01-.59.09-.86.24-.84.75-1.28,1.61-1.32,1.41-.07,2.82-.01,4.28-.03-.46.74-.89,1.44-1.32,2.14-.07.12-.17.1-.28.1-.42,0-.83,0-1.25,0-.5.01-.68.18-.69.68-.01.67,0,1.35,0,2.02,0,3.94,0,7.88,0,11.82,0,1.24-.17,2.45-.68,3.58-.86,1.91-2.38,3.07-4.33,3.71-.72.24-1.45.4-2.21.45-.05,0-.11,0-.13.06h-1.28Zm-4.36-16.32c-.03.8.06,1.59.25,2.38.54,2.19,2.1,4.15,4.76,4.34,2.11.15,3.92-.68,4.82-2.82.43-1.01.56-2.08.63-3.16.08-1.19-.02-2.37-.33-3.52-.36-1.34-1.07-2.43-2.37-3.02-.56-.25-1.14-.39-1.77-.45-.89-.07-1.76-.09-2.6.2-1.25.42-2.13,1.27-2.68,2.46-.52,1.14-.75,2.34-.71,3.6Z"/>
  <path class="cls-2" d="m75,81.34c.13-.39.11-.8.19-1.2.64-2.98,2.13-5.25,5.2-6.15.94-.28,1.91-.33,2.89-.25.85.07,1.67.23,2.46.55.97.39,1.77,1.03,2.38,1.96.07-.37.09-.7.2-1.01.25-.7.77-1.02,1.47-1.09.92-.09,1.84-.02,2.76-.04.17,0,.22.05.22.22,0,.6-.01,1.2,0,1.8,0,.19-.07.23-.24.23-.37,0-.75,0-1.12,0-.64,0-.8.16-.8.8,0,4.6,0,9.21,0,13.81,0,1.21-.17,2.39-.68,3.5-.94,2.05-2.61,3.22-4.72,3.82-.63.18-1.26.32-1.92.34-.05,0-.11,0-.14.05h-1.16c-.07-.72-.01-1.45-.03-2.17,0-.19.12-.17.23-.17.55-.02,1.09-.05,1.64-.15,2.53-.45,4.02-2.08,4.19-4.53.07-.97.03-1.94.04-2.92h0c-.37.49-.73.99-1.23,1.38-1.65,1.28-3.53,1.51-5.51,1.17-3.54-.61-5.51-3.39-6.14-6.52-.08-.41-.05-.84-.19-1.24v-2.18Zm8.1,7.76c1.58-.01,2.82-.57,3.67-1.66.5-.64.82-1.37,1-2.15.27-1.16.38-2.33.28-3.53-.07-.89-.18-1.76-.46-2.62-.36-1.1-1.01-1.95-2.02-2.49-.61-.32-1.27-.45-1.96-.54-.68-.08-1.37-.1-2.02.04-1.96.42-3.43,2.01-3.76,4.01-.16.98-.32,1.96-.21,2.98.09.8.21,1.6.48,2.36.83,2.3,2.65,3.6,4.99,3.61Z"/>
  <path class="cls-2" d="m133.46,77.68c-.22.7-.44,1.4-.67,2.09-1.27,3.85-2.55,7.7-3.81,11.55-.07.2-.15.29-.38.28-.78-.02-1.56-.01-2.34,0-.18,0-.26-.05-.32-.22-.38-1.16-.78-2.31-1.18-3.46-.59-1.73-1.18-3.46-1.77-5.19-.55-1.6-1.09-3.2-1.64-4.8-.11-.33-.22-.65-.34-.97-.11-.29-.33-.47-.65-.49-.33-.02-.66-.02-.99-.02-.14,0-.24-.02-.31-.16-.4-.73-.81-1.45-1.21-2.18.02-.03.03-.06.04-.06,1.19,0,2.37-.04,3.56.03,1.02.05,1.72.54,2.04,1.52.36,1.08.7,2.17,1.06,3.26.38,1.17.77,2.33,1.15,3.5.46,1.41.92,2.83,1.37,4.25.17.52.32,1.05.49,1.62.21-.63.4-1.23.6-1.82.75-2.27,1.5-4.54,2.25-6.82.56-1.71,1.13-3.43,1.69-5.15.08-.24.17-.34.44-.33.67.02,1.35.01,2.02,0,.18,0,.26.05.31.23.81,2.48,1.63,4.95,2.44,7.42.56,1.7,1.12,3.39,1.68,5.09.14.41.26.83.41,1.31.16-.33.19-.63.29-.91.3-.94.61-1.87.91-2.81.63-1.93,1.26-3.86,1.89-5.79.33-1,.61-2.02.98-3.01.34-.91.97-1.51,2.02-1.56,1.53-.07,3.06-.02,4.59-.03.26,0,.32-.06.33-.33.04-1.03.12-2.05.48-3.03.7-1.91,2.06-3.03,4.01-3.47.84-.19,1.69-.2,2.54-.13.26.02.36.1.34.39-.03.61-.03,1.22,0,1.83.02.32-.14.31-.35.28-.72-.13-1.44-.08-2.13.17-1.01.37-1.63,1.11-1.93,2.12-.18.6-.26,1.22-.28,1.84,0,.26.06.34.33.34,1.64-.01,3.27,0,4.91,0,.36,0,.36,0,.2.3-.32.61-.65,1.22-.96,1.84-.09.19-.2.26-.42.25-1.22-.01-2.44,0-3.66-.01-.27,0-.35.05-.35.34.01,4.82,0,9.63.02,14.45,0,.32-.09.39-.39.38-.66-.02-1.33-.02-1.99,0-.28,0-.33-.08-.33-.34,0-4.82,0-9.63.01-14.45,0-.31-.08-.39-.39-.38-.98.02-1.97,0-2.95,0-.88,0-1.05.12-1.34.97-.49,1.45-.98,2.9-1.47,4.36-.58,1.72-1.17,3.44-1.76,5.16-.5,1.47-1.01,2.93-1.51,4.41-.07.2-.15.29-.38.28-.74-.02-1.48-.02-2.21,0-.27,0-.36-.09-.44-.33-1.23-3.69-2.46-7.39-3.72-11.07-.28-.83-.53-1.67-.73-2.52-.03,0-.05,0-.08,0Z"/>
  <path class="cls-2" d="m109.8,92.08c-3.9.05-7.32-2.5-8.55-5.82-.27-.73-.47-1.47-.58-2.25-.09-.7-.11-1.42-.04-2.1.21-1.89.91-3.6,2.17-5.05,1.09-1.24,2.42-2.12,3.98-2.65,1.27-.43,2.57-.57,3.9-.45,3.61.32,6.74,2.54,7.96,6.16.34,1.03.5,2.1.46,3.18-.14,4.1-2.74,7.59-6.81,8.67-.35.09-.7.15-1.06.22-.47.09-.95.08-1.43.09Zm.09-15.81c-.47,0-.94-.03-1.4.08-3,.68-5.08,3.29-5.12,6.39-.01,1.09.19,2.12.65,3.09.78,1.66,2.01,2.84,3.75,3.45,1.42.5,2.85.48,4.27-.03,1.38-.5,2.44-1.39,3.22-2.62.78-1.23,1.09-2.59,1.04-4.05-.02-.66-.11-1.29-.3-1.9-.7-2.31-3.05-4.54-6.11-4.41Z"/>
  <path class="cls-2" d="m175.98,82.63c-.02,5.29-3.87,8.92-8.3,9.32-2.86.26-5.36-.57-7.42-2.56-1.86-1.8-2.75-4.03-2.77-6.62-.05-4.99,3.84-8.7,8.22-9.07,2.91-.24,5.49.53,7.61,2.61,1.78,1.75,2.6,3.91,2.66,6.33Zm-8.96-6.5c-1.08.01-1.87.13-2.63.43-2.87,1.13-4.08,3.68-4.18,6.03-.04.82.13,1.63.38,2.41.96,2.97,3.97,5,7.13,4.45,1.65-.29,2.97-1.05,4-2.34.79-.98,1.22-2.12,1.4-3.38.19-1.33.04-2.61-.52-3.81-1.14-2.48-3.15-3.69-5.58-3.81Z"/>
  <path class="cls-2" d="m215.64,83.08c-2.09,0-4.17,0-6.26,0-.21,0-.32,0-.31.28.14,2.37,1.56,5.11,4.65,5.94,1.46.39,2.9.31,4.31-.25.1-.04.19-.08.26.11.24.64.45,1.29.67,1.93.05.14.03.22-.15.28-1.35.5-2.76.75-4.18.61-3.48-.35-6.1-2.01-7.58-5.27-.63-1.4-.81-2.88-.77-4.4.03-1.19.25-2.36.7-3.44,1.04-2.47,2.84-4.15,5.45-4.91.91-.27,1.84-.38,2.78-.34,2.99.13,5.14,1.53,6.35,4.29.41.93.6,1.92.7,2.94.07.65-.02,1.29,0,1.94,0,.25-.09.29-.32.29-2.1,0-4.19,0-6.29,0Zm-6.42-2.22c.07,0,.12.01.17.01,3.29,0,6.59,0,9.88,0,.05,0,.11,0,.16,0,.06,0,.09-.02.08-.1-.08-.76-.21-1.5-.53-2.19-1.03-2.25-3.1-2.92-5.13-2.54-2.49.46-4.16,2.27-4.64,4.82Z"/>
  <path class="cls-2" d="m101.15,91.6c-1.18-.02-2.32.08-3.44-.06-1.16-.15-1.9-.86-2.29-1.97-.32-.92-.34-1.88-.34-2.83,0-5.2,0-10.4,0-15.61,0-.29-.04-.58-.16-.83-.21-.46-.59-.69-1.1-.7-.3,0-.71.1-.86-.05-.2-.19-.06-.6-.06-.92-.01-.41,0-.81,0-1.22,0-.15.04-.2.2-.2.71.01,1.42-.03,2.12.13,1.16.26,1.88,1.01,2.26,2.1.26.75.3,1.53.3,2.32,0,5.11,0,10.21,0,15.32,0,.43,0,.86.14,1.27.2.59.54.91,1.14.84.66-.07,1,.18,1.24.77.22.55.55,1.06.86,1.64Z"/>
  <path class="cls-2" d="m181.34,77.49c.13-.06.14-.16.18-.24.96-1.88,2.48-3.01,4.56-3.35.53-.09,1.08-.04,1.62.07.23.05.29.15.18.38-.27.55-.55,1.09-.75,1.66-.16.45-.44.59-.88.64-1.96.21-3.3,1.27-4.09,3.05-.39.88-.6,1.8-.69,2.76-.09.86-.07,1.72-.07,2.59,0,2.07,0,4.13,0,6.2,0,.3-.08.35-.36.35-.67-.02-1.35-.02-2.02,0-.28,0-.33-.08-.33-.34,0-4.34,0-8.67,0-13.01,0-.34-.02-.68-.11-1.01-.13-.49-.47-.76-.97-.79-.35-.02-.71-.03-1.06-.01-.18,0-.27-.06-.35-.21-.34-.65-.68-1.3-1.02-1.96-.06-.11-.17-.24.09-.23,1.18.02,2.36-.07,3.53.05,1,.1,1.86.46,2.29,1.46.15.36.22.75.24,1.14.01.26,0,.53,0,.8Z"/>
  <path class="cls-2" d="m226.09,74.74c0,.72,0,1.37,0,2.02,0,.09,0,.17,0,.26,0,.19-.15.26-.29.27-.14,0-.22-.12-.22-.26,0-.27,0-.53,0-.8,0-.66,0-1.33,0-1.99,0-.13-.02-.28.13-.33.14-.04.28-.03.41.1.33.34.68.65,1.01.99.13.14.24.14.37,0,.32-.33.66-.64.98-.97.13-.13.27-.18.43-.13.17.05.14.22.14.36,0,.88,0,1.75,0,2.63,0,.23-.07.4-.3.39-.22,0-.23-.21-.23-.39,0-.69,0-1.38,0-2.15-.33.32-.61.59-.89.86-.3.29-.35.28-.64,0-.28-.27-.56-.54-.89-.86Z"/>
  <path class="cls-2" d="m223.27,75.78c0-.38,0-.77,0-1.15,0-.18-.04-.25-.23-.23-.15.02-.3.01-.45,0-.16-.01-.3-.06-.3-.25,0-.19.13-.26.3-.26.63,0,1.26,0,1.89,0,.16,0,.25.06.26.25,0,.2-.09.27-.27.27-.01,0-.02,0-.03,0q-.63.03-.63.66c0,.6,0,1.2,0,1.79,0,.2-.02.42-.28.42-.26,0-.27-.23-.26-.43,0-.35,0-.71,0-1.06Z"/>
  <polygon class="cls-1" points="88.07 88.74 88.06 88.74 88.07 88.73 88.07 88.74"/>
</svg>