<?xml version="1.0" encoding="UTF-8"?>
<svg id="Layer_1" data-name="Layer 1" xmlns="http://www.w3.org/2000/svg" viewBox="0 0 300 133">
  <defs>
    <style>
      .cls-1 {
        fill: #e20074;
      }

      .cls-2 {
        fill: #ee66ac;
      }
    </style>
  </defs>
  <path class="cls-1" d="m55,57.76c.17-.22.08-.48.08-.71-.04-1.51.08-3.02.11-4.54.02-.88-.03-1.77.07-2.65.1-.97.02-1.93.07-2.89.02-.33.09-.67.08-1.01,0-.16.08-.2.22-.19.09,0,.18,0,.27,0,10.56,0,21.12,0,31.68,0,.4,0,.49.1.49.49.04,2.62.14,5.23.17,7.84.01.95-.03,1.91.07,2.85.1.94,0,1.88.13,2.81.04.27,0,.42-.34.46-.51.06-1.01.19-1.52.29-.18.03-.3.01-.33-.24-.13-.96-.25-1.93-.45-2.88-.43-2.05-1.09-4-2.37-5.68-1.3-1.72-2.99-2.88-5.09-3.45-.98-.27-1.97-.42-2.98-.51-.27-.02-.39,0-.39.33,0,9.95,0,19.91.02,29.86,0,1.19.04,2.38.36,3.54.37,1.33,1.25,2.07,2.53,2.44,1.17.34,2.36.33,3.56.31.3,0,.38.09.36.38-.02.52-.03,1.05,0,1.57.02.3-.09.36-.37.36-2.5-.01-5,0-7.5,0-3.95,0-7.9,0-11.85,0-.32,0-.44-.07-.42-.4.03-.53.02-1.07,0-1.61,0-.22.06-.3.29-.29.52,0,1.05,0,1.57-.01.89-.01,1.75-.19,2.59-.49,1.31-.46,1.87-1.5,2.1-2.78.35-1.9.26-3.82.26-5.73,0-8.99,0-17.97,0-26.96,0-.6.02-.51-.51-.48-3,.19-5.64,1.18-7.63,3.54-.9,1.07-1.53,2.3-2,3.61-.53,1.48-.87,3.01-1.06,4.58-.03.24-.07.49-.06.73,0,.26-.11.31-.34.26-.57-.11-1.14-.21-1.71-.3-.05,0-.1,0-.16,0v-2.43Z"/>
  <path class="cls-1" d="m177.01,45.36c0,.1.03.21.03.31,0,5.49,0,10.98,0,16.47-.02.05-.05.1,0,.13.04.03.06-.02.07-.06,1.12-2.39,3.06-3.75,5.59-4.26,1.12-.23,2.27-.16,3.41.02,1.63.25,3.08.88,4.33,1.92,1.74,1.44,2.91,3.27,3.7,5.39.45,1.22.73,2.47.91,3.75.18,1.33.25,2.67.17,4.01-.08,1.35-.21,2.7-.55,4.01-.94,3.67-2.58,6.89-5.98,8.9-1.66.98-3.49,1.28-5.4,1.2-2.07-.09-3.84-.89-5.42-2.18-.36-.3-.73-.59-1.1-.89-.78-.63-1.35-.58-1.96.23-.47.63-.9,1.29-1.32,1.94-.14.21-.27.31-.53.3-.44-.02-.89-.03-1.33,0-.4.03-.33-.21-.26-.4.18-.45.23-.91.31-1.38.1-.59.1-1.19.12-1.78.12-3.25.06-6.51.06-9.77,0-6.74,0-13.47,0-20.21,0-1.28-.04-2.56-.36-3.82-.19-.74-.8-1.29-1.56-1.41-.45-.07-.9-.07-1.36-.06-.21,0-.31-.04-.3-.28.02-.47.01-.94,0-1.41,0-.21.08-.27.27-.27.79-.02,1.59-.05,2.38-.09,1.61-.08,3.22-.16,4.82-.24.05,0,.1-.01.13-.07.37,0,.73,0,1.1,0Zm12.31,26.84c-.02-.91-.06-1.82-.13-2.73-.09-1.36-.24-2.71-.56-4.04-.3-1.23-.69-2.43-1.42-3.48-.97-1.42-2.32-2.11-4.04-1.98-1.33.09-2.47.64-3.44,1.56-1.28,1.21-2,2.73-2.48,4.37-.5,1.71-.7,3.48-.72,5.26-.02,2.01-.04,4.02.32,6.02.22,1.24.46,2.47.94,3.64.42,1.04.98,1.99,1.83,2.75,1.64,1.46,3.49,1.87,5.54,1.04,1.32-.54,2.09-1.65,2.66-2.91.91-2.01,1.18-4.17,1.36-6.34.09-1.05.15-2.1.14-3.16Z"/>
  <path class="cls-1" d="m152.67,87.35c-.48-.11-.96-.2-1.44-.32-2-.51-3.68-1.56-5.11-3.03-1.29-1.32-2.27-2.85-2.92-4.55-.51-1.31-.8-2.68-.99-4.08-.2-1.52-.19-3.04-.12-4.56.07-1.72.42-3.4,1.02-5.02,1.06-2.84,2.77-5.16,5.43-6.71,1.26-.74,2.62-1.2,4.07-1.4,1.33-.18,2.65-.2,3.96.03,2.76.49,5.07,1.8,6.87,3.98,1.06,1.29,1.88,2.73,2.41,4.31.35,1.03.57,2.08.73,3.16.22,1.47.3,2.95.22,4.43-.1,1.81-.34,3.6-.94,5.31-1.1,3.16-3.01,5.68-6.02,7.26-1.17.61-2.42.96-3.73,1.12-.07,0-.16-.01-.21.07h-3.22Zm1.9-1.87c.21.01.58-.07.95-.14,1.7-.33,2.81-1.4,3.6-2.87.75-1.4,1.08-2.92,1.34-4.47.22-1.31.32-2.62.37-3.93.08-2.03.01-4.05-.21-6.08-.14-1.24-.37-2.44-.73-3.63-.3-1-.72-1.95-1.39-2.77-2.03-2.49-5.24-2.78-7.48-.68-1.03.97-1.69,2.19-2.09,3.52-.57,1.86-.85,3.77-.88,5.72-.03,1.79-.06,3.57.07,5.36.09,1.18.22,2.36.48,3.52.27,1.27.63,2.52,1.25,3.67.98,1.81,2.52,2.71,4.73,2.79Z"/>
  <path class="cls-1" d="m238.18,87.35c-.63-.15-1.26-.24-1.88-.44-2.8-.88-4.78-2.72-6.18-5.24-.88-1.56-1.42-3.25-1.73-5-.13-.76-.23-1.53-.28-2.31-.08-1.16-.07-2.32-.04-3.48.02-1.01.16-2.03.39-3.02.41-1.81,1.03-3.54,2.04-5.11,1.36-2.12,3.07-3.84,5.51-4.69,1.5-.52,3.03-.63,4.61-.41,1.87.26,3.53.91,4.95,2.15,1.81,1.58,2.98,3.56,3.78,5.81.44,1.24.74,2.51.91,3.81.09.73.21,1.46.18,2.2-.01.2-.03.41.08.64h-.5c-5.27,0-10.55,0-15.82,0-.35,0-.42.09-.42.43-.01,1.25.04,2.5.18,3.74.22,2.01.57,4,1.66,5.77.82,1.35,1.97,2.31,3.53,2.63,2.74.56,5.08-.17,6.89-2.35.86-1.04,1.58-2.18,2.15-3.41.13-.29.27-.33.53-.17.41.24.83.45,1.25.66.16.08.21.15.12.33-1.14,2.19-2.51,4.19-4.54,5.67-1.23.9-2.59,1.47-4.09,1.72-.05,0-.1.02-.12.08h-3.14Zm1.11-17.24c1.71,0,3.43-.01,5.14,0,.36,0,.43-.11.43-.44,0-1.71-.25-3.38-.64-5.03-.29-1.22-.8-2.34-1.56-3.35-1.54-2.03-4.66-2.13-6.33-.17-.92,1.09-1.47,2.36-1.84,3.72-.44,1.6-.63,3.24-.7,4.9-.01.3.09.37.37.37,1.71-.01,3.43,0,5.14,0Z"/>
  <path class="cls-1" d="m222.08,45.36c0,.08-.02.16-.02.23,0,11.56,0,23.12,0,34.69,0,.97.05,1.94.35,2.88.28.88.92,1.27,1.77,1.44.53.11,1.06.08,1.59.07.28,0,.4.05.38.36-.03.38-.03.76,0,1.14.02.3-.06.4-.38.4-1.27-.02-2.54,0-3.81,0-2.92,0-5.84,0-8.75,0-.36,0-.45-.1-.42-.44.03-.38.02-.76,0-1.14-.02-.27.09-.32.33-.32.71.01,1.43.01,2.12-.21.62-.2,1.03-.6,1.24-1.2.2-.57.29-1.16.32-1.75.02-.45.08-.91.08-1.36,0-9.35.01-18.7-.01-28.05,0-.98-.04-1.96-.36-2.93-.32-.96-.89-1.2-1.61-1.37-.51-.12-1.03-.15-1.55-.13-.2,0-.28-.05-.28-.26.01-.44,0-.89,0-1.33,0-.21.06-.3.29-.3.87-.02,1.74-.04,2.61-.08,1.3-.06,2.6-.13,3.9-.18.33-.01.7.03,1.02-.13.39,0,.79,0,1.18,0Z"/>
  <path class="cls-1" d="m55,64.51c2.61,0,5.23.02,7.84,0,.36,0,.43.1.42.44-.01,2.49,0,4.99,0,7.48,0,.22-.01.35-.3.35-2.6-.01-5.2,0-7.8,0-.05,0-.1-.01-.15-.02,0-2.75,0-5.49,0-8.24Z"/>
  <path class="cls-1" d="m253.62,58.58c0,.65,0,1.3,0,1.96,0,.18,0,.3-.24.29-.24,0-.2-.16-.2-.29,0-.87,0-1.75,0-2.62,0-.14-.11-.37.19-.38.23,0,.45-.04.54.29.18.67.4,1.33.6,2,.03.09.06.17.12.34.21-.69.41-1.3.57-1.92.16-.62.15-.63.8-.63v3.22c-.32.06-.42-.07-.4-.4.03-.65,0-1.3,0-2-.23.23-.21.52-.29.76-.16.44-.25.91-.37,1.37-.04.16-.08.28-.3.27-.2,0-.31-.06-.37-.25-.19-.69-.36-1.38-.62-2.05,0-.05-.01-.14-.04-.13-.1.05-.02.12,0,.18Z"/>
  <path class="cls-1" d="m107.34,49.71c.01,9.72.02,19.44.04,29.16,0,1.06.05,2.11.46,3.12.64,1.57,1.78,2.43,3.48,2.55.34.02.68.04,1.02.03.24,0,.32.06.31.31-.02.43-.03.86,0,1.29.02.33-.11.38-.4.38-3,0-5.99,0-8.99,0-.97,0-1.94,0-2.9,0-.26,0-.38-.05-.36-.34.02-.44.02-.89,0-1.33-.01-.25.08-.31.32-.31.59.01,1.18.02,1.75-.16,1.41-.45,2.21-1.45,2.57-2.85.17-.66.21-1.32.23-2,.33-9.11.05-18.22.15-27.33,0-.88-.1-1.76-.24-2.63-.15-.87-1.09-1.62-2-1.75-.83-.12-1.66-.14-2.49-.13-.23,0-.29-.07-.28-.29.02-.43.03-.86,0-1.29-.02-.33.1-.38.4-.38,3.53,0,7.07,0,10.6,0,.8,0,.81,0,1.05.76.44,1.4.85,2.82,1.24,4.24.37,1.35.8,2.69,1.19,4.04.32,1.09.61,2.18.92,3.27.26.89.55,1.78.81,2.67.52,1.81,1,3.63,1.56,5.42.41,1.33.78,2.68,1.19,4.01.41,1.34.77,2.7,1.16,4.05.13.45.29.9.45,1.41.24-.34.26-.69.35-1.01.48-1.58.93-3.17,1.4-4.75.37-1.25.77-2.49,1.14-3.74.41-1.39.81-2.78,1.22-4.17.31-1.04.63-2.07.94-3.11.32-1.08.63-2.16.95-3.23.31-1.05.63-2.1.95-3.15.34-1.12.67-2.25,1.01-3.38.3-1.03.59-2.06.89-3.09.07-.24.26-.24.46-.24,2.56,0,5.13,0,7.69,0,1.18,0,2.36.01,3.53,0,.3,0,.39.08.37.37-.02.43-.02.86,0,1.29,0,.22-.06.3-.29.29-.73-.02-1.45.03-2.17.16-1.23.22-2.06.93-2.36,2.15-.15.59-.18,1.23-.18,1.85,0,9.34,0,18.68,0,28.02,0,.81.07,1.6.22,2.4.17.9.69,1.49,1.5,1.87.84.39,1.74.4,2.64.42.61.02.61,0,.61.63,0,.33-.02.66,0,.98.03.31-.1.4-.38.36-.03,0-.05,0-.08,0-4.82,0-9.63,0-14.45,0-.37,0-.47-.11-.44-.46.03-.4.02-.81,0-1.22-.01-.24.07-.31.31-.31.83-.01,1.66-.03,2.46-.32,1.04-.39,1.6-1.09,1.73-2.23.18-1.57.22-3.13.22-4.71,0-9.04,0-18.08,0-27.12,0-.14,0-.29,0-.43l-.06-.02c-.08.25-.18.5-.25.75-.33,1.24-.71,2.46-1.07,3.68-.4,1.33-.75,2.68-1.14,4.01-.34,1.17-.7,2.33-1.04,3.49-.31,1.05-.61,2.1-.91,3.15-.3,1.02-.6,2.03-.89,3.04-.31,1.05-.61,2.1-.91,3.15-.3,1.02-.6,2.03-.89,3.05-.31,1.05-.61,2.1-.91,3.15-.3,1.01-.59,2.03-.89,3.04-.31,1.05-.61,2.11-.92,3.16-.28.97-.56,1.93-.83,2.9-.04.15-.11.22-.27.21-.48,0-.97,0-1.45,0-.18,0-.24-.08-.29-.24-.36-1.25-.72-2.5-1.09-3.75-.31-1.08-.63-2.15-.94-3.23-.26-.9-.52-1.8-.78-2.7-.3-1-.61-2-.9-3-.25-.87-.48-1.74-.74-2.61-.52-1.76-1.05-3.52-1.56-5.28-.42-1.45-.81-2.91-1.23-4.36-.52-1.8-1.07-3.58-1.6-5.38-.6-2.05-1.17-4.11-1.76-6.17-.01-.04-.06-.07-.1-.11,0-.03.02-.07.01-.1,0-.04-.04-.04-.04,0,0,.03.02.06.03.1Z"/>
  <path class="cls-1" d="m206.55,69.67c0,3.64,0,7.27,0,10.91,0,.87.1,1.72.35,2.55.27.9.92,1.31,1.78,1.47.54.1,1.09.09,1.63.06.32-.01.4.1.38.4-.02.39-.02.78,0,1.18,0,.23-.05.32-.3.32-4.27,0-8.53,0-12.8,0-.21,0-.31-.04-.3-.28.02-.44.02-.89,0-1.33,0-.24.1-.28.3-.27.58.02,1.16.02,1.72-.08,1.04-.19,1.64-.81,1.81-1.86.12-.74.23-1.48.24-2.23.02-5.51.06-11.01-.02-16.52-.01-.76-.11-1.52-.34-2.25-.26-.86-.83-1.15-1.72-1.32-.48-.09-.96-.09-1.44-.08-.21,0-.27-.07-.27-.27.01-.47.01-.94,0-1.41,0-.18.06-.26.25-.26.16,0,.31-.01.47-.01,1.47.01,2.94-.15,4.41-.17,1.04-.02,2.07-.15,3.11-.14.23,0,.51-.21.66-.03.16.19.05.5.05.76,0,3.62,0,7.25,0,10.87,0,0,0,0,.01,0Z"/>
  <path class="cls-1" d="m88.45,68.67c0,1.26,0,2.51,0,3.77,0,.28-.08.35-.35.35-2.52-.01-5.05-.01-7.57,0-.28,0-.35-.08-.34-.35.01-2.52.01-5.05,0-7.57,0-.28.08-.35.35-.35,2.52.01,5.05.01,7.57,0,.28,0,.35.08.34.35-.01,1.27,0,2.54,0,3.8Z"/>
  <path class="cls-1" d="m200.17,48.81c-.13-1.83,1.73-3.23,3.07-3.31,2.21-.13,3.65,1.66,3.61,3.35-.05,1.96-1.46,3.3-3.38,3.35-1.64.04-3.44-1.61-3.3-3.38Z"/>
  <path class="cls-1" d="m251.42,59.41c0-.38-.01-.76,0-1.13.01-.24-.08-.33-.31-.31-.14.01-.29,0-.43,0-.18,0-.17-.11-.17-.24,0-.12.03-.2.17-.2.64,0,1.28,0,1.92,0,.1,0,.18.02.18.14,0,.12.02.24-.12.3-.03.01-.08.01-.11.02-.2.03-.49-.1-.59.06-.1.18-.04.45-.04.69,0,.6,0,1.2,0,1.8,0,.18-.02.29-.25.29-.22,0-.26-.1-.25-.28,0-.38,0-.76,0-1.13Z"/>
  <path class="cls-2" d="m253.62,58.58c-.03-.06-.1-.14,0-.18.03-.01.05.07.04.13,0,.03,0,.05-.04.06Z"/>
  <path class="cls-2" d="m107.34,49.71s-.03-.06-.03-.1c0-.04.03-.04.04,0,0,.03,0,.06-.01.1,0,0,0,0,0,0Z"/>
  <path class="cls-2" d="m177.11,62.21s-.02.09-.07.06c-.05-.03-.03-.09,0-.13.02.02.05.05.07.07Z"/>
</svg>