<?xml version="1.0" encoding="UTF-8"?>
<svg id="Layer_1" data-name="Layer 1" xmlns="http://www.w3.org/2000/svg" viewBox="0 0 300 133">
  <path d="m81.24,43.53c.57.37,1.1.61,1.5,1,2.94,2.9,5.85,5.84,8.79,8.75.88.87.84,1.72.06,2.6-.35.39-.71.77-1.08,1.14-8.36,8.36-16.71,16.72-25.07,25.08-2.11,2.11-2.34,2.1-4.47-.02-2.77-2.75-5.52-5.52-8.33-8.22-.82-.79-.85-1.28-.02-2.1,9.08-9.03,18.13-18.1,27.19-27.15.39-.39.9-.68,1.44-1.09Z"/>
  <path d="m60.21,58.39c-3.72,3.84-7.42,7.65-11.21,11.55-.3-.24-.63-.46-.9-.73-4.22-4.18-8.43-8.35-12.63-12.54-1.81-1.8-1.81-2.24-.07-3.99,2.66-2.68,5.35-5.34,8.01-8.03.89-.9,1.82-1.36,2.86-.33,4.72,4.73,9.41,9.49,13.94,14.07Z"/>
  <path d="m240.91,79.68c-.07-1-.12-1.79-.19-2.88-.85.72-1.48,1.36-2.21,1.85-3.53,2.36-8.38,1.8-11.35-1.26-4.42-4.55-4.37-12.48.11-16.92,3.69-3.66,8.87-3.67,12.6-.02.19.19.41.36.89.77v-12.26c1.52,0,2.85-.08,4.16.05.34.03.87.73.87,1.12.05,9.43.05,18.87-.01,28.3,0,.42-.72,1.12-1.18,1.19-1.13.17-2.31.06-3.68.06Zm-.12-10.65c.04-3.36-2.55-6.13-5.79-6.18-3.47-.06-5.98,2.44-6.06,6.03-.08,3.46,2.54,6.2,5.92,6.21,3.24,0,5.89-2.7,5.93-6.06Z"/>
  <path d="m112.29,48.95c1.76,0,3.27-.09,4.76.06.45.04,1.02.68,1.21,1.17,2.73,7.1,5.4,14.21,8.09,21.32.1.26.23.5.53,1.14.86-2.2,1.62-4.05,2.32-5.93,2.04-5.44,4.08-10.87,6.06-16.33.4-1.09.96-1.58,2.17-1.47,1.26.11,2.54.03,4.1.03-1.15,3.05-2.22,5.9-3.29,8.75-2.59,6.84-5.2,13.67-7.74,20.52-.38,1.02-.82,1.48-1.97,1.49-4.7.04-4.71.07-6.4-4.38-3.18-8.35-6.35-16.71-9.52-25.07-.12-.31-.16-.66-.32-1.31Z"/>
  <path d="m160.51,70.97h-15.7c.19,2.02,1.34,3.17,2.81,3.86,3.29,1.53,6.22.56,9.06-1.89.93,1.16,1.82,2.26,2.68,3.32-2.49,3.33-8.26,4.8-12.5,3.31-4.65-1.65-7.54-5.43-7.73-10.15-.2-4.81,2.35-8.92,7.02-10.81,3.97-1.61,7.82-1.13,11.08,1.76,3.13,2.77,4.02,6.37,3.28,10.61Zm-5.56-4.32c-.29-2.52-2.34-4.09-5.11-4.06-2.64.03-4.64,1.65-4.89,4.06h10Z"/>
  <path d="m185.47,67.45c1.81-1.95,3.25-3.5,4.68-5.06,1.06-1.16,2.09-2.35,3.18-3.48.3-.31.75-.65,1.14-.67,1.67-.07,3.34-.03,5.47-.03-1.16,1.36-2.02,2.4-2.92,3.4-1.28,1.43-2.52,2.91-3.91,4.23-1,.94-1.07,1.65-.25,2.78,2.22,3.06,4.31,6.21,6.44,9.33.31.46.58.95,1.04,1.72-1.86,0-3.42.13-4.94-.07-.59-.08-1.19-.83-1.6-1.41-1.71-2.4-3.35-4.85-5.08-7.38-2,1.91-3.8,3.56-3.42,6.59.28,2.25.05,2.28-2.22,2.28-.41,0-.82-.04-1.22,0-1.1.13-1.55-.27-1.55-1.45.03-9.31.03-18.63,0-27.94,0-.93.23-1.33,1.26-1.38,3.78-.18,3.78-.21,3.78,3.57,0,4.19,0,8.38,0,12.57,0,.61.05,1.22.11,2.38Z"/>
  <path d="m262.65,77.01c-2.16,2.45-4.62,3.51-7.61,2.99-3.35-.58-5.43-2.65-5.62-5.5-.22-3.26,1.64-6.02,4.89-6.93,2.01-.56,4.09-.83,6.14-1.24.78-.16,1.55-.36,2.32-.54-.72-3.81-4.33-4.09-9.33-.83-.99-.91-1.98-1.84-3.06-2.83,2.82-3.21,6.04-4.93,10.14-4.27,3.78.61,6.38,2.82,7.21,6.63.37,1.67.23,3.47.25,5.21.03,2.85-.02,5.7.03,8.55.02,1.03-.28,1.56-1.37,1.43-.29-.03-.58,0-.87,0q-2.62,0-3.1-2.67Zm-.01-7.21c-2.14.44-4.33.72-6.39,1.4-.77.26-1.79,1.51-1.71,2.17.11.85,1.08,1.98,1.94,2.28,3.34,1.2,6.83-2.05,6.16-5.86Z"/>
  <path d="m215.06,77.72c-1.61.73-3.28,1.88-5.11,2.25-4.8.97-8.76-2.69-7.98-7.21.48-2.79,2.37-4.53,5.02-5.23,2.68-.71,5.44-1.13,8.35-1.72-.24-1.69-1.23-2.53-2.61-2.97-2.06-.65-3.97-.14-5.52,1.27-1.04.94-1.66.84-2.54-.14-.53-.59-1.35-.92-1.9-1.28,2.54-4.05,7.24-5.7,11.54-4.51,3.72,1.03,6.14,4.34,6.16,8.51.03,4.24,0,8.48,0,12.96-1.53,0-2.94.2-4.24-.1-.55-.13-.86-1.31-1.18-1.84Zm.05-7.9c-2.15.43-4.2.77-6.21,1.26-1.12.27-2.23,1.03-1.89,2.29.25.9,1.13,1.96,1.98,2.29,3.32,1.26,6.79-1.96,6.12-5.83Z"/>
  <path d="m169.83,58.2c.07,1.07.12,1.85.16,2.42,1.75-.92,3.44-1.93,5.23-2.72,1.35-.59,2.07-.04,1.94,1.53-.09,1.14-.02,2.29-.02,3.57-.62,0-1.01,0-1.39,0-3.28.04-5.64,2.22-5.76,5.52-.11,3.02-.05,6.04-.06,9.07,0,.63,0,1.25,0,2.01h-4.92c-.05-.42-.14-.86-.14-1.3,0-6.16.02-12.32-.03-18.49,0-1.18.28-1.72,1.54-1.62,1.09.09,2.19.02,3.45.02Z"/>
</svg>