<?xml version="1.0" encoding="UTF-8"?>
<svg id="Layer_1" data-name="Layer 1" xmlns="http://www.w3.org/2000/svg" viewBox="0 0 109.92 109.92">
  <defs>
    <style>
      .cls-1 {
        fill: #4b17d0;
      }

      .cls-2 {
        fill: #3eafa5;
      }
    </style>
  </defs>
  <path class="cls-2" d="m90.33,51.26c-.01.95-.06,2.26-.22,3.56-.05.42-.05.43-.49.43-1.19,0-2.38,0-3.57,0-.46,0-.47-.02-.4-.55.18-1.39.3-2.79.26-4.2-.18-6.94-2.43-13.11-6.94-18.41-4.16-4.89-9.4-8.06-15.66-9.53-3.25-.76-6.54-.95-9.85-.55-6.1.73-11.48,3.12-16.07,7.22-4.77,4.27-7.79,9.57-9.14,15.83-.08.38-.15.77-.21,1.15-.04.24-.18.26-.38.26-1.28,0-2.56,0-3.84,0-.26,0-.34-.09-.31-.35.09-.72.22-1.44.37-2.15,1.14-5.32,3.39-10.12,6.86-14.32,5.15-6.22,11.71-10.14,19.63-11.73,2.84-.57,5.72-.73,8.6-.53,7.3.51,13.78,3.1,19.38,7.81,5.72,4.81,9.41,10.89,11.13,18.17.58,2.46.83,4.97.83,7.87Z"/>
  <path class="cls-1" d="m76.99,71.32c-4.66,0-9.32,0-13.97,0-.64,0-.59.08-.59-.6,0-.78,0-1.56,0-2.35,0-.54,0-.54.56-.54.11,0,.21,0,.32,0,9.03,0,18.06,0,27.1,0,.39,0,.78.02,1.16-.09,1.04-.31,1.8-1.22,1.84-2.3.03-.85,0-1.71.02-2.56,0-.23-.07-.33-.31-.31-.14.01-.28,0-.43,0-8.39,0-16.78,0-25.18,0-2.82,0-5.23-1.87-5.84-4.66-.09-.42-.15-.84-.15-1.27,0-1.95,0-3.91,0-5.86,0-.44,0-.44.43-.44.87,0,1.74,0,2.61,0,.43,0,.44,0,.44.44,0,1.9,0,3.8,0,5.7,0,.9.38,1.61,1.1,2.14.4.29.84.45,1.34.46.2,0,.39,0,.59,0,8.25,0,16.5,0,24.75,0,.72,0,.63.09.63-.61,0-2.49,0-4.97,0-7.46,0-.11.01-.21,0-.32-.04-.29.11-.36.37-.35.92.01,1.85.01,2.77,0,.29,0,.38.12.35.38,0,.05,0,.11,0,.16,0,4.74,0,9.49,0,14.23,0,1.14-.22,2.23-.8,3.22-1.14,1.94-2.88,2.89-5.09,2.99-.96.05-1.92.01-2.88.01-3.72,0-7.43,0-11.15,0Z"/>
  <path class="cls-1" d="m23.93,71.21c-2.92-.51-4.96-2.84-4.98-5.78-.03-3.23-.06-6.47.03-9.7.05-1.57.81-2.92,2.02-3.96,1.1-.94,2.39-1.37,3.82-1.43.21,0,.43,0,.64,0,9.4,0,18.81,0,28.21,0,.72,0,.65-.09.66.65,0,.82,0,1.63,0,2.45,0,.38-.01.38-.38.39-.12,0-.25,0-.37,0-9.4,0-18.81,0-28.21,0-.69,0-1.34.08-1.91.52-.61.47-.96,1.08-1.01,1.85-.02.28-.01.57-.01.85,0,2.66,0,5.33,0,7.99,0,.76.19,1.44.73,2,.46.48,1.02.76,1.7.78.25,0,.5.01.75.01,9.35,0,18.7,0,28.05,0,.78,0,.69-.09.69.67,0,.82,0,1.63,0,2.45,0,.27-.07.4-.36.37-.11-.01-.21,0-.32,0-9.39,0-18.77,0-28.16,0-.32,0-.64-.02-.96-.02-.19-.11-.4-.06-.61-.08Z"/>
  <path class="cls-2" d="m78.97,76.06c-3.23,2.86-6.88,5.02-10.95,6.46-6.7,2.37-13.49,2.59-20.33.7-4.93-1.36-9.32-3.76-13.16-7.17.16-.16.31-.1.44-.1,2.17,0,4.34,0,6.51,0,.32,0,.58.08.85.24,3.07,1.79,6.38,2.91,9.89,3.48,2.26.37,4.53.45,6.8.28,4.31-.33,8.37-1.54,12.12-3.7.35-.2.7-.3,1.1-.3,2.06.02,4.12,0,6.19,0,.17,0,.34,0,.51,0l.03.12Z"/>
  <path class="cls-2" d="m23.93,71.21c.2.02.42-.03.61.08-.21.03-.41,0-.61-.08Z"/>
</svg>