<?xml version="1.0" encoding="UTF-8"?>
<svg id="Layer_1" data-name="Layer 1" xmlns="http://www.w3.org/2000/svg" viewBox="0 0 300 133">
  <defs>
    <style>
      .cls-1 {
        fill: #4b17d0;
      }

      .cls-2 {
        fill: #3eafa5;
      }
    </style>
  </defs>
  <path class="cls-2" d="m93.23,63.32c0,.77-.05,1.84-.18,2.9-.04.35-.04.35-.4.35-.97,0-1.94,0-2.91,0-.37,0-.38-.02-.32-.45.14-1.13.25-2.27.22-3.42-.15-5.65-1.98-10.68-5.66-15-3.39-3.98-7.66-6.57-12.75-7.76-2.65-.62-5.33-.77-8.02-.45-4.97.6-9.35,2.54-13.09,5.88-3.89,3.48-6.35,7.8-7.44,12.89-.07.31-.12.62-.17.94-.03.19-.15.22-.31.22-1.04,0-2.09,0-3.13,0-.22,0-.28-.08-.26-.28.07-.59.18-1.17.31-1.75.92-4.34,2.76-8.24,5.59-11.66,4.19-5.07,9.53-8.26,15.99-9.56,2.31-.46,4.66-.59,7-.43,5.94.41,11.23,2.53,15.79,6.37,4.66,3.92,7.67,8.87,9.06,14.8.47,2.01.68,4.05.68,6.41Z"/>
  <path class="cls-2" d="m154.97,72.54c-4.14,0-8.28,0-12.43,0-.12,0-.23,0-.35,0-.16,0-.24.06-.24.23,0,.72-.03,1.45.02,2.17.07,1.04.94,1.83,1.99,1.88.2,0,.41,0,.61,0,7.6,0,15.21,0,22.81,0,.63,0,.56-.06.56.55,0,.67,0,1.33,0,2,0,.23-.07.32-.3.3-.07,0-.14,0-.22,0-7.7,0-15.41,0-23.11,0-1.13,0-2.18-.23-3.12-.88-.91-.62-1.5-1.47-1.85-2.5-.18-.53-.24-1.07-.24-1.62,0-2.37-.02-4.75,0-7.12.02-1.71.67-3.12,2.1-4.12.82-.57,1.75-.82,2.74-.86.17,0,.35,0,.52,0,7.63,0,15.26,0,22.9,0,.65,0,.57-.07.57.58,0,.64,0,1.27,0,1.91,0,.35,0,.35-.37.35-.1,0-.2,0-.3,0-7.62,0-15.23,0-22.85,0-.33,0-.66,0-.99.1-.81.25-1.43,1.01-1.46,1.86-.02.68,0,1.36-.01,2.04,0,.2.06.3.27.28.13-.01.26,0,.39,0,8.25,0,16.51,0,24.76,0,.63,0,.56-.07.56.55,0,.67,0,1.33,0,2,0,.22-.07.32-.3.3-.1-.01-.2,0-.3,0-4.13,0-8.25,0-12.38,0Z"/>
  <path class="cls-1" d="m234.55,67.54c-.11-.21-.08-.46-.15-.68,0,0,0,0,0,0-.4-.98-1.05-1.44-2.1-1.44-6.26,0-12.51,0-18.77,0-1.31,0-2.19.88-2.19,2.18,0,2.34,0,4.69,0,7.03,0,.99.58,1.8,1.48,2.14.06.02.14.02.21.03.23.01.46.02.69.02,6.13,0,12.25,0,18.38,0,.29,0,.58.02.86-.07.9-.28,1.47-.98,1.53-1.94.04-.68,0-1.36.02-2.04,0-.16-.06-.24-.23-.23-.1,0-.2,0-.3,0-2.74,0-5.47,0-8.21,0-.09,0-.17,0-.26,0-.37,0-.38,0-.38-.38,0-.72,0-1.45,0-2.17,0-.22.06-.3.3-.3.72.01,1.45,0,2.17,0,3.08,0,6.17,0,9.25,0,.53,0,.48-.07.48.49,0,1.56.02,3.13,0,4.69-.03,1.6-.69,2.91-1.99,3.86-.8.59-1.72.87-2.71.92-.19.01-.38,0-.56,0-6.08,0-12.16,0-18.25,0-.23,0-.46-.01-.69-.02-.16-.09-.33-.05-.5-.06-2-.36-3.29-1.51-3.91-3.44-.15-.46-.18-.93-.18-1.4,0-2.42,0-4.83,0-7.25,0-1.67.67-3.02,2.02-4.01.83-.61,1.79-.86,2.81-.9.16,0,.32,0,.48,0,6.1,0,12.19,0,18.29,0,.9,0,1.76.13,2.57.54,1.34.68,2.16,1.77,2.5,3.21.09.39.22.81.09,1.23-.91-.03-1.81-.03-2.72,0Z"/>
  <path class="cls-1" d="m173.83,62.62c.13-.08.28-.05.42-.05,7.75,0,15.5,0,23.24,0,.96,0,1.87.17,2.71.66,1.39.8,2.17,2.02,2.37,3.59.22,1.74-.23,3.27-1.55,4.49-.14.13-.29.24-.44.35-.15.11-.31.2-.47.3.03.12.12.18.19.25,1.28,1.34,2.01,2.95,2.25,4.78.11.81.06,1.62.08,2.43,0,.19-.07.25-.25.25-.77,0-1.54,0-2.3,0-.21,0-.27-.08-.27-.28,0-.54,0-1.07-.03-1.61-.19-2.7-2.01-4.7-4.67-5.18-.27-.11-.55-.06-.83-.07-5.7,0-11.41,0-17.11,0-.58,0-.52-.06-.52.5,0,2.04,0,4.08,0,6.12,0,.1,0,.2,0,.3,0,.15-.06.21-.21.2-.29,0-.58,0-.87,0-.48,0-.96,0-1.43,0-.32,0-.32,0-.33-.34,0-.06,0-.12,0-.17,0-5.34,0-10.68,0-16.01,0-.17-.02-.35.03-.52,0,0,0,0,0,0Zm13.56,7.07c3.35,0,6.69,0,10.04,0,.26,0,.52.01.78-.05,1.02-.26,1.65-1.15,1.59-2.24-.06-1-.72-1.75-1.68-1.94-.24-.05-.49-.04-.74-.04-6.73,0-13.47,0-20.2,0-.1,0-.2,0-.3,0-.17-.01-.23.07-.22.23,0,.26,0,.52,0,.78,0,.97,0,1.94,0,2.91,0,.35,0,.35.36.35.09,0,.17,0,.26,0,3.37,0,6.75,0,10.12,0Z"/>
  <path class="cls-1" d="m82.37,79.66c-3.79,0-7.59,0-11.38,0-.52,0-.48.07-.48-.49,0-.64,0-1.27,0-1.91,0-.44,0-.44.46-.44.09,0,.17,0,.26,0,7.36,0,14.71,0,22.07,0,.32,0,.64.02.95-.08.85-.25,1.46-1,1.5-1.87.03-.69,0-1.39.01-2.08,0-.19-.06-.27-.25-.25-.11,0-.23,0-.35,0-6.84,0-13.67,0-20.51,0-2.29,0-4.26-1.53-4.76-3.8-.07-.34-.13-.68-.13-1.03,0-1.59,0-3.18,0-4.78,0-.36,0-.36.35-.36.71,0,1.42,0,2.13,0,.35,0,.36,0,.36.36,0,1.55,0,3.1,0,4.65,0,.74.31,1.31.9,1.74.32.24.69.37,1.09.37.16,0,.32,0,.48,0,6.72,0,13.44,0,20.16,0,.59,0,.52.07.52-.5,0-2.03,0-4.05,0-6.08,0-.09,0-.17,0-.26-.03-.24.09-.29.3-.29.75,0,1.51.01,2.26,0,.24,0,.31.1.28.31,0,.04,0,.09,0,.13,0,3.86,0,7.73,0,11.59,0,.93-.18,1.81-.65,2.62-.92,1.58-2.34,2.35-4.15,2.44-.78.04-1.56,0-2.35,0-3.03,0-6.05,0-9.08,0Z"/>
  <path class="cls-1" d="m267.41,79.65c-.22,0-.43.02-.65.02-7.44,0-14.89,0-22.33,0-.58,0-.51.06-.52-.5,0-.68,0-1.36,0-2.04,0-.22.06-.33.29-.3.1.01.2,0,.3,0,7.34,0,14.69,0,22.03,0,.19,0,.38,0,.56,0,1.08.02,2.02-.86,2.07-2.03.03-.66,0-1.33.01-2,0-.18-.06-.27-.25-.25-.12,0-.23,0-.35,0-6.84,0-13.67,0-20.51,0-2.27,0-4.15-1.45-4.73-3.63-.1-.38-.15-.76-.15-1.16,0-1.61,0-3.21,0-4.82,0-.35,0-.36.35-.36.71,0,1.42,0,2.13,0,.32,0,.33,0,.33.34,0,1.49,0,2.98,0,4.47,0,.63.14,1.2.6,1.66.41.41.89.64,1.47.64.14,0,.29,0,.43,0,6.71,0,13.41,0,20.12,0,.64,0,.54.07.54-.56,0-2.01,0-4.02,0-6.04,0-.12,0-.23,0-.35,0-.13.07-.18.19-.18.81,0,1.62,0,2.43,0,.16,0,.2.08.2.22,0,.09,0,.17,0,.26,0,3.81,0,7.61,0,11.42,0,.86-.1,1.7-.49,2.48-.75,1.49-1.95,2.36-3.6,2.64-.17.01-.34-.02-.5.06Z"/>
  <path class="cls-1" d="m39.15,79.58c-2.38-.42-4.04-2.31-4.06-4.71-.02-2.63-.05-5.27.03-7.9.04-1.28.66-2.38,1.65-3.23.89-.76,1.95-1.11,3.11-1.17.17,0,.35,0,.52,0,7.66,0,15.32,0,22.98,0,.59,0,.53-.08.53.53,0,.67,0,1.33,0,2,0,.31,0,.31-.31.32-.1,0-.2,0-.3,0-7.66,0-15.32,0-22.98,0-.56,0-1.09.07-1.56.42-.5.38-.79.88-.82,1.51-.01.23-.01.46-.01.69,0,2.17,0,4.34,0,6.51,0,.62.15,1.17.59,1.63.38.39.83.62,1.38.63.2,0,.41,0,.61,0,7.62,0,15.23,0,22.85,0,.63,0,.56-.07.56.55,0,.67,0,1.33,0,2,0,.22-.06.33-.29.3-.09-.01-.17,0-.26,0-7.65,0-15.29,0-22.94,0-.26,0-.52-.01-.78-.02-.16-.09-.33-.05-.49-.07Z"/>
  <path class="cls-2" d="m118.88,62.57c3.1,0,6.2,0,9.3,0,.96,0,1.87.18,2.7.68,1.54.92,2.3,2.32,2.39,4.09.04.95.01,1.91.01,2.86,0,2.99,0,5.99,0,8.98,0,.53.04.48-.5.48-.62,0-1.25,0-1.87,0-.53,0-.48.03-.48-.5,0-2.33,0-4.66,0-6.99,0-1.56,0-3.13,0-4.69,0-.75-.33-1.33-.96-1.75-.31-.2-.66-.3-1.02-.32-.13,0-.26,0-.39,0-6.12,0-12.25,0-18.37,0-.26,0-.52,0-.78.06-.97.24-1.59,1.01-1.61,2-.01.54,0,1.07,0,1.61,0,3.33,0,6.66,0,9.98,0,.1,0,.2,0,.3.03.24-.09.29-.3.29-.75,0-1.51-.01-2.26,0-.24,0-.31-.1-.29-.31,0-.04,0-.09,0-.13,0-3.89,0-7.78,0-11.68,0-1.4.47-2.64,1.49-3.63.96-.92,2.12-1.32,3.43-1.35,1.09-.02,2.17,0,3.26,0,2.08,0,4.17,0,6.25,0Z"/>
  <path class="cls-2" d="m83.98,83.52c-2.63,2.33-5.6,4.09-8.92,5.26-5.46,1.93-10.99,2.11-16.56.57-4.02-1.11-7.59-3.07-10.72-5.84.13-.13.25-.08.36-.08,1.77,0,3.53,0,5.3,0,.26,0,.47.07.69.2,2.5,1.46,5.2,2.37,8.06,2.84,1.84.3,3.69.37,5.54.22,3.51-.27,6.82-1.25,9.87-3.02.28-.16.57-.25.9-.24,1.68.01,3.36,0,5.04,0,.14,0,.28,0,.42,0l.03.1Z"/>
  <path class="cls-2" d="m234.55,67.54c.91-.03,1.81-.03,2.72,0-.32.08-.65.04-.97.03-.58,0-1.17.05-1.75-.03Z"/>
  <path class="cls-2" d="m194.27,72.54c.28.01.56-.04.83.07-.28-.02-.55-.05-.83-.07Z"/>
  <path class="cls-2" d="m39.15,79.58c.17.01.34-.02.49.07-.17.02-.34,0-.49-.07Z"/>
  <path class="cls-2" d="m212.6,79.58c.17.01.34-.02.5.06-.17.02-.34,0-.5-.06Z"/>
  <path class="cls-2" d="m267.41,79.65c.16-.09.33-.05.5-.06-.16.07-.33.08-.5.06Z"/>
  <path class="cls-2" d="m173.83,62.62s0,0,0,0c0,0,0,0,0,0Z"/>
  <path class="cls-2" d="m234.39,66.85s0,.01,0,0,0,0,0,0Z"/>
</svg>