<?xml version="1.0" encoding="UTF-8"?>
<svg id="Layer_1" data-name="Layer 1" xmlns="http://www.w3.org/2000/svg" viewBox="0 0 109.92 109.92">
  <defs>
    <style>
      .cls-1 {
        fill: #e20074;
      }
    </style>
  </defs>
  <path class="cls-1" d="m27.86,41.43c.27-.36.13-.78.12-1.16-.06-2.46.13-4.92.17-7.38.03-1.44-.04-2.89.11-4.31.17-1.57.03-3.14.12-4.7.03-.54.14-1.09.12-1.64,0-.26.13-.33.36-.32.15,0,.3,0,.45,0,17.17,0,34.34,0,51.5-.02.65,0,.8.17.8.8.06,4.25.22,8.5.28,12.75.02,1.54-.05,3.1.12,4.63.16,1.52,0,3.05.21,4.56.06.43,0,.69-.56.75-.83.09-1.65.31-2.48.47-.29.05-.48.02-.54-.39-.21-1.57-.41-3.14-.73-4.69-.7-3.33-1.78-6.5-3.85-9.24-2.12-2.8-4.87-4.68-8.28-5.6-1.59-.43-3.2-.68-4.84-.83-.44-.04-.64,0-.64.54.02,16.18,0,32.37.03,48.55,0,1.93.07,3.86.59,5.75.6,2.16,2.03,3.36,4.12,3.96,1.9.55,3.84.53,5.79.51.49,0,.61.14.59.61-.04.85-.04,1.7,0,2.55.03.5-.15.59-.61.59-4.06-.02-8.13-.01-12.19-.01-6.42,0-12.85,0-19.27.01-.52,0-.71-.11-.68-.66.05-.87.03-1.74,0-2.61,0-.36.1-.48.47-.48.85.02,1.7,0,2.55-.02,1.45-.02,2.84-.32,4.2-.8,2.13-.75,3.04-2.43,3.42-4.52.56-3.09.42-6.2.43-9.31,0-14.61,0-29.22,0-43.83,0-.98.04-.83-.82-.77-4.88.3-9.16,1.91-12.4,5.76-1.46,1.74-2.48,3.73-3.25,5.86-.87,2.41-1.42,4.9-1.73,7.44-.05.4-.11.79-.1,1.19,0,.43-.18.5-.55.43-.92-.18-1.85-.33-2.78-.49-.08-.01-.17,0-.25,0v-3.96Z"/>
  <path class="cls-1" d="m27.86,52.4c4.25,0,8.5.03,12.75,0,.58,0,.69.16.69.71-.02,4.06-.02,8.11,0,12.17,0,.36-.02.57-.49.57-4.23-.02-8.46-.01-12.68-.01-.08,0-.17-.02-.25-.04,0-4.47,0-8.93,0-13.4Z"/>
  <path class="cls-1" d="m82.24,59.17c0,2.04-.01,4.08.01,6.12,0,.45-.12.56-.57.56-4.1-.02-8.21-.02-12.31,0-.45,0-.56-.13-.56-.57.02-4.1.02-8.2,0-12.31,0-.45.12-.57.57-.56,4.1.02,8.21.02,12.31,0,.46,0,.56.14.56.57-.02,2.06,0,4.12,0,6.19Z"/>
</svg>