<?xml version="1.0" encoding="UTF-8"?>
<svg id="Layer_1" data-name="Layer 1" xmlns="http://www.w3.org/2000/svg" viewBox="0 0 109.92 109.92">
  <defs>
    <style>
      .cls-1 {
        fill: #01a0b0;
      }
    </style>
  </defs>
  <path class="cls-1" d="m57.2,17.98c.74.09,1.49.18,2.23.28,6.29.86,11.75,3.47,16.34,7.83,4.9,4.65,7.85,10.35,8.93,17.02.15.95.17,1.93.25,2.89.19,2.18.03,4.32-.31,6.46-.55,3.45-1.72,6.69-3.43,9.73-.03.06-.08.1-.14.19-.97-.97-1.93-1.93-2.9-2.88-.2-.2-.06-.36.02-.53,1.17-2.37,1.97-4.86,2.34-7.47,1.04-7.31-.63-13.93-5.22-19.72-4.13-5.21-9.55-8.3-16.12-9.33-1.93-.3-3.88-.36-5.83-.21-11.37.93-20.35,9.15-22.75,19.64-.47,2.04-.69,4.1-.64,6.19.16,6.72,2.54,12.54,7.23,17.33,5.64,5.75,11.4,11.39,17.11,17.08.75.75,1.57.74,2.33-.01,1.18-1.17,2.34-2.34,3.51-3.53.66-.67.68-1.49.08-2.21-.13-.15-.27-.29-.41-.42-5.48-5.46-10.95-10.92-16.43-16.37-2.79-2.78-4.52-6.1-5.03-10.01-1.25-9.54,5.25-17.46,13.5-19.13,1.63-.33,3.27-.44,4.93-.31,7.78.61,14.37,6.47,15.6,14.63.21,1.41.21,2.83.07,4.26-.12,1.24-.39,2.42-.72,3.6-.19-.02-.26-.16-.36-.26-.89-.88-1.75-1.78-2.66-2.63-.38-.36-.48-.75-.43-1.23.42-3.66-.66-6.87-3-9.67-2.06-2.46-4.72-3.95-7.89-4.42-6.99-1.05-13.14,3.42-14.65,9.85-.3,1.28-.46,2.58-.35,3.88.29,3.13,1.4,5.93,3.65,8.18,5.67,5.68,11.37,11.34,17.05,17,.78.77,1.53.76,2.31-.02,1.13-1.13,2.25-2.26,3.37-3.39.88-.89.88-1.72,0-2.6-5.49-5.47-10.98-10.94-16.47-16.41-.16-.16-.33-.32-.48-.49-1.38-1.55-1.57-3.92-.46-5.67.19-.3.3-.39.6-.09,7.9,7.89,15.81,15.76,23.72,23.64.24.23.27.36.01.61-6.65,6.67-13.3,13.35-19.94,20.04-.24.24-.35.21-.57,0-6.98-6.97-14-13.91-20.95-20.91-4.17-4.19-6.78-9.24-7.92-15.05-.46-2.37-.62-4.76-.51-7.17.65-13.79,10.63-24.63,22.88-27.4,1.44-.33,2.9-.56,4.37-.66.13,0,.28.03.38-.09,1.25,0,2.49,0,3.74,0Z"/>
</svg>