<?xml version="1.0" encoding="UTF-8"?>
<svg id="Layer_1" data-name="Layer 1" xmlns="http://www.w3.org/2000/svg" viewBox="0 0 109.92 109.92">
  <defs>
    <style>
      .cls-1 {
        fill: #eb4335;
      }

      .cls-2 {
        fill: #4287f6;
      }

      .cls-3 {
        fill: #34a853;
      }

      .cls-4 {
        fill: #fabd06;
      }
    </style>
  </defs>
  <path class="cls-4" d="m21.24,58.87c.01-.1,0-.2-.04-.29,0-.08,0-.16,0-.25-.16-1.2-.25-2.41-.27-3.63-.04-2.43.14-4.84.56-7.24.2-1.14.44-2.26.75-3.37.45-1.61,1.03-3.17,1.67-4.71.28-.67.54-1.35.94-1.96.11.06.24.11.34.19,1.3,1,2.59,2,3.88,3,1.78,1.38,3.55,2.76,5.32,4.14.77.6,1.57,1.16,2.3,1.81,0,.17-.05.32-.1.48-.34,1.04-.54,2.11-.77,3.18-.23,1.1-.26,2.23-.26,3.36,0,1.62.08,3.24.46,4.83.22.92.51,1.83.77,2.74-.05.03-.11.05-.15.09-1.09.84-2.18,1.69-3.27,2.53-2.04,1.57-4.12,3.09-6.11,4.72-.78.64-1.61,1.23-2.41,1.84-.12-.29-.31-.55-.43-.83-.61-1.46-1.28-2.9-1.72-4.43-.53-1.81-.98-3.63-1.33-5.49-.05-.24,0-.5-.12-.73Z"/>
  <path class="cls-1" d="m24.84,37.42c0-.06-.02-.13,0-.17,1.93-3.62,4.28-6.92,7.24-9.78,3.33-3.21,7.11-5.73,11.37-7.52,1.76-.74,3.56-1.33,5.41-1.78,1.17-.28,2.35-.47,3.54-.65,2.43-.38,4.86-.51,7.31-.34,1.12.08,2.24.17,3.35.34,1.9.28,3.77.66,5.59,1.23,4.99,1.55,9.4,4.13,13.27,7.64.23.21.28.32.02.56-3.3,3.2-6.59,6.41-9.87,9.63-.2.2-.3.15-.48-.01-1.72-1.55-3.63-2.8-5.78-3.66-1.21-.48-2.45-.86-3.73-1.13-.95-.2-1.9-.27-2.86-.36-.9-.09-1.79-.12-2.68-.05-1.17.09-2.33.23-3.49.47-4.59.96-8.4,3.26-11.57,6.66-1.43,1.54-2.6,3.27-3.55,5.15-.45.9-.86,1.81-1.17,2.77-.02.06-.07.12-.11.18-.73-.65-1.53-1.21-2.3-1.81-1.77-1.39-3.55-2.77-5.32-4.14-1.29-1-2.59-2.01-3.88-3-.1-.08-.22-.13-.34-.19Z"/>
  <path class="cls-3" d="m81.94,81.67c-1.7,1.64-3.61,3.01-5.65,4.18-2.92,1.69-6.03,2.89-9.31,3.65-1.45.33-2.91.59-4.38.78-2.06.27-4.12.27-6.19.27-1.07,0-2.13-.1-3.18-.23-1.12-.14-2.23-.34-3.33-.57-1.91-.41-3.77-.97-5.58-1.68-3.56-1.4-6.84-3.3-9.8-5.73-3.97-3.25-7.15-7.15-9.51-11.72-.05-.09-.11-.18-.16-.27.8-.61,1.63-1.2,2.41-1.84,2-1.63,4.08-3.15,6.11-4.72,1.09-.84,2.18-1.69,3.27-2.53.05-.04.1-.06.15-.09.87,2.53,2.13,4.85,3.81,6.94,2.01,2.5,4.45,4.47,7.31,5.94,1.27.65,2.61,1.13,3.98,1.54,1.02.3,2.06.51,3.11.64,1.6.2,3.23.2,4.83.07,2.73-.22,5.38-.85,7.87-2.04.93-.45,1.81-.96,2.66-1.54,1.1.86,2.21,1.71,3.31,2.58.89.71,1.82,1.37,2.76,2.01.62.41,1.14.94,1.7,1.42.67.57,1.38,1.1,2.07,1.63.58.45,1.16.88,1.74,1.32Z"/>
  <path class="cls-2" d="m81.94,81.67c-.58-.44-1.16-.88-1.74-1.32-.7-.54-1.41-1.06-2.07-1.63-.56-.48-1.08-1.01-1.7-1.42-.95-.63-1.87-1.3-2.76-2.01-1.1-.87-2.21-1.72-3.31-2.58,2.27-1.6,4.11-3.61,5.48-6.03.63-1.1,1.15-2.25,1.51-3.47.2-.69.4-1.39.49-2.12.04-.29-.1-.32-.35-.32-2.39,0-4.77,0-7.16,0-4.1,0-8.2,0-12.3,0-.3,0-.4-.06-.4-.38.01-4.3.01-8.6,0-12.9,0-.28.07-.36.36-.36,11.27,0,22.54,0,33.81,0,.3,0,.38.12.43.38.22,1.17.4,2.34.51,3.53.22,2.28.23,4.56.05,6.85-.25,3.23-.81,6.4-1.82,9.49-1.41,4.35-3.56,8.29-6.56,11.76-.77.89-1.57,1.76-2.48,2.52Z"/>
</svg>