<?xml version="1.0" encoding="UTF-8"?>
<svg id="Layer_1" data-name="Layer 1" xmlns="http://www.w3.org/2000/svg" viewBox="0 0 336 597.92">
  <defs>
    <style>
      .cls-1 {
        fill: #004a87;
      }

      .cls-2 {
        fill: #01a0b0;
      }

      .cls-3 {
        fill: #5b5658;
      }

      .cls-4 {
        fill: #e20074;
      }

      .cls-5 {
        fill: #fff;
      }

      .cls-6 {
        fill: #115bad;
      }

      .cls-7 {
        fill: #ee66ac;
      }

      .cls-8 {
        fill: #eb4335;
      }

      .cls-9 {
        fill: #4287f6;
      }

      .cls-10 {
        fill: #ed3237;
        fill-rule: evenodd;
      }

      .cls-11 {
        fill: #020202;
      }

      .cls-12 {
        fill: #8cbac9;
      }

      .cls-13 {
        fill: #98b7dd;
      }

      .cls-14 {
        fill: #4b17d0;
      }

      .cls-15 {
        fill: #ffad0a;
      }

      .cls-16 {
        fill: #ad0034;
      }

      .cls-17 {
        fill: #1dc3ec;
      }

      .cls-18 {
        fill: #34a853;
      }

      .cls-19 {
        fill: #145caa;
      }

      .cls-20 {
        fill: #00bffe;
      }

      .cls-21 {
        fill: #cfdde8;
      }

      .cls-22 {
        fill: #fabd06;
      }

      .cls-23 {
        fill: #3eafa5;
      }
    </style>
  </defs>
  <g>
    <path class="cls-23" d="m74.41,167.16c-.01.95-.06,2.26-.22,3.56-.05.42-.05.43-.49.43-1.19,0-2.38,0-3.57,0-.46,0-.47-.02-.4-.55.18-1.39.3-2.79.26-4.2-.18-6.94-2.43-13.11-6.94-18.41-4.16-4.89-9.4-8.06-15.66-9.53-3.25-.76-6.54-.95-9.85-.55-6.1.73-11.48,3.12-16.07,7.22-4.77,4.27-7.79,9.57-9.14,15.83-.08.38-.15.77-.21,1.15-.04.24-.18.26-.38.26-1.28,0-2.56,0-3.84,0-.26,0-.34-.09-.31-.35.09-.72.22-1.44.37-2.15,1.14-5.32,3.39-10.12,6.86-14.32,5.15-6.22,11.71-10.14,19.63-11.73,2.84-.57,5.72-.73,8.6-.53,7.3.51,13.78,3.1,19.38,7.81,5.72,4.81,9.41,10.89,11.13,18.17.58,2.46.83,4.97.83,7.87Z"/>
    <path class="cls-14" d="m61.08,187.22c-4.66,0-9.32,0-13.97,0-.64,0-.59.08-.59-.6,0-.78,0-1.56,0-2.35,0-.54,0-.54.56-.54.11,0,.21,0,.32,0,9.03,0,18.06,0,27.1,0,.39,0,.78.02,1.16-.09,1.04-.31,1.8-1.22,1.84-2.3.03-.85,0-1.71.02-2.56,0-.23-.07-.33-.31-.31-.14.01-.28,0-.43,0-8.39,0-16.78,0-25.18,0-2.82,0-5.23-1.87-5.84-4.66-.09-.42-.15-.84-.15-1.27,0-1.95,0-3.91,0-5.86,0-.44,0-.44.43-.44.87,0,1.74,0,2.61,0,.43,0,.44,0,.44.44,0,1.9,0,3.8,0,5.7,0,.9.38,1.61,1.1,2.14.4.29.84.45,1.34.46.2,0,.39,0,.59,0,8.25,0,16.5,0,24.75,0,.72,0,.63.09.63-.61,0-2.49,0-4.97,0-7.46,0-.11.01-.21,0-.32-.04-.29.11-.36.37-.35.92.01,1.85.01,2.77,0,.29,0,.38.12.35.38,0,.05,0,.11,0,.16,0,4.74,0,9.49,0,14.23,0,1.14-.22,2.23-.8,3.22-1.14,1.94-2.88,2.89-5.09,2.99-.96.05-1.92.01-2.88.01-3.72,0-7.43,0-11.15,0Z"/>
    <path class="cls-14" d="m8.01,187.11c-2.92-.51-4.96-2.84-4.98-5.78-.03-3.23-.06-6.47.03-9.7.05-1.57.81-2.92,2.02-3.96,1.1-.94,2.39-1.37,3.82-1.43.21,0,.43,0,.64,0,9.4,0,18.81,0,28.21,0,.72,0,.65-.09.66.65,0,.82,0,1.63,0,2.45,0,.38-.01.38-.38.39-.12,0-.25,0-.37,0-9.4,0-18.81,0-28.21,0-.69,0-1.34.08-1.91.52-.61.47-.96,1.08-1.01,1.85-.02.28-.01.57-.01.85,0,2.66,0,5.33,0,7.99,0,.76.19,1.44.73,2,.46.48,1.02.76,1.7.78.25,0,.5.01.75.01,9.35,0,18.7,0,28.05,0,.78,0,.69-.09.69.67,0,.82,0,1.63,0,2.45,0,.27-.07.4-.36.37-.11-.01-.21,0-.32,0-9.39,0-18.77,0-28.16,0-.32,0-.64-.02-.96-.02-.19-.11-.4-.06-.61-.08Z"/>
    <path class="cls-23" d="m63.06,191.95c-3.23,2.86-6.88,5.02-10.95,6.46-6.7,2.37-13.49,2.59-20.33.7-4.93-1.36-9.32-3.76-13.16-7.17.16-.16.31-.1.44-.1,2.17,0,4.34,0,6.51,0,.32,0,.58.08.85.24,3.07,1.79,6.38,2.91,9.89,3.48,2.26.37,4.53.45,6.8.28,4.31-.33,8.37-1.54,12.12-3.7.35-.2.7-.3,1.1-.3,2.06.02,4.12,0,6.19,0,.17,0,.34,0,.51,0l.03.12Z"/>
    <path class="cls-23" d="m8.01,187.11c.2.02.42-.03.61.08-.21.03-.41,0-.61-.08Z"/>
  </g>
  <g>
    <path d="m64.31,272.46c.76.5,1.48.82,2.01,1.34,3.95,3.9,7.86,7.84,11.8,11.75,1.18,1.17,1.13,2.31.08,3.49-.47.53-.96,1.03-1.46,1.53-11.22,11.23-22.45,22.46-33.68,33.69-2.83,2.83-3.14,2.82-6-.02-3.72-3.69-7.41-7.41-11.19-11.04-1.11-1.06-1.14-1.72-.03-2.82,12.2-12.13,24.35-24.31,36.52-36.47.53-.53,1.2-.91,1.94-1.46Z"/>
    <path d="m36.06,292.42c-5,5.15-9.97,10.28-15.05,15.52-.4-.32-.84-.61-1.21-.98-5.66-5.61-11.32-11.22-16.97-16.85-2.43-2.42-2.43-3.01-.09-5.36,3.58-3.6,7.19-7.17,10.76-10.78,1.19-1.21,2.45-1.83,3.84-.44,6.33,6.35,12.63,12.74,18.72,18.9Z"/>
  </g>
  <g>
    <path class="cls-20" d="m319.16,164.16c-.07.95-.04,1.92.46,2.72.64,1.03,1.68,1.36,2.88,1.18,2.48,0,4.95,0,7.43,0,.75.05,1.51.09,2.26.16.59.05,1.63,1.17,1.81,1.91.34,1.36-.45,2.84-2.1,3.29-3.45,0-6.91,0-10.36,0-.11,0-.21.07-.32.11-1.31.35-1.89,1.3-2.09,2.56-.03.19.05.36.12.52-.13.1-.12.24-.12.38,0,1.56.01,3.12.02,4.68-.11,1.45.52,2.47,1.79,3.14.19.1.36.08.54.08,3.83,0,7.66-.01,11.49.02.82,0,1.56.27,2.25.83,1.25,1.02.96,3.81-.88,4.38-.28.09-.54.09-.81.09-6.03,0-12.05,0-18.08,0-1.17,0-2.31-1.1-2.34-2.27-.01-.65,0-1.31,0-1.96,0-10.67.01-21.34-.02-32.01,0-1.43,1.15-2.71,2.69-2.7,4.46.02,8.92.03,13.38,0,1.58-.01,3.16.17,4.74.16,1,0,1.98,1.2,2.07,2.2.13,1.51-.55,2.49-2,2.98-3.28,0-6.56,0-9.84,0-.14,0-.28,0-.38.12-.74,0-1.49,0-2.23.01-1.01,0-2.13,1.07-2.25,2.07-.08.62-.18,1.23-.11,1.85,0,1.17,0,2.33,0,3.5Z"/>
    <path class="cls-20" d="m259.57,156.71c-1.57.1-2.72-.95-3.06-2.34-.26-1.05.52-2.47,1.63-2.83.64-.21,1.35-.25,2.03-.26,6.66-.02,13.31-.02,19.97,0,1.09,0,1.9.56,2.42,1.53.48.9.36,1.78-.16,2.61-2.47,3.9-4.97,7.78-7.45,11.67-3.2,5.02-6.4,10.03-9.58,15.06-.35.56-.33,1.24,0,1.8.31.53.78.94,1.5.93,4.06,0,8.13,0,12.19.02.6,0,1.23-.01,1.78.16,1.18.37,1.83,1.26,1.99,2.47.12.84-.67,2.03-1.57,2.52-.26.14-.52.17-.8.17-7.66,0-15.32-.02-22.98.02-.98,0-2.12-1.23-2.25-2.26-.17-1.28.63-2.14,1.21-3.07,3.38-5.34,6.8-10.66,10.2-15.99,1.95-3.06,3.88-6.13,5.82-9.2.43-.69.59-1.38.16-2.12-.41-.69-1.03-.95-1.82-.87-.18.02-.37,0-.56-.01-.17-.19-.39-.12-.59-.12-3.18,0-6.37,0-9.55,0-.18,0-.38-.07-.52.11Z"/>
    <path class="cls-20" d="m287.88,156.71c-1.46.1-2.73-.86-3.06-2.3-.28-1.2.6-2.57,1.94-3.06.23-.09.46-.07.69-.07,6.65,0,13.3-.02,19.95.02,1.02,0,2.07-.04,2.95.87,1.13,1.17.91,3.65-1.01,4.31-.7.24-1.39.3-2.11.24-.8-.2-1.6-.18-2.39.01-.4,0-.79.01-1.19.01-1.49,0-2.56,1.04-2.56,2.55-.01,8.44-.02,16.88-.01,25.33,0,1.11-.01,2.23-.16,3.33-.15,1.08-1.23,2.19-2.5,2.3-1.55.13-2.64-.43-3.3-1.83-.06-.12-.07-.26-.1-.4,0-7.84,0-15.67,0-23.51,0-.19,0-.37-.11-.54,0-1.54-.04-3.07.01-4.61.05-1.35-1.32-2.75-2.61-2.62-.48.05-.98,0-1.47,0-.98-.19-1.97-.2-2.95-.01Z"/>
    <path class="cls-12" d="m294.9,163.96c.11.16.11.35.11.54,0,7.84,0,15.67,0,23.51-.19-.17-.12-.39-.13-.59,0-7.7-.02-15.41-.02-23.11,0-.12.02-.23.03-.35Z"/>
    <path class="cls-12" d="m259.57,156.71c.14-.18.34-.11.52-.11,3.18,0,6.37,0,9.55,0,.2,0,.42-.07.59.12-3.55,0-7.11,0-10.66-.01Z"/>
    <path class="cls-12" d="m321.24,173.54c.11-.04.21-.11.32-.11,3.45,0,6.91,0,10.36,0-.11.03-.22.09-.33.09-3.45,0-6.9.01-10.35.02Z"/>
    <path class="cls-12" d="m323.76,156.73c.1-.12.25-.12.38-.12,3.28,0,6.56,0,9.84,0-.11.04-.21.11-.32.11-3.3,0-6.61,0-9.91,0Z"/>
    <path class="cls-12" d="m329.93,168.07c-2.48,0-4.95,0-7.43,0,.1-.13.24-.12.38-.12,2.22,0,4.44,0,6.66.01.14,0,.28-.01.39.11Z"/>
    <path class="cls-12" d="m319.17,181.68c0-1.56-.02-3.12-.02-4.68,0-.14-.01-.28.12-.38,0,1.56.01,3.12.02,4.67,0,.14.02.28-.12.38Z"/>
    <path class="cls-12" d="m319.16,164.16c0-1.17,0-2.33,0-3.5.17,1.17.17,2.33,0,3.5Z"/>
    <path class="cls-12" d="m287.88,156.71c.98-.19,1.97-.18,2.95.01-.98,0-1.97,0-2.95-.01Z"/>
    <path class="cls-12" d="m304.84,156.72c.8-.19,1.6-.21,2.39-.01-.8,0-1.6,0-2.39.01Z"/>
  </g>
  <g>
    <path class="cls-4" d="m142.94,286.33c.27-.36.13-.78.12-1.16-.06-2.46.13-4.92.17-7.38.03-1.44-.04-2.89.11-4.31.17-1.57.03-3.14.12-4.7.03-.54.14-1.09.12-1.64,0-.26.13-.33.36-.32.15,0,.3,0,.45,0,17.17,0,34.34,0,51.5-.02.65,0,.8.17.8.8.06,4.25.22,8.5.28,12.75.02,1.54-.05,3.1.12,4.63.16,1.52,0,3.05.21,4.56.06.43,0,.69-.56.75-.83.09-1.65.31-2.48.47-.29.05-.48.02-.54-.39-.21-1.57-.41-3.14-.73-4.69-.7-3.33-1.78-6.5-3.85-9.24-2.12-2.8-4.87-4.68-8.28-5.6-1.59-.43-3.2-.68-4.84-.83-.44-.04-.64,0-.64.54.02,16.18,0,32.37.03,48.55,0,1.93.07,3.86.59,5.75.6,2.16,2.03,3.36,4.12,3.96,1.9.55,3.84.53,5.79.51.49,0,.61.14.59.61-.04.85-.04,1.7,0,2.55.03.5-.15.59-.61.59-4.06-.02-8.13-.01-12.19-.01-6.42,0-12.85,0-19.27.01-.52,0-.71-.11-.68-.66.05-.87.03-1.74,0-2.61,0-.36.1-.48.47-.48.85.02,1.7,0,2.55-.02,1.45-.02,2.84-.32,4.2-.8,2.13-.75,3.04-2.43,3.42-4.52.56-3.09.42-6.2.43-9.31,0-14.61,0-29.22,0-43.83,0-.98.04-.83-.82-.77-4.88.3-9.16,1.91-12.4,5.76-1.46,1.74-2.48,3.73-3.25,5.86-.87,2.41-1.42,4.9-1.73,7.44-.05.4-.11.79-.1,1.19,0,.43-.18.5-.55.43-.92-.18-1.85-.33-2.78-.49-.08-.01-.17,0-.25,0v-3.96Z"/>
    <path class="cls-4" d="m142.94,297.3c4.25,0,8.5.03,12.75,0,.58,0,.69.16.69.71-.02,4.06-.02,8.11,0,12.17,0,.36-.02.57-.49.57-4.23-.02-8.46-.01-12.68-.01-.08,0-.17-.02-.25-.04,0-4.47,0-8.93,0-13.4Z"/>
    <path class="cls-4" d="m197.33,304.07c0,2.04-.01,4.08.01,6.12,0,.45-.12.56-.57.56-4.1-.02-8.21-.02-12.31,0-.45,0-.56-.13-.56-.57.02-4.1.02-8.2,0-12.31,0-.45.12-.57.57-.56,4.1.02,8.21.02,12.31,0,.46,0,.56.14.56.57-.02,2.06,0,4.12,0,6.19Z"/>
    <path class="cls-7" d="m228.04,273.23c-.02-.05-.04-.1-.04-.16,0-.06.05-.07.06,0,.01.05-.01.11-.02.16,0,0,0,0,0,0Z"/>
  </g>
  <path d="m39.63,33.06c-.55,1.59-1.05,3.03-1.54,4.47-2.65,7.8-5.3,15.61-7.95,23.41-.8,2.35-3.31,3.11-5.22,1.54-4.35-3.56-8.68-7.14-13-10.75-2.02-1.69-1.89-3.97.27-5.5,1.12-.79,2.26-1.55,3.39-2.32.17-.11.32-.24.54-.39-.49-.74-.96-1.46-1.44-2.16-4.43-6.55-8.86-13.1-13.28-19.65-1.33-1.98-1.29-4.63.14-6.42.37-.47.85-.89,1.37-1.2,1.5-.91,3.06-1.73,4.58-2.61,1.88-1.08,3.71-1.04,5.56.08,8.53,5.13,17.07,10.24,25.59,15.37.72.44,1.3.45,2.03,0,8.47-5.14,16.97-10.24,25.45-15.37,1.93-1.17,3.84-1.22,5.79-.08,1.47.85,2.99,1.61,4.42,2.51,1.85,1.16,2.84,2.89,2.66,5.09-.06.74-.43,1.5-.83,2.15-1.21,1.96-2.51,3.87-3.77,5.8-3.47,5.3-6.94,10.59-10.41,15.89-.16.24-.3.48-.48.78.9.61,1.78,1.2,2.64,1.81.52.36,1.05.72,1.51,1.15,1.61,1.49,1.56,3.53-.12,4.93-2.72,2.26-5.46,4.5-8.18,6.76-1.53,1.27-3.03,2.56-4.54,3.84-2.19,1.85-4.82,1.13-5.75-1.59-3.02-8.86-6.03-17.73-9.05-26.59-.09-.27-.2-.52-.37-.95Zm34.63-11.79s-.06-.08-.1-.13c-10.18,2.99-20.35,5.97-30.68,9,5.87,3.96,11.6,7.82,17.36,11.7,4.51-6.91,8.96-13.74,13.42-20.57Zm-68.59-.12l-.09.12c4.56,6.75,9.12,13.51,13.69,20.29,5.58-3.82,11.1-7.59,16.75-11.46-10.23-3.02-20.29-5.99-30.35-8.95Zm28.16,18.85s-.1-.06-.14-.08c-.18.22-.36.43-.52.66-2.28,3.17-4.54,6.35-6.83,9.5-1.51,2.08-4.07,2.04-5.54-.05-.65-.92-1.27-1.86-1.9-2.78-.18-.26-.37-.52-.56-.8-1.31.89-2.55,1.75-3.86,2.64,4.26,3.52,8.47,7,12.74,10.53,2.24-6.62,4.43-13.12,6.63-19.62Zm-7.62-16.39c.02-.05.04-.11.06-.16-.18-.12-.36-.25-.54-.36-4.75-2.85-9.5-5.69-14.24-8.56-.72-.43-1.36-.42-2.07,0-1.36.8-2.73,1.56-4.1,2.34-.17.09-.32.21-.59.38,7.24,2.15,14.36,4.26,21.47,6.36Zm-4.99,20.85c.81,1.18,1.57,2.3,2.39,3.49,2.33-3.25,4.59-6.42,6.86-9.58l-.15-.13c-3.01,2.06-6.02,4.12-9.1,6.22Z"/>
  <g>
    <path class="cls-16" d="m171.76,204.88c-.86.05-1.72.05-2.59,0-.07-.05-.14-.04-.22-.01-.36-.02-.73-.04-1.09-.06-.16-.08-.33-.05-.49-.05-.16,0-.33,0-.48-.04-.1-.06-.22-.04-.33-.04-.11,0-.22-.02-.33-.03-.1-.08-.21-.05-.32-.05-.08,0-.17-.02-.25-.03-.09-.08-.21-.05-.31-.06-.66-.07-1.32-.17-1.97-.34-.41-.11-.83-.2-1.24-.3-.94-.22-1.87-.52-2.78-.84-4.36-1.54-8.26-3.88-11.67-7-3.45-3.16-6.12-6.88-8.06-11.13-.42-.91-.77-1.85-1.11-2.79-.4-1.08-.66-2.21-.95-3.33-.15-.57-.17-1.17-.4-1.72-.17-1.63-.42-3.25-.46-4.9-.05-1.84.05-3.66.28-5.48.17-1.41.47-2.8.82-4.18.35-1.41.82-2.77,1.36-4.11,1.56-3.86,3.76-7.31,6.59-10.36,3.52-3.79,7.69-6.63,12.5-8.53,1.43-.56,2.89-1.02,4.38-1.37,1.63-.39,3.27-.67,4.94-.79.14,0,.29.04.42-.03,1.71-.15,3.41-.15,5.11,0,.11.07.23.05.34.03.21.02.42.04.63.06.05.06.12.04.18.03.56.06,1.12.15,1.68.24.55.09,1.1.19,1.65.29.82.15,1.64.34,2.44.6.74.24,1.49.46,2.23.73,4.08,1.51,7.74,3.73,10.96,6.64,3.33,3.01,5.97,6.55,7.9,10.61.44.93.85,1.87,1.19,2.84.34.97.63,1.96.91,2.95.84,2.95,1.17,5.96,1.16,9.01,0,3.05-.43,6.06-1.28,8.99-.25.86-.52,1.72-.85,2.57-.29.74-.57,1.49-.9,2.21-3.19,6.87-8.1,12.13-14.74,15.77-2.55,1.4-5.24,2.43-8.07,3.1-.92.22-1.85.44-2.8.55-.11,0-.22-.02-.31.06-.08,0-.17.02-.25.03-.11,0-.22-.03-.32.05-.11.01-.22.02-.33.03-.11,0-.22-.02-.33.04-.13.04-.27.04-.41.04-.19.01-.38-.03-.56.06-.16,0-.33.02-.49.03-.33.01-.65-.03-.98.05Zm-3.92-62.11c-.16.04-.32.04-.48.04-.09,0-.17-.02-.25.04l-.4.04c-.09,0-.18-.02-.25.05-.84.13-1.67.29-2.49.49-1.2.29-2.38.65-3.53,1.1-3.61,1.39-6.79,3.44-9.57,6.11-2.88,2.76-5.03,6.03-6.59,9.68-.37.87-.66,1.78-.92,2.69-.93,3.24-1.29,6.53-1.08,9.9.14,2.25.57,4.44,1.19,6.59.27.94.64,1.85,1.03,2.75,1.52,3.49,3.63,6.57,6.37,9.21,2.98,2.86,6.44,4.95,10.31,6.35,1.18.43,2.4.74,3.63.99.37.07.73.18,1.11.24.55.08,1.1.13,1.64.2.05.06.12.04.18.03l.63.05c.14.08.28.05.42.03,2.36.09,4.7.02,7.03-.45,1.03-.21,2.05-.43,3.06-.74,4.34-1.33,8.14-3.6,11.4-6.75,2.62-2.53,4.7-5.46,6.19-8.78.34-.75.64-1.52.89-2.31.24-.75.5-1.49.69-2.25.66-2.58.91-5.21.88-7.86,0-.43.03-.39-.4-.4-.04,0-.08,0-.12,0-6.41,0-12.82,0-19.24,0-.08,0-.16,0-.24,0-.21-.02-.28.06-.28.28.01.62,0,1.25,0,1.87,0,.44-.07.43.45.43,2.66,0,5.32,0,7.98,0,2.89,0,5.78,0,8.68,0,.41,0,.41,0,.4.4,0,.04,0,.08,0,.12-.09,1.04-.21,2.08-.41,3.11-.24,1.23-.6,2.42-1.01,3.61-.31.9-.66,1.78-1.07,2.63-1.74,3.62-4.22,6.66-7.38,9.13-2.63,2.05-5.55,3.54-8.78,4.43-.65.18-1.3.34-1.96.47-.53.1-1.06.22-1.6.25-.09,0-.17-.02-.25.04-.13.04-.27.04-.41.04-.16,0-.33-.03-.48.05-.16,0-.32.02-.49.03-.25.01-.5-.04-.74.05-.67.05-1.34.04-2.01,0-.24-.08-.49-.04-.74-.04-.19,0-.38,0-.57-.04-.1-.07-.22-.05-.34-.04-.16,0-.32,0-.47-.05-.08-.06-.16-.04-.25-.04-.75-.09-1.5-.2-2.23-.38-.73-.18-1.47-.36-2.19-.59-3.38-1.09-6.4-2.8-9.07-5.13-2.99-2.62-5.33-5.73-6.88-9.4-.35-.84-.71-1.67-.94-2.56-.31-1.19-.63-2.37-.8-3.6-.15-1.06-.25-2.13-.27-3.2-.04-1.88.09-3.75.47-5.6.2-.95.41-1.89.71-2.82.37-1.15.82-2.27,1.35-3.35,1.38-2.85,3.24-5.36,5.54-7.53,2.7-2.55,5.8-4.45,9.32-5.64,1.47-.5,2.97-.86,4.52-1.08,1.1-.15,2.21-.26,3.32-.29.53-.02,1.06-.01,1.59-.01.14,0,.23-.02.23-.2,0-.75,0-1.49,0-2.24,0-.14-.07-.19-.19-.2-.22-.08-.44-.04-.66-.05-.95-.04-1.91.04-2.86.08-.11,0-.23-.02-.33.04Zm1.35,28.27c0,4.78,0,9.56,0,14.34,0,.11,0,.22,0,.33,0,.14.03.24.2.22.07,0,.14,0,.2,0,2.89,0,5.78,0,8.68,0,.07,0,.14,0,.2,0,.14.01.19-.06.19-.19,0-.77,0-1.55,0-2.32,0-.14-.06-.19-.2-.18-.09,0-.19,0-.29,0-1.9,0-3.8,0-5.7,0-.59,0-.53.09-.53-.51,0-8.65,0-17.3,0-25.94,0-.1,0-.19,0-.29,0-.29,0-.29-.29-.3-.71,0-1.41,0-2.12,0-.36,0-.36-.03-.36.35,0,.08,0,.16,0,.24,0,4.75,0,9.5,0,14.26Zm-9.44-6.76c2.33-.02,4.02-1.83,4.05-4.03.03-2.21-1.83-4.06-4.04-4.05-2.3,0-4.11,1.84-4.11,4.05,0,2.24,1.83,4.04,4.09,4.04Z"/>
    <path class="cls-3" d="m171.76,204.88c.32-.08.65-.04.98-.05-.32.05-.65.09-.98.05Z"/>
    <path class="cls-3" d="m173.22,204.8c.18-.09.37-.04.56-.06-.18.05-.37.08-.56.06Z"/>
    <path class="cls-3" d="m167.99,137.29c-.14.07-.28.04-.42.03.14-.05.28-.06.42-.03Z"/>
    <path class="cls-3" d="m167.37,204.75c.17,0,.33-.03.49.05-.17.03-.33,0-.49-.05Z"/>
    <path class="cls-3" d="m173.44,137.32c-.12.02-.23.04-.34-.03.12-.01.23-.02.34.03Z"/>
    <path class="cls-3" d="m165.35,204.5c.11,0,.22-.03.31.06-.11.02-.21,0-.31-.06Z"/>
    <path class="cls-3" d="m175.43,204.56c.09-.08.21-.05.31-.06-.1.05-.2.08-.31.06Z"/>
    <path class="cls-3" d="m165.91,204.59c.11,0,.23-.03.32.05-.11.02-.22,0-.32-.05Z"/>
    <path class="cls-3" d="m174.85,204.63c.1-.07.21-.04.32-.05-.1.04-.21.07-.32.05Z"/>
    <path class="cls-3" d="m166.56,204.67c.11,0,.22-.02.33.04-.11.03-.22,0-.33-.04Z"/>
    <path class="cls-3" d="m174.2,204.71c.1-.06.22-.04.33-.04-.11.03-.21.07-.33.04Z"/>
    <path class="cls-3" d="m174.26,137.4c-.07.02-.13.04-.18-.03.07-.02.13-.02.18.03Z"/>
    <path class="cls-3" d="m168.95,204.86c.07-.03.15-.04.22.01-.07.03-.15.03-.22-.01Z"/>
    <path class="cls-5" d="m167.36,142.81c.16,0,.32,0,.48-.04.12.03.23,0,.33-.04.95-.04,1.9-.11,2.86-.08.22.04.44.08.66.05.12.01.19.06.19.2,0,.75,0,1.49,0,2.24,0,.18-.09.2-.23.2-.53,0-1.06,0-1.59.01-1.11.03-2.21.14-3.32.29-1.55.21-3.05.58-4.52,1.08-3.52,1.19-6.62,3.08-9.32,5.64-2.3,2.18-4.16,4.68-5.54,7.53-.53,1.09-.98,2.21-1.35,3.35-.3.92-.51,1.87-.71,2.82-.38,1.85-.51,3.72-.47,5.6.02,1.07.13,2.14.27,3.2.17,1.22.48,2.41.8,3.6.23.88.59,1.72.94,2.56,1.55,3.68,3.89,6.78,6.88,9.4,2.67,2.34,5.69,4.05,9.07,5.13.72.23,1.45.41,2.19.59.73.18,1.48.29,2.23.38.08.04.16.07.25.04.16.05.32.04.47.05.11.04.22.06.34.04.19.04.38.04.57.04.25.04.49.08.74.04.67.05,1.34.05,2.01,0,.25.03.5.01.74-.05.16,0,.32-.02.49-.03.17.02.33,0,.48-.05.14,0,.27,0,.41-.04.09.03.17,0,.25-.04.54-.03,1.07-.15,1.6-.25.66-.13,1.31-.29,1.96-.47,3.23-.89,6.14-2.38,8.78-4.43,3.17-2.47,5.64-5.51,7.38-9.13.41-.85.76-1.73,1.07-2.63.41-1.18.77-2.38,1.01-3.61.2-1.03.32-2.06.41-3.11,0-.04,0-.08,0-.12.01-.39.01-.4-.4-.4-2.89,0-5.78,0-8.68,0-2.66,0-5.32,0-7.98,0-.52,0-.44,0-.45-.43,0-.62,0-1.25,0-1.87,0-.21.07-.3.28-.28.08,0,.16,0,.24,0,6.41,0,12.82,0,19.24,0,.04,0,.08,0,.12,0,.42,0,.39-.03.4.4.03,2.66-.22,5.28-.88,7.86-.2.76-.45,1.5-.69,2.25-.25.79-.55,1.56-.89,2.31-1.49,3.33-3.57,6.25-6.19,8.78-3.27,3.15-7.06,5.42-11.4,6.75-1,.31-2.03.53-3.06.74-2.33.47-4.67.54-7.03.45-.14-.04-.28-.04-.42-.03-.21-.02-.42-.03-.63-.05-.06-.04-.12-.04-.18-.03-.55-.06-1.1-.11-1.64-.2-.37-.06-.74-.16-1.11-.24-1.24-.24-2.45-.56-3.63-.99-3.88-1.4-7.33-3.49-10.31-6.35-2.75-2.64-4.86-5.72-6.37-9.21-.39-.9-.76-1.82-1.03-2.75-.62-2.15-1.05-4.34-1.19-6.59-.21-3.37.15-6.66,1.08-9.9.26-.92.55-1.83.92-2.69,1.56-3.65,3.71-6.91,6.59-9.68,2.78-2.68,5.97-4.72,9.57-6.11,1.15-.44,2.33-.81,3.53-1.1.82-.2,1.65-.36,2.49-.49.09.02.17,0,.25-.05.13-.01.27-.03.4-.04.09.03.17,0,.25-.04Z"/>
    <path class="cls-5" d="m169.19,171.03c0-4.75,0-9.5,0-14.26,0-.08,0-.16,0-.24,0-.38,0-.35.36-.35.71,0,1.41,0,2.12,0,.28,0,.28,0,.29.3,0,.09,0,.19,0,.29,0,8.65,0,17.3,0,25.94,0,.6-.07.51.53.51,1.9,0,3.8,0,5.7,0,.1,0,.19,0,.29,0,.13,0,.2.04.2.18,0,.77,0,1.55,0,2.32,0,.13-.05.2-.19.19-.07,0-.14,0-.2,0-2.89,0-5.78,0-8.68,0-.07,0-.14,0-.2,0-.17.02-.21-.08-.2-.22,0-.11,0-.22,0-.33,0-4.78,0-9.56,0-14.34Z"/>
    <path class="cls-5" d="m159.75,164.27c-2.26,0-4.09-1.8-4.09-4.04,0-2.21,1.81-4.05,4.11-4.05,2.2,0,4.07,1.84,4.04,4.05-.03,2.21-1.72,4.01-4.05,4.03Z"/>
    <path class="cls-3" d="m169.58,196.73c-.25.04-.5,0-.74-.04.25,0,.5-.03.74.04Z"/>
    <path class="cls-3" d="m172.33,196.68c-.24.06-.49.07-.74.05.24-.09.49-.04.74-.05Z"/>
    <path class="cls-3" d="m171.7,142.7c-.22.03-.44,0-.66-.05.22,0,.45-.04.66.05Z"/>
    <path class="cls-3" d="m173.3,196.6c-.16.05-.32.08-.48.05.15-.08.32-.05.48-.05Z"/>
    <path class="cls-3" d="m168.37,199.31c.14-.01.29-.01.42.03-.14.02-.29.04-.42-.03Z"/>
    <path class="cls-3" d="m168.17,142.73c-.11.04-.22.07-.33.04.11-.06.22-.04.33-.04Z"/>
    <path class="cls-3" d="m168.27,196.65c-.12.02-.23,0-.34-.04.12,0,.23-.03.34.04Z"/>
    <path class="cls-3" d="m167.36,142.81c-.08.04-.16.07-.25.04.08-.06.17-.04.25-.04Z"/>
    <path class="cls-3" d="m166.7,142.89c-.08.04-.16.07-.25.05.07-.07.16-.05.25-.05Z"/>
    <path class="cls-3" d="m167.46,196.56c-.09.03-.17,0-.25-.04.09,0,.17-.02.25.04Z"/>
    <path class="cls-3" d="m167.56,199.23c.07-.02.13-.02.18.03-.07.02-.13.04-.18-.03Z"/>
    <path class="cls-3" d="m173.96,196.52c-.08.04-.16.07-.25.04.08-.06.17-.04.25-.04Z"/>
  </g>
  <path class="cls-2" d="m172.28,391.88c.74.09,1.49.18,2.23.28,6.29.86,11.75,3.47,16.34,7.83,4.9,4.65,7.85,10.35,8.93,17.02.15.95.17,1.93.25,2.89.19,2.18.03,4.32-.31,6.46-.55,3.45-1.72,6.69-3.43,9.73-.03.06-.08.1-.14.19-.97-.97-1.93-1.93-2.9-2.88-.2-.2-.06-.36.02-.53,1.17-2.37,1.97-4.86,2.34-7.47,1.04-7.31-.63-13.93-5.22-19.72-4.13-5.21-9.55-8.3-16.12-9.33-1.93-.3-3.88-.36-5.83-.21-11.37.93-20.35,9.15-22.75,19.64-.47,2.04-.69,4.1-.64,6.19.16,6.72,2.54,12.54,7.23,17.33,5.64,5.75,11.4,11.39,17.11,17.08.75.75,1.57.74,2.33-.01,1.18-1.17,2.34-2.34,3.51-3.53.66-.67.68-1.49.08-2.21-.13-.15-.27-.29-.41-.42-5.48-5.46-10.95-10.92-16.43-16.37-2.79-2.78-4.52-6.1-5.03-10.01-1.25-9.54,5.25-17.46,13.5-19.13,1.63-.33,3.27-.44,4.93-.31,7.78.61,14.37,6.47,15.6,14.63.21,1.41.21,2.83.07,4.26-.12,1.24-.39,2.42-.72,3.6-.19-.02-.26-.16-.36-.26-.89-.88-1.75-1.78-2.66-2.63-.38-.36-.48-.75-.43-1.23.42-3.66-.66-6.87-3-9.67-2.06-2.46-4.72-3.95-7.89-4.42-6.99-1.05-13.14,3.42-14.65,9.85-.3,1.28-.46,2.58-.35,3.88.29,3.13,1.4,5.93,3.65,8.18,5.67,5.68,11.37,11.34,17.05,17,.78.77,1.53.76,2.31-.02,1.13-1.13,2.25-2.26,3.37-3.39.88-.89.88-1.72,0-2.6-5.49-5.47-10.98-10.94-16.47-16.41-.16-.16-.33-.32-.48-.49-1.38-1.55-1.57-3.92-.46-5.67.19-.3.3-.39.6-.09,7.9,7.89,15.81,15.76,23.72,23.64.24.23.27.36.01.61-6.65,6.67-13.3,13.35-19.94,20.04-.24.24-.35.21-.57,0-6.98-6.97-14-13.91-20.95-20.91-4.17-4.19-6.78-9.24-7.92-15.05-.46-2.37-.62-4.76-.51-7.17.65-13.79,10.63-24.63,22.88-27.4,1.44-.33,2.9-.56,4.37-.66.13,0,.28.03.38-.09,1.25,0,2.49,0,3.74,0Z"/>
  <g>
    <path class="cls-15" d="m2,425.25c-.01-.27.14-.45.29-.65,1.47-2.09,3.1-4.06,4.82-5.94.07-.08.12-.18.18-.27.3-.15.49-.43.72-.66,1.64-1.69,3.4-3.25,5.25-4.69,5.37-4.17,11.33-7.18,17.86-9.08,3.99-1.17,8.05-1.99,12.24-2.04.3,0,.61.03.89-.11h5.09c.64.21,1.3.12,1.95.15,4.27.25,8.21,1.52,11.79,3.86,2.01,1.31,3.58,3.04,4.54,5.27.28.65.48,1.31.46,2.03,0,.29-.01.59.01.88.26,2.94-1.03,5.32-2.86,7.41-3.4,3.9-7.62,6.7-12.34,8.78-3.67,1.62-7.51,2.67-11.48,3.25-.57.08-1.14.15-1.71.18-2.1.09-4.21.28-6.32.15-1.09-.07-2.19-.04-3.26-.29-.1-.02-.22,0-.27-.2.51-.32,1.11-.34,1.67-.44,3.11-.6,6.23-1.15,9.3-1.98,3.16-.86,6.21-1.97,8.93-3.83,2.19-1.5,4.08-3.3,5.49-5.57.74-1.2,1.28-2.46,1.36-3.9.09-1.7-.54-3.1-1.65-4.31-1.32-1.44-2.96-2.43-4.74-3.17-2.6-1.1-5.31-1.66-8.14-1.71-1.97-.04-3.94-.05-5.91.05-3.89.19-7.71.87-11.44,2-5.86,1.77-11.16,4.6-15.93,8.42-.5.4-1.1.72-1.42,1.33-.3.08-.54.29-.74.49-1.16,1.11-2.35,2.2-3.38,3.44-.36.44-.74.88-1.21,1.21l-.04-.05Z"/>
    <path class="cls-15" d="m80,418.93c-.08.51-1.48,3.78-2.86,5.64-2.28,3.06-5.06,5.68-7.99,8.13-4.48,3.73-9.41,6.66-14.9,8.65-3.69,1.34-7.5,2.2-11.41,2.57-2.73.26-5.45.46-8.18-.03-1.92-.35-3.79-.88-5.49-1.86-3.66-2.11-4.89-5.1-4.18-9.06.83-4.63,3.28-8.35,6.86-11.35,2.78-2.33,6-3.9,9.38-5.14,3.04-1.11,6.17-1.87,9.31-2.61.23-.06.49-.05.68-.31-1.27-.3-2.55-.42-3.83-.49-4.68-.26-9.3.15-13.78,1.62-7.06,2.32-12.71,6.53-16.73,12.8-2.63,4.1-3.76,8.6-3.03,13.46.58,3.82,2.33,7.05,5.22,9.6,3.53,3.12,7.74,4.54,12.41,4.68,4.13.12,8.19-.4,12.2-1.35,9.53-2.25,17.64-7,24.52-13.9,3.51-3.52,6.7-7.34,9.11-11.69,1.35-2.44,2.7-7.29,2.69-9.36Z"/>
  </g>
  <g>
    <path class="cls-22" d="m262.32,41.76c.01-.1,0-.2-.04-.29,0-.08,0-.16,0-.25-.16-1.2-.25-2.41-.27-3.63-.04-2.43.14-4.84.56-7.24.2-1.14.44-2.26.75-3.37.45-1.61,1.03-3.17,1.67-4.71.28-.67.54-1.35.94-1.96.11.06.24.11.34.19,1.3,1,2.59,2,3.88,3,1.78,1.38,3.55,2.76,5.32,4.14.77.6,1.57,1.16,2.3,1.81,0,.17-.05.32-.1.48-.34,1.04-.54,2.11-.77,3.18-.23,1.1-.26,2.23-.26,3.36,0,1.62.08,3.24.46,4.83.22.92.51,1.83.77,2.74-.05.03-.11.05-.15.09-1.09.84-2.18,1.69-3.27,2.53-2.04,1.57-4.12,3.09-6.11,4.72-.78.64-1.61,1.23-2.41,1.84-.12-.29-.31-.55-.43-.83-.61-1.46-1.28-2.9-1.72-4.43-.53-1.81-.98-3.63-1.33-5.49-.05-.24,0-.5-.12-.73Z"/>
    <path class="cls-8" d="m265.93,20.32c0-.06-.02-.13,0-.17,1.93-3.62,4.28-6.92,7.24-9.78,3.33-3.21,7.11-5.73,11.37-7.52,1.76-.74,3.56-1.33,5.41-1.78,1.17-.28,2.35-.47,3.54-.65,2.43-.38,4.86-.51,7.31-.34,1.12.08,2.24.17,3.35.34,1.9.28,3.77.66,5.59,1.23,4.99,1.55,9.4,4.13,13.27,7.64.23.21.28.32.02.56-3.3,3.2-6.59,6.41-9.87,9.63-.2.2-.3.15-.48-.01-1.72-1.55-3.63-2.8-5.78-3.66-1.21-.48-2.45-.86-3.73-1.13-.95-.2-1.9-.27-2.86-.36-.9-.09-1.79-.12-2.68-.05-1.17.09-2.33.23-3.49.47-4.59.96-8.4,3.26-11.57,6.66-1.43,1.54-2.6,3.27-3.55,5.15-.45.9-.86,1.81-1.17,2.77-.02.06-.07.12-.11.18-.73-.65-1.53-1.21-2.3-1.81-1.77-1.39-3.55-2.77-5.32-4.14-1.29-1-2.59-2.01-3.88-3-.1-.08-.22-.13-.34-.19Z"/>
    <path class="cls-18" d="m323.02,64.57c-1.7,1.64-3.61,3.01-5.65,4.18-2.92,1.69-6.03,2.89-9.31,3.65-1.45.33-2.91.59-4.38.78-2.06.27-4.12.27-6.19.27-1.07,0-2.13-.1-3.18-.23-1.12-.14-2.23-.34-3.33-.57-1.91-.41-3.77-.97-5.58-1.68-3.56-1.4-6.84-3.3-9.8-5.73-3.97-3.25-7.15-7.15-9.51-11.72-.05-.09-.11-.18-.16-.27.8-.61,1.63-1.2,2.41-1.84,2-1.63,4.08-3.15,6.11-4.72,1.09-.84,2.18-1.69,3.27-2.53.05-.04.1-.06.15-.09.87,2.53,2.13,4.85,3.81,6.94,2.01,2.5,4.45,4.47,7.31,5.94,1.27.65,2.61,1.13,3.98,1.54,1.02.3,2.06.51,3.11.64,1.6.2,3.23.2,4.83.07,2.73-.22,5.38-.85,7.87-2.04.93-.45,1.81-.96,2.66-1.54,1.1.86,2.21,1.71,3.31,2.58.89.71,1.82,1.37,2.76,2.01.62.41,1.14.94,1.7,1.42.67.57,1.38,1.1,2.07,1.63.58.45,1.16.88,1.74,1.32Z"/>
    <path class="cls-9" d="m323.02,64.57c-.58-.44-1.16-.88-1.74-1.32-.7-.54-1.41-1.06-2.07-1.63-.56-.48-1.08-1.01-1.7-1.42-.95-.63-1.87-1.3-2.76-2.01-1.1-.87-2.21-1.72-3.31-2.58,2.27-1.6,4.11-3.61,5.48-6.03.63-1.1,1.15-2.25,1.51-3.47.2-.69.4-1.39.49-2.12.04-.29-.1-.32-.35-.32-2.39,0-4.77,0-7.16,0-4.1,0-8.2,0-12.3,0-.3,0-.4-.06-.4-.38.01-4.3.01-8.6,0-12.9,0-.28.07-.36.36-.36,11.27,0,22.54,0,33.81,0,.3,0,.38.12.43.38.22,1.17.4,2.34.51,3.53.22,2.28.23,4.56.05,6.85-.25,3.23-.81,6.4-1.82,9.49-1.41,4.35-3.56,8.29-6.56,11.76-.77.89-1.57,1.76-2.48,2.52Z"/>
  </g>
  <g>
    <path class="cls-6" d="m335.88,428.02c-.09.35-.09.71-.13,1.07-.06.21-.1.42-.1.64,0,.04,0,.07-.01.11-.14.44-.23.88-.32,1.33-.19.79-.42,1.57-.75,2.32-.3.67-.62,1.32-1.01,1.94-.47.76-1.08,1.39-1.73,1.98-1.21,1.09-2.61,1.84-4.14,2.34-.57.19-1.12.46-1.74.49-.7.12-1.39.3-2.1.38-.08,0-.14.04-.17.11-.34-.03-.67.04-1.01.08-.09,0-.17-.01-.26-.02-.28,0-.56,0-.85,0-.55.02-1.1-.04-1.66.03-.48.05-.95-.06-1.42-.12-.97-.12-1.92-.32-2.85-.61-.88-.27-1.73-.63-2.56-1.04-.9-.45-1.73-.99-2.52-1.6-.82-.63-1.48-1.4-2.05-2.25-.79-1.17-1.37-2.43-1.72-3.79-.18-.7-.35-1.41-.42-2.14.09-.09.04-.2.03-.3-.13-.97-.12-1.94-.11-2.91,0-.68.12-1.35.12-2.03,0-.06,0-.12,0-.18.08-.08.08-.16.01-.25.13-1.02.29-2.03.66-3,.18-.48.35-.96.57-1.43.56-1.18,1.31-2.21,2.22-3.14.76-.78,1.62-1.43,2.58-1.91.67-.33,1.36-.6,2.07-.86.59-.22,1.19-.37,1.79-.57.24-.08.53-.16.81-.16.38-.03.76-.1,1.14-.18.02,0,.04,0,.06-.01.48-.04.96-.08,1.45-.12.92,0,1.85,0,2.77,0,1.01.07,2.01.22,3,.45,1.03.24,2.03.57,2.98,1,1.13.5,2.18,1.14,3.16,1.91.93.73,1.66,1.62,2.29,2.59.42.65.67,1.39.92,2.13.43,1.29.76,2.59.88,3.95.02.19.05.37.05.56.11,1.07.06,2.14.06,3.21Zm-10.13-3.83s-.03,0-.05,0c-.06-.85-.18-1.68-.4-2.5-.18-.7-.49-1.28-1.07-1.72-.86-.65-1.87-.8-2.9-.87-.9-.06-1.75.16-2.58.46-1.06.38-1.66,1.21-1.92,2.28-.18.77-.17,1.57-.25,2.36-.08.61-.07,1.22-.05,1.83,0,.06,0,.12,0,.18-.04.67-.03,1.35,0,2.02-.04.38.05.75.12,1.12,0,.13.01.25.02.38.02.04.03.08.05.12-.04.43.09.84.18,1.25.23.96.68,1.79,1.6,2.26.63.33,1.32.51,2.04.52.44.12.88.09,1.32,0,.56-.11,1.12-.22,1.66-.42,1.13-.42,1.67-1.29,1.93-2.41.19-.81.15-1.64.25-2.46.09-.01.12-.07.12-.16,0-.7-.01-1.39-.02-2.09,0-.05,0-.11,0-.16.06-.63.02-1.26.02-1.9,0-.03-.04-.07-.06-.1Z"/>
    <path class="cls-6" d="m279.24,421.6c0-.06,0-.12,0-.18,0-.42.07-.85-.04-1.27,0-.04,0-.08,0-.12.2-.29.15-.63.17-.95.12-.87.45-1.68.86-2.45.56-1.05,1.38-1.84,2.36-2.5.66-.45,1.37-.8,2.12-1.07.58-.21,1.16-.39,1.76-.52.76-.16,1.53-.24,2.3-.3.69,0,1.38,0,2.07,0h.25c.5.06,1.01.12,1.51.18.19.02.37.05.56.07.4.08.8.17,1.2.25.98.18,1.88.57,2.75,1.03.41.22.81.45,1.21.67.11.11.24.07.37.06.1-.08.06-.19.07-.29,0-.31.01-.63,0-.94,0-.2.05-.28.26-.28,1.76,0,3.52,0,5.29,0,.1,0,.22-.03.24.13-.1.11-.06.24-.06.36,0,2.94,0,5.88,0,8.82-.15,0-.29,0-.44,0-1.73,0-3.45,0-5.18,0-.02,0-.03,0-.05,0-.76-1.09-1.74-1.93-2.92-2.55-.96-.51-2.01-.79-3.06-1.04-.12-.03-.24-.05-.36-.08-.13-.19-.36-.07-.51-.18-.37-.14-.75-.02-1.12-.07-.28,0-.56-.02-.84,0-.25.01-.51-.07-.75.06-.45.04-.86.14-1.21.46-.54.48-.45,1.07.11,1.51.38.29.82.45,1.27.54.73.15,1.42.43,2.14.61,1.12.28,2.23.63,3.34.96,1.11.33,2.22.68,3.34.98,1.46.4,2.79,1.04,3.95,2.01.99.83,1.84,1.77,2.43,2.94.3.6.54,1.22.68,1.88.02.21-.07.45.12.63,0,.04,0,.08,0,.12,0,.65,0,1.3,0,1.95-.02.15-.04.3-.06.45-.07.72-.3,1.41-.6,2.06-.58,1.3-1.45,2.38-2.6,3.22-.55.4-1.15.73-1.79.98-.58.23-1.15.48-1.75.62-.33.08-.68.15-1.01.23-.12-.03-.25-.04-.37-.01-.41.1-.83.1-1.25.15-.74.1-1.49.02-2.23.05-.17,0-.33,0-.5-.01-.56-.15-1.12-.25-1.7-.24-.77-.1-1.51-.3-2.24-.54-1.18-.38-2.33-.85-3.39-1.53-.07-.05-.17-.13-.29-.06-.02,0-.04-.01-.06-.02-.1.08-.06.19-.06.29,0,.37-.02.73,0,1.1.02.28-.06.38-.36.37-1.78-.02-3.56-.01-5.34,0-.28,0-.35-.07-.35-.35,0-3.24,0-6.47,0-9.71.09,0,.19-.02.28-.02,1.75,0,3.51,0,5.26,0,.57,1.15,1.44,2.02,2.51,2.71.83.53,1.74.89,2.68,1.16.41.12.81.23,1.22.29.05.02.09.04.14.05.55.12,1.12.09,1.68.09.57,0,1.15.03,1.7-.14.54-.07,1.06-.22,1.55-.45.5-.23.53-.9.1-1.25-.29-.24-.64-.37-.98-.48-1.34-.43-2.69-.82-4.03-1.22-1.19-.36-2.38-.69-3.57-1.07-.96-.3-1.94-.54-2.87-.94-1.43-.6-2.71-1.41-3.8-2.52-.95-.97-1.64-2.08-1.98-3.39-.11-.41-.17-.83-.17-1.26,0-.02,0-.05,0-.07Z"/>
    <path class="cls-19" d="m292.28,444.83c.86-.1,1.71-.21,2.57-.26.48-.03.96-.06,1.44-.1.03,0,.06-.05.08-.08.02-.02.04-.04.07-.06.06-.04.06-.09.03-.14,0-.12,0-.24,0-.36.03-.17.03-.34-.01-.52.03-.13.13-.11.22-.11.2,0,.4.01.59,0,.24-.02.35.07.35.31-.01.13,0,.27-.03.4-.1.49-.02.58.47.54,1.04.09,2.08.18,3.12.3,1.22.13,2.42.38,3.64.57.16.02.24-.02.29-.16.21-.6.61-1.11.83-1.7.07-.19.19-.28.4-.26.2.02.4.01.6,0,.21-.01.27.06.2.25-.14.36-.29.72-.44,1.08-.12.29-.22.58-.36.85-.11.23,0,.32.18.37.62.16,1.23.38,1.84.6.8.28,1.58.59,2.37.88.19.07.39.14.58.22.2.09.38.01.52-.16.69-.82,1.38-1.64,2.01-2.5.33-.45.63-.93.95-1.39.07-.1.15-.2.29-.2.35,0,.71,0,1.09,0-.6,1.12-1.31,2.12-2.06,3.09-.4.52-.82,1.04-1.27,1.53-.13.14-.14.29.07.41.82.47,1.64.94,2.46,1.41.02.01.04.02.06.03.58.33.65.32,1.17-.13.65-.57,1.29-1.15,1.9-1.77.7-.71,1.39-1.44,2.02-2.22.57-.7,1.11-1.43,1.66-2.14.02-.02.03-.05.05-.07,0,0,0,0,0,0,.37-.18.75-.06,1.13-.04.03,0,.07.07.1.11-.81,1.2-1.65,2.37-2.6,3.47-.94,1.08-1.93,2.11-3,3.06-1.17,1.04-2.41,1.97-3.72,2.82-1.42.93-2.91,1.73-4.47,2.38-.78.33-1.57.67-2.37.93-.44.14-.9.28-1.34.42-.59.19-1.2.3-1.8.46-.37.1-.77.25-1.17.24-.49,0-.96.16-1.44.21-.03,0-.05.06-.08.09-.86.07-1.71.14-2.57.21-.08,0-.17-.02-.25-.02-1.76.06-3.51.02-5.26-.17-.24-.03-.48-.15-.73-.02-.81-.15-1.61-.31-2.42-.47-1.13-.23-2.23-.55-3.32-.92-.81-.27-1.6-.59-2.4-.92-.98-.41-1.91-.9-2.83-1.39-1.01-.54-1.97-1.16-2.91-1.83-1.03-.74-2.01-1.54-2.95-2.39-.98-.89-1.91-1.82-2.77-2.83-.81-.95-1.6-1.91-2.26-2.97-.09-.15-.36-.28-.25-.45.1-.16.37-.06.56-.1.46-.08.74.13.99.5.91,1.36,1.98,2.59,3.12,3.76.86.88,1.77,1.71,2.75,2.45.14.11.26.11.4.03.9-.52,1.8-1.05,2.7-1.58.18-.11.18-.41,0-.62-.48-.59-.96-1.19-1.43-1.78-.66-.83-1.26-1.7-1.78-2.62.42-.22.84-.06,1.26,0,0,0,0,0,0,0,.02.02.04.05.06.07.42.65.88,1.27,1.33,1.89.51.7,1.1,1.33,1.65,2.01.28.34.34.34.74.16.8-.36,1.64-.63,2.46-.95.61-.23,1.27-.31,1.85-.64.12-.07.28-.05.42-.09.22-.06.31-.2.21-.43-.23-.5-.44-1-.69-1.49-.1-.19-.13-.4-.21-.6.02-.02.04-.04.06-.06,0,0,0,0,0,0,.02,0,.04,0,.06,0,.06,0,.12,0,.18-.01.21.04.43.03.64,0,.35,0,.32.34.43.52.27.44.47.93.71,1.39.06.12.14.23.33.19.42-.1.85-.07,1.26-.24.15-.06.35-.02.53-.03.07,0,.14,0,.19-.06.06,0,.12-.02.18-.02.26.03.51-.04.77-.09Zm5.84.82c-.15.01-.31-.08-.44.06-.08.09-.05.2-.06.3,0,1.59-.01,3.19,0,4.78,0,.53-.05,1.06.05,1.59.02.02.04.05.06.07.01.01.03.04.04.04.67.11,1.35.17,2.01.31.33.07.63.03.81-.33.09-.17.23-.31.35-.47.66-.86,1.26-1.76,1.86-2.66.34-.51.64-1.03.94-1.56.19-.35.43-.68.56-1.06.05-.14.08-.28-.12-.32-.26-.05-.52-.09-.79-.14-.03-.03-.05-.08-.08-.09-.77-.14-1.54-.32-2.33-.33-.14,0-.29-.01-.43-.02-.31-.12-.64-.03-.96-.1-.14,0-.29-.01-.43-.02-.35-.12-.71-.07-1.07-.06Zm-1.68.05h0c-.59-.13-1.18-.07-1.77.01-.02,0-.04.01-.07.02-.3,0-.59.02-.88.1-.58-.03-1.14.12-1.7.18-.41,0-.8.06-1.19.19-.23.13-.5.1-.75.19-.3.11-.33.16-.18.43.14.24.28.48.41.73.45.86.96,1.68,1.5,2.48.61.9,1.23,1.79,1.95,2.62.06.07.07.17.2.15.27-.05.55-.08.82-.12.44-.06.9-.04,1.33-.17.12,0,.25.02.32-.12.04-.01.06-.03.04-.08,0-.12,0-.25,0-.37.06-.89.02-1.77.02-2.66,0-.75-.01-1.5-.02-2.25,0-.19,0-.37,0-.56,0-.26.06-.52-.04-.77Zm2.57,8.12c-.02-.06-.07-.1-.13-.11-.4-.04-.79-.12-1.19-.07-.38,0-.75,0-1.13,0-.11-.01-.23-.06-.33.05-.35.05-.69.05-1.04.11-1.05.19-2.08.42-3.06.84-.53.22-1.02.53-1.51.82-.08.05-.18.13-.15.25.02.1.09.17.19.19.64.16,1.28.3,1.94.37.78.07,1.54.24,2.32.28.99.05,1.98.05,2.97.03.09-.02.18-.05.26-.05.75,0,1.5-.06,2.25-.14.43.02.86-.03,1.27-.17.63,0,1.24-.16,1.84-.31.09-.02.16-.06.16-.16,0-.1.03-.21-.09-.28-.1-.06-.19-.12-.29-.18-.74-.41-1.5-.8-2.32-1.05-.64-.2-1.29-.34-1.95-.42Zm-8.34.14c.19-.02.33-.07.47-.14.38-.17.75-.35,1.13-.5.27-.11.34-.2.16-.43-.43-.56-.83-1.16-1.23-1.74-.58-.84-1.12-1.7-1.64-2.57-.32-.54-.62-1.09-.94-1.63-.08-.15-.19-.19-.39-.16-.21.04-.39.12-.59.17-1.34.36-2.63.83-3.89,1.42-.26.12-.27.29-.08.5.22.23.44.44.68.64.59.49,1.14,1.02,1.74,1.49,1.16.91,2.35,1.79,3.64,2.51.3.17.59.39.92.43Zm10.98-.79c-.01.13.06.18.19.22.39.13.79.26,1.16.45.24.12.41.1.63,0,.82-.42,1.6-.92,2.36-1.42,1.59-1.05,3.05-2.25,4.37-3.62.19-.2.16-.38-.11-.47-.65-.24-1.27-.54-1.93-.77-.79-.28-1.61-.47-2.42-.7-.14-.04-.27-.03-.37.14-.51.87-1.03,1.73-1.55,2.59-.61,1-1.28,1.96-1.96,2.92-.14.2-.38.36-.38.66Zm10.2-4.07c-.15-.01-.22.09-.3.17-.44.4-.88.8-1.32,1.2-.71.64-1.4,1.32-2.18,1.89-1.03.75-2.07,1.47-3.15,2.15-.25.16-.25.32-.05.46.27.2.47.48.95.33.85-.25,1.7-.53,2.53-.85,1.08-.41,2.13-.88,3.14-1.45,1.06-.59,2.13-1.16,3.09-1.9.29-.22.28-.42-.05-.61-.72-.41-1.44-.82-2.17-1.22-.15-.08-.33-.11-.49-.17Zm-29.61.08c-.14-.02-.27.03-.39.09-.72.36-1.41.75-2.08,1.18-.15.1-.34.13-.33.38.01.25.23.33.37.47.04.04.11.02.17.06.76.55,1.58,1,2.38,1.47,1.13.67,2.34,1.16,3.54,1.67.64.27,1.31.48,1.98.69.42.13.85.27,1.27-.08.3-.25.34-.47,0-.65-1-.56-1.94-1.21-2.86-1.89-1.32-.99-2.59-2.07-3.73-3.27-.09-.1-.19-.16-.33-.13Z"/>
    <path class="cls-19" d="m270.69,409.47c-.08,0-.16-.01-.25-.02.01-.02,0-.04-.01-.05.74-1.24,1.65-2.36,2.58-3.46.7-.83,1.45-1.6,2.23-2.35.75-.72,1.56-1.38,2.39-2.02,1.17-.9,2.4-1.71,3.69-2.44.68-.38,1.37-.74,2.08-1.07.85-.4,1.73-.75,2.61-1.08.73-.27,1.47-.51,2.21-.72.82-.24,1.67-.39,2.5-.58,1.06-.25,2.13-.4,3.21-.48,1.42-.11,2.85-.26,4.28-.09.39.05.79.05,1.18.07.51.06,1.01.11,1.52.17,1.26.13,2.5.38,3.73.68,1.1.27,2.19.6,3.26.99,1.17.42,2.31.93,3.42,1.5.92.47,1.81.98,2.67,1.54,1.26.81,2.45,1.71,3.58,2.68.8.69,1.58,1.41,2.3,2.18.88.95,1.76,1.92,2.5,2.99.3.44.63.86.95,1.29,0,.21-.15.19-.28.2-.33.03-.66-.04-.99-.07-.7-.98-1.44-1.93-2.23-2.84-.89-1.03-1.89-1.94-2.91-2.84-.32-.28-.66-.53-1-.78-.17-.12-.35-.11-.52,0-.7.46-1.43.86-2.15,1.28-.13.07-.26.12-.39.19-.23.13-.23.27-.12.46.06.11.11.23.2.31.45.39.77.89,1.13,1.35.63.83,1.18,1.72,1.76,2.58.03.04.04.1.07.13.27.24.09.29-.13.32-.25-.03-.51-.03-.76,0-.18,0-.24-.14-.33-.26-.94-1.33-1.89-2.66-3.01-3.85-.2-.22-.39-.22-.63-.12-.66.27-1.32.51-1.99.76-.6.23-1.23.4-1.83.64-.25.1-.52.19-.79.24-.31.06-.35.22-.28.49.12.46.37.87.55,1.31.08.2.17.39.26.59,0,.06,0,.12-.01.18-.31,0-.62,0-.94.01-.02,0-.05,0-.07,0-.13,0-.17-.1-.22-.2-.27-.55-.53-1.11-.8-1.66-.09-.18-.21-.24-.42-.21-.81.13-1.61.32-2.42.44-.99.15-1.98.25-2.98.3-.17,0-.34.08-.52.06-.24,0-.48,0-.72,0-.27,0-.39.1-.33.38,0,.04,0,.08,0,.11-.04.15-.04.3,0,.45,0,.08-.02.15-.03.23-.25.03-.49.06-.74.1-.1,0-.2-.01-.31-.02-.01-.07-.06-.1-.12-.13,0-.25-.01-.5-.01-.75,0-.24-.12-.37-.36-.37-.81.02-1.62-.04-2.43-.13-.75-.08-1.49-.16-2.23-.28-.74-.12-1.48-.27-2.22-.4-.12-.02-.18.03-.25.14-.26.47-.49.95-.69,1.44-.08.2-.17.4-.37.52-.24,0-.47-.02-.71-.01-.2,0-.29-.07-.25-.27.13-.56.47-1.03.68-1.55.06-.16.07-.32.13-.47.05-.14-.08-.14-.18-.18-.7-.23-1.4-.45-2.1-.69-.87-.31-1.74-.63-2.6-.97-.24-.1-.41-.09-.6.12-.78.86-1.51,1.75-2.19,2.69-.32.45-.58.94-.99,1.33-.27,0-.53.01-.8,0-.1,0-.25.03-.23-.16.39-.77.86-1.49,1.36-2.18.55-.77,1.14-1.52,1.77-2.23.17-.2.14-.32-.1-.46-.91-.51-1.84-.96-2.7-1.55-.22-.15-.44,0-.62.14-.68.55-1.33,1.14-1.97,1.74-.9.86-1.74,1.78-2.53,2.74-.47.57-.91,1.16-1.35,1.76-.09.13-.17.18-.32.18-.23,0-.46,0-.69,0-.02,0-.05,0-.07,0Zm26.92-9.14l-.07.04v.02c-.1.38-.07.76-.04,1.14,0,1.02-.01,2.04-.01,3.07,0,.32-.04.65.03.97,0,.12,0,.24-.01.36,0,.37-.07.75.07,1.12.1,0,.19,0,.29.01.34.01.68.04,1.01-.06.04,0,.08,0,.12,0,1.11-.02,2.2-.13,3.28-.36.51-.09,1.01-.17,1.5-.33.34-.11.28-.26.16-.47-.6-1.12-1.26-2.19-1.98-3.24-.56-.83-1.17-1.62-1.78-2.41-.09-.12-.2-.18-.35-.15-.72.11-1.45.1-2.16.28-.03-.02-.06-.01-.08.02h0Zm-1.4,6.67s.02-.03.02-.05c0,0,0,0,0,0,.02,0,.04,0,.05-.02.08-.05.05-.13.05-.2,0-1.7.02-3.39,0-5.09,0-.43.04-.87-.1-1.3h0c-.09-.19-.25-.1-.39-.1-.06,0-.12,0-.18,0-.07,0-.13,0-.2-.01-.19-.02-.37-.05-.56-.07-.18-.1-.38-.12-.58-.1-.04,0-.07,0-.11,0-.13-.07-.25-.04-.38,0-.15-.01-.29-.03-.39.12-.58.79-1.18,1.55-1.74,2.35-.72,1.02-1.37,2.09-1.97,3.19-.25.44-.14.67.34.76.12.02.24.04.36.06.66.18,1.34.24,2.02.32h.24c.49.2,1,.19,1.51.19h0c.36.07.73.06,1.09.06.3,0,.6.06.89-.07Zm10.04-9.31c-.24-.19-.52-.26-.83-.24-.27-.05-.73.15-.85.39-.08.16-.09.32.11.43.15.08.31.15.45.25.97.63,1.95,1.26,2.87,1.97,1.14.88,2.21,1.83,3.25,2.83.29.28.43.31.78.11.52-.29,1.04-.59,1.56-.89.24-.14.48-.27.71-.43.18-.12.25-.25,0-.42-.54-.38-1.1-.73-1.66-1.08-.64-.4-1.29-.77-1.96-1.12-.61-.33-1.25-.6-1.89-.87-.84-.36-1.69-.68-2.56-.93Zm-11.9,1.21c.5.16,1.02.18,1.54.21.81.06,1.62.08,2.43-.09.28-.04.56-.06.83-.11.79-.15,1.55-.37,2.3-.67.65-.26,1.27-.58,1.85-.98.1-.07.12-.16.12-.26,0-.16-.13-.1-.2-.13-.22-.08-.44-.1-.67-.13-1.04-.18-2.08-.4-3.15-.43-.04-.12-.15-.08-.24-.09-1.06-.12-2.13-.07-3.19-.07-.58,0-1.17.02-1.74.11-.25.02-.5.04-.75.07-.11-.02-.22,0-.31.07-.04,0-.08,0-.12.01-.24,0-.47.01-.7.11-.04,0-.08,0-.12.01-.04-.01-.06.01-.08.05-.58.1-1.16.14-1.72.32-.1.03-.21.03-.22.17,0,.14.09.21.18.27.97.63,2.01,1.1,3.13,1.41.28.08.56.15.84.18Zm8.71-.07c-.13.02-.21.01-.31.06-.39.19-.79.35-1.19.52-.26.12-.3.22-.12.44.64.79,1.19,1.65,1.74,2.49.72,1.09,1.4,2.2,2.04,3.34.1.18.23.24.44.18.65-.16,1.3-.33,1.93-.55.85-.29,1.69-.61,2.5-1.01.25-.12.26-.3.06-.51-.23-.24-.52-.43-.75-.66-.82-.85-1.78-1.52-2.71-2.23-.82-.63-1.72-1.13-2.6-1.66-.33-.2-.69-.36-1.04-.41Zm-15.05,7.12c.22-.04.38-.1.5-.31.36-.65.74-1.28,1.11-1.91.48-.82.97-1.62,1.53-2.39.35-.48.71-.97,1.05-1.46.12-.18.14-.33-.13-.43-.33-.12-.65-.27-.96-.43-.37-.19-.71-.21-1.06.05-.26.19-.54.34-.82.5-.97.56-1.87,1.21-2.76,1.89-.91.7-1.78,1.45-2.62,2.23-.55.51-.55.67.16.93,1.1.41,2.2.82,3.33,1.13.23.06.44.16.66.2Zm.34-8.51c-.21.08-.48.06-.74.16-.58.23-1.16.47-1.75.66-.85.28-1.65.66-2.45,1.04-.93.45-1.85.94-2.73,1.5-.48.31-.98.57-1.39.97-.19.19-.17.32.06.45.76.42,1.52.83,2.27,1.27.4.23.53.2.85-.12.85-.87,1.79-1.66,2.75-2.41,1.22-.96,2.49-1.85,3.83-2.64.21-.12.2-.32.11-.42-.21-.22-.42-.46-.81-.48Z"/>
    <path class="cls-19" d="m277.84,419.16c-.02.06-.06.1-.12.12.01-.02.02-.04.01-.06.05-.37-.07-.72-.06-1.09.01-1.71,0-3.42.01-5.12,0-.32-.08-.4-.4-.4-5.55.01-11.11,0-16.66,0-.05,0-.11,0-.16,0-.16-.01-.23.05-.23.22,0,.1.06.24-.11.29,0-.21,0-.42-.01-.63,0,0,0,0,0,0,5.58,0,11.17,0,16.75,0,.22,0,.44.03.65.03.26,0,.27.1.27.3,0,1.83,0,3.67,0,5.5,0,.28-.03.56.04.84Z"/>
    <path class="cls-19" d="m264.13,433.31c0-.08.02-.17.02-.25,0-4.3,0-8.61,0-12.91,0-.08-.01-.17-.02-.25.01-.02.01-.04,0-.06,0-.04,0-.09,0-.13.01-.02.01-.04,0-.06,0-.04,0-.09,0-.13.02-.08.02-.16,0-.25h.02s.02,0,.02,0c.16.03.11.16.11.26,0,4.57,0,9.14,0,13.7,0,.09.05.22-.11.25-.02,0-.04,0-.06,0,.05-.05.05-.11.03-.18Z"/>
    <path class="cls-13" d="m277.84,419.16c-.07-.28-.04-.56-.04-.84,0-1.83,0-3.67,0-5.5,0-.21,0-.3-.27-.3-.21,0-.43-.03-.65-.03-5.58,0-11.17,0-16.75,0,0-.02,0-.05,0-.07,5.65,0,11.31,0,16.96,0,.26,0,.52-.05.78.02,0,2.16,0,4.32,0,6.48,0,.08.02.17-.03.24Z"/>
    <path class="cls-19" d="m304.54,413.12c-.02-.16-.14-.13-.24-.13-1.76,0-3.52,0-5.29,0-.21,0-.27.08-.26.28.01.31,0,.63,0,.94,0,.1.04.21-.07.29.02-.5.03-1.01,0-1.51.02-.02.05-.05.07-.07.12,0,.25.02.37.02,1.36,0,2.72,0,4.07,0,.45,0,.9-.01,1.35-.02.02.02.04.05.06.07,0,.12-.02.25-.02.37,0,1.75,0,3.49.01,5.24,0,1.23,0,2.47.01,3.7-.02.03-.04.06-.06.09-1.89-.05-3.78-.03-5.68-.01,0,0-.01,0-.01,0,0-.02,0-.04,0-.06,1.73,0,3.45,0,5.18,0,.15,0,.29,0,.44,0,.09-.07.06-.17.06-.26,0-2.97,0-5.94,0-8.92Z"/>
    <path class="cls-13" d="m277.72,419.27s-.04.03-.06.04c-1.25-.03-2.5-.03-3.74,0-.22,0-.13.18-.13.28,0,.86,0,1.72,0,2.58,0,3.64,0,7.29,0,10.93,0,.13.01.25.02.38,0,.01-.02.02-.03.03-.11-.11-.05-.24-.05-.36,0-4.51,0-9.03-.01-13.54,0-.31.09-.38.39-.38,1.21.01,2.43,0,3.64,0,0,.02,0,.04-.01.06Z"/>
    <path class="cls-19" d="m279.5,430.11c0,3.24,0,6.47,0,9.71,0,.28.07.35.35.35,1.78-.01,3.56-.01,5.34,0,.3,0,.37-.1.36-.37-.02-.37,0-.73,0-1.1,0-.1-.04-.21.06-.29,0,.61,0,1.21,0,1.82-.02,0-.04,0-.05.01-.16,0-.31-.02-.47-.02-1.57,0-3.14,0-4.71,0-.29,0-.58.01-.88.02-.02,0-.03-.02-.04-.03,0-3.07,0-6.13,0-9.2,0-.3,0-.61-.01-.91,0,0,0,0,0,0,.02,0,.04,0,.06,0Z"/>
    <path class="cls-13" d="m277.81,440.24c-.11.09-.24.05-.36.05-5.67,0-11.33,0-17,0-.12,0-.25.03-.36-.06h.02s.02,0,.02,0c.04,0,.07-.01.11-.02.05,0,.09,0,.14,0,.1,0,.21.01.31.01,5.54,0,11.08,0,16.61,0,.16,0,.31,0,.47-.01.01.01.02.02.03.03Z"/>
    <path class="cls-13" d="m260.12,412.49c0,.21,0,.42.01.63,0,.32,0,.63,0,.95,0,1.6,0,3.21-.02,4.81,0,.32.09.37.39.37,1.21-.01,2.43,0,3.64,0,0,.02,0,.03.02.05h-.02s-.02,0-.02,0c-.03,0-.06.01-.1.02-.47,0-.93,0-1.4,0-.71,0-1.41,0-2.12.01q-.51-.04-.51-.55c0-1.99,0-3.97,0-5.96,0-.11-.07-.26.11-.32Z"/>
    <path class="cls-13" d="m273.8,433.48c1.26,0,2.51.01,3.77,0,.23,0,.31.06.31.3,0,2.06,0,4.13,0,6.19,0,.09.03.19-.05.27-.01-.01-.02-.02-.03-.03,0-.03.01-.06.01-.09,0-2.11,0-4.21,0-6.32,0-.23-.11-.25-.29-.24-1.24,0-2.47,0-3.71,0,0-.02-.02-.03-.03-.04,0,0,.02-.02.03-.03Z"/>
    <path class="cls-13" d="m279.45,430.11c0,.3.01.61.01.91,0,3.07,0,6.13,0,9.2-.12-.07-.07-.19-.07-.28,0-3.18,0-6.36,0-9.54,0-.1-.05-.21.06-.29Z"/>
    <path class="cls-13" d="m304.61,422.3c0-1.23,0-2.47-.01-3.7,0-1.75,0-3.49-.01-5.24,0-.12.01-.25.02-.37.12.24.06.49.06.73,0,2.77,0,5.54,0,8.31,0,.09.03.19-.06.27Z"/>
    <path class="cls-13" d="m306.41,424.05c0,.68-.12,1.35-.12,2.03,0,.97-.01,1.94.11,2.91.01.1.05.21-.03.3-.16-.29-.08-.61-.11-.92-.15-1.36-.05-2.73.06-4.09,0-.09.03-.16.1-.22Z"/>
    <path class="cls-13" d="m292.65,457.46c.25-.13.49,0,.73.02,1.75.19,3.5.23,5.26.17.08,0,.17.01.25.02-.33.12-.68.02-1.02.07-.5,0-.99,0-1.49,0-.92-.03-1.83-.06-2.74-.16-.33-.03-.66-.09-.99-.13Z"/>
    <path class="cls-13" d="m335.88,428.02c0-1.07.05-2.14-.06-3.21.18.15.16.38.17.57.02.77,0,1.55,0,2.32,0,.12-.03.23-.12.31Z"/>
    <path class="cls-13" d="m279.5,440.24c.29,0,.58-.02.88-.02,1.57,0,3.14,0,4.71,0,.16,0,.31.01.47.02-.07.07-.16.04-.24.04-1.86,0-3.72,0-5.58,0-.08,0-.17.03-.24-.05Z"/>
    <path class="cls-13" d="m304.55,412.92c-.45,0-.9.02-1.35.02-1.36,0-2.72,0-4.07,0-.12,0-.25-.01-.37-.02.08-.08.18-.05.27-.05,1.75,0,3.51,0,5.26,0,.09,0,.19-.03.26.05Z"/>
    <path class="cls-13" d="m298.88,422.38c1.89-.02,3.78-.04,5.68.01-.07.06-.16.04-.24.04-1.72,0-3.45,0-5.17,0-.09,0-.19.03-.27-.05Z"/>
    <path class="cls-13" d="m279.5,430.11s-.04,0-.06,0c.02-.03.05-.06.07-.09.11,0,.23.02.34.02,1.73,0,3.45,0,5.18,0,0,.02,0,.04,0,.07-1.75,0-3.51,0-5.26,0-.09,0-.19.01-.28.02Z"/>
    <path class="cls-13" d="m293.78,440.81c.74-.03,1.49.05,2.23-.05.41-.06.84-.05,1.25-.15.13-.03.25-.02.37.01-.32.13-.67.12-1.01.16-.9.11-1.81.11-2.72.08-.04,0-.07-.03-.11-.05Z"/>
    <path class="cls-13" d="m294.98,434.26c-.56.17-1.14.14-1.7.14-.56,0-1.12.02-1.68-.09-.05-.01-.1-.03-.14-.05.71,0,1.41.09,2.12.07.47-.01.94-.12,1.41-.06Z"/>
    <path class="cls-13" d="m260.12,433.56s0-.04-.01-.06c.17,0,.35-.02.52-.02,0,0,.03,0,.03,0h.03c.97,0,1.94,0,2.91,0,.06,0,.11,0,.17,0,.09,0,.18,0,.27,0,.02,0,.04.02.07.02.02,0,.04,0,.06,0-.01,0-.02.02-.02.03-.13,0-.25.02-.38.02-1.22,0-2.43,0-3.65.01Z"/>
    <path class="cls-13" d="m323.67,440.73c.04-.07.09-.1.17-.11.71-.08,1.4-.25,2.1-.38-.29.23-.66.21-.99.28-.42.1-.86.14-1.29.2Z"/>
    <path class="cls-13" d="m291.58,440.55c.58,0,1.14.09,1.7.24-.57-.03-1.14-.07-1.7-.24Z"/>
    <path class="cls-19" d="m322.54,412.23c-.92,0-1.85,0-2.77,0,0-.02.01-.03.01-.05,0,0,0,0,0,0,.81,0,1.63,0,2.44,0,.1.03.22-.03.32.06Z"/>
    <path class="cls-19" d="m319.91,440.83c.55-.08,1.1-.02,1.66-.03.28,0,.56,0,.85,0,0,.02-.01.03-.01.05,0,0,.01,0,.01,0-.82,0-1.63.01-2.45.02-.02-.01-.03-.02-.05-.03Z"/>
    <path class="cls-13" d="m305.37,433.5c.02-.15.04-.3.06-.45.06-.1.05-.22.05-.33,0-.51,0-1.02,0-1.52.02.03.07.06.07.09.02.69.06,1.39-.05,2.08-.01.07-.05.11-.11.13Z"/>
    <path class="cls-13" d="m301.46,457.47s.05-.08.08-.09c.48-.05.95-.21,1.44-.21-.29.19-.63.13-.95.22-.18.05-.38.05-.57.08Z"/>
    <path class="cls-13" d="m322.22,412.17c-.81,0-1.63,0-2.44,0,.44-.13.89-.07,1.33-.07.37,0,.75-.06,1.11.07Z"/>
    <path class="cls-13" d="m292.59,412.41c-.5-.06-1.01-.12-1.51-.18.48-.08.94.04,1.41.07.06,0,.08.06.1.11Z"/>
    <path class="cls-13" d="m335.32,431.17c.09-.45.18-.9.32-1.33,0,.47-.05.93-.32,1.33Z"/>
    <path class="cls-13" d="m319.78,412.18s0,.03-.01.05c-.48.04-.96.08-1.45.12.24-.21.54-.08.81-.15.2-.06.43-.05.65-.01Z"/>
    <path class="cls-13" d="m279.12,443.31c-.42-.06-.84-.22-1.26,0-.09-.12.01-.16.09-.17.35-.04.71-.03,1.06,0,.08,0,.13.07.11.16Z"/>
    <path class="cls-13" d="m296.38,444.39s-.05.07-.08.08c-.48.04-.96.07-1.44.1.04-.12.14-.1.23-.11.43-.02.86-.04,1.3-.06Z"/>
    <path class="cls-13" d="m291.96,418.46c.15.11.39,0,.51.18-.55-.06-1.1-.11-1.65-.17.01-.01.02-.03.03-.04.37.01.74.02,1.11.03Z"/>
    <path class="cls-19" d="m290.83,412.23c-.69,0-1.38,0-2.07,0,.02-.02.04-.04.06-.07.65,0,1.3,0,1.95,0,.02.02.04.04.06.07Z"/>
    <path class="cls-13" d="m277.91,409.33c-.02.19.13.15.23.16.27,0,.53,0,.8,0-.29.15-.6.14-.91.12-.22-.01-.25-.1-.12-.27Z"/>
    <path class="cls-13" d="m294.35,412.73c-.4-.08-.8-.17-1.2-.25.38-.05.74.07,1.1.14.06.01.08.06.1.11Z"/>
    <path class="cls-13" d="m298.07,444.44c-.49.03-.57-.06-.47-.54.03-.13.02-.27.03-.4.1.16.05.33.04.49-.01.21,0,.38.28.36.06,0,.08.05.11.1Z"/>
    <path class="cls-13" d="m300.91,395.35c-.51-.06-1.01-.11-1.52-.17.48-.06.95.04,1.42.07.06,0,.09.04.1.1Z"/>
    <path class="cls-13" d="m322.04,409.33c.33.03.65.11.99.07.13-.01.29,0,.28-.2.1.12.08.23-.07.24-.38.04-.76.03-1.14-.02-.02,0-.04-.06-.06-.1Z"/>
    <path class="cls-19" d="m305.47,431.19c0,.51,0,1.02,0,1.52,0,.11,0,.23-.05.33,0-.65,0-1.3,0-1.95.01.03.03.06.04.09Z"/>
    <path class="cls-13" d="m298.69,412.98c.04.5.03,1.01,0,1.51-.13.01-.26.05-.37-.06.27.03.33-.09.33-.35,0-.37-.07-.74.04-1.11Z"/>
    <path class="cls-13" d="m323.46,443.39s-.06-.11-.1-.11c-.38-.02-.76-.14-1.13.04,0-.11.07-.15.16-.14.33,0,.67,0,1,.01.17,0,.21.08.06.2Z"/>
    <path class="cls-13" d="m318.26,412.36c-.38.08-.75.16-1.14.18.36-.2.75-.19,1.14-.18Z"/>
    <path class="cls-13" d="m279.36,419.09c-.02.32.03.66-.17.95.02-.32.04-.65.17-.95Z"/>
    <path class="cls-13" d="m289.25,418.45c.24-.14.5-.05.75-.06.28-.02.56,0,.84,0,0,.01,0,.02.02.03-.01.01-.02.03-.03.04-.52,0-1.05,0-1.57-.01Z"/>
    <path class="cls-13" d="m297.52,408.59c-.06-.28.07-.39.33-.38.24,0,.48,0,.72,0-.15.11-.32.07-.48.06-.28-.02-.48.05-.57.33Z"/>
    <path class="cls-13" d="m286.79,409.21c-.03.2.05.28.25.27.24,0,.47,0,.71.01-.3.09-.61.06-.91.03-.28-.03-.16-.19-.05-.32Z"/>
    <path class="cls-13" d="m279.2,420.15c.11.42.04.85.04,1.27-.11-.42-.03-.85-.04-1.27Z"/>
    <path class="cls-13" d="m296.74,409.48c.25-.03.49-.06.74-.1-.22.26-.49.13-.74.1Z"/>
    <path class="cls-13" d="m292.28,444.83c-.25.05-.5.12-.77.09.24-.15.51-.09.77-.09Z"/>
    <path class="cls-13" d="m335.66,429.74c0-.22.03-.43.1-.64.02.22.07.45-.1.64Z"/>
    <path class="cls-19" d="m305.42,430.98c-.19-.18-.1-.42-.12-.63.07.2.12.41.12.63Z"/>
    <path class="cls-13" d="m314.99,409.48c.26-.03.51-.03.76,0-.26.07-.51.08-.76,0Z"/>
    <path class="cls-13" d="m287.88,443.17c-.21.02-.43.03-.64,0,.21-.07.43-.08.64,0Z"/>
    <path class="cls-13" d="m296.46,443.31c.05.17.04.34.01.52-.07-.17-.07-.34-.01-.52Z"/>
    <path class="cls-13" d="m306.44,423.62c.06.09.07.17-.01.25-.09-.09-.01-.17.01-.25Z"/>
    <path class="cls-13" d="m297.51,409.15c-.04-.15-.04-.3,0-.45.08.15.08.3,0,.45Z"/>
    <path class="cls-13" d="m291.33,444.94c-.05.05-.12.07-.19.06.04-.1.09-.15.19-.06Z"/>
    <path class="cls-13" d="m306.93,409.46c0-.06,0-.12.01-.18.06.06.1.13-.01.18Z"/>
    <path class="cls-13" d="m296.31,409.33c.06.03.11.06.12.13-.08,0-.12-.05-.12-.13Z"/>
    <path class="cls-13" d="m296.47,444.19c.03.05.03.1-.03.14-.02-.05-.02-.1.03-.14Z"/>
    <path class="cls-13" d="m270.43,409.4s.02.03.01.05c-.01.01-.02.02-.04.03-.04-.04-.02-.07.02-.08Z"/>
    <path class="cls-13" d="m286.99,443.19s-.04.04-.06.06c0-.02,0-.03-.01-.05.03,0,.05,0,.08-.01Z"/>
    <path class="cls-13" d="m322.24,443.32s-.03.05-.05.07c0-.04,0-.06.05-.07Z"/>
    <path class="cls-13" d="m279.18,443.38s-.04-.05-.06-.07c.02.02.04.05.06.07Z"/>
    <path class="cls-13" d="m305.93,409.47s.05,0,.07,0c-.02.04-.04.05-.07,0Z"/>
    <path class="cls-13" d="m270.69,409.47s.05,0,.07,0c-.02.04-.04.05-.07,0Z"/>
    <path class="cls-13" d="m287.06,443.18s-.04,0-.06,0c.02-.04.03-.04.06,0Z"/>
    <path class="cls-13" d="m279.24,421.6s0,.05,0,.07c-.04-.02-.04-.05,0-.07Z"/>
    <path class="cls-13" d="m298.87,422.31s0,.04,0,.06c-.04,0-.05-.03-.05-.06.02,0,.03,0,.05,0Z"/>
    <path class="cls-19" d="m325.7,428.59c0-.12,0-.25,0-.37.07-.04.06-.1.06-.17,0-.57,0-1.14,0-1.72h.02s0,0,0,0c0,.7.01,1.39.02,2.09,0,.08-.03.14-.12.16Z"/>
    <path class="cls-19" d="m325.79,426.19c0-.17-.02-.33-.02-.5.04-.5,0-1-.02-1.5.02.03.06.07.06.1,0,.63.04,1.26-.02,1.9Z"/>
    <path class="cls-13" d="m316.58,428.02c-.02.07.02.15-.06.19-.03-.68-.04-1.35,0-2.02.1.43.02.87.04,1.3,0,.18.01.35.01.53Z"/>
    <path class="cls-13" d="m316.58,425.94s-.04.05-.06.08c-.02-.61-.03-1.22.05-1.83.01,0,.02,0,.03.02,0,.58-.02,1.16-.03,1.74Z"/>
    <path class="cls-13" d="m320.53,433.88c.44,0,.88,0,1.32,0-.44.09-.88.12-1.32,0Z"/>
    <path class="cls-13" d="m325.74,424.19c.02.5.06,1,.02,1.5-.13-.5-.04-1-.07-1.51.02,0,.03,0,.05,0Z"/>
    <path class="cls-6" d="m304.54,413.12c0,2.97,0,5.94,0,8.92,0,.09.03.19-.06.26,0-2.94,0-5.88,0-8.82,0-.12-.05-.25.06-.36Z"/>
    <path class="cls-19" d="m290.86,418.43s-.01-.02-.02-.03c.37.04.75-.08,1.12.07-.37-.01-.74-.02-1.11-.03Z"/>
    <path class="cls-13" d="m292.59,456.26c.22-.14.43,0,.63.02,1.51.16,3.03.26,4.55.24.03,0,.07.03.11.05-.99.02-1.98.02-2.97-.03-.78-.04-1.54-.22-2.32-.28Z"/>
    <path class="cls-13" d="m297.7,446.83c-.02.84-.03,1.69,0,2.53,0,.14,0,.27,0,.41-.02.87.04,1.74-.01,2.61-.1-.53-.04-1.06-.05-1.59-.02-1.59,0-3.19,0-4.78,0-.1-.03-.21.06-.3,0,.38,0,.75.01,1.13Z"/>
    <path class="cls-13" d="m296.49,451.94c-.08-.08-.05-.18-.05-.27,0-1.46,0-2.92,0-4.38,0-.09-.03-.19.05-.27,0,.75.03,1.5.02,2.25,0,.89.03,1.77-.02,2.66Z"/>
    <path class="cls-13" d="m303.42,446.26c-.73-.12-1.46-.28-2.2-.32-.08,0-.17,0-.21-.1.79.01,1.56.19,2.33.33.03,0,.05.06.08.09Z"/>
    <path class="cls-13" d="m294.79,452.67c.13-.18.33-.09.49-.12.28-.05.55-.09.84-.05-.44.13-.89.11-1.33.17Z"/>
    <path class="cls-13" d="m299.01,453.81c-.44-.11-.9-.03-1.33-.18.4-.05.8.03,1.19.07.07,0,.11.05.13.11Z"/>
    <path class="cls-13" d="m296.44,445.68c-.59,0-1.18.02-1.77.03.59-.09,1.18-.14,1.77-.03Z"/>
    <path class="cls-13" d="m300.39,456.39c.42-.11.84-.16,1.27-.17-.41.14-.83.19-1.27.17Z"/>
    <path class="cls-13" d="m292.02,446.01c-.39.11-.78.23-1.19.19.38-.14.78-.19,1.19-.19Z"/>
    <path class="cls-13" d="m298.13,445.7s0-.04,0-.06c.36-.02.72-.06,1.07.06-.36.08-.71-.04-1.07,0Z"/>
    <path class="cls-13" d="m300.59,445.82c-.32-.04-.65.08-.96-.1.32.07.65-.02.96.1Z"/>
    <path class="cls-13" d="m296.49,446.46c-.11-.25-.05-.51-.04-.77.1.25.05.51.04.77Z"/>
    <path class="cls-13" d="m296.56,453.64c-.1.08-.22.04-.33.05.1-.11.21-.06.33-.05Z"/>
    <path class="cls-13" d="m296.44,452.38s.03-.05.04-.08c.02.04,0,.06-.04.08Z"/>
    <path class="cls-13" d="m296.24,401.03c0-.23,0-.47,0-.7.14.42.1.87.1,1.3,0,1.7,0,3.39,0,5.09,0,.07.03.15-.05.2,0-1.7,0-3.41,0-5.11,0-.26.03-.52-.05-.77Z"/>
    <path class="cls-13" d="m299.4,396.3c-1.26-.12-2.53-.12-3.8-.09-.46.01-.91.1-1.37.04.58-.09,1.16-.11,1.74-.11,1.06,0,2.13-.04,3.19.07.09,0,.2-.03.24.09Z"/>
    <path class="cls-13" d="m294.35,398.9c.29-.07.57.05.85.08.98.11,1.96.09,2.93.03.06,0,.12.01.18.02-.8.17-1.62.15-2.43.09-.52-.04-1.04-.05-1.54-.21Z"/>
    <path class="cls-13" d="m299,406.95c.96-.09,1.93-.15,2.88-.31.13-.02.27-.07.4,0-1.08.23-2.18.34-3.28.36,0-.02,0-.03,0-.05Z"/>
    <path class="cls-13" d="m290.45,406.5s.04-.03.05-.03c.63.08,1.26.17,1.89.26.03,0,.05.06.07.09-.68-.08-1.36-.14-2.02-.32Z"/>
    <path class="cls-13" d="m292.71,406.83c.48-.06.94.1,1.41.08.06,0,.08.06.1.1-.51,0-1.03,0-1.51-.18Z"/>
    <path class="cls-13" d="m294.23,407.01s.06-.03.08-.04c.63.05,1.27.02,1.9.03-.29.13-.59.07-.89.07-.36,0-.73.01-1.09-.06Z"/>
    <path class="cls-13" d="m306.25,397.69c-.29-.05-.56-.12-.83-.24.3-.01.58.05.83.24Z"/>
    <path class="cls-13" d="m297.53,400.39c.03.38.06.77-.03,1.14-.03-.38-.06-.77.03-1.14Z"/>
    <path class="cls-13" d="m297.58,406.06c0,.33,0,.66,0,.98-.14-.37-.07-.74-.07-1.12.02,0,.04,0,.05,0,0,.05,0,.09.01.14Z"/>
    <path class="cls-13" d="m293.04,396.39c-.21.16-.46.1-.7.11.22-.09.46-.11.7-.11Z"/>
    <path class="cls-13" d="m297.87,407.01c.33,0,.67,0,1,0-.33.1-.67.07-1.01.06,0-.02,0-.03,0-.05Z"/>
    <path class="cls-13" d="m294.92,400.15c-.19-.04-.41.09-.58-.1.2-.02.4,0,.58.1Z"/>
    <path class="cls-13" d="m293.47,396.32c-.08.16-.19.13-.31.07.1-.07.2-.08.31-.07Z"/>
    <path class="cls-13" d="m294.23,400.04c-.13.07-.26.06-.38,0,.13-.04.26-.06.38,0Z"/>
    <path class="cls-13" d="m296.25,400.33c-.13-.03-.26-.06-.39-.1.14,0,.3-.09.39.1Z"/>
    <path class="cls-13" d="m295.68,400.23c-.07.05-.13.04-.2-.01.07,0,.13,0,.2.01Z"/>
    <path class="cls-13" d="m292.22,396.51s-.05.03-.08.05c.01-.04.03-.06.08-.05Z"/>
    <path class="cls-13" d="m297.69,400.31s-.05.01-.08.02c.02-.03.05-.04.08-.02Z"/>
    <path class="cls-13" d="m297.61,400.33s-.03.06-.07.04c.02-.01.04-.03.07-.04Z"/>
    <path class="cls-6" d="m264.14,433.53s0-.03.02-.03c.16-.03.11-.16.11-.25,0-4.57,0-9.14,0-13.7,0-.09.05-.22-.11-.26-.01-.01-.02-.03-.02-.05-.07-.14-.2-.08-.31-.08-1.08,0-2.16,0-3.23,0q-.42,0-.42-.43c0-1.44,0-2.89,0-4.33,0-.11.04-.23-.05-.33,0-.32,0-.63,0-.95.17-.05.11-.19.11-.29,0-.16.06-.23.23-.22.05,0,.1,0,.16,0,5.55,0,11.11,0,16.66,0,.32,0,.4.08.4.4-.02,1.71,0,3.42-.01,5.12,0,.37.11.72.06,1.09-1.21,0-2.43.02-3.64,0-.3,0-.39.07-.39.38.01,4.51,0,9.03.01,13.54,0,.12-.05.25.05.36.01.01.02.03.03.04,0,.02-.01.04-.02.05.03,0,.05.02.08.02,1.18,0,2.37,0,3.55,0,.27,0,.33.08.33.34,0,1.94-.01,3.88,0,5.82,0,.31-.07.4-.4.4-5.53-.01-11.07,0-16.6,0-.12,0-.25-.04-.37.04-.05,0-.09,0-.14,0-.04-.01-.08-.03-.11-.04,0-1.41-.01-2.82-.01-4.22,0-.56,0-1.13.01-1.69.17-.03.13-.18.12-.28-.04-.3.1-.36.37-.36,1.07.01,2.13,0,3.2,0,.11,0,.26.07.33-.09Z"/>
    <path class="cls-19" d="m260.38,440.21c.11-.08.24-.04.37-.04,5.53,0,11.07,0,16.6,0,.33,0,.4-.09.4-.4-.01-1.94-.01-3.88,0-5.82,0-.26-.07-.34-.33-.34-1.18.01-2.37,0-3.55,0-.03,0-.05-.01-.08-.02,0-.02.01-.04.02-.05,1.24,0,2.47,0,3.71,0,.18,0,.29,0,.29.24,0,2.11,0,4.21,0,6.32,0,.03,0,.06-.01.09-.16,0-.31.01-.47.01-5.54,0-11.08,0-16.61,0-.1,0-.21,0-.31-.01Z"/>
    <path class="cls-19" d="m260.13,440.17s.08.03.11.04c-.04,0-.07.01-.11.02,0-.02,0-.04,0-.06Z"/>
    <path class="cls-19" d="m260.13,414.06c.09.1.05.22.05.33,0,1.44,0,2.89,0,4.33q0,.43.42.43c1.08,0,2.16,0,3.23,0,.11,0,.24-.05.31.08-1.21,0-2.43-.01-3.64,0-.29,0-.39-.05-.39-.37.02-1.6.01-3.21.02-4.81Z"/>
    <path class="cls-19" d="m264.14,433.53c-.07.16-.22.09-.33.09-1.07,0-2.13.01-3.2,0-.28,0-.41.06-.37.36.01.1.06.24-.12.28,0-.23,0-.46,0-.7,1.22,0,2.43,0,3.65-.01.13,0,.25-.01.38-.02Z"/>
    <path class="cls-13" d="m325.77,426.34c0,.57,0,1.14,0,1.72,0,.06,0,.13-.06.17,0-.56,0-1.12,0-1.69,0-.07-.01-.15.07-.19Z"/>
  </g>
  <g>
    <path class="cls-6" d="m334.88,300.02c-.09.35-.09.71-.13,1.07-.06.21-.1.42-.1.64,0,.04,0,.07-.01.11-.14.44-.23.88-.32,1.33-.19.79-.42,1.57-.75,2.32-.3.67-.62,1.32-1.01,1.94-.47.76-1.08,1.39-1.73,1.98-1.21,1.09-2.61,1.84-4.14,2.34-.57.19-1.12.46-1.74.49-.7.12-1.39.3-2.1.38-.08,0-.14.04-.17.11-.34-.03-.67.04-1.01.08-.09,0-.17-.01-.26-.02-.28,0-.56,0-.85,0-.55.02-1.1-.04-1.66.03-.48.05-.95-.06-1.42-.12-.97-.12-1.92-.32-2.85-.61-.88-.27-1.73-.63-2.56-1.04-.9-.45-1.73-.99-2.52-1.6-.82-.63-1.48-1.4-2.05-2.25-.79-1.17-1.37-2.43-1.72-3.79-.18-.7-.35-1.41-.42-2.14.09-.09.04-.2.03-.3-.13-.97-.12-1.94-.11-2.91,0-.68.12-1.35.12-2.03,0-.06,0-.12,0-.18.08-.08.08-.16.01-.25.13-1.02.29-2.03.66-3,.18-.48.35-.96.57-1.43.56-1.18,1.31-2.21,2.22-3.14.76-.78,1.62-1.43,2.58-1.91.67-.33,1.36-.6,2.07-.86.59-.22,1.19-.37,1.79-.57.24-.08.53-.16.81-.16.38-.03.76-.1,1.14-.18.02,0,.04,0,.06-.01.48-.04.96-.08,1.45-.12.92,0,1.85,0,2.77,0,1.01.07,2.01.22,3,.45,1.03.24,2.03.57,2.98,1,1.13.5,2.18,1.14,3.16,1.91.93.73,1.66,1.62,2.29,2.59.42.65.67,1.39.92,2.13.43,1.29.76,2.59.88,3.95.02.19.05.37.05.56.11,1.07.06,2.14.06,3.21Zm-10.13-3.83s-.03,0-.05,0c-.06-.85-.18-1.68-.4-2.5-.18-.7-.49-1.28-1.07-1.72-.86-.65-1.87-.8-2.9-.87-.9-.06-1.75.16-2.58.46-1.06.38-1.66,1.21-1.92,2.28-.18.77-.17,1.57-.25,2.36-.08.61-.07,1.22-.05,1.83,0,.06,0,.12,0,.18-.04.67-.03,1.35,0,2.02-.04.38.05.75.12,1.12,0,.13.01.25.02.38.02.04.03.08.05.12-.04.43.09.84.18,1.25.23.96.68,1.79,1.6,2.26.63.33,1.32.51,2.04.52.44.12.88.09,1.32,0,.56-.11,1.12-.22,1.66-.42,1.13-.42,1.67-1.29,1.93-2.41.19-.81.15-1.64.25-2.46.09-.01.12-.07.12-.16,0-.7-.01-1.39-.02-2.09,0-.05,0-.11,0-.16.06-.63.02-1.26.02-1.9,0-.03-.04-.07-.06-.1Z"/>
    <path class="cls-6" d="m278.24,293.6c0-.06,0-.12,0-.18,0-.42.07-.85-.04-1.27,0-.04,0-.08,0-.12.2-.29.15-.63.17-.95.12-.87.45-1.68.86-2.45.56-1.05,1.38-1.84,2.36-2.5.66-.45,1.37-.8,2.12-1.07.58-.21,1.16-.39,1.76-.52.76-.16,1.53-.24,2.3-.3.69,0,1.38,0,2.07,0h.25c.5.06,1.01.12,1.51.18.19.02.37.05.56.07.4.08.8.17,1.2.25.98.18,1.88.57,2.75,1.03.41.22.81.45,1.21.67.11.11.24.07.37.06.1-.08.06-.19.07-.29,0-.31.01-.63,0-.94,0-.2.05-.28.26-.28,1.76,0,3.52,0,5.29,0,.1,0,.22-.03.24.13-.1.11-.06.24-.06.36,0,2.94,0,5.88,0,8.82-.15,0-.29,0-.44,0-1.73,0-3.45,0-5.18,0-.02,0-.03,0-.05,0-.76-1.09-1.74-1.93-2.92-2.55-.96-.51-2.01-.79-3.06-1.04-.12-.03-.24-.05-.36-.08-.13-.19-.36-.07-.51-.18-.37-.14-.75-.02-1.12-.07-.28,0-.56-.02-.84,0-.25.01-.51-.07-.75.06-.45.04-.86.14-1.21.46-.54.48-.45,1.07.11,1.51.38.29.82.45,1.27.54.73.15,1.42.43,2.14.61,1.12.28,2.23.63,3.34.96,1.11.33,2.22.68,3.34.98,1.46.4,2.79,1.04,3.95,2.01.99.83,1.84,1.77,2.43,2.94.3.6.54,1.22.68,1.88.02.21-.07.45.12.63,0,.04,0,.08,0,.12,0,.65,0,1.3,0,1.95-.02.15-.04.3-.06.45-.07.72-.3,1.41-.6,2.06-.58,1.3-1.45,2.38-2.6,3.22-.55.4-1.15.73-1.79.98-.58.23-1.15.48-1.75.62-.33.08-.68.15-1.01.23-.12-.03-.25-.04-.37-.01-.41.1-.83.1-1.25.15-.74.1-1.49.02-2.23.05-.17,0-.33,0-.5-.01-.56-.15-1.12-.25-1.7-.24-.77-.1-1.51-.3-2.24-.54-1.18-.38-2.33-.85-3.39-1.53-.07-.05-.17-.13-.29-.06-.02,0-.04-.01-.06-.02-.1.08-.06.19-.06.29,0,.37-.02.73,0,1.1.02.28-.06.38-.36.37-1.78-.02-3.56-.01-5.34,0-.28,0-.35-.07-.35-.35,0-3.24,0-6.47,0-9.71.09,0,.19-.02.28-.02,1.75,0,3.51,0,5.26,0,.57,1.15,1.44,2.02,2.51,2.71.83.53,1.74.89,2.68,1.16.41.12.81.23,1.22.29.05.02.09.04.14.05.55.12,1.12.09,1.68.09.57,0,1.15.03,1.7-.14.54-.07,1.06-.22,1.55-.45.5-.23.53-.9.1-1.25-.29-.24-.64-.37-.98-.48-1.34-.43-2.69-.82-4.03-1.22-1.19-.36-2.38-.69-3.57-1.07-.96-.3-1.94-.54-2.87-.94-1.43-.6-2.71-1.41-3.8-2.52-.95-.97-1.64-2.08-1.98-3.39-.11-.41-.17-.83-.17-1.26,0-.02,0-.05,0-.07Z"/>
    <path class="cls-19" d="m291.28,316.83c.86-.1,1.71-.21,2.57-.26.48-.03.96-.06,1.44-.1.03,0,.06-.05.08-.08.02-.02.04-.04.07-.06.06-.04.06-.09.03-.14,0-.12,0-.24,0-.36.03-.17.03-.34-.01-.52.03-.13.13-.11.22-.11.2,0,.4.01.59,0,.24-.02.35.07.35.31-.01.13,0,.27-.03.4-.1.49-.02.58.47.54,1.04.09,2.08.18,3.12.3,1.22.13,2.42.38,3.64.57.16.02.24-.02.29-.16.21-.6.61-1.11.83-1.7.07-.19.19-.28.4-.26.2.02.4.01.6,0,.21-.01.27.06.2.25-.14.36-.29.72-.44,1.08-.12.29-.22.58-.36.85-.11.23,0,.32.18.37.62.16,1.23.38,1.84.6.8.28,1.58.59,2.37.88.19.07.39.14.58.22.2.09.38.01.52-.16.69-.82,1.38-1.64,2.01-2.5.33-.45.63-.93.95-1.39.07-.1.15-.2.29-.2.35,0,.71,0,1.09,0-.6,1.12-1.31,2.12-2.06,3.09-.4.52-.82,1.04-1.27,1.53-.13.14-.14.29.07.41.82.47,1.64.94,2.46,1.41.02.01.04.02.06.03.58.33.65.32,1.17-.13.65-.57,1.29-1.15,1.9-1.77.7-.71,1.39-1.44,2.02-2.22.57-.7,1.11-1.43,1.66-2.14.02-.02.03-.05.05-.07,0,0,0,0,0,0,.37-.18.75-.06,1.13-.04.03,0,.07.07.1.11-.81,1.2-1.65,2.37-2.6,3.47-.94,1.08-1.93,2.11-3,3.06-1.17,1.04-2.41,1.97-3.72,2.82-1.42.93-2.91,1.73-4.47,2.38-.78.33-1.57.67-2.37.93-.44.14-.9.28-1.34.42-.59.19-1.2.3-1.8.46-.37.1-.77.25-1.17.24-.49,0-.96.16-1.44.21-.03,0-.05.06-.08.09-.86.07-1.71.14-2.57.21-.08,0-.17-.02-.25-.02-1.76.06-3.51.02-5.26-.17-.24-.03-.48-.15-.73-.02-.81-.15-1.61-.31-2.42-.47-1.13-.23-2.23-.55-3.32-.92-.81-.27-1.6-.59-2.4-.92-.98-.41-1.91-.9-2.83-1.39-1.01-.54-1.97-1.16-2.91-1.83-1.03-.74-2.01-1.54-2.95-2.39-.98-.89-1.91-1.82-2.77-2.83-.81-.95-1.6-1.91-2.26-2.97-.09-.15-.36-.28-.25-.45.1-.16.37-.06.56-.1.46-.08.74.13.99.5.91,1.36,1.98,2.59,3.12,3.76.86.88,1.77,1.71,2.75,2.45.14.11.26.11.4.03.9-.52,1.8-1.05,2.7-1.58.18-.11.18-.41,0-.62-.48-.59-.96-1.19-1.43-1.78-.66-.83-1.26-1.7-1.78-2.62.42-.22.84-.06,1.26,0,0,0,0,0,0,0,.02.02.04.05.06.07.42.65.88,1.27,1.33,1.89.51.7,1.1,1.33,1.65,2.01.28.34.34.34.74.16.8-.36,1.64-.63,2.46-.95.61-.23,1.27-.31,1.85-.64.12-.07.28-.05.42-.09.22-.06.31-.2.21-.43-.23-.5-.44-1-.69-1.49-.1-.19-.13-.4-.21-.6.02-.02.04-.04.06-.06,0,0,0,0,0,0,.02,0,.04,0,.06,0,.06,0,.12,0,.18-.01.21.04.43.03.64,0,.35,0,.32.34.43.52.27.44.47.93.71,1.39.06.12.14.23.33.19.42-.1.85-.07,1.26-.24.15-.06.35-.02.53-.03.07,0,.14,0,.19-.06.06,0,.12-.02.18-.02.26.03.51-.04.77-.09Zm5.84.82c-.15.01-.31-.08-.44.06-.08.09-.05.2-.06.3,0,1.59-.01,3.19,0,4.78,0,.53-.05,1.06.05,1.59.02.02.04.05.06.07.01.01.03.04.04.04.67.11,1.35.17,2.01.31.33.07.63.03.81-.33.09-.17.23-.31.35-.47.66-.86,1.26-1.76,1.86-2.66.34-.51.64-1.03.94-1.56.19-.35.43-.68.56-1.06.05-.14.08-.28-.12-.32-.26-.05-.52-.09-.79-.14-.03-.03-.05-.08-.08-.09-.77-.14-1.54-.32-2.33-.33-.14,0-.29-.01-.43-.02-.31-.12-.64-.03-.96-.1-.14,0-.29-.01-.43-.02-.35-.12-.71-.07-1.07-.06Zm-1.68.05h0c-.59-.13-1.18-.07-1.77.01-.02,0-.04.01-.07.02-.3,0-.59.02-.88.1-.58-.03-1.14.12-1.7.18-.41,0-.8.06-1.19.19-.23.13-.5.1-.75.19-.3.11-.33.16-.18.43.14.24.28.48.41.73.45.86.96,1.68,1.5,2.48.61.9,1.23,1.79,1.95,2.62.06.07.07.17.2.15.27-.05.55-.08.82-.12.44-.06.9-.04,1.33-.17.12,0,.25.02.32-.12.04-.01.06-.03.04-.08,0-.12,0-.25,0-.37.06-.89.02-1.77.02-2.66,0-.75-.01-1.5-.02-2.25,0-.19,0-.37,0-.56,0-.26.06-.52-.04-.77Zm2.57,8.12c-.02-.06-.07-.1-.13-.11-.4-.04-.79-.12-1.19-.07-.38,0-.75,0-1.13,0-.11-.01-.23-.06-.33.05-.35.05-.69.05-1.04.11-1.05.19-2.08.42-3.06.84-.53.22-1.02.53-1.51.82-.08.05-.18.13-.15.25.02.1.09.17.19.19.64.16,1.28.3,1.94.37.78.07,1.54.24,2.32.28.99.05,1.98.05,2.97.03.09-.02.18-.05.26-.05.75,0,1.5-.06,2.25-.14.43.02.86-.03,1.27-.17.63,0,1.24-.16,1.84-.31.09-.02.16-.06.16-.16,0-.1.03-.21-.09-.28-.1-.06-.19-.12-.29-.18-.74-.41-1.5-.8-2.32-1.05-.64-.2-1.29-.34-1.95-.42Zm-8.34.14c.19-.02.33-.07.47-.14.38-.17.75-.35,1.13-.5.27-.11.34-.2.16-.43-.43-.56-.83-1.16-1.23-1.74-.58-.84-1.12-1.7-1.64-2.57-.32-.54-.62-1.09-.94-1.63-.08-.15-.19-.19-.39-.16-.21.04-.39.12-.59.17-1.34.36-2.63.83-3.89,1.42-.26.12-.27.29-.08.5.22.23.44.44.68.64.59.49,1.14,1.02,1.74,1.49,1.16.91,2.35,1.79,3.64,2.51.3.17.59.39.92.43Zm10.98-.79c-.01.13.06.18.19.22.39.13.79.26,1.16.45.24.12.41.1.63,0,.82-.42,1.6-.92,2.36-1.42,1.59-1.05,3.05-2.25,4.37-3.62.19-.2.16-.38-.11-.47-.65-.24-1.27-.54-1.93-.77-.79-.28-1.61-.47-2.42-.7-.14-.04-.27-.03-.37.14-.51.87-1.03,1.73-1.55,2.59-.61,1-1.28,1.96-1.96,2.92-.14.2-.38.36-.38.66Zm10.2-4.07c-.15-.01-.22.09-.3.17-.44.4-.88.8-1.32,1.2-.71.64-1.4,1.32-2.18,1.89-1.03.75-2.07,1.47-3.15,2.15-.25.16-.25.32-.05.46.27.2.47.48.95.33.85-.25,1.7-.53,2.53-.85,1.08-.41,2.13-.88,3.14-1.45,1.06-.59,2.13-1.16,3.09-1.9.29-.22.28-.42-.05-.61-.72-.41-1.44-.82-2.17-1.22-.15-.08-.33-.11-.49-.17Zm-29.61.08c-.14-.02-.27.03-.39.09-.72.36-1.41.75-2.08,1.18-.15.1-.34.13-.33.38.01.25.23.33.37.47.04.04.11.02.17.06.76.55,1.58,1,2.38,1.47,1.13.67,2.34,1.16,3.54,1.67.64.27,1.31.48,1.98.69.42.13.85.27,1.27-.08.3-.25.34-.47,0-.65-1-.56-1.94-1.21-2.86-1.89-1.32-.99-2.59-2.07-3.73-3.27-.09-.1-.19-.16-.33-.13Z"/>
    <path class="cls-19" d="m269.69,281.47c-.08,0-.16-.01-.25-.02.01-.02,0-.04-.01-.05.74-1.24,1.65-2.36,2.58-3.46.7-.83,1.45-1.6,2.23-2.35.75-.72,1.56-1.38,2.39-2.02,1.17-.9,2.4-1.71,3.69-2.44.68-.38,1.37-.74,2.08-1.07.85-.4,1.73-.75,2.61-1.08.73-.27,1.47-.51,2.21-.72.82-.24,1.67-.39,2.5-.58,1.06-.25,2.13-.4,3.21-.48,1.42-.11,2.85-.26,4.28-.09.39.05.79.05,1.18.07.51.06,1.01.11,1.52.17,1.26.13,2.5.38,3.73.68,1.1.27,2.19.6,3.26.99,1.17.42,2.31.93,3.42,1.5.92.47,1.81.98,2.67,1.54,1.26.81,2.45,1.71,3.58,2.68.8.69,1.58,1.41,2.3,2.18.88.95,1.76,1.92,2.5,2.99.3.44.63.86.95,1.29,0,.21-.15.19-.28.2-.33.03-.66-.04-.99-.07-.7-.98-1.44-1.93-2.23-2.84-.89-1.03-1.89-1.94-2.91-2.84-.32-.28-.66-.53-1-.78-.17-.12-.35-.11-.52,0-.7.46-1.43.86-2.15,1.28-.13.07-.26.12-.39.19-.23.13-.23.27-.12.46.06.11.11.23.2.31.45.39.77.89,1.13,1.35.63.83,1.18,1.72,1.76,2.58.03.04.04.1.07.13.27.24.09.29-.13.32-.25-.03-.51-.03-.76,0-.18,0-.24-.14-.33-.26-.94-1.33-1.89-2.66-3.01-3.85-.2-.22-.39-.22-.63-.12-.66.27-1.32.51-1.99.76-.6.23-1.23.4-1.83.64-.25.1-.52.19-.79.24-.31.06-.35.22-.28.49.12.46.37.87.55,1.31.08.2.17.39.26.59,0,.06,0,.12-.01.18-.31,0-.62,0-.94.01-.02,0-.05,0-.07,0-.13,0-.17-.1-.22-.2-.27-.55-.53-1.11-.8-1.66-.09-.18-.21-.24-.42-.21-.81.13-1.61.32-2.42.44-.99.15-1.98.25-2.98.3-.17,0-.34.08-.52.06-.24,0-.48,0-.72,0-.27,0-.39.1-.33.38,0,.04,0,.08,0,.11-.04.15-.04.3,0,.45,0,.08-.02.15-.03.23-.25.03-.49.06-.74.1-.1,0-.2-.01-.31-.02-.01-.07-.06-.1-.12-.13,0-.25-.01-.5-.01-.75,0-.24-.12-.37-.36-.37-.81.02-1.62-.04-2.43-.13-.75-.08-1.49-.16-2.23-.28-.74-.12-1.48-.27-2.22-.4-.12-.02-.18.03-.25.14-.26.47-.49.95-.69,1.44-.08.2-.17.4-.37.52-.24,0-.47-.02-.71-.01-.2,0-.29-.07-.25-.27.13-.56.47-1.03.68-1.55.06-.16.07-.32.13-.47.05-.14-.08-.14-.18-.18-.7-.23-1.4-.45-2.1-.69-.87-.31-1.74-.63-2.6-.97-.24-.1-.41-.09-.6.12-.78.86-1.51,1.75-2.19,2.69-.32.45-.58.94-.99,1.33-.27,0-.53.01-.8,0-.1,0-.25.03-.23-.16.39-.77.86-1.49,1.36-2.18.55-.77,1.14-1.52,1.77-2.23.17-.2.14-.32-.1-.46-.91-.51-1.84-.96-2.7-1.55-.22-.15-.44,0-.62.14-.68.55-1.33,1.14-1.97,1.74-.9.86-1.74,1.78-2.53,2.74-.47.57-.91,1.16-1.35,1.76-.09.13-.17.18-.32.18-.23,0-.46,0-.69,0-.02,0-.05,0-.07,0Zm26.92-9.14l-.07.04v.02c-.1.38-.07.76-.04,1.14,0,1.02-.01,2.04-.01,3.07,0,.32-.04.65.03.97,0,.12,0,.24-.01.36,0,.37-.07.75.07,1.12.1,0,.19,0,.29.01.34.01.68.04,1.01-.06.04,0,.08,0,.12,0,1.11-.02,2.2-.13,3.28-.36.51-.09,1.01-.17,1.5-.33.34-.11.28-.26.16-.47-.6-1.12-1.26-2.19-1.98-3.24-.56-.83-1.17-1.62-1.78-2.41-.09-.12-.2-.18-.35-.15-.72.11-1.45.1-2.16.28-.03-.02-.06-.01-.08.02h0Zm-1.4,6.67s.02-.03.02-.05c0,0,0,0,0,0,.02,0,.04,0,.05-.02.08-.05.05-.13.05-.2,0-1.7.02-3.39,0-5.09,0-.43.04-.87-.1-1.3h0c-.09-.19-.25-.1-.39-.1-.06,0-.12,0-.18,0-.07,0-.13,0-.2-.01-.19-.02-.37-.05-.56-.07-.18-.1-.38-.12-.58-.1-.04,0-.07,0-.11,0-.13-.07-.25-.04-.38,0-.15-.01-.29-.03-.39.12-.58.79-1.18,1.55-1.74,2.35-.72,1.02-1.37,2.09-1.97,3.19-.25.44-.14.67.34.76.12.02.24.04.36.06.66.18,1.34.24,2.02.32h.24c.49.2,1,.19,1.51.19h0c.36.07.73.06,1.09.06.3,0,.6.06.89-.07Zm10.04-9.31c-.24-.19-.52-.26-.83-.24-.27-.05-.73.15-.85.39-.08.16-.09.32.11.43.15.08.31.15.45.25.97.63,1.95,1.26,2.87,1.97,1.14.88,2.21,1.83,3.25,2.83.29.28.43.31.78.11.52-.29,1.04-.59,1.56-.89.24-.14.48-.27.71-.43.18-.12.25-.25,0-.42-.54-.38-1.1-.73-1.66-1.08-.64-.4-1.29-.77-1.96-1.12-.61-.33-1.25-.6-1.89-.87-.84-.36-1.69-.68-2.56-.93Zm-11.9,1.21c.5.16,1.02.18,1.54.21.81.06,1.62.08,2.43-.09.28-.04.56-.06.83-.11.79-.15,1.55-.37,2.3-.67.65-.26,1.27-.58,1.85-.98.1-.07.12-.16.12-.26,0-.16-.13-.1-.2-.13-.22-.08-.44-.1-.67-.13-1.04-.18-2.08-.4-3.15-.43-.04-.12-.15-.08-.24-.09-1.06-.12-2.13-.07-3.19-.07-.58,0-1.17.02-1.74.11-.25.02-.5.04-.75.07-.11-.02-.22,0-.31.07-.04,0-.08,0-.12.01-.24,0-.47.01-.7.11-.04,0-.08,0-.12.01-.04-.01-.06.01-.08.05-.58.1-1.16.14-1.72.32-.1.03-.21.03-.22.17,0,.14.09.21.18.27.97.63,2.01,1.1,3.13,1.41.28.08.56.15.84.18Zm8.71-.07c-.13.02-.21.01-.31.06-.39.19-.79.35-1.19.52-.26.12-.3.22-.12.44.64.79,1.19,1.65,1.74,2.49.72,1.09,1.4,2.2,2.04,3.34.1.18.23.24.44.18.65-.16,1.3-.33,1.93-.55.85-.29,1.69-.61,2.5-1.01.25-.12.26-.3.06-.51-.23-.24-.52-.43-.75-.66-.82-.85-1.78-1.52-2.71-2.23-.82-.63-1.72-1.13-2.6-1.66-.33-.2-.69-.36-1.04-.41Zm-15.05,7.12c.22-.04.38-.1.5-.31.36-.65.74-1.28,1.11-1.91.48-.82.97-1.62,1.53-2.39.35-.48.71-.97,1.05-1.46.12-.18.14-.33-.13-.43-.33-.12-.65-.27-.96-.43-.37-.19-.71-.21-1.06.05-.26.19-.54.34-.82.5-.97.56-1.87,1.21-2.76,1.89-.91.7-1.78,1.45-2.62,2.23-.55.51-.55.67.16.93,1.1.41,2.2.82,3.33,1.13.23.06.44.16.66.2Zm.34-8.51c-.21.08-.48.06-.74.16-.58.23-1.16.47-1.75.66-.85.28-1.65.66-2.45,1.04-.93.45-1.85.94-2.73,1.5-.48.31-.98.57-1.39.97-.19.19-.17.32.06.45.76.42,1.52.83,2.27,1.27.4.23.53.2.85-.12.85-.87,1.79-1.66,2.75-2.41,1.22-.96,2.49-1.85,3.83-2.64.21-.12.2-.32.11-.42-.21-.22-.42-.46-.81-.48Z"/>
    <path class="cls-19" d="m276.84,291.16c-.02.06-.06.1-.12.12.01-.02.02-.04.01-.06.05-.37-.07-.72-.06-1.09.01-1.71,0-3.42.01-5.12,0-.32-.08-.4-.4-.4-5.55.01-11.11,0-16.66,0-.05,0-.11,0-.16,0-.16-.01-.23.05-.23.22,0,.1.06.24-.11.29,0-.21,0-.42-.01-.63,0,0,0,0,0,0,5.58,0,11.17,0,16.75,0,.22,0,.44.03.65.03.26,0,.27.1.27.3,0,1.83,0,3.67,0,5.5,0,.28-.03.56.04.84Z"/>
    <path class="cls-19" d="m263.13,305.31c0-.08.02-.17.02-.25,0-4.3,0-8.61,0-12.91,0-.08-.01-.17-.02-.25.01-.02.01-.04,0-.06,0-.04,0-.09,0-.13.01-.02.01-.04,0-.06,0-.04,0-.09,0-.13.02-.08.02-.16,0-.25h.02s.02,0,.02,0c.16.03.11.16.11.26,0,4.57,0,9.14,0,13.7,0,.09.05.22-.11.25-.02,0-.04,0-.06,0,.05-.05.05-.11.03-.18Z"/>
    <path class="cls-13" d="m276.84,291.16c-.07-.28-.04-.56-.04-.84,0-1.83,0-3.67,0-5.5,0-.21,0-.3-.27-.3-.21,0-.43-.03-.65-.03-5.58,0-11.17,0-16.75,0,0-.02,0-.05,0-.07,5.65,0,11.31,0,16.96,0,.26,0,.52-.05.78.02,0,2.16,0,4.32,0,6.48,0,.08.02.17-.03.24Z"/>
    <path class="cls-19" d="m303.54,285.12c-.02-.16-.14-.13-.24-.13-1.76,0-3.52,0-5.29,0-.21,0-.27.08-.26.28.01.31,0,.63,0,.94,0,.1.04.21-.07.29.02-.5.03-1.01,0-1.51.02-.02.05-.05.07-.07.12,0,.25.02.37.02,1.36,0,2.72,0,4.07,0,.45,0,.9-.01,1.35-.02.02.02.04.05.06.07,0,.12-.02.25-.02.37,0,1.75,0,3.49.01,5.24,0,1.23,0,2.47.01,3.7-.02.03-.04.06-.06.09-1.89-.05-3.78-.03-5.68-.01,0,0-.01,0-.01,0,0-.02,0-.04,0-.06,1.73,0,3.45,0,5.18,0,.15,0,.29,0,.44,0,.09-.07.06-.17.06-.26,0-2.97,0-5.94,0-8.92Z"/>
    <path class="cls-13" d="m276.72,291.27s-.04.03-.06.04c-1.25-.03-2.5-.03-3.74,0-.22,0-.13.18-.13.28,0,.86,0,1.72,0,2.58,0,3.64,0,7.29,0,10.93,0,.13.01.25.02.38,0,.01-.02.02-.03.03-.11-.11-.05-.24-.05-.36,0-4.51,0-9.03-.01-13.54,0-.31.09-.38.39-.38,1.21.01,2.43,0,3.64,0,0,.02,0,.04-.01.06Z"/>
    <path class="cls-19" d="m278.5,302.11c0,3.24,0,6.47,0,9.71,0,.28.07.35.35.35,1.78-.01,3.56-.01,5.34,0,.3,0,.37-.1.36-.37-.02-.37,0-.73,0-1.1,0-.1-.04-.21.06-.29,0,.61,0,1.21,0,1.82-.02,0-.04,0-.05.01-.16,0-.31-.02-.47-.02-1.57,0-3.14,0-4.71,0-.29,0-.58.01-.88.02-.02,0-.03-.02-.04-.03,0-3.07,0-6.13,0-9.2,0-.3,0-.61-.01-.91,0,0,0,0,0,0,.02,0,.04,0,.06,0Z"/>
    <path class="cls-13" d="m276.81,312.24c-.11.09-.24.05-.36.05-5.67,0-11.33,0-17,0-.12,0-.25.03-.36-.06h.02s.02,0,.02,0c.04,0,.07-.01.11-.02.05,0,.09,0,.14,0,.1,0,.21.01.31.01,5.54,0,11.08,0,16.61,0,.16,0,.31,0,.47-.01.01.01.02.02.03.03Z"/>
    <path class="cls-13" d="m259.12,284.49c0,.21,0,.42.01.63,0,.32,0,.63,0,.95,0,1.6,0,3.21-.02,4.81,0,.32.09.37.39.37,1.21-.01,2.43,0,3.64,0,0,.02,0,.03.02.05h-.02s-.02,0-.02,0c-.03,0-.06.01-.1.02-.47,0-.93,0-1.4,0-.71,0-1.41,0-2.12.01q-.51-.04-.51-.55c0-1.99,0-3.97,0-5.96,0-.11-.07-.26.11-.32Z"/>
    <path class="cls-13" d="m272.8,305.48c1.26,0,2.51.01,3.77,0,.23,0,.31.06.31.3,0,2.06,0,4.13,0,6.19,0,.09.03.19-.05.27-.01-.01-.02-.02-.03-.03,0-.03.01-.06.01-.09,0-2.11,0-4.21,0-6.32,0-.23-.11-.25-.29-.24-1.24,0-2.47,0-3.71,0,0-.02-.02-.03-.03-.04,0,0,.02-.02.03-.03Z"/>
    <path class="cls-13" d="m278.45,302.11c0,.3.01.61.01.91,0,3.07,0,6.13,0,9.2-.12-.07-.07-.19-.07-.28,0-3.18,0-6.36,0-9.54,0-.1-.05-.21.06-.29Z"/>
    <path class="cls-13" d="m303.61,294.3c0-1.23,0-2.47-.01-3.7,0-1.75,0-3.49-.01-5.24,0-.12.01-.25.02-.37.12.24.06.49.06.73,0,2.77,0,5.54,0,8.31,0,.09.03.19-.06.27Z"/>
    <path class="cls-13" d="m305.41,296.05c0,.68-.12,1.35-.12,2.03,0,.97-.01,1.94.11,2.91.01.1.05.21-.03.3-.16-.29-.08-.61-.11-.92-.15-1.36-.05-2.73.06-4.09,0-.09.03-.16.1-.22Z"/>
    <path class="cls-13" d="m291.65,329.46c.25-.13.49,0,.73.02,1.75.19,3.5.23,5.26.17.08,0,.17.01.25.02-.33.12-.68.02-1.02.07-.5,0-.99,0-1.49,0-.92-.03-1.83-.06-2.74-.16-.33-.03-.66-.09-.99-.13Z"/>
    <path class="cls-13" d="m334.88,300.02c0-1.07.05-2.14-.06-3.21.18.15.16.38.17.57.02.77,0,1.55,0,2.32,0,.12-.03.23-.12.31Z"/>
    <path class="cls-13" d="m278.5,312.24c.29,0,.58-.02.88-.02,1.57,0,3.14,0,4.71,0,.16,0,.31.01.47.02-.07.07-.16.04-.24.04-1.86,0-3.72,0-5.58,0-.08,0-.17.03-.24-.05Z"/>
    <path class="cls-13" d="m303.55,284.92c-.45,0-.9.02-1.35.02-1.36,0-2.72,0-4.07,0-.12,0-.25-.01-.37-.02.08-.08.18-.05.27-.05,1.75,0,3.51,0,5.26,0,.09,0,.19-.03.26.05Z"/>
    <path class="cls-13" d="m297.88,294.38c1.89-.02,3.78-.04,5.68.01-.07.06-.16.04-.24.04-1.72,0-3.45,0-5.17,0-.09,0-.19.03-.27-.05Z"/>
    <path class="cls-13" d="m278.5,302.11s-.04,0-.06,0c.02-.03.05-.06.07-.09.11,0,.23.02.34.02,1.73,0,3.45,0,5.18,0,0,.02,0,.04,0,.07-1.75,0-3.51,0-5.26,0-.09,0-.19.01-.28.02Z"/>
    <path class="cls-13" d="m292.78,312.81c.74-.03,1.49.05,2.23-.05.41-.06.84-.05,1.25-.15.13-.03.25-.02.37.01-.32.13-.67.12-1.01.16-.9.11-1.81.11-2.72.08-.04,0-.07-.03-.11-.05Z"/>
    <path class="cls-13" d="m293.98,306.26c-.56.17-1.14.14-1.7.14-.56,0-1.12.02-1.68-.09-.05-.01-.1-.03-.14-.05.71,0,1.41.09,2.12.07.47-.01.94-.12,1.41-.06Z"/>
    <path class="cls-13" d="m259.12,305.56s0-.04-.01-.06c.17,0,.35-.02.52-.02,0,0,.03,0,.03,0h.03c.97,0,1.94,0,2.91,0,.06,0,.11,0,.17,0,.09,0,.18,0,.27,0,.02,0,.04.02.07.02.02,0,.04,0,.06,0-.01,0-.02.02-.02.03-.13,0-.25.02-.38.02-1.22,0-2.43,0-3.65.01Z"/>
    <path class="cls-13" d="m322.67,312.73c.04-.07.09-.1.17-.11.71-.08,1.4-.25,2.1-.38-.29.23-.66.21-.99.28-.42.1-.86.14-1.29.2Z"/>
    <path class="cls-13" d="m290.58,312.55c.58,0,1.14.09,1.7.24-.57-.03-1.14-.07-1.7-.24Z"/>
    <path class="cls-19" d="m321.54,284.23c-.92,0-1.85,0-2.77,0,0-.02.01-.03.01-.05,0,0,0,0,0,0,.81,0,1.63,0,2.44,0,.1.03.22-.03.32.06Z"/>
    <path class="cls-19" d="m318.91,312.83c.55-.08,1.1-.02,1.66-.03.28,0,.56,0,.85,0,0,.02-.01.03-.01.05,0,0,.01,0,.01,0-.82,0-1.63.01-2.45.02-.02-.01-.03-.02-.05-.03Z"/>
    <path class="cls-13" d="m304.37,305.5c.02-.15.04-.3.06-.45.06-.1.05-.22.05-.33,0-.51,0-1.02,0-1.52.02.03.07.06.07.09.02.69.06,1.39-.05,2.08-.01.07-.05.11-.11.13Z"/>
    <path class="cls-13" d="m300.46,329.47s.05-.08.08-.09c.48-.05.95-.21,1.44-.21-.29.19-.63.13-.95.22-.18.05-.38.05-.57.08Z"/>
    <path class="cls-13" d="m321.22,284.17c-.81,0-1.63,0-2.44,0,.44-.13.89-.07,1.33-.07.37,0,.75-.06,1.11.07Z"/>
    <path class="cls-13" d="m291.59,284.41c-.5-.06-1.01-.12-1.51-.18.48-.08.94.04,1.41.07.06,0,.08.06.1.11Z"/>
    <path class="cls-13" d="m334.32,303.17c.09-.45.18-.9.32-1.33,0,.47-.05.93-.32,1.33Z"/>
    <path class="cls-13" d="m318.78,284.18s0,.03-.01.05c-.48.04-.96.08-1.45.12.24-.21.54-.08.81-.15.2-.06.43-.05.65-.01Z"/>
    <path class="cls-13" d="m278.12,315.31c-.42-.06-.84-.22-1.26,0-.09-.12.01-.16.09-.17.35-.04.71-.03,1.06,0,.08,0,.13.07.11.16Z"/>
    <path class="cls-13" d="m295.38,316.39s-.05.07-.08.08c-.48.04-.96.07-1.44.1.04-.12.14-.1.23-.11.43-.02.86-.04,1.3-.06Z"/>
    <path class="cls-13" d="m290.96,290.46c.15.11.39,0,.51.18-.55-.06-1.1-.11-1.65-.17.01-.01.02-.03.03-.04.37.01.74.02,1.11.03Z"/>
    <path class="cls-19" d="m289.83,284.23c-.69,0-1.38,0-2.07,0,.02-.02.04-.04.06-.07.65,0,1.3,0,1.95,0,.02.02.04.04.06.07Z"/>
    <path class="cls-13" d="m276.91,281.33c-.02.19.13.15.23.16.27,0,.53,0,.8,0-.29.15-.6.14-.91.12-.22-.01-.25-.1-.12-.27Z"/>
    <path class="cls-13" d="m293.35,284.73c-.4-.08-.8-.17-1.2-.25.38-.05.74.07,1.1.14.06.01.08.06.1.11Z"/>
    <path class="cls-13" d="m297.07,316.44c-.49.03-.57-.06-.47-.54.03-.13.02-.27.03-.4.1.16.05.33.04.49-.01.21,0,.38.28.36.06,0,.08.05.11.1Z"/>
    <path class="cls-13" d="m299.91,267.35c-.51-.06-1.01-.11-1.52-.17.48-.06.95.04,1.42.07.06,0,.09.04.1.1Z"/>
    <path class="cls-13" d="m321.04,281.33c.33.03.65.11.99.07.13-.01.29,0,.28-.2.1.12.08.23-.07.24-.38.04-.76.03-1.14-.02-.02,0-.04-.06-.06-.1Z"/>
    <path class="cls-19" d="m304.47,303.19c0,.51,0,1.02,0,1.52,0,.11,0,.23-.05.33,0-.65,0-1.3,0-1.95.01.03.03.06.04.09Z"/>
    <path class="cls-13" d="m297.69,284.98c.04.5.03,1.01,0,1.51-.13.01-.26.05-.37-.06.27.03.33-.09.33-.35,0-.37-.07-.74.04-1.11Z"/>
    <path class="cls-13" d="m322.46,315.39s-.06-.11-.1-.11c-.38-.02-.76-.14-1.13.04,0-.11.07-.15.16-.14.33,0,.67,0,1,.01.17,0,.21.08.06.2Z"/>
    <path class="cls-13" d="m317.26,284.36c-.38.08-.75.16-1.14.18.36-.2.75-.19,1.14-.18Z"/>
    <path class="cls-13" d="m278.36,291.09c-.02.32.03.66-.17.95.02-.32.04-.65.17-.95Z"/>
    <path class="cls-13" d="m288.25,290.45c.24-.14.5-.05.75-.06.28-.02.56,0,.84,0,0,.01,0,.02.02.03-.01.01-.02.03-.03.04-.52,0-1.05,0-1.57-.01Z"/>
    <path class="cls-13" d="m296.52,280.59c-.06-.28.07-.39.33-.38.24,0,.48,0,.72,0-.15.11-.32.07-.48.06-.28-.02-.48.05-.57.33Z"/>
    <path class="cls-13" d="m285.79,281.21c-.03.2.05.28.25.27.24,0,.47,0,.71.01-.3.09-.61.06-.91.03-.28-.03-.16-.19-.05-.32Z"/>
    <path class="cls-13" d="m278.2,292.15c.11.42.04.85.04,1.27-.11-.42-.03-.85-.04-1.27Z"/>
    <path class="cls-13" d="m295.74,281.48c.25-.03.49-.06.74-.1-.22.26-.49.13-.74.1Z"/>
    <path class="cls-13" d="m291.28,316.83c-.25.05-.5.12-.77.09.24-.15.51-.09.77-.09Z"/>
    <path class="cls-13" d="m334.66,301.74c0-.22.03-.43.1-.64.02.22.07.45-.1.64Z"/>
    <path class="cls-19" d="m304.42,302.98c-.19-.18-.1-.42-.12-.63.07.2.12.41.12.63Z"/>
    <path class="cls-13" d="m313.99,281.48c.26-.03.51-.03.76,0-.26.07-.51.08-.76,0Z"/>
    <path class="cls-13" d="m286.88,315.17c-.21.02-.43.03-.64,0,.21-.07.43-.08.64,0Z"/>
    <path class="cls-13" d="m295.46,315.31c.05.17.04.34.01.52-.07-.17-.07-.34-.01-.52Z"/>
    <path class="cls-13" d="m305.44,295.62c.06.09.07.17-.01.25-.09-.09-.01-.17.01-.25Z"/>
    <path class="cls-13" d="m296.51,281.15c-.04-.15-.04-.3,0-.45.08.15.08.3,0,.45Z"/>
    <path class="cls-13" d="m290.33,316.94c-.05.05-.12.07-.19.06.04-.1.09-.15.19-.06Z"/>
    <path class="cls-13" d="m305.93,281.46c0-.06,0-.12.01-.18.06.06.1.13-.01.18Z"/>
    <path class="cls-13" d="m295.31,281.33c.06.03.11.06.12.13-.08,0-.12-.05-.12-.13Z"/>
    <path class="cls-13" d="m295.47,316.19c.03.05.03.1-.03.14-.02-.05-.02-.1.03-.14Z"/>
    <path class="cls-13" d="m269.43,281.4s.02.03.01.05c-.01.01-.02.02-.04.03-.04-.04-.02-.07.02-.08Z"/>
    <path class="cls-13" d="m285.99,315.19s-.04.04-.06.06c0-.02,0-.03-.01-.05.03,0,.05,0,.08-.01Z"/>
    <path class="cls-13" d="m321.24,315.32s-.03.05-.05.07c0-.04,0-.06.05-.07Z"/>
    <path class="cls-13" d="m278.18,315.38s-.04-.05-.06-.07c.02.02.04.05.06.07Z"/>
    <path class="cls-13" d="m304.93,281.47s.05,0,.07,0c-.02.04-.04.05-.07,0Z"/>
    <path class="cls-13" d="m269.69,281.47s.05,0,.07,0c-.02.04-.04.05-.07,0Z"/>
    <path class="cls-13" d="m286.06,315.18s-.04,0-.06,0c.02-.04.03-.04.06,0Z"/>
    <path class="cls-13" d="m278.24,293.6s0,.05,0,.07c-.04-.02-.04-.05,0-.07Z"/>
    <path class="cls-13" d="m297.87,294.31s0,.04,0,.06c-.04,0-.05-.03-.05-.06.02,0,.03,0,.05,0Z"/>
    <path class="cls-19" d="m324.7,300.59c0-.12,0-.25,0-.37.07-.04.06-.1.06-.17,0-.57,0-1.14,0-1.72h.02s0,0,0,0c0,.7.01,1.39.02,2.09,0,.08-.03.14-.12.16Z"/>
    <path class="cls-19" d="m324.79,298.19c0-.17-.02-.33-.02-.5.04-.5,0-1-.02-1.5.02.03.06.07.06.1,0,.63.04,1.26-.02,1.9Z"/>
    <path class="cls-13" d="m315.58,300.02c-.02.07.02.15-.06.19-.03-.68-.04-1.35,0-2.02.1.43.02.87.04,1.3,0,.18.01.35.01.53Z"/>
    <path class="cls-13" d="m315.58,297.94s-.04.05-.06.08c-.02-.61-.03-1.22.05-1.83.01,0,.02,0,.03.02,0,.58-.02,1.16-.03,1.74Z"/>
    <path class="cls-13" d="m319.53,305.88c.44,0,.88,0,1.32,0-.44.09-.88.12-1.32,0Z"/>
    <path class="cls-13" d="m324.74,296.19c.02.5.06,1,.02,1.5-.13-.5-.04-1-.07-1.51.02,0,.03,0,.05,0Z"/>
    <path class="cls-6" d="m303.54,285.12c0,2.97,0,5.94,0,8.92,0,.09.03.19-.06.26,0-2.94,0-5.88,0-8.82,0-.12-.05-.25.06-.36Z"/>
    <path class="cls-19" d="m289.86,290.43s-.01-.02-.02-.03c.37.04.75-.08,1.12.07-.37-.01-.74-.02-1.11-.03Z"/>
    <path class="cls-13" d="m291.59,328.26c.22-.14.43,0,.63.02,1.51.16,3.03.26,4.55.24.03,0,.07.03.11.05-.99.02-1.98.02-2.97-.03-.78-.04-1.54-.22-2.32-.28Z"/>
    <path class="cls-13" d="m296.7,318.83c-.02.84-.03,1.69,0,2.53,0,.14,0,.27,0,.41-.02.87.04,1.74-.01,2.61-.1-.53-.04-1.06-.05-1.59-.02-1.59,0-3.19,0-4.78,0-.1-.03-.21.06-.3,0,.38,0,.75.01,1.13Z"/>
    <path class="cls-13" d="m295.49,323.94c-.08-.08-.05-.18-.05-.27,0-1.46,0-2.92,0-4.38,0-.09-.03-.19.05-.27,0,.75.03,1.5.02,2.25,0,.89.03,1.77-.02,2.66Z"/>
    <path class="cls-13" d="m302.42,318.26c-.73-.12-1.46-.28-2.2-.32-.08,0-.17,0-.21-.1.79.01,1.56.19,2.33.33.03,0,.05.06.08.09Z"/>
    <path class="cls-13" d="m293.79,324.67c.13-.18.33-.09.49-.12.28-.05.55-.09.84-.05-.44.13-.89.11-1.33.17Z"/>
    <path class="cls-13" d="m298.01,325.81c-.44-.11-.9-.03-1.33-.18.4-.05.8.03,1.19.07.07,0,.11.05.13.11Z"/>
    <path class="cls-13" d="m295.44,317.68c-.59,0-1.18.02-1.77.03.59-.09,1.18-.14,1.77-.03Z"/>
    <path class="cls-13" d="m299.39,328.39c.42-.11.84-.16,1.27-.17-.41.14-.83.19-1.27.17Z"/>
    <path class="cls-13" d="m291.02,318.01c-.39.11-.78.23-1.19.19.38-.14.78-.19,1.19-.19Z"/>
    <path class="cls-13" d="m297.13,317.7s0-.04,0-.06c.36-.02.72-.06,1.07.06-.36.08-.71-.04-1.07,0Z"/>
    <path class="cls-13" d="m299.59,317.82c-.32-.04-.65.08-.96-.1.32.07.65-.02.96.1Z"/>
    <path class="cls-13" d="m295.49,318.46c-.11-.25-.05-.51-.04-.77.1.25.05.51.04.77Z"/>
    <path class="cls-13" d="m295.56,325.64c-.1.08-.22.04-.33.05.1-.11.21-.06.33-.05Z"/>
    <path class="cls-13" d="m295.44,324.38s.03-.05.04-.08c.02.04,0,.06-.04.08Z"/>
    <path class="cls-13" d="m295.24,273.03c0-.23,0-.47,0-.7.14.42.1.87.1,1.3,0,1.7,0,3.39,0,5.09,0,.07.03.15-.05.2,0-1.7,0-3.41,0-5.11,0-.26.03-.52-.05-.77Z"/>
    <path class="cls-13" d="m298.4,268.3c-1.26-.12-2.53-.12-3.8-.09-.46.01-.91.1-1.37.04.58-.09,1.16-.11,1.74-.11,1.06,0,2.13-.04,3.19.07.09,0,.2-.03.24.09Z"/>
    <path class="cls-13" d="m293.35,270.9c.29-.07.57.05.85.08.98.11,1.96.09,2.93.03.06,0,.12.01.18.02-.8.17-1.62.15-2.43.09-.52-.04-1.04-.05-1.54-.21Z"/>
    <path class="cls-13" d="m298,278.95c.96-.09,1.93-.15,2.88-.31.13-.02.27-.07.4,0-1.08.23-2.18.34-3.28.36,0-.02,0-.03,0-.05Z"/>
    <path class="cls-13" d="m289.45,278.5s.04-.03.05-.03c.63.08,1.26.17,1.89.26.03,0,.05.06.07.09-.68-.08-1.36-.14-2.02-.32Z"/>
    <path class="cls-13" d="m291.71,278.83c.48-.06.94.1,1.41.08.06,0,.08.06.1.1-.51,0-1.03,0-1.51-.18Z"/>
    <path class="cls-13" d="m293.23,279.01s.06-.03.08-.04c.63.05,1.27.02,1.9.03-.29.13-.59.07-.89.07-.36,0-.73.01-1.09-.06Z"/>
    <path class="cls-13" d="m305.25,269.69c-.29-.05-.56-.12-.83-.24.3-.01.58.05.83.24Z"/>
    <path class="cls-13" d="m296.53,272.39c.03.38.06.77-.03,1.14-.03-.38-.06-.77.03-1.14Z"/>
    <path class="cls-13" d="m296.58,278.06c0,.33,0,.66,0,.98-.14-.37-.07-.74-.07-1.12.02,0,.04,0,.05,0,0,.05,0,.09.01.14Z"/>
    <path class="cls-13" d="m292.04,268.39c-.21.16-.46.1-.7.11.22-.09.46-.11.7-.11Z"/>
    <path class="cls-13" d="m296.87,279.01c.33,0,.67,0,1,0-.33.1-.67.07-1.01.06,0-.02,0-.03,0-.05Z"/>
    <path class="cls-13" d="m293.92,272.15c-.19-.04-.41.09-.58-.1.2-.02.4,0,.58.1Z"/>
    <path class="cls-13" d="m292.47,268.32c-.08.16-.19.13-.31.07.1-.07.2-.08.31-.07Z"/>
    <path class="cls-13" d="m293.23,272.04c-.13.07-.26.06-.38,0,.13-.04.26-.06.38,0Z"/>
    <path class="cls-13" d="m295.25,272.33c-.13-.03-.26-.06-.39-.1.14,0,.3-.09.39.1Z"/>
    <path class="cls-13" d="m294.68,272.23c-.07.05-.13.04-.2-.01.07,0,.13,0,.2.01Z"/>
    <path class="cls-13" d="m291.22,268.51s-.05.03-.08.05c.01-.04.03-.06.08-.05Z"/>
    <path class="cls-13" d="m296.69,272.31s-.05.01-.08.02c.02-.03.05-.04.08-.02Z"/>
    <path class="cls-13" d="m296.61,272.33s-.03.06-.07.04c.02-.01.04-.03.07-.04Z"/>
    <path class="cls-6" d="m263.14,305.53s0-.03.02-.03c.16-.03.11-.16.11-.25,0-4.57,0-9.14,0-13.7,0-.09.05-.22-.11-.26-.01-.01-.02-.03-.02-.05-.07-.14-.2-.08-.31-.08-1.08,0-2.16,0-3.23,0q-.42,0-.42-.43c0-1.44,0-2.89,0-4.33,0-.11.04-.23-.05-.33,0-.32,0-.63,0-.95.17-.05.11-.19.11-.29,0-.16.06-.23.23-.22.05,0,.1,0,.16,0,5.55,0,11.11,0,16.66,0,.32,0,.4.08.4.4-.02,1.71,0,3.42-.01,5.12,0,.37.11.72.06,1.09-1.21,0-2.43.02-3.64,0-.3,0-.39.07-.39.38.01,4.51,0,9.03.01,13.54,0,.12-.05.25.05.36.01.01.02.03.03.04,0,.02-.01.04-.02.05.03,0,.05.02.08.02,1.18,0,2.37,0,3.55,0,.27,0,.33.08.33.34,0,1.94-.01,3.88,0,5.82,0,.31-.07.4-.4.4-5.53-.01-11.07,0-16.6,0-.12,0-.25-.04-.37.04-.05,0-.09,0-.14,0-.04-.01-.08-.03-.11-.04,0-1.41-.01-2.82-.01-4.22,0-.56,0-1.13.01-1.69.17-.03.13-.18.12-.28-.04-.3.1-.36.37-.36,1.07.01,2.13,0,3.2,0,.11,0,.26.07.33-.09Z"/>
    <path class="cls-19" d="m259.38,312.21c.11-.08.24-.04.37-.04,5.53,0,11.07,0,16.6,0,.33,0,.4-.09.4-.4-.01-1.94-.01-3.88,0-5.82,0-.26-.07-.34-.33-.34-1.18.01-2.37,0-3.55,0-.03,0-.05-.01-.08-.02,0-.02.01-.04.02-.05,1.24,0,2.47,0,3.71,0,.18,0,.29,0,.29.24,0,2.11,0,4.21,0,6.32,0,.03,0,.06-.01.09-.16,0-.31.01-.47.01-5.54,0-11.08,0-16.61,0-.1,0-.21,0-.31-.01Z"/>
    <path class="cls-19" d="m259.13,312.17s.08.03.11.04c-.04,0-.07.01-.11.02,0-.02,0-.04,0-.06Z"/>
    <path class="cls-19" d="m259.13,286.06c.09.1.05.22.05.33,0,1.44,0,2.89,0,4.33q0,.43.42.43c1.08,0,2.16,0,3.23,0,.11,0,.24-.05.31.08-1.21,0-2.43-.01-3.64,0-.29,0-.39-.05-.39-.37.02-1.6.01-3.21.02-4.81Z"/>
    <path class="cls-19" d="m263.14,305.53c-.07.16-.22.09-.33.09-1.07,0-2.13.01-3.2,0-.28,0-.41.06-.37.36.01.1.06.24-.12.28,0-.23,0-.46,0-.7,1.22,0,2.43,0,3.65-.01.13,0,.25-.01.38-.02Z"/>
    <path class="cls-13" d="m324.77,298.34c0,.57,0,1.14,0,1.72,0,.06,0,.13-.06.17,0-.56,0-1.12,0-1.69,0-.07-.01-.15.07-.19Z"/>
  </g>
  <g>
    <path class="cls-1" d="m191.89,37.28c-6.41,0-12.83,0-19.24-.04-.62,0-.95.33-1.33.7-5.32,5.22-10.65,10.44-15.97,15.65-4.63,4.54-9.27,9.07-13.88,13.62-.53.52-1.04.78-1.8.77-2.52-.05-5.03-.01-7.55-.03-.29,0-.72.19-.87-.19-.15-.37.27-.54.49-.75,3.31-3.22,6.67-6.39,9.94-9.65,5.48-5.47,11.06-10.83,16.56-16.26,4.35-4.3,8.68-8.63,13.1-12.85,4.37-4.17,8.57-8.5,12.94-12.67,4.51-4.31,8.94-8.7,13.35-13.11.36-.36.78-.65,1.37-1.13,0,.59,0,.97,0,1.36,0,21.31-.01,42.62.03,63.94,0,1.15-.34,1.44-1.41,1.38-1.38-.08-2.76-.08-4.14,0-.99.06-1.3-.23-1.29-1.26.04-9.32.02-18.64.02-27.96,0-.44-.03-.89-.05-1.33.01-.2-.1-.23-.27-.19Zm-6.33-6.56c1.91,0,3.81-.04,5.72.02.76.02.95-.22.95-.96-.04-3.2,0-6.39-.03-9.59,0-.81.43-2-.26-2.32-.51-.24-1.11.97-1.68,1.52-3.54,3.38-7.04,6.8-10.55,10.22-.28.27-.83.52-.69.9.19.49.79.2,1.2.21,1.78.03,3.57.01,5.35.01Z"/>
    <path class="cls-21" d="m191.89,37.28c.16-.04.28,0,.27.19-.09-.06-.18-.13-.27-.19Z"/>
  </g>
  <g>
    <path class="cls-11" d="m81,531.79c-5.9,17.37-11.41,34.7-17.77,51.71-2.45,6.54-7.15,11.49-14.75,13.84-4.83,1.49-5.33,0-5.38-3.55-.08-5.4-1.38-11.05,4.91-14.74,1.81-1.06,2.23-4.62,3.1-7.1,3.27-9.26,6.9-18.43,9.6-27.85,3.92-13.68,3.89-13.62,20.29-12.32Z"/>
    <path class="cls-17" d="m35.65,589.89c-.68,2.32,1.28,6.18-1.45,6.59-3.33.51-7.07-.61-10.27-2.83-7.58-5.24-9.22-13.72-11.99-21.43-4.1-11.42-7.28-23.16-11.2-34.65-1.49-4.37-1.02-6.16,4.07-6.49,6.31-.42,10.4.64,12.32,7.79,2.96,11,7.24,21.64,10.78,32.49,1.36,4.16,1.81,8.5,6.37,11.04,2.84,1.58.58,5.04,1.36,7.49Z"/>
  </g>
  <path class="cls-10" d="m187.34,566.64h-7.82c-.23.06-.11.03-.26.65-.38,1.61-1.39,2.94-3.01,3.6-1.86.76-4.53.75-6.34-.05-3.99-1.78-4.88-6.87-3.48-10.35.7-1.73,2.01-3.07,3.74-3.76,1.83-.73,4.61-.66,6.32.17,1.59.77,2.43,2.11,2.76,3.77.09.46.06.39.55.39,2.47-.03,5.02.07,7.48-.01.12-1.68-.82-4.06-1.53-5.18-.88-1.39-2.05-2.54-3.43-3.41-3.26-2.07-6.66-2.67-11.26-2.38-4.26.27-7.47,1.8-9.68,3.95-4.85,4.71-5.37,14.51.02,19.57l.88.8c2.33,1.97,5.72,2.93,8.8,3.17,4.17.33,8.29-.37,11.19-2.28,2.35-1.55,4.82-4.48,5.05-8.67h0Zm-60.91-7.97h10.03s.01,17.98.01,17.98h8.96s.02-17.98.02-17.98l10.05-.02v-7.22l-29.04-.02-.03,7.26Zm65.71,17.98l22.81.02c.08-.57.07-6.62-.02-6.93h-14.11v-18.33l-8.66-.02c-.13.67-.04,19.89-.04,22.12,0,.82-.09,2.43.04,3.16h0Z"/>
</svg>