<?xml version="1.0" encoding="UTF-8"?>
<svg id="Layer_1" data-name="Layer 1" xmlns="http://www.w3.org/2000/svg" viewBox="0 0 109.92 109.92">
  <path d="m80.23,27.56c.76.5,1.48.82,2.01,1.34,3.95,3.9,7.86,7.84,11.8,11.75,1.18,1.17,1.13,2.31.08,3.49-.47.53-.96,1.03-1.46,1.53-11.22,11.23-22.45,22.46-33.68,33.69-2.83,2.83-3.14,2.82-6-.02-3.72-3.69-7.41-7.41-11.19-11.04-1.11-1.06-1.14-1.72-.03-2.82,12.2-12.13,24.35-24.31,36.52-36.47.53-.53,1.2-.91,1.94-1.46Z"/>
  <path d="m51.98,47.52c-5,5.15-9.97,10.28-15.05,15.52-.4-.32-.84-.61-1.21-.98-5.66-5.61-11.32-11.22-16.97-16.85-2.43-2.42-2.43-3.01-.09-5.36,3.58-3.6,7.19-7.17,10.76-10.78,1.19-1.21,2.45-1.83,3.84-.44,6.33,6.35,12.63,12.74,18.72,18.9Z"/>
</svg>