<?xml version="1.0" encoding="UTF-8"?>
<svg id="Layer_1" data-name="Layer 1" xmlns="http://www.w3.org/2000/svg" viewBox="0 0 109.92 109.92">
  <defs>
    <style>
      .cls-1 {
        fill: #8cbac9;
      }

      .cls-2 {
        fill: #00bffe;
      }
    </style>
  </defs>
  <path class="cls-2" d="m78.08,48.26c-.07.95-.04,1.92.46,2.72.64,1.03,1.68,1.36,2.88,1.18,2.48,0,4.95,0,7.43,0,.75.05,1.51.09,2.26.16.59.05,1.63,1.17,1.81,1.91.34,1.36-.45,2.84-2.1,3.29-3.45,0-6.91,0-10.36,0-.11,0-.21.07-.32.11-1.31.35-1.89,1.3-2.09,2.56-.03.19.05.36.12.52-.13.1-.12.24-.12.38,0,1.56.01,3.12.02,4.68-.11,1.45.52,2.47,1.79,3.14.19.1.36.08.54.08,3.83,0,7.66-.01,11.49.02.82,0,1.56.27,2.25.83,1.25,1.02.96,3.81-.88,4.38-.28.09-.54.09-.81.09-6.03,0-12.05,0-18.08,0-1.17,0-2.31-1.1-2.34-2.27-.01-.65,0-1.31,0-1.96,0-10.67.01-21.34-.02-32.01,0-1.43,1.15-2.71,2.69-2.7,4.46.02,8.92.03,13.38,0,1.58-.01,3.16.17,4.74.16,1,0,1.98,1.2,2.07,2.2.13,1.51-.55,2.49-2,2.98-3.28,0-6.56,0-9.84,0-.14,0-.28,0-.38.12-.74,0-1.49,0-2.23.01-1.01,0-2.13,1.07-2.25,2.07-.08.62-.18,1.23-.11,1.85,0,1.17,0,2.33,0,3.5Z"/>
  <path class="cls-2" d="m18.49,40.81c-1.57.1-2.72-.95-3.06-2.34-.26-1.05.52-2.47,1.63-2.83.64-.21,1.35-.25,2.03-.26,6.66-.02,13.31-.02,19.97,0,1.09,0,1.9.56,2.42,1.53.48.9.36,1.78-.16,2.61-2.47,3.9-4.97,7.78-7.45,11.67-3.2,5.02-6.4,10.03-9.58,15.06-.35.56-.33,1.24,0,1.8.31.53.78.94,1.5.93,4.06,0,8.13,0,12.19.02.6,0,1.23-.01,1.78.16,1.18.37,1.83,1.26,1.99,2.47.12.84-.67,2.03-1.57,2.52-.26.14-.52.17-.8.17-7.66,0-15.32-.02-22.98.02-.98,0-2.12-1.23-2.25-2.26-.17-1.28.63-2.14,1.21-3.07,3.38-5.34,6.8-10.66,10.2-15.99,1.95-3.06,3.88-6.13,5.82-9.2.43-.69.59-1.38.16-2.12-.41-.69-1.03-.95-1.82-.87-.18.02-.37,0-.56-.01-.17-.19-.39-.12-.59-.12-3.18,0-6.37,0-9.55,0-.18,0-.38-.07-.52.11Z"/>
  <path class="cls-2" d="m46.8,40.81c-1.46.1-2.73-.86-3.06-2.3-.28-1.2.6-2.57,1.94-3.06.23-.09.46-.07.69-.07,6.65,0,13.3-.02,19.95.02,1.02,0,2.07-.04,2.95.87,1.13,1.17.91,3.65-1.01,4.31-.7.24-1.39.3-2.11.24-.8-.2-1.6-.18-2.39.01-.4,0-.79.01-1.19.01-1.49,0-2.56,1.04-2.56,2.55-.01,8.44-.02,16.88-.01,25.33,0,1.11-.01,2.23-.16,3.33-.15,1.08-1.23,2.19-2.5,2.3-1.55.13-2.64-.43-3.3-1.83-.06-.12-.07-.26-.1-.4,0-7.84,0-15.67,0-23.51,0-.19,0-.37-.11-.54,0-1.54-.04-3.07.01-4.61.05-1.35-1.32-2.75-2.61-2.62-.48.05-.98,0-1.47,0-.98-.19-1.97-.2-2.95-.01Z"/>
  <path class="cls-1" d="m53.81,48.06c.11.16.11.35.11.54,0,7.84,0,15.67,0,23.51-.19-.17-.12-.39-.13-.59,0-7.7-.02-15.41-.02-23.11,0-.12.02-.23.03-.35Z"/>
  <path class="cls-1" d="m18.49,40.81c.14-.18.34-.11.52-.11,3.18,0,6.37,0,9.55,0,.2,0,.42-.07.59.12-3.55,0-7.11,0-10.66-.01Z"/>
  <path class="cls-1" d="m80.15,57.64c.11-.04.21-.11.32-.11,3.45,0,6.91,0,10.36,0-.11.03-.22.09-.33.09-3.45,0-6.9.01-10.35.02Z"/>
  <path class="cls-1" d="m82.68,40.83c.1-.12.25-.12.38-.12,3.28,0,6.56,0,9.84,0-.11.04-.21.11-.32.11-3.3,0-6.61,0-9.91,0Z"/>
  <path class="cls-1" d="m88.85,52.17c-2.48,0-4.95,0-7.43,0,.1-.13.24-.12.38-.12,2.22,0,4.44,0,6.66.01.14,0,.28-.01.39.11Z"/>
  <path class="cls-1" d="m78.08,65.78c0-1.56-.02-3.12-.02-4.68,0-.14-.01-.28.12-.38,0,1.56.01,3.12.02,4.67,0,.14.02.28-.12.38Z"/>
  <path class="cls-1" d="m78.08,48.26c0-1.17,0-2.33,0-3.5.17,1.17.17,2.33,0,3.5Z"/>
  <path class="cls-1" d="m46.8,40.81c.98-.19,1.97-.18,2.95.01-.98,0-1.97,0-2.95-.01Z"/>
  <path class="cls-1" d="m63.76,40.82c.8-.19,1.6-.21,2.39-.01-.8,0-1.6,0-2.39.01Z"/>
</svg>